<?xml version="1.0" encoding="UTF-8"?>
<svg width="862px" height="739px" viewBox="0 0 862 739" version="1.1" xmlns="http://www.w3.org/2000/svg" xmlns:xlink="http://www.w3.org/1999/xlink">
    <!-- Generator: sketchtool 50 (54983) - http://www.bohemiancoding.com/sketch -->
    <title>3690FF59-9919-4A6C-AD77-7C498452CD85</title>
    <desc>Created with sketchtool.</desc>
    <defs></defs>
    <g id="Public" stroke="none" stroke-width="1" fill="none" fill-rule="evenodd">
        <g id="Public/Homepage-Copy" transform="translate(0.000000, -2248.000000)" fill="#F9F7EF" fill-rule="nonzero">
            <g id="Stacked-Group" transform="translate(0.000000, -208.000000)">
                <g id="Andrew" transform="translate(0.000000, 2456.000000)">
                    <g id="Edyn_Leaves">
                        <g transform="translate(-502.000000, -101.000000)" id="Shape">
                            <path d="M606.872926,731.460827 C608.859455,726.566154 608.13464,721.127629 605.369607,716.564706 C602.604574,712.001783 592.725621,736.453393 595.479916,741 C600.601939,739.727385 604.886398,736.377253 606.872926,731.460827 Z"></path>
                            <path d="M616.872926,401.460827 C618.859455,396.566154 618.13464,391.127629 615.369607,386.564706 C612.604574,382.001783 602.725621,406.453393 605.479916,411 C610.601939,409.727385 614.886398,406.377253 616.872926,401.460827 Z"></path>
                            <path d="M549.782664,584.239187 C545.525048,580.975206 540.015517,580.25169 534.814828,581.736801 C529.61414,583.221913 550.808463,599.384061 555.992606,597.904389 C556.141512,592.56778 554.04028,587.492288 549.782664,584.239187 Z"></path>
                            <path d="M531.504258,789.262741 C536.632059,790.858764 542.080349,789.794749 546.489816,786.735705 C550.899283,783.676662 525.398416,775.632707 521,778.675791 C522.668746,783.634101 526.381982,787.645438 531.504258,789.262741 Z"></path>
                            <path d="M645.997155,559.778693 C646.097914,554.406504 643.515312,549.546215 639.373604,546.276666 C635.231896,543.007117 634.728103,569.730451 638.843295,573 C643.128187,569.901084 645.891093,565.150881 645.997155,559.778693 Z"></path>
                            <path d="M881.782664,470.239187 C877.525048,466.975206 872.015517,466.25169 866.814828,467.736801 C861.61414,469.221913 882.808463,485.384061 887.992606,483.904389 C888.141512,478.56778 886.04028,473.492288 881.782664,470.239187 Z"></path>
                            <path d="M977.997155,445.778693 C978.097914,440.406504 975.515312,435.546215 971.373604,432.276666 C967.231896,429.007117 966.728103,455.730451 970.843295,459 C975.128187,455.901084 977.891093,451.150881 977.997155,445.778693 Z"></path>
                            <path d="M738.13324,663.435131 C742.952113,661.100188 746.038172,656.56574 746.973341,651.327016 C747.908511,646.088293 723.935169,657.697997 723,662.931303 C727.780366,665.401684 733.314368,665.770074 738.13324,663.435131 Z"></path>
                            <path d="M658.11072,293.280781 C653.889108,296.534809 651.824964,301.616517 652.011615,306.942276 C652.198267,312.268036 673.174575,296.019588 672.998903,290.704675 C667.811096,289.251209 662.332332,290.015905 658.11072,293.280781 Z"></path>
                            <path d="M924.253098,678.170991 C920.032033,681.413835 917.910649,686.519941 918.002883,691.911856 C918.095117,697.303772 939.091931,681.182989 938.999697,675.79657 C933.905121,674.241104 928.479588,674.928147 924.253098,678.170991 Z"></path>
                            <path d="M912.800198,305.261305 C907.603168,306.253307 903.445544,309.939495 901.144775,314.927687 C898.844007,319.915878 924.693818,314.955869 927,309.97895 C923.140122,306.157488 917.997228,304.269303 912.800198,305.261305 Z"></path>
                            <path d="M810.13758,784.93081 C807.455863,789.61669 807.380775,795.246448 809.445697,800.289773 C811.510619,805.333098 824.844116,782.03774 822.784557,777 C817.539119,777.508242 812.819297,780.250515 810.13758,784.93081 Z"></path>
                            <path d="M501.046909,696.400743 C497.062795,700.159454 495.453393,705.568194 496.16243,711.016088 C496.871468,716.463982 516.685118,697.75992 515.981708,692.31762 C510.551384,691.327602 505.031023,692.642032 501.046909,696.400743 Z"></path>
                            <path d="M1142.17224,677.995065 C1147.54462,678.127788 1152.4216,675.574207 1155.71878,671.443883 C1159.01597,667.31356 1132.29719,666.665874 1129,670.774962 C1132.066,675.064553 1136.79986,677.862343 1142.17224,677.995065 Z"></path>
                            <path d="M863.172239,594.995065 C868.544619,595.127788 873.421595,592.574207 876.718783,588.443883 C880.015972,584.31356 853.297188,583.665874 850,587.774962 C853.066,592.064553 857.799859,594.862343 863.172239,594.995065 Z"></path>
                            <path d="M1087.44924,789.999216 C1092.82452,789.941248 1097.60501,787.237808 1100.74426,783.021917 C1103.88352,778.806027 1077.14476,779.095869 1074,783.30122 C1077.23288,787.443333 1082.08496,790.051915 1087.44924,789.999216 Z"></path>
                            <path d="M1202.90678,782.8047 C1202.31996,777.41204 1199.06777,772.902422 1194.3732,770.192208 C1189.67863,767.481994 1192.63468,794.284232 1197.29634,797 C1201.27246,793.323439 1203.49361,788.197359 1202.90678,782.8047 Z"></path>
                            <path d="M1002.0455,800.978393 C1007.06067,799.059497 1010.55259,794.74198 1011.94386,789.514642 C1013.33513,784.287303 988.418765,793.854215 987,799.070525 C991.531248,802.020552 997.030335,802.902804 1002.0455,800.978393 Z"></path>
                            <path d="M496.320614,141.932915 C500.745317,138.717935 503.022324,133.58954 502.999835,128.121849 C502.977346,122.654157 480.983143,138.662312 481.00001,144.113317 C486.268049,145.765305 491.890289,145.147896 496.320614,141.932915 Z"></path>
                            <path d="M620.259406,229.082193 C624.953245,231.681853 630.474121,231.548537 635.33775,229.226619 C640.201379,226.904701 616.84172,213.973063 612,216.272762 C612.701064,221.699828 615.571043,226.482534 620.259406,229.082193 Z"></path>
                            <path d="M830.098019,105.773703 C835.29771,104.838023 839.4823,101.169472 841.847268,96.1544557 C844.212237,91.1394389 818.364968,95.7950176 816,100.798624 C819.795828,104.683978 824.914527,106.709383 830.098019,105.773703 Z"></path>
                            <path d="M1004.07495,188.374572 C1000.08572,192.133021 998.464217,197.546309 999.154337,203.010083 C999.844458,208.473858 1019.66718,189.788198 1018.98267,184.330033 C1013.5627,183.3203 1008.05857,184.616124 1004.07495,188.374572 Z"></path>
                            <path d="M1060.73832,570.55916 C1057.24385,574.60443 1056.25098,579.983662 1057.54338,585.156836 C1058.83578,590.330009 1076.21384,570.217536 1074.93253,565.049785 C1069.49669,564.66478 1064.23279,566.513891 1060.73832,570.55916 Z"></path>
                            <path d="M1091.09564,151.674829 C1092.92751,146.551185 1091.89039,141.038123 1088.76212,136.531986 C1085.63384,132.02585 1076.51956,157.499427 1079.6422,162 C1084.94055,160.425634 1089.26377,156.787346 1091.09564,151.674829 Z"></path>
                            <path d="M1175.96786,231.126232 C1176.30646,225.760785 1173.94687,220.780944 1169.95778,217.310481 C1165.96869,213.840017 1164.29687,240.535045 1168.27538,244 C1172.66126,241.107947 1175.62927,236.469644 1175.96786,231.126232 Z"></path>
                            <path d="M1260.35103,726.72035 C1259.22973,732.065099 1260.85829,737.443463 1264.32901,741.566875 C1267.79973,745.690287 1273.36889,719.11781 1269.90885,715 C1265.10325,717.212972 1261.47234,721.381204 1260.35103,726.72035 Z"></path>
                            <path d="M1044.4068,654.580976 C1045.61594,659.784555 1049.34011,663.799527 1054.20355,665.880958 C1059.067,667.96239 1053.0374,642.086909 1048.17933,640 C1044.75073,644.091656 1043.19765,649.377397 1044.4068,654.580976 Z"></path>
                            <path d="M1198.4649,585.363966 C1195.54342,589.842126 1195.30414,595.31483 1197.29631,600.28211 C1199.28847,605.24939 1213.79568,582.989019 1211.81464,578 C1206.36122,578.364122 1201.38637,580.89124 1198.4649,585.363966 Z"></path>
                            <path d="M1237.91766,568.351361 C1234.39659,572.378322 1233.29354,577.82851 1234.42919,583.118722 C1235.56484,588.408935 1253.07781,568.373427 1251.94759,563.088731 C1246.63882,562.570191 1241.43872,564.324401 1237.91766,568.351361 Z"></path>
                            <path d="M1363.58102,713.406742 C1362.36377,708.200735 1358.64769,704.18937 1353.78943,702.117927 C1348.93117,700.046485 1354.98522,725.923077 1359.83276,728 C1363.25392,723.900955 1364.81435,718.607268 1363.58102,713.406742 Z"></path>
                            <path d="M1270.91718,831.142411 C1267.36287,827.153372 1262.19247,825.489881 1256.95765,826.135248 C1251.72283,826.780616 1269.41384,846.603417 1274.64329,845.985867 C1275.67415,840.600385 1274.48222,835.153705 1270.91718,831.142411 Z"></path>
                        </g>
                    </g>
                </g>
            </g>
        </g>
    </g>
</svg>