<?xml version="1.0" encoding="UTF-8"?>
<svg width="199px" height="360px" viewBox="0 0 199 360" version="1.1" xmlns="http://www.w3.org/2000/svg" xmlns:xlink="http://www.w3.org/1999/xlink">
    <!-- Generator: Sketch 49.1 (51147) - http://www.bohemiancoding.com/sketch -->
    <title>Edyn_Leaves Copy</title>
    <desc>Created with Sketch.</desc>
    <defs></defs>
    <g id="Branding" stroke="none" stroke-width="1" fill="none" fill-rule="evenodd" opacity="0.451313406">
        <g id="Public/Our-Carers" transform="translate(-133.000000, -2363.000000)" fill="#FFFFFF" fill-rule="nonzero">
            <g id="Get-to-know-our-carers" transform="translate(0.000000, 2268.000000)">
                <g id="Edyn_Leaves-Copy" transform="translate(-569.850471, -32.846116) rotate(-39.000000) translate(569.850471, 32.846116) translate(-1458.350471, -907.846116)">
                    <g id="Edyn_Leaves" transform="translate(-0.000000, -0.000000)">
                        <path d="M1500.23448,1539.27808 C1498.03867,1533.3092 1492.64245,1528.97581 1485.94023,1527.04414 C1479.23801,1525.11246 1490.15244,1554.79587 1496.84749,1556.74042 C1500.95206,1551.60217 1502.45181,1545.24696 1500.23448,1539.27808 Z" id="Shape"></path>
                        <path d="M1420.00116,1514.43037 C1413.06947,1514.14421 1406.72015,1517.24536 1402.36654,1522.34961 C1398.01293,1527.45385 1432.46541,1528.85802 1436.81903,1523.76708 C1432.99097,1518.31678 1426.96125,1514.70987 1420.00116,1514.43037 Z" id="Shape"></path>
                        <path d="M1254.87304,1540.52907 C1249.27725,1544.54584 1246.63089,1550.6784 1247.02267,1557.06486 C1247.41445,1563.45132 1275.23077,1543.47166 1274.84639,1537.09171 C1267.82393,1535.47069 1260.46883,1536.51231 1254.87304,1540.52907 Z" id="Shape"></path>
                        <path d="M1251.37036,1629.19439 C1245.22876,1626.33379 1238.18377,1626.80164 1232.1052,1629.86276 C1226.02662,1632.92387 1256.61558,1647.16005 1262.65914,1644.10562 C1261.47564,1637.64921 1257.51196,1632.06168 1251.37036,1629.19439 Z" id="Shape"></path>
                        <path d="M1160.47796,1704.58047 C1157.20968,1710.10549 1157.5206,1716.54391 1160.66595,1722.16474 C1163.8113,1727.78558 1180.05866,1700.29458 1176.92054,1694.69929 C1169.89954,1695.5999 1163.74623,1699.06822 1160.47796,1704.58047 Z" id="Shape"></path>
                    </g>
                </g>
            </g>
        </g>
    </g>
</svg>