<?xml version="1.0" encoding="UTF-8"?>
<svg width="552px" height="124px" viewBox="0 0 552 124" version="1.1" xmlns="http://www.w3.org/2000/svg" xmlns:xlink="http://www.w3.org/1999/xlink">
    <!-- Generator: Sketch 49.3 (51167) - http://www.bohemiancoding.com/sketch -->
    <title>Group</title>
    <desc>Created with Sketch.</desc>
    <defs></defs>
    <g id="Page-1" stroke="none" stroke-width="1" fill="none" fill-rule="evenodd">
        <g transform="translate(-318.000000, -350.000000)" id="Group-60">
            <g transform="translate(0.000000, 0.890000)">
                <g id="Group-58">
                    <g id="Group" transform="translate(317.000000, 349.000000)">
                        <path d="M15.8711,59.6173 C17.0261,55.9763 19.0541,52.9323 21.9191,50.5483 C25.0781,47.9193 28.8931,46.5863 33.2661,46.5863 C37.7581,46.5863 41.6581,47.9503 44.8571,50.6393 C47.7491,53.0683 49.6441,56.0833 50.5011,59.6173 L15.8711,59.6173 Z M56.2001,43.1603 C53.4081,40.1993 49.9781,37.7973 45.9961,36.0193 C42.0081,34.2403 37.6811,33.3373 33.1421,33.3373 C27.0631,33.3373 21.4771,34.8703 16.5371,37.8963 C11.6141,40.9143 7.7451,44.9763 5.0471,49.9703 C2.3531,54.9493 0.9891,60.4233 0.9891,66.2423 C0.9891,75.4053 4.2141,83.2413 10.5721,89.5353 C16.9301,95.8293 24.7751,99.0223 33.8901,99.0223 C39.2741,99.0223 44.3731,97.8393 49.0361,95.5053 C53.7111,93.1703 57.5611,89.8963 60.4801,85.7753 L61.0341,84.9943 L50.7031,77.0953 L50.1061,77.9283 C48.3351,80.4053 45.9741,82.3613 43.0971,83.7413 C40.2011,85.1313 37.1041,85.8353 33.8901,85.8353 C29.0671,85.8353 24.9001,84.3483 21.4921,81.4133 C18.3751,78.7313 16.3091,75.3333 15.3431,71.3013 L64.8881,71.3013 L64.9771,70.4083 C65.1441,68.7273 65.2291,67.2833 65.2291,66.1163 C65.2291,61.7873 64.4151,57.5803 62.8101,53.6083 C61.2131,49.6363 58.9881,46.1203 56.2001,43.1603 Z" id="Fill-4" fill="#1D4F45"></path>
                        <path d="M104.9528,85.4611 C99.5798,85.4611 95.0208,83.6021 91.3918,79.9351 C87.7638,76.2671 85.9218,71.6601 85.9218,66.2421 C85.9218,60.8631 87.7638,56.2561 91.3958,52.5451 C95.0708,48.7871 99.5058,46.9621 104.9528,46.9621 C110.3218,46.9621 114.9038,48.8611 118.5708,52.6061 C122.2468,56.3591 124.1078,60.9471 124.1078,66.2421 C124.1078,71.5381 122.2658,76.1141 118.6328,79.8481 C115.0048,83.5731 110.4038,85.4611 104.9528,85.4611 Z M124.3598,40.7971 C119.2148,35.8451 112.6978,33.3371 104.9528,33.3371 C100.4598,33.3371 96.1218,34.1941 92.0588,35.8841 C87.9958,37.5701 84.4408,39.8931 81.4838,42.7861 C78.5258,45.6781 76.1458,49.2081 74.4118,53.2751 C72.6798,57.3381 71.7988,61.7011 71.7988,66.2421 C71.7988,70.7361 72.6678,75.0641 74.3778,79.1121 C76.0938,83.1621 78.4518,86.6781 81.3828,89.5681 C84.3248,92.4621 87.8728,94.7841 91.9308,96.4731 C95.9978,98.1631 100.3788,99.0221 104.9528,99.0221 C112.8228,99.0221 119.3398,96.5471 124.3598,91.6581 L124.3598,97.3321 L138.6068,97.3321 L138.6068,0.4881 L124.3598,0.4881 L124.3598,40.7971 Z" id="Fill-6" fill="#1D4F45"></path>
                        <polygon id="Fill-8" fill="#1D4F45" points="177.3026 78.3319 160.8616 35.1029 160.6216 34.4629 144.9516 34.4629 170.2626 97.4869 160.8986 123.9459 175.1416 123.9459 207.4676 34.4629 193.0266 34.4629"></polygon>
                        <path d="M245.7172,33.3372 C241.5412,33.3372 237.9672,34.0322 235.0912,35.4052 C232.9202,36.4402 230.8812,37.8482 229.0052,39.5982 L229.0052,34.4632 L214.7542,34.4632 L214.7542,97.3312 L229.0052,97.3312 L229.0052,65.3022 C229.0052,52.9612 233.7532,46.9622 243.5272,46.9622 C252.8822,46.9622 257.4292,52.6752 257.4292,64.4282 L257.4292,97.3312 L271.8042,97.3312 L271.8042,61.8612 C271.8042,52.4542 269.4002,45.2712 264.6582,40.5132 C259.9212,35.7502 253.5482,33.3372 245.7172,33.3372" id="Fill-10" fill="#1D4F45"></path>
                        <path d="M349.5318,76.3742 C347.8728,79.1752 345.6128,81.4132 342.8178,83.0282 C340.0188,84.6432 336.8828,85.4612 333.4898,85.4612 C328.2018,85.4612 323.6628,83.5712 319.9918,79.8432 C316.3208,76.1122 314.4598,71.5792 314.4598,66.3662 C314.4598,61.1482 316.3048,56.5572 319.9448,52.7202 C323.6208,48.8452 327.9658,46.9622 333.2388,46.9622 C336.5138,46.9622 339.6038,47.7702 342.4178,49.3652 C345.2438,50.9682 347.5168,53.1182 349.1678,55.7562 L349.6748,56.5642 L361.7858,49.6282 L361.2318,48.7522 C358.2818,44.0872 354.2768,40.3112 349.3388,37.5332 C344.3918,34.7482 338.9758,33.3372 333.2388,33.3372 C327.2448,33.3372 321.6578,34.8352 316.6228,37.7932 C311.5908,40.7472 307.5788,44.7852 304.6898,49.7902 C301.8028,54.8002 300.3368,60.3362 300.3368,66.2422 C300.3368,72.1532 301.8248,77.6882 304.7558,82.6992 C307.6868,87.7052 311.7228,91.7222 316.7538,94.6312 C321.7868,97.5442 327.3338,99.0222 333.2388,99.0222 C339.0568,99.0222 344.5388,97.5992 349.5248,94.7942 C354.5058,91.9952 358.5288,88.1642 361.4878,83.4122 L362.0268,82.5462 L350.0318,75.5252 L349.5318,76.3742 Z" id="Fill-12" fill="#FFFFFF"></path>
                        <path d="M400.3784,85.4611 C395.0054,85.4611 390.4464,83.6021 386.8174,79.9351 C383.1894,76.2671 381.3474,71.6601 381.3474,66.2421 C381.3474,60.8631 383.1894,56.2561 386.8214,52.5451 C390.4964,48.7871 394.9314,46.9621 400.3784,46.9621 C405.7474,46.9621 410.3294,48.8611 413.9964,52.6061 C417.6724,56.3591 419.5334,60.9471 419.5334,66.2421 C419.5334,71.5381 417.6914,76.1141 414.0584,79.8481 C410.4304,83.5731 405.8294,85.4611 400.3784,85.4611 Z M419.7854,40.7971 C414.6404,35.8451 408.1234,33.3371 400.3784,33.3371 C395.8854,33.3371 391.5474,34.1941 387.4844,35.8841 C383.4214,37.5701 379.8664,39.8931 376.9094,42.7861 C373.9514,45.6781 371.5714,49.2081 369.8374,53.2751 C368.1054,57.3381 367.2244,61.7011 367.2244,66.2421 C367.2244,70.7361 368.0934,75.0641 369.8034,79.1121 C371.5194,83.1621 373.8774,86.6781 376.8084,89.5681 C379.7504,92.4621 383.2984,94.7841 387.3564,96.4731 C391.4234,98.1631 395.8044,99.0221 400.3784,99.0221 C408.2484,99.0221 414.7654,96.5471 419.7854,91.6581 L419.7854,97.3321 L434.0324,97.3321 L434.0324,34.4631 L419.7854,34.4631 L419.7854,40.7971 Z" id="Fill-14" fill="#FFFFFF"></path>
                        <path d="M503.3547,59.6173 C504.5097,55.9763 506.5377,52.9323 509.4017,50.5483 C512.5617,47.9193 516.3757,46.5863 520.7497,46.5863 C525.2417,46.5863 529.1417,47.9503 532.3397,50.6393 C535.2327,53.0683 537.1277,56.0833 537.9847,59.6173 L503.3547,59.6173 Z M550.2937,53.6083 C548.6967,49.6363 546.4717,46.1203 543.6837,43.1603 C540.8917,40.1993 537.4617,37.7973 533.4797,36.0193 C529.4917,34.2403 525.1647,33.3373 520.6247,33.3373 C514.5457,33.3373 508.9607,34.8703 504.0207,37.8963 C499.0977,40.9143 495.2287,44.9763 492.5307,49.9703 C489.8367,54.9493 488.4727,60.4233 488.4727,66.2423 C488.4727,75.4053 491.6977,83.2413 498.0547,89.5353 C504.4127,95.8293 512.2587,99.0223 521.3727,99.0223 C526.7577,99.0223 531.8567,97.8393 536.5197,95.5053 C541.1947,93.1703 545.0447,89.8963 547.9637,85.7753 L548.5177,84.9943 L538.1867,77.0953 L537.5897,77.9283 C535.8177,80.4053 533.4567,82.3613 530.5807,83.7413 C527.6847,85.1313 524.5877,85.8353 521.3727,85.8353 C516.5507,85.8353 512.3827,84.3483 508.9757,81.4133 C505.8587,78.7313 503.7927,75.3333 502.8267,71.3013 L552.3707,71.3013 L552.4607,70.4083 C552.6277,68.7273 552.7127,67.2833 552.7127,66.1163 C552.7127,61.7873 551.8977,57.5803 550.2937,53.6083 Z" id="Fill-16" fill="#FFFFFF"></path>
                        <polygon id="Fill-18" fill="#FFFFFF" points="445.678 97.332 459.929 97.332 459.929 34.464 445.678 34.464"></polygon>
                        <path d="M473.2086,35.5614 C467.5516,37.5814 463.5036,42.2544 461.5156,48.0794 C466.7436,51.3274 472.8356,52.3794 478.4926,50.3594 C484.1486,48.3404 488.1966,43.6674 490.1846,37.8434 C484.9566,34.5944 478.8656,33.5414 473.2086,35.5614" id="Fill-20" fill="#FFFFFF"></path>
                    </g>
                </g>
            </g>
        </g>
    </g>
</svg>