<?xml version="1.0" encoding="UTF-8"?>
<svg width="1317px" height="439px" viewBox="0 0 1317 439" version="1.1" xmlns="http://www.w3.org/2000/svg" xmlns:xlink="http://www.w3.org/1999/xlink">
    <!-- Generator: Sketch 49.1 (51147) - http://www.bohemiancoding.com/sketch -->
    <title>Edyn_Leaves</title>
    <desc>Created with Sketch.</desc>
    <defs></defs>
    <g id="Branding" stroke="none" stroke-width="1" fill="none" fill-rule="evenodd" opacity="0.451313406">
        <g id="Public/Homepage-Copy-4" transform="translate(-11.000000, -2110.000000)" fill="#FFFFFF" fill-rule="nonzero">
            <g id="Your-care-hub" transform="translate(-78.000000, 1663.000000)">
                <g id="Edyn_Leaves-Copy" transform="translate(722.400548, 713.860545) rotate(-39.000000) translate(-722.400548, -713.860545) translate(182.400548, 232.860545)">
                    <g id="Edyn_Leaves" transform="translate(-0.000000, 0.000000)">
                        <path d="M521.728562,139.520695 C524.369655,133.700869 523.406013,127.234395 519.729897,121.809024 C516.053781,116.383653 502.919697,145.456918 506.581537,150.86289 C513.391274,149.349735 519.087469,145.366387 521.728562,139.520695 Z" id="Shape"></path>
                        <path d="M896.478596,812.747332 C899.273158,818.42839 905.099354,822.215762 911.974408,823.547655 C918.849462,824.879547 904.955674,796.789872 898.087804,795.43273 C894.531742,800.772924 893.705586,807.097836 896.478596,812.747332 Z" id="Shape"></path>
                        <path d="M13.4205399,250.747247 C6.85557881,253.203298 2.34034447,258.479504 0.626160187,264.795063 C-1.08802409,271.110623 31.6857205,258.896569 33.3999048,252.59425 C27.294491,249.178287 20.0438562,248.284576 13.4205399,250.747247 Z" id="Shape"></path>
                        <path d="M325.22738,75.6023724 C318.662419,78.0584233 314.147185,83.3346297 312.433001,89.6501891 C310.718816,95.9657485 343.492561,83.7516949 345.206745,77.4493757 C339.101331,74.0334127 331.850697,73.1397015 325.22738,75.6023724 Z" id="Shape"></path>
                        <path d="M159.430931,197.681107 C162.78165,192.180152 162.747035,185.641281 159.964,179.828951 C157.180965,174.016621 140.524294,201.378683 143.300406,207.184527 C150.050304,206.477446 156.080212,203.182063 159.430931,197.681107 Z" id="Shape"></path>
                        <path d="M675.926793,444.756119 C682.173325,442.077256 686.173672,436.874917 687.385898,430.864569 C688.598125,424.85422 657.522344,438.173948 656.310118,444.178081 C662.506734,447.012331 669.680262,447.434982 675.926793,444.756119 Z" id="Shape"></path>
                        <path d="M1018.28681,606.43814 C1024.87447,604.079352 1029.46128,598.772078 1031.28877,592.346414 C1033.11627,585.92075 1000.38744,597.6808 998.523828,604.092908 C1004.47584,607.719206 1011.69915,608.803706 1018.28681,606.43814 Z" id="Shape"></path>
                        <path d="M1061.14834,894.199093 C1054.2419,895.107972 1048.63086,898.91804 1045.40309,904.172684 C1042.17531,909.427328 1076.52144,904.90701 1079.75637,899.664404 C1074.7823,895.481154 1068.05479,893.290214 1061.14834,894.199093 Z" id="Shape"></path>
                        <path d="M1001.59253,947.005031 C995.152518,944.598049 987.99695,945.441136 981.986273,948.723385 C975.975596,952.005633 1008.08263,963.982623 1014.079,960.70681 C1012.43322,954.567074 1008.04685,949.412013 1001.59253,947.005031 Z" id="Shape"></path>
                        <path d="M108.356951,17.5867015 C109.416721,23.8413795 113.622889,28.8879888 119.422002,31.7457856 C125.221115,34.6035824 119.909101,3.49906224 114.156065,0.641265444 C109.620776,5.20075034 107.297182,11.3320235 108.356951,17.5867015 Z" id="Shape"></path>
                    </g>
                </g>
            </g>
        </g>
    </g>
</svg>