<?xml version="1.0" encoding="UTF-8"?>
<svg width="28px" height="40px" viewBox="0 0 28 40" version="1.1" xmlns="http://www.w3.org/2000/svg" xmlns:xlink="http://www.w3.org/1999/xlink">
    <!-- Generator: Sketch 49.1 (51147) - http://www.bohemiancoding.com/sketch -->
    <title>Shape</title>
    <desc>Created with Sketch.</desc>
    <defs></defs>
    <g id="Branding" stroke="none" stroke-width="1" fill="none" fill-rule="evenodd">
        <g id="Public/Homepage-Copy-4" transform="translate(-721.000000, -975.000000)" fill="#33535C" fill-rule="nonzero">
            <g id="Personal,-professional-and-proactive" transform="translate(139.000000, 927.000000)">
                <g id="Professional" transform="translate(425.000000, 3.000000)">
                    <path d="M184.509931,67.9090909 C185.054452,67.5454545 185.145206,66.8181818 184.782191,66.3636364 C184.419177,65.8181818 183.693149,65.7272727 183.239381,66.0909091 L172.258202,73.3636364 L172.258202,71.8181818 L183.783902,64.0909091 C184.328424,63.7272727 184.419177,63 184.056163,62.5454545 C183.693149,62 182.967121,61.9090909 182.513353,62.2727273 L172.258202,69.0909091 L172.258202,67.5454545 L182.331846,60.8181818 C182.876367,60.4545455 182.967121,59.7272727 182.604106,59.2727273 C182.241092,58.7272727 181.515064,58.6363636 181.061296,59 L172.167449,64.9090909 L172.167449,63.3636364 L180.516775,57.8181818 C181.061296,57.4545455 181.15205,56.7272727 180.789035,56.2727273 C180.426021,55.7272727 179.699993,55.6363636 179.246225,56 L172.167449,60.7272727 L172.167449,59.1818182 L178.520197,54.9090909 C179.064718,54.5454545 179.155472,53.8181818 178.792457,53.3636364 C178.429443,52.8181818 177.703415,52.7272727 177.249647,53.0909091 L172.167449,56.5454545 L172.167449,55 L176.342112,52.1818182 C176.886633,51.8181818 176.977387,51.0909091 176.614372,50.6363636 C176.251358,50.0909091 175.52533,50 175.071562,50.3636364 L172.076695,52.3636364 L172.076695,50.8181818 L173.98252,49.5454545 C174.527041,49.1818182 174.617794,48.4545455 174.25478,48 C173.891766,47.4545455 173.165738,47.3636364 172.71197,47.7272727 L172.076695,48.1818182 L172.076695,46.0909091 C172.076695,45.4545455 171.532174,45 170.987653,45 C170.443131,45 169.89861,45.5454545 169.89861,46.0909091 L169.89861,48.1818182 L169.263335,47.7272727 C168.718814,47.3636364 168.083539,47.5454545 167.720525,48 C167.357511,48.5454545 167.539018,49.2727273 167.992786,49.5454545 L169.89861,50.8181818 L169.89861,52.3636364 L166.903743,50.3636364 C166.359222,50 165.723947,50.1818182 165.360933,50.6363636 C164.997919,51.1818182 165.179426,51.9090909 165.633193,52.1818182 L169.807856,55 L169.807856,56.5454545 L164.725658,53.0909091 C164.181137,52.7272727 163.455108,52.9090909 163.182848,53.3636364 C162.819833,53.9090909 163.001341,54.6363636 163.455108,54.9090909 L169.807856,59.1818182 L169.807856,60.7272727 L162.72908,56 C162.184559,55.6363636 161.549284,55.8181818 161.18627,56.2727273 C160.823255,56.8181818 161.004763,57.5454545 161.45853,57.8181818 L169.807856,63.3636364 L169.807856,64.9090909 L160.914009,59 C160.369488,58.6363636 159.734213,58.8181818 159.371199,59.2727273 C159.008185,59.8181818 159.189692,60.5454545 159.643459,60.8181818 L169.717103,67.5454545 L169.717103,69.0909091 L159.461952,62.2727273 C158.917431,61.9090909 158.282156,62.0909091 157.919142,62.5454545 C157.556128,63.0909091 157.737635,63.8181818 158.191403,64.0909091 L169.717103,71.8181818 L169.717103,73.3636364 L158.735924,66.0909091 C158.191403,65.7272727 157.556128,65.9090909 157.193114,66.3636364 C156.830099,66.9090909 157.011607,67.6363636 157.465374,67.9090909 L169.626349,76.0909091 L169.626349,77.6363636 L159.371199,70.8181818 C158.826677,70.4545455 158.191403,70.6363636 157.828388,71.0909091 C157.465374,71.6363636 157.646881,72.3636364 158.100649,72.6363636 L169.626349,80.2727273 L169.626349,83.9090909 C169.626349,84.5454545 170.170871,85 170.715392,85 C171.259913,85 171.804434,84.4545455 171.804434,83.9090909 L171.804434,80.2727273 L183.330135,72.6363636 C183.874656,72.2727273 183.96541,71.5454545 183.602395,71.0909091 C183.239381,70.5454545 182.513353,70.4545455 182.059585,70.8181818 L171.804434,77.6363636 L171.804434,76.0909091 L184.509931,67.9090909 Z" id="Shape"></path>
                </g>
            </g>
        </g>
    </g>
</svg>