<?xml version="1.0" encoding="UTF-8"?>
<svg width="14px" height="20px" viewBox="0 0 14 20" version="1.1" xmlns="http://www.w3.org/2000/svg" xmlns:xlink="http://www.w3.org/1999/xlink">
    <!-- Generator: sketchtool 50 (54983) - http://www.bohemiancoding.com/sketch -->
    <title>98121298-37C0-4612-B2A6-40179322B1F7</title>
    <desc>Created with sketchtool.</desc>
    <defs></defs>
    <g id="Public" stroke="none" stroke-width="1" fill="none" fill-rule="evenodd">
        <g id="Public/OUR-APPROACH" transform="translate(-348.000000, -3009.000000)" fill="#32535A" fill-rule="nonzero">
            <g id="Stacked-Group" transform="translate(0.000000, 105.000000)">
                <g id="How-we-use-tech" transform="translate(0.000000, 2070.000000)">
                    <g id="Lock-and-text" transform="translate(348.000000, 834.000000)">
                        <path d="M9.85675008,11.9800942 L4.1430145,11.9800942 L4.1430145,14.4206818 C4.1430145,16.028399 5.42474691,17.3362685 7.00011771,17.3362685 C8.57525309,17.3362685 9.85675008,16.028399 9.85675008,14.4206818 L9.85675008,11.9800942 Z M7.881798,5.39161303 L7.881798,3.08683391 C7.881798,2.88555391 7.72182424,2.72247567 7.52453503,2.72247567 L6.47522954,2.72247567 C6.27794034,2.72247567 6.11814314,2.88555391 6.11814314,3.08683391 L6.11814314,5.39161303 C5.72803787,5.67386153 5.47306864,6.13798882 5.47306864,6.66332301 C5.47306864,7.52370341 6.15657687,8.22148608 6.99988229,8.22148608 C7.8431877,8.22148608 8.52669593,7.52370341 8.52669593,6.66332301 C8.52669593,6.13798882 8.27196213,5.67386153 7.881798,5.39161303 Z M13.4343827,11.9800942 L12.4671829,11.9800942 L12.4671829,14.4206818 C12.4671829,17.4971844 10.0144873,20 7.00011771,20 C3.98551273,20 1.53281707,17.4971844 1.53281707,14.4206818 L1.53281707,11.9800942 L0.565617328,11.9800942 C0.253144654,11.9800942 0,11.7217519 0,11.4028633 L0,0.577230913 C0,0.258582631 0.253144654,0 0.565617328,0 L13.4343827,0 C13.7466199,0 14,0.258582631 14,0.577230913 L14,11.4028633 C13.9997646,11.7217519 13.7466199,11.9800942 13.4343827,11.9800942 Z" id="lock" transform="translate(7.000000, 10.000000) rotate(180.000000) translate(-7.000000, -10.000000) "></path>
                    </g>
                </g>
            </g>
        </g>
    </g>
</svg>