<?xml version="1.0" encoding="utf-8"?>
<!-- Generator: Adobe Illustrator 21.0.2, SVG Export Plug-In . SVG Version: 6.00 Build 0)  -->
<svg version="1.1" id="Layer_1" xmlns="http://www.w3.org/2000/svg" xmlns:xlink="http://www.w3.org/1999/xlink" x="0px" y="0px"
	 viewBox="0 0 100 100" style="enable-background:new 0 0 100 100;" xml:space="preserve">
<style type="text/css">
	.st0{clip-path:url(#SVGID_2_);}
	.st1{clip-path:url(#SVGID_4_);fill:#32535A;}
</style>
<g>
	<defs>
		<path id="SVGID_1_" d="M50,52.4c-10,0-18-8.1-18-18s8.1-18,18-18c10,0,18,8.1,18,18S60,52.4,50,52.4z M50,13.9
			c-11.3,0-20.5,9.2-20.5,20.5c0,11.3,9.2,20.5,20.5,20.5c11.3,0,20.5-9.2,20.5-20.5C70.5,23.1,61.3,13.9,50,13.9z M50,57.1
			c-12.6,0-22.7-10.2-22.7-22.7c0-12.6,10.2-22.7,22.7-22.7c12.6,0,22.7,10.2,22.7,22.7C72.7,47,62.6,57.1,50,57.1z M50,71.5
			c-3.8,0-7-3.9-10.4-5c-0.7-0.2-1.5-0.4-2.4-0.5v34c0,0,8.7-6.8,12.8-14.6c3.8,7.8,12.8,14.6,12.8,14.6V66
			c-0.8,0.1-1.6,0.2-2.4,0.5C57,67.6,53.8,71.5,50,71.5z M82.7,23.8c-1.1-3.3-5.4-5-7.4-7.7c-2-2.8-2.3-7.4-5.1-9.5
			c-2.8-2-7.3-0.8-10.6-1.9C56.5,3.6,53.5,0,50,0c-3.5,0-6.5,3.6-9.7,4.7C37,5.7,32.5,4.6,29.8,6.6c-2.8,2-3,6.7-5.1,9.5
			c-2,2.8-6.4,4.4-7.4,7.7c-1,3.2,1.5,7.1,1.5,10.6c0,3.5-2.5,7.4-1.5,10.6c1.1,3.3,5.4,5,7.4,7.7c2,2.8,2.3,7.4,5.1,9.5
			c2,1.4,4.8,1.2,7.4,1.4c1.1,0.1,2.2,0.2,3.1,0.5c3.2,1,6.1,4.7,9.7,4.7c3.5,0,6.5-3.6,9.7-4.7c1-0.3,2-0.4,3.1-0.5
			c2.7-0.1,5.5,0,7.4-1.4c2.8-2,3-6.7,5.1-9.5c2-2.8,6.4-4.4,7.4-7.7c1-3.2-1.5-7.1-1.5-10.6C81.2,30.9,83.8,27,82.7,23.8z"/>
	</defs>
	<clipPath id="SVGID_2_">
		<use xlink:href="#SVGID_1_"  style="overflow:visible;"/>
	</clipPath>
	<g class="st0">
		<defs>
			<rect id="SVGID_3_" x="-125" y="-947" width="2054" height="1922"/>
		</defs>
		<clipPath id="SVGID_4_">
			<use xlink:href="#SVGID_3_"  style="overflow:visible;"/>
		</clipPath>
		<rect x="12" y="-5" class="st1" width="75.9" height="110"/>
	</g>
</g>
</svg>
