<?xml version="1.0" encoding="utf-8"?>
<!-- Generator: Adobe Illustrator 21.0.2, SVG Export Plug-In . SVG Version: 6.00 Build 0)  -->
<svg version="1.1" id="Layer_1" xmlns="http://www.w3.org/2000/svg" xmlns:xlink="http://www.w3.org/1999/xlink" x="0px" y="0px"
	 viewBox="0 0 100 100" style="enable-background:new 0 0 100 100;" xml:space="preserve">
<style type="text/css">
	.st0{display:none;}
	.st1{display:inline;}
	.st2{display:inline;clip-path:url(#SVGID_2_);}
	.st3{clip-path:url(#SVGID_4_);fill:#32535A;}
	.st4{display:inline;clip-path:url(#SVGID_6_);}
	.st5{clip-path:url(#SVGID_8_);fill:#32535A;}
	.st6{clip-path:url(#SVGID_10_);}
	.st7{clip-path:url(#SVGID_12_);fill:#32535A;}
</style>
<g class="st0">
	<defs>
		<path id="SVGID_1_" d="M50,52.4c-10,0-18-8.1-18-18s8.1-18,18-18c10,0,18,8.1,18,18S60,52.4,50,52.4z M50,13.9
			c-11.3,0-20.5,9.2-20.5,20.5c0,11.3,9.2,20.5,20.5,20.5c11.3,0,20.5-9.2,20.5-20.5C70.5,23.1,61.3,13.9,50,13.9z M50,57.1
			c-12.6,0-22.7-10.2-22.7-22.7c0-12.6,10.2-22.7,22.7-22.7c12.6,0,22.7,10.2,22.7,22.7C72.7,47,62.6,57.1,50,57.1z M50,71.5
			c-3.8,0-7-3.9-10.4-5c-0.7-0.2-1.5-0.4-2.4-0.5v34c0,0,8.7-6.8,12.8-14.6c3.8,7.8,12.8,14.6,12.8,14.6V66
			c-0.8,0.1-1.6,0.2-2.4,0.5C57,67.6,53.8,71.5,50,71.5z M82.7,23.8c-1.1-3.3-5.4-5-7.4-7.7c-2-2.8-2.3-7.4-5.1-9.5
			c-2.8-2-7.3-0.8-10.6-1.9C56.5,3.6,53.5,0,50,0c-3.5,0-6.5,3.6-9.7,4.7C37,5.7,32.5,4.6,29.8,6.6c-2.8,2-3,6.7-5.1,9.5
			c-2,2.8-6.4,4.4-7.4,7.7c-1,3.2,1.5,7.1,1.5,10.6c0,3.5-2.5,7.4-1.5,10.6c1.1,3.3,5.4,5,7.4,7.7c2,2.8,2.3,7.4,5.1,9.5
			c2,1.4,4.8,1.2,7.4,1.4c1.1,0.1,2.2,0.2,3.1,0.5c3.2,1,6.1,4.7,9.7,4.7c3.5,0,6.5-3.6,9.7-4.7c1-0.3,2-0.4,3.1-0.5
			c2.7-0.1,5.5,0,7.4-1.4c2.8-2,3-6.7,5.1-9.5c2-2.8,6.4-4.4,7.4-7.7c1-3.2-1.5-7.1-1.5-10.6C81.2,30.9,83.8,27,82.7,23.8z"/>
	</defs>
	<clipPath id="SVGID_2_" class="st1">
		<use xlink:href="#SVGID_1_"  style="overflow:visible;"/>
	</clipPath>
	<g class="st2">
		<defs>
			<rect id="SVGID_3_" x="-125" y="-947" width="2054" height="1922"/>
		</defs>
		<clipPath id="SVGID_4_">
			<use xlink:href="#SVGID_3_"  style="overflow:visible;"/>
		</clipPath>
		<rect x="12" y="-5" class="st3" width="75.9" height="110"/>
	</g>
</g>
<g class="st0">
	<defs>
		<path id="SVGID_5_" d="M91.3,91.7h-24c0.3-3.8,0.4-7.2,1-10.6c0.2-0.9,2.1-2,3.2-2.1c4.7-0.2,9.4,0.1,14.1-0.2
			c3.2-0.2,4.6,1,4.7,4.2C90.4,85.7,90.9,88.3,91.3,91.7z M100.5,99.4c-1.5-11.2-2.5-22-4.8-32.6c-0.7-3-4.7-6.6-7.9-7.5
			c-4.2-1.2-4.7-3-4.6-6.6c0.1-15.8,0.1-31.6,0-47.4c0-1.8-0.2-3.5-0.3-5.2h-7.8v58c-6,0.6-11.6,2.5-12.7,8.5
			c-2.1,10.8-3,21.8-4.5,32.9H100.5z M48.8,50.1c0.1,0.8,0.3,1.4,0.2,2C47,64.3,45,76.4,43.2,88.5c-0.4,2.8-1.9,3.6-4.5,3.5
			c-3.9-0.1-7.7,0-11.6,0C16,92,15.8,92,13.8,81.3c-1.9-10.3-3.4-20.7-5-31c6-1.8,10.1-0.5,12.8,4.7c0.7,1.3,1.8,2.4,2.7,3.6
			c1.8,2.4,4.1,5.1,6.8,2.3c1.1-1.1,0.6-5.1-0.5-6.9c-3.5-5.5-7.8-10.5-11.7-15.7c0.9-1.9,1.6-3.7,2.6-5.4
			c2.8-4.7,10.4-6.1,13.3-1.7c3.5,5.3,6.7,8,12.6,4c0.3-0.2,1.2,0.5,1.8,0.6c2.7,0.5,5.3,0.9,8.2,1.4c-0.6-7.1-4.7-10.7-10.9-9.8
			c-2.8,0.4-4.5-0.1-6.6-2.1c-6.8-6.5-16.8-6-23.1,0.7c-1.2,1.3-2.2,2.8-3.6,4.5c-2.2-2.8-4.3-5.3-6.3-7.9c-2.3,1.8-4.1,3.2-6.1,4.8
			c3.4,4.7,6.6,9.1,10.5,14.4H-0.2c-0.2,0.9-0.3,1.3-0.3,1.6c3,17.9,6,35.8,9.3,53.7c0.2,1.2,2.7,2.7,4.2,2.7
			c7.2,0.3,14.5,0.2,21.7,0.1c4.6-0.1,10.6,1.2,13.5-1.2c2.7-2.2,2.3-8.3,3.1-12.8c2.5-14.5,4.9-29.1,7.4-43.8h-29
			C32.4,53.6,42.1,48.1,48.8,50.1z"/>
	</defs>
	<clipPath id="SVGID_6_" class="st1">
		<use xlink:href="#SVGID_5_"  style="overflow:visible;"/>
	</clipPath>
	<g class="st4">
		<defs>
			<rect id="SVGID_7_" x="-534.5" y="-1228" width="2054" height="1922"/>
		</defs>
		<clipPath id="SVGID_8_">
			<use xlink:href="#SVGID_7_"  style="overflow:visible;"/>
		</clipPath>
		<rect x="-5.5" y="-5" class="st5" width="111" height="110"/>
	</g>
</g>
<g>
	<defs>
		<path id="SVGID_9_" d="M13.1,20.9c0-0.2-0.1-0.4-0.4-0.4h-0.1c-0.2,0-0.4,0.1-0.4,0.4l-0.6,11.7c0,0.2-0.1,0.4-0.4,0.4h-0.1
			c-0.2,0-0.4-0.1-0.4-0.4l-0.6-11.7c0-0.2-0.1-0.4-0.4-0.4c-0.2,0-0.4,0.1-0.4,0.4L9,32.5c0,0.2-0.1,0.4-0.4,0.4H8.5
			c-0.2,0-0.4-0.1-0.4-0.4L7.5,20.9c0-0.2-0.1-0.4-0.4-0.4c-0.2,0-0.4,0.1-0.4,0.4L6.2,32.5c0,0.2-0.1,0.4-0.4,0.4H5.8
			c-0.2,0-0.4-0.1-0.4-0.4L4.8,20.9c0-0.2-0.1-0.4-0.4-0.4H4.4c-0.2,0-0.4,0.1-0.4,0.4v17.8c0,0.8,0.7,1.5,1.5,1.5h0.1
			c0.4,0,0.7,0.2,0.7,0.7v27.4v9c0,1.2,0.9,2.2,2.2,2.2c1.2,0,2.2-0.9,2.2-2.2v-9V40.9c0-0.4,0.2-0.7,0.7-0.7h0.1
			c0.8,0,1.5-0.7,1.5-1.5V20.9H13.1z M96,21.8c0-0.9-0.7-1.7-1.7-1.5c-0.6,0-1.2,0.4-1.4,0.8c-1.3,2.1-4.4,8.1-4.4,15
			c0,6,1.8,11.6,2.7,14.3c0.5,1.2,0.7,2.5,0.6,3.8c-0.4,5.5-1.1,20.5-1.3,22.9c-0.1,1.5,1.1,2.9,2.7,2.9c1.5,0,2.7-1.2,2.7-2.7V21.8
			z M50.7,32c-9.9,0-18,8-18,18s8,18,18,18s18-8.1,18-18S60.6,32,50.7,32z M50.7,71.9c-12,0-21.9-9.9-21.9-21.9
			c0-12,9.8-21.9,21.9-21.9S72.6,38,72.6,50C72.6,62,62.9,71.9,50.7,71.9z M50.7,18.9c-17.2,0-31.1,13.9-31.1,31.1
			s13.9,31.1,31.1,31.1S81.8,67.2,81.8,50S67.9,18.9,50.7,18.9z"/>
	</defs>
	<clipPath id="SVGID_10_">
		<use xlink:href="#SVGID_9_"  style="overflow:visible;"/>
	</clipPath>
	<g class="st6">
		<defs>
			<rect id="SVGID_11_" x="-456.2" y="-843.7" width="1279.2" height="1197"/>
		</defs>
		<clipPath id="SVGID_12_">
			<use xlink:href="#SVGID_11_"  style="overflow:visible;"/>
		</clipPath>
		<rect x="0.9" y="15.7" class="st7" width="98.2" height="68.5"/>
	</g>
</g>
</svg>
