<?xml version="1.0" encoding="UTF-8"?>
<svg width="562px" height="134px" viewBox="0 0 562 134" version="1.1" xmlns="http://www.w3.org/2000/svg" xmlns:xlink="http://www.w3.org/1999/xlink">
    <!-- Generator: Sketch 51.2 (57519) - http://www.bohemiancoding.com/sketch -->
    <title>edyn_ranged_logo</title>
    <desc>Created with Sketch.</desc>
    <defs></defs>
    <g id="logo" stroke="none" stroke-width="1" fill="none" fill-rule="evenodd">
        <g id="edyn_ranged_logo" fill-rule="nonzero">
            <g id="Group-2">
                <path d="M78.75,50.2 C72.6121487,48.3127132 65.9439825,49.4240742 60.75,53.2 C62.6763901,59.2445417 67.3785854,64.0024943 73.4,66 C79.5378513,67.8872868 86.2060175,66.7759258 91.4,63 C89.4914133,56.9203424 84.7774644,52.1282617 78.73,50.12" id="Shape" fill="#32525B"></path>
                <path d="M38.38,83.24 C40.0561845,89.3823245 44.5852293,94.3430614 50.55,96.57 C54.7598809,91.8471904 56.3921025,85.3631245 54.92,79.21 C53.2438155,73.0676755 48.7147707,68.1069386 42.75,65.88 C38.5416739,70.6036334 36.909657,77.086886 38.38,83.24" id="Shape" fill="#32525B"></path>
                <path d="M21.81,18 C17.4919644,22.610756 15.6963944,29.0389714 17,35.22 C23.3525944,36.1065628 29.7508453,33.9416853 34.26,29.38 C38.5880638,24.7666537 40.3879007,18.3290626 39.08,12.14 C32.72083,11.2552786 26.3176122,13.4279976 21.81,18" id="Shape" fill="#32525B"></path>
                <path d="M97.28,24.76 C93.8838898,30.0926394 93.3196048,36.7519497 95.77,42.58 C102.166668,42.321849 108.060504,39.0408974 111.65,33.74 C115.044434,28.4067946 115.608648,21.7483263 113.16,15.92 C106.762886,16.1765632 100.868382,19.4578866 97.28,24.76" id="Shape" fill="#32525B"></path>
                <path d="M77,2.69 C71.2186877,-0.121972641 64.4515817,-0.0515977026 58.73,2.88 C59.6476283,9.17117822 63.552371,14.6296209 69.21,17.53 C74.9913123,20.3419726 81.7584183,20.2715977 87.48,17.34 C86.5623717,11.0488218 82.657629,5.59037906 77,2.69" id="Shape" fill="#32525B"></path>
                <path d="M57.57,42.83 C62.5866047,38.9557914 65.4033334,32.8821037 65.12,26.55 C58.9665035,24.6927892 52.2977017,25.8413051 47.12,29.65 C42.1033953,33.5242086 39.2866666,39.5978963 39.57,45.93 C45.7233973,47.7888259 52.3929321,46.6401838 57.57,42.83" id="Shape" fill="#32525B"></path>
                <path d="M12.27,106.7 C15.8894826,111.980565 21.8018912,115.228122 28.2,115.45 C30.6154578,109.608375 30.0138892,102.953756 26.59,97.64 C22.9705174,92.3594345 17.0581088,89.111878 10.66,88.89 C8.24279378,94.7313587 8.84443848,101.38682 12.27,106.7" id="Shape" fill="#32525B"></path>
                <path d="M9.08,54.67 C3.7987675,58.185811 0.554467347,64.0479258 0.38,70.39 C6.39050692,72.6656191 13.121466,71.9802985 18.55,68.54 C23.8312325,65.024189 27.0755327,59.1620742 27.25,52.82 C21.2392836,50.5459814 14.5090618,51.2312269 9.08,54.67" id="Shape" fill="#32525B"></path>
                <path d="M54.63,132.7 C60.6424436,134.961771 67.3683943,134.265472 72.79,130.82 C71.2631789,124.639242 66.8518784,119.572761 60.94,117.21 C54.9277629,114.94663 48.201076,115.643005 42.78,119.09 C44.3068211,125.270758 48.7181216,130.337239 54.63,132.7" id="Shape" fill="#32525B"></path>
                <path d="M113.75,48.77 C107.693505,50.7398009 102.95082,55.4973649 101,61.56 C106.178763,65.3667543 112.848158,66.5116673 119,64.65 C125.064145,62.6856443 129.815137,57.9272114 131.77,51.86 C126.591237,48.0532457 119.921842,46.9083327 113.77,48.77" id="Shape" fill="#32525B"></path>
                <path d="M107.88,94.16 C110.292747,100.080383 115.399219,104.483925 121.61,106 C125.206047,100.80025 126.024351,94.1678719 123.8,88.25 C121.374347,82.3488475 116.270012,77.9657374 110.07,76.46 C106.473953,81.6597495 105.655649,88.2921281 107.88,94.21" id="Shape" fill="#32525B"></path>
                <path d="M85.43,100.06 C91.5170669,98.1688794 96.3265311,93.4710036 98.36,87.43 C93.2186876,83.5476094 86.5461305,82.3206003 80.36,84.12 C74.2720691,86.0096705 69.4620394,90.7080985 67.43,96.75 C72.5713124,100.632391 79.2438695,101.8594 85.43,100.06" id="Shape" fill="#32525B"></path>
                <path d="M102.71,125.89 C107.508613,121.752401 109.987008,115.534017 109.35,109.23 C103.120964,107.688228 96.529565,109.170274 91.56,113.23 C86.7613874,117.367599 84.282992,123.585983 84.92,129.89 C91.1490532,131.430154 97.7397272,129.948271 102.71,125.89" id="Shape" fill="#32525B"></path>
                <path d="M83.8,35.16 C83.8,37.7612612 81.6912612,39.87 79.09,39.87 C76.4887388,39.87 74.38,37.7612612 74.38,35.16 C74.38,32.5587388 76.4887388,30.45 79.09,30.45 C81.6912612,30.45 83.8,32.5587388 83.8,35.16" id="Shape" fill="#F2979A"></path>
                <path d="M54.58,14.42 C54.58,16.3250172 53.4324453,18.0424541 51.672439,18.7714726 C49.9124326,19.5004911 47.8865776,19.0975235 46.5395271,17.7504729 C45.1924765,16.4034224 44.7895089,14.3775674 45.5185274,12.617561 C46.2475459,10.8575547 47.9649828,9.71 49.87,9.71 C52.4712612,9.71 54.58,11.8187388 54.58,14.42" id="Shape" fill="#F2979A"></path>
                <path d="M73.9,76.64 C73.9,79.2412612 71.7912612,81.35 69.19,81.35 C66.5887388,81.35 64.48,79.2412612 64.48,76.64 C64.48,74.0387388 66.5887388,71.93 69.19,71.93 C71.7912612,71.93 73.9,74.0387388 73.9,76.64" id="Shape" fill="#F2979A"></path>
                <path d="M42.32,56.56 C42.32,59.1612612 40.2112612,61.27 37.61,61.27 C35.0087388,61.27 32.9,59.1612612 32.9,56.56 C32.9,53.9587388 35.0087388,51.85 37.61,51.85 C40.2112612,51.85 42.32,53.9587388 42.32,56.56" id="Shape" fill="#F2979A"></path>
                <path d="M26.29,79.94 C26.29,82.5412612 24.1812612,84.65 21.58,84.65 C18.9787388,84.65 16.87,82.5412612 16.87,79.94 C16.87,77.3387388 18.9787388,75.23 21.58,75.23 C24.1812612,75.23 26.29,77.3387388 26.29,79.94" id="Shape" fill="#F2979A"></path>
                <path d="M101.71,72.87 C101.71,75.4712612 99.6012612,77.58 97,77.58 C94.3987388,77.58 92.29,75.4712612 92.29,72.87 C92.29,70.2687388 94.3987388,68.16 97,68.16 C99.6012612,68.16 101.71,70.2687388 101.71,72.87" id="Shape" fill="#F2979A"></path>
                <path d="M132.82,71.93 C132.82,74.5312612 130.711261,76.64 128.11,76.64 C125.508739,76.64 123.4,74.5312612 123.4,71.93 C123.4,69.3287388 125.508739,67.22 128.11,67.22 C130.711261,67.22 132.82,69.3287388 132.82,71.93" id="Shape" fill="#F2979A"></path>
                <path d="M79.09,110.67 C79.09,113.271261 76.9812612,115.38 74.38,115.38 C71.7787388,115.38 69.67,113.271261 69.67,110.67 C69.67,108.068739 71.7787388,105.96 74.38,105.96 C75.6291697,105.96 76.8271766,106.456231 77.7104729,107.339527 C78.5937693,108.222823 79.09,109.42083 79.09,110.67" id="Shape" fill="#F2979A"></path>
                <path d="M46.09,106 C46.09,108.601261 43.9812612,110.71 41.38,110.71 C38.7787388,110.71 36.67,108.601261 36.67,106 C36.67,103.398739 38.7787388,101.29 41.38,101.29 C43.9812612,101.29 46.09,103.398739 46.09,106" id="Shape" fill="#F2979A"></path>
            </g>
            <g id="Group-3" transform="translate(175.000000, 25.000000)">
                <path d="M11.14,40.55 C11.8831056,38.1331663 13.3148864,35.985495 15.26,34.37 C17.4295997,32.5722985 20.1729508,31.6140776 22.99,31.67 C25.8703472,31.6050478 28.6767484,32.585512 30.89,34.43 C32.8011812,35.994184 34.1494804,38.1395246 34.73,40.54 L11.14,40.55 Z M38.61,29.34 C33.8115705,24.308173 26.8949846,21.8764089 20.0033577,22.7981937 C13.1117308,23.7199784 7.0773582,27.883989 3.77,34 C1.93140804,37.398723 0.978754584,41.2058976 1,45.07 C0.885662612,51.0359126 3.25007202,56.7821878 7.53,60.94 C11.7209533,65.1687009 17.4572232,67.5022213 23.41,67.4 C26.9905677,67.419992 30.5256799,66.5978729 33.73,65 C36.8373914,63.4718665 39.5147905,61.1931558 41.52,58.37 L41.9,57.84 L34.9,52.46 L34.49,53.03 C33.2676396,54.7487641 31.6254707,56.1258449 29.72,57.03 C27.7647537,57.9738905 25.621154,58.4627817 23.45,58.46 C20.3634265,58.5322025 17.3585454,57.4641168 15.01,55.46 C12.9102106,53.6724206 11.4411815,51.2567618 10.82,48.57 L44.56,48.57 L44.62,47.96 C44.73,46.82 44.79,45.83 44.79,45.04 C44.7862268,39.237544 42.5894441,33.6509294 38.64,29.4 L38.61,29.34 Z" id="Shape" fill="#32525B"></path>
                <path d="M71.81,58.16 C68.3421152,58.2408153 64.9961286,56.879245 62.57,54.4 C57.5998331,49.1728681 57.5998331,40.9671319 62.57,35.74 C64.9706112,33.2247154 68.3243168,31.8439915 71.8,31.94 C75.2934388,31.8700913 78.6573905,33.2620713 81.08,35.78 C86.0838825,40.9548601 86.0838825,49.1651399 81.08,54.34 C78.6444219,56.8609242 75.2642318,58.2463669 71.76,58.16 L71.81,58.16 Z M85,27.74 C81.4494359,24.3477813 76.6885212,22.5183224 71.78,22.66 C65.8132213,22.6499958 60.0760783,24.9591958 55.78,29.1 C53.7170765,31.1379199 52.0788064,33.5647349 50.96,36.24 C48.6032887,41.8699868 48.6032887,48.2100132 50.96,53.84 C52.0678891,56.5030743 53.6886355,58.9223018 55.73,60.96 C57.8024403,62.9740612 60.2436258,64.5698291 62.92,65.66 C65.7324681,66.8209982 68.7473466,67.4124174 71.79,67.4 C76.6899338,67.5800666 81.4556319,65.777609 85.01,62.4 L85.01,66.26 L94.71,66.26 L94.71,0.26 L85,0.26 L85,27.74 Z" id="Shape" fill="#32525B"></path>
                <polygon id="Shape" fill="#32525B" points="131.8 23.42 121.09 53.3 109.89 23.86 109.73 23.42 99.06 23.42 116.3 66.35 109.92 84.37 119.62 84.37 141.64 23.42"></polygon>
                <path d="M167.69,22.65 C165.202014,22.5778698 162.729085,23.0594761 160.45,24.06 C158.928209,24.7949119 157.52851,25.7595232 156.3,26.92 L156.3,23.42 L146.6,23.42 L146.6,66.24 L156.31,66.24 L156.31,44.43 C156.31,36.02 159.54,31.94 166.2,31.94 C172.57,31.94 175.67,35.83 175.67,43.84 L175.67,66.25 L185.46,66.25 L185.46,42.08 C185.46,35.67 183.82,30.78 180.59,27.54 C177.36,24.3 173.02,22.65 167.69,22.65" id="Shape" fill="#32525B"></path>
                <path d="M203.11,66.64 C200.508739,66.64 198.4,64.5312612 198.4,61.93 C198.4,59.3287388 200.508739,57.22 203.11,57.22 C205.711261,57.22 207.82,59.3287388 207.82,61.93 C207.82,64.5312612 205.711261,66.64 203.11,66.64 Z" id="Shape" fill="#FF9999"></path>
                <path d="M248.4,52 C245.370918,56.9284201 239.431313,59.2377148 233.868675,57.6497203 C228.306038,56.0617259 224.480727,50.9647907 224.51,45.18 C224.478192,41.7104267 225.823098,38.3697373 228.25,35.89 C230.560821,33.3343541 233.865156,31.9046637 237.31,31.97 C239.500944,31.9603836 241.656052,32.5258841 243.56,33.61 C245.434162,34.6508915 247.016111,36.1468655 248.16,37.96 L248.51,38.51 L256.76,33.79 L256.38,33.19 C254.362398,30.0052002 251.577192,27.3781662 248.28,25.55 C240.105616,20.9278434 229.915465,21.8977909 222.759891,27.9791264 C215.604317,34.0604618 213.003926,43.9608627 216.247497,52.7735879 C219.491068,61.586313 227.889323,67.4386021 237.28,67.43 C245.097617,67.4427629 252.369699,63.4249751 256.52,56.8 L256.89,56.21 L248.72,51.43 L248.4,52 Z" id="Shape" fill="#32525B"></path>
                <path d="M283,58.16 C279.532115,58.2408153 276.186129,56.879245 273.76,54.4 C268.789833,49.1728681 268.789833,40.9671319 273.76,35.74 C276.160611,33.2247154 279.514317,31.8439915 282.99,31.94 C286.483439,31.8700913 289.84739,33.2620713 292.27,35.78 C297.273883,40.9548601 297.273883,49.1651399 292.27,54.34 C289.834422,56.8609242 286.454232,58.2463669 282.95,58.16 L283,58.16 Z M296.17,27.74 C292.633368,24.3566142 287.892781,22.524451 283,22.65 C277.034232,22.6452305 271.298976,24.953671 267,29.09 C264.938506,31.1291056 263.300441,33.5556173 262.18,36.23 C259.823289,41.8599868 259.823289,48.2000132 262.18,53.83 C263.296979,56.5150828 264.93523,58.9520655 267,61 C269.07244,63.0140612 271.513626,64.6098291 274.19,65.7 C277.002468,66.8609982 280.017347,67.4524174 283.06,67.44 C287.959934,67.6200666 292.725632,65.817609 296.28,62.44 L296.28,66.3 L306,66.3 L306,23.42 L296.3,23.42 L296.17,27.74 Z" id="Shape" fill="#32525B"></path>
                <path d="M353.17,40.55 C353.913106,38.1331663 355.344886,35.985495 357.29,34.37 C359.4596,32.5722985 362.202951,31.6140776 365.02,31.67 C367.89693,31.6074776 370.699362,32.5877963 372.91,34.43 C374.82672,35.9952748 376.178806,38.1445658 376.76,40.55 L353.17,40.55 Z M385.17,36.46 C384.128572,33.8260785 382.602162,31.4109576 380.67,29.34 C375.871854,24.2955842 368.947222,21.8555802 362.046649,22.7777675 C355.146076,23.6999547 349.105161,27.8726645 345.8,34 C343.950971,37.3959695 342.98796,41.2032994 343,45.07 C342.885663,51.0359126 345.250072,56.7821878 349.53,60.94 C353.720293,65.1696903 359.457005,67.5033903 365.41,67.4 C368.99061,67.4203663 372.525807,66.5982272 375.73,65 C378.837391,63.4718665 381.514791,61.1931558 383.52,58.37 L383.9,57.84 L376.9,52.46 L376.49,53.03 C375.26764,54.7487641 373.625471,56.1258449 371.72,57.03 C369.764639,57.9735618 367.621115,58.4624355 365.45,58.46 C362.363426,58.5322025 359.358545,57.4641168 357.01,55.46 C354.909664,53.672887 353.440516,51.257033 352.82,48.57 L386.57,48.57 L386.63,47.96 C386.74,46.81 386.8,45.83 386.8,45.04 C386.804297,42.1201963 386.244015,39.2271026 385.15,36.52 L385.17,36.46 Z" id="Shape" fill="#32525B"></path>
                <rect id="Rectangle-path" fill="#32525B" x="313.89" y="23.42" width="9.71" height="42.82"></rect>
                <path d="M332.64,24.17 C328.799278,25.6255324 325.846506,28.7739255 324.64,32.7 C328.019632,35.0593326 332.332954,35.6348597 336.21295,34.2441801 C340.092946,32.8535005 343.058596,29.6690227 344.17,25.7 C340.76133,23.4297463 336.496324,22.8578813 332.61,24.15" id="Shape" fill="#32525B"></path>
            </g>
        </g>
    </g>
</svg>