<?xml version="1.0" encoding="UTF-8"?>
<svg width="133px" height="134px" viewBox="0 0 133 134" version="1.1" xmlns="http://www.w3.org/2000/svg" xmlns:xlink="http://www.w3.org/1999/xlink">
    <!-- Generator: Sketch 50 (54983) - http://www.bohemiancoding.com/sketch -->
    <title>Group 2</title>
    <desc>Created with Sketch.</desc>
    <defs></defs>
    <g id="logo" stroke="none" stroke-width="1" fill="none" fill-rule="evenodd">
        <g id="edyn_ranged_logo" fill-rule="nonzero">
            <g id="Group-2">
                <path d="M78.75,50.2 C72.6121487,48.3127132 65.9439825,49.4240742 60.75,53.2 C62.6763901,59.2445417 67.3785854,64.0024943 73.4,66 C79.5378513,67.8872868 86.2060175,66.7759258 91.4,63 C89.4914133,56.9203424 84.7774644,52.1282617 78.73,50.12" id="Shape" fill="#32525B"></path>
                <path d="M38.38,83.24 C40.0561845,89.3823245 44.5852293,94.3430614 50.55,96.57 C54.7598809,91.8471904 56.3921025,85.3631245 54.92,79.21 C53.2438155,73.0676755 48.7147707,68.1069386 42.75,65.88 C38.5416739,70.6036334 36.909657,77.086886 38.38,83.24" id="Shape" fill="#32525B"></path>
                <path d="M21.81,18 C17.4919644,22.610756 15.6963944,29.0389714 17,35.22 C23.3525944,36.1065628 29.7508453,33.9416853 34.26,29.38 C38.5880638,24.7666537 40.3879007,18.3290626 39.08,12.14 C32.72083,11.2552786 26.3176122,13.4279976 21.81,18" id="Shape" fill="#32525B"></path>
                <path d="M97.28,24.76 C93.8838898,30.0926394 93.3196048,36.7519497 95.77,42.58 C102.166668,42.321849 108.060504,39.0408974 111.65,33.74 C115.044434,28.4067946 115.608648,21.7483263 113.16,15.92 C106.762886,16.1765632 100.868382,19.4578866 97.28,24.76" id="Shape" fill="#32525B"></path>
                <path d="M77,2.69 C71.2186877,-0.121972641 64.4515817,-0.0515977026 58.73,2.88 C59.6476283,9.17117822 63.552371,14.6296209 69.21,17.53 C74.9913123,20.3419726 81.7584183,20.2715977 87.48,17.34 C86.5623717,11.0488218 82.657629,5.59037906 77,2.69" id="Shape" fill="#32525B"></path>
                <path d="M57.57,42.83 C62.5866047,38.9557914 65.4033334,32.8821037 65.12,26.55 C58.9665035,24.6927892 52.2977017,25.8413051 47.12,29.65 C42.1033953,33.5242086 39.2866666,39.5978963 39.57,45.93 C45.7233973,47.7888259 52.3929321,46.6401838 57.57,42.83" id="Shape" fill="#32525B"></path>
                <path d="M12.27,106.7 C15.8894826,111.980565 21.8018912,115.228122 28.2,115.45 C30.6154578,109.608375 30.0138892,102.953756 26.59,97.64 C22.9705174,92.3594345 17.0581088,89.111878 10.66,88.89 C8.24279378,94.7313587 8.84443848,101.38682 12.27,106.7" id="Shape" fill="#32525B"></path>
                <path d="M9.08,54.67 C3.7987675,58.185811 0.554467347,64.0479258 0.38,70.39 C6.39050692,72.6656191 13.121466,71.9802985 18.55,68.54 C23.8312325,65.024189 27.0755327,59.1620742 27.25,52.82 C21.2392836,50.5459814 14.5090618,51.2312269 9.08,54.67" id="Shape" fill="#32525B"></path>
                <path d="M54.63,132.7 C60.6424436,134.961771 67.3683943,134.265472 72.79,130.82 C71.2631789,124.639242 66.8518784,119.572761 60.94,117.21 C54.9277629,114.94663 48.201076,115.643005 42.78,119.09 C44.3068211,125.270758 48.7181216,130.337239 54.63,132.7" id="Shape" fill="#32525B"></path>
                <path d="M113.75,48.77 C107.693505,50.7398009 102.95082,55.4973649 101,61.56 C106.178763,65.3667543 112.848158,66.5116673 119,64.65 C125.064145,62.6856443 129.815137,57.9272114 131.77,51.86 C126.591237,48.0532457 119.921842,46.9083327 113.77,48.77" id="Shape" fill="#32525B"></path>
                <path d="M107.88,94.16 C110.292747,100.080383 115.399219,104.483925 121.61,106 C125.206047,100.80025 126.024351,94.1678719 123.8,88.25 C121.374347,82.3488475 116.270012,77.9657374 110.07,76.46 C106.473953,81.6597495 105.655649,88.2921281 107.88,94.21" id="Shape" fill="#32525B"></path>
                <path d="M85.43,100.06 C91.5170669,98.1688794 96.3265311,93.4710036 98.36,87.43 C93.2186876,83.5476094 86.5461305,82.3206003 80.36,84.12 C74.2720691,86.0096705 69.4620394,90.7080985 67.43,96.75 C72.5713124,100.632391 79.2438695,101.8594 85.43,100.06" id="Shape" fill="#32525B"></path>
                <path d="M102.71,125.89 C107.508613,121.752401 109.987008,115.534017 109.35,109.23 C103.120964,107.688228 96.529565,109.170274 91.56,113.23 C86.7613874,117.367599 84.282992,123.585983 84.92,129.89 C91.1490532,131.430154 97.7397272,129.948271 102.71,125.89" id="Shape" fill="#32525B"></path>
                <path d="M83.8,35.16 C83.8,37.7612612 81.6912612,39.87 79.09,39.87 C76.4887388,39.87 74.38,37.7612612 74.38,35.16 C74.38,32.5587388 76.4887388,30.45 79.09,30.45 C81.6912612,30.45 83.8,32.5587388 83.8,35.16" id="Shape" fill="#F2979A"></path>
                <path d="M54.58,14.42 C54.58,16.3250172 53.4324453,18.0424541 51.672439,18.7714726 C49.9124326,19.5004911 47.8865776,19.0975235 46.5395271,17.7504729 C45.1924765,16.4034224 44.7895089,14.3775674 45.5185274,12.617561 C46.2475459,10.8575547 47.9649828,9.71 49.87,9.71 C52.4712612,9.71 54.58,11.8187388 54.58,14.42" id="Shape" fill="#F2979A"></path>
                <path d="M73.9,76.64 C73.9,79.2412612 71.7912612,81.35 69.19,81.35 C66.5887388,81.35 64.48,79.2412612 64.48,76.64 C64.48,74.0387388 66.5887388,71.93 69.19,71.93 C71.7912612,71.93 73.9,74.0387388 73.9,76.64" id="Shape" fill="#F2979A"></path>
                <path d="M42.32,56.56 C42.32,59.1612612 40.2112612,61.27 37.61,61.27 C35.0087388,61.27 32.9,59.1612612 32.9,56.56 C32.9,53.9587388 35.0087388,51.85 37.61,51.85 C40.2112612,51.85 42.32,53.9587388 42.32,56.56" id="Shape" fill="#F2979A"></path>
                <path d="M26.29,79.94 C26.29,82.5412612 24.1812612,84.65 21.58,84.65 C18.9787388,84.65 16.87,82.5412612 16.87,79.94 C16.87,77.3387388 18.9787388,75.23 21.58,75.23 C24.1812612,75.23 26.29,77.3387388 26.29,79.94" id="Shape" fill="#F2979A"></path>
                <path d="M101.71,72.87 C101.71,75.4712612 99.6012612,77.58 97,77.58 C94.3987388,77.58 92.29,75.4712612 92.29,72.87 C92.29,70.2687388 94.3987388,68.16 97,68.16 C99.6012612,68.16 101.71,70.2687388 101.71,72.87" id="Shape" fill="#F2979A"></path>
                <path d="M132.82,71.93 C132.82,74.5312612 130.711261,76.64 128.11,76.64 C125.508739,76.64 123.4,74.5312612 123.4,71.93 C123.4,69.3287388 125.508739,67.22 128.11,67.22 C130.711261,67.22 132.82,69.3287388 132.82,71.93" id="Shape" fill="#F2979A"></path>
                <path d="M79.09,110.67 C79.09,113.271261 76.9812612,115.38 74.38,115.38 C71.7787388,115.38 69.67,113.271261 69.67,110.67 C69.67,108.068739 71.7787388,105.96 74.38,105.96 C75.6291697,105.96 76.8271766,106.456231 77.7104729,107.339527 C78.5937693,108.222823 79.09,109.42083 79.09,110.67" id="Shape" fill="#F2979A"></path>
                <path d="M46.09,106 C46.09,108.601261 43.9812612,110.71 41.38,110.71 C38.7787388,110.71 36.67,108.601261 36.67,106 C36.67,103.398739 38.7787388,101.29 41.38,101.29 C43.9812612,101.29 46.09,103.398739 46.09,106" id="Shape" fill="#F2979A"></path>
            </g>
        </g>
    </g>
</svg>