<?xml version="1.0" encoding="UTF-8"?>
<svg width="567px" height="124px" viewBox="0 0 567 124" version="1.1" xmlns="http://www.w3.org/2000/svg" xmlns:xlink="http://www.w3.org/1999/xlink">
    <!-- Generator: sketchtool 50 (54983) - http://www.bohemiancoding.com/sketch -->
    <title>5B723185-1939-466B-B6F4-442C879004CA</title>
    <desc>Created with sketchtool.</desc>
    <defs></defs>
    <g id="Public" stroke="none" stroke-width="1" fill="none" fill-rule="evenodd">
        <g id="Public/Become-a-carer" transform="translate(0.000000, -1523.000000)">
            <g id="Stacked-Group" transform="translate(0.000000, 102.000000)">
                <g id="Our-Approach" transform="translate(0.000000, 631.000000)">
                    <g id="We-ensure-Quality-Through" transform="translate(-742.000000, -415.000000)">
                        <g id="Group" transform="translate(0.000000, 551.000000)">
                            <g id="bc-first-bottom-left" transform="translate(283.000000, 654.000000)">
                                <g id="Edyn_Shape-02_1-Copy" transform="translate(726.500000, 697.500000) scale(-1, -1) translate(-726.500000, -697.500000) " fill="#FFFFFF" fill-rule="nonzero">
                                    <path d="M606.86797,1362.90859 C310,1272 111,922 36,719 C-39,516 17.4014637,387.80438 96.4002951,259.701809 C174.5095,132.773429 333.245553,77.4173914 467.276679,30.0227313 C601.307804,-17.3719289 744.003892,-4.98954019 893.692443,41.5867437 C1045.10687,88.0918644 1143.79314,189.196914 1241.91894,309.782878 C1340.04474,430.368841 1421.76583,546.978563 1436.63148,704.996345 C1451.25694,861.297316 1475.69498,1034.50843 1401.52682,1155.72597 C1327.35866,1276.9435 1159.73524,1303.45178 1019.7881,1353.83529 C878.586586,1404.68136 751.209866,1407.18097 606.86797,1362.90859 Z" id="Shape"></path>
                                </g>
                                <g id="Edyn_Rings-dotted" transform="translate(655.500000, 507.000000) scale(-1, -1) translate(-655.500000, -507.000000) translate(144.000000, 23.000000)" stroke="#F2E6CF" stroke-dasharray="15" stroke-width="2.5">
                                    <path d="M271.600176,182.5883 C339.040552,133.219697 415.705802,91.3189654 503.432555,91.1451323 C591.159307,90.9712992 671.908269,127.156399 739.626921,176.267728 C807.345574,225.379057 877.930477,287.347083 904.958108,370.773067 C931.902257,453.795759 919.992011,547.735169 894.36272,626.877906 C868.733429,706.020642 803.421871,761.702863 732.87871,813.129649 C662.078142,864.945821 588.30697,885.388595 504.733499,885.562428 C421.160027,885.736261 340.459763,875.299321 269.394833,823.754329 C198.712533,772.452702 127.47368,711.402515 101.733078,632.322359 C75.9924768,553.242202 115.479951,467.778894 142.243219,384.784015 C168.88822,301.337171 204.159801,231.963855 271.600176,182.5883 Z" id="Shape"></path>
                                    <path d="M266.894162,169.298041 C338.123081,117.192918 411.361878,66.5218169 503.9553,66.3895528 C596.548723,66.2572886 678.870215,104.418983 750.307772,156.301345 C821.745329,208.183708 900.047068,269.401136 928.602618,357.586533 C957.116441,445.465634 941.781568,544.601113 914.693436,628.345218 C887.605305,712.089323 821.940058,773.835808 747.352071,828.23119 C672.569356,882.918945 593.127064,888.794259 504.921988,888.933484 C416.716912,889.072709 334.374557,887.59692 259.424931,833.111042 C184.725671,778.813118 102.877091,719.210705 75.6776859,635.515328 C48.4782811,551.819952 95.4913153,460.613363 123.838228,372.748184 C152.136458,284.569748 195.665242,221.403164 266.894162,169.298041 Z" id="Shape"></path>
                                    <path d="M255.44524,150.16922 C330.533935,95.403032 408.63564,46.2255146 506.193188,46.135038 C603.750735,46.0445614 690.313923,83.5645155 765.534828,138.191509 C840.755733,192.818502 935.223726,253.19424 965.312088,346.009322 C995.372616,438.622571 958.45105,544.041741 929.823964,632.277315 C901.196878,720.512889 840.58873,788.105876 761.902514,845.38453 C683.07017,902.878936 599.770498,916.958488 506.826407,917.069844 C413.882316,917.1812 325.022838,910.993992 246.058284,853.631821 C167.27465,796.394926 76.0075462,732.880346 47.3247922,644.679571 C18.6420383,556.478795 64.4704268,454.483817 94.4474535,361.877527 C124.382729,269.062445 180.363505,204.935408 255.44524,150.16922 Z" id="Shape"></path>
                                    <path d="M233.198222,121.805546 C312.06962,64.3792031 401.799921,18.0456368 504.225609,18.0038823 C606.651298,17.9621279 697.035499,63.3631771 775.97646,120.719929 C854.917421,178.076681 939.312181,245.725914 970.949782,343.194813 C1002.58738,440.663712 972.271493,544.214848 942.178208,636.951571 C912.084923,729.688295 847.717571,792.835002 764.964516,853.003223 C682.21146,913.171444 602.094871,944.007135 504.545603,944.076726 C406.996334,944.146317 312.250486,933.749448 229.358302,873.518596 C146.466119,813.287743 59.8661876,741.991951 29.7102952,649.303941 C-0.445597153,556.615932 48.3742535,454.574916 79.9422904,357.217363 C111.510327,259.859809 154.326825,179.204052 233.198222,121.805546 Z" id="Shape"></path>
                                    <path d="M504.002631,0 C396.72778,0 306.45254,48.935894 223.804529,109.042619 C141.156518,169.149343 88.2248023,246.948436 55.0599153,349.079756 C21.8950283,451.211075 -20.4545161,558.130888 11.1181782,655.411074 C42.6908725,752.69126 131.909286,825.075459 218.694216,888.195871 C305.479147,951.316284 401.851998,967.707129 504.002631,967.707129 C606.153264,967.707129 695.524639,941.669698 782.30957,878.549285 C869.094501,815.428872 934.972342,742.787153 966.558942,645.534807 C998.145542,548.282461 1044.31218,432.265903 1011.1612,330.141544 C978.010215,228.017184 871.131673,163.233327 788.490615,103.126602 C705.849557,43.0198778 611.277483,0 504.002631,0 Z" id="Shape"></path>
                                </g>
                            </g>
                        </g>
                    </g>
                </g>
            </g>
        </g>
    </g>
</svg>