<?xml version="1.0" encoding="UTF-8"?>
<svg width="667px" height="828px" viewBox="0 0 667 828" version="1.1" xmlns="http://www.w3.org/2000/svg" xmlns:xlink="http://www.w3.org/1999/xlink">
    <!-- Generator: sketchtool 50 (54983) - http://www.bohemiancoding.com/sketch -->
    <title>A4F408B0-C775-44FA-B15E-AAA9BE36B4C3</title>
    <desc>Created with sketchtool.</desc>
    <defs></defs>
    <g id="Public" stroke="none" stroke-width="1" fill="none" fill-rule="evenodd" stroke-dasharray="15">
        <g id="Public/Become-a-carer" transform="translate(0.000000, -1941.000000)" stroke="#F9F7EF" stroke-width="2.5">
            <g id="Stacked-Group" transform="translate(0.000000, 102.000000)">
                <g id="Group-8" transform="translate(0.000000, 1545.000000)">
                    <g id="Group-7" transform="translate(-611.000000, 125.000000)">
                        <g id="Edyn_Shape-03" transform="translate(0.000000, 171.000000)">
                            <g id="bc-how-dotted-lines">
                                <path d="M651.644187,630.028441 C648.369714,635.10165 641.716265,636.54489 636.264616,637.708229 C630.812967,638.871568 624.176935,640.22734 619.125887,636.938501 C614.074838,633.649663 612.437602,627.045745 611.288053,621.570179 C610.138504,616.094612 612.58565,611.756145 615.860123,606.70043 C619.134595,601.644716 622.278438,598.609538 627.738795,597.419958 C633.199152,596.230378 637.318369,597.621137 642.395543,600.918722 C647.472718,604.216308 653.324967,606.831634 654.483224,612.289706 C655.641482,617.747779 654.91866,624.955233 651.644187,630.028441 Z" id="Shape"></path>
                                <path d="M600.214077,584.898625 C608.268232,576.536764 616.052464,570.354369 627.650447,569.268977 C638.824228,568.05313 650.055387,570.986865 659.196612,577.509275 C668.931255,584.195291 679.68464,591.723572 682.862766,602.942186 C685.33561,611.694789 683.332955,621.610932 681.060377,630.433 C678.813921,639.116138 672.945272,645.194334 666.449705,651.498292 C657.890533,659.782006 646.928175,663.151063 635.643651,664.253822 C624.359127,665.35658 612.256127,666.216211 602.303804,659.313116 C594.693716,654.033769 587.275186,647.599564 584.227668,639.168237 C581.18015,630.73691 584.636906,621.506734 585.690477,612.797547 C587.040092,601.578933 592.159922,593.260487 600.214077,584.898625 Z" id="Shape"></path>
                                <path d="M582.570184,561.445431 C595.372229,549.782315 609.764751,541.167021 627.459906,540.119332 C645.155061,539.071643 661.164135,544.994116 675.556657,555.072711 C689.94918,565.151306 706.775221,576.719178 711.876918,593.68135 C716.274633,608.331679 713.111059,625.570925 708.99146,639.978814 C704.889244,654.230848 694.216528,664.898227 682.639934,674.855602 C669.073069,686.562011 652.142735,689.445321 635.047268,690.484351 C617.951802,691.523381 600.752042,692.008262 585.89889,681.531372 C573.253286,672.613028 558.886836,662.8548 554.028491,648.819231 C549.170145,634.783662 554.184931,618.514177 557.1573,603.794579 C560.590299,586.918994 569.733375,573.108548 582.570184,561.445431 Z" id="Shape"></path>
                                <path d="M568.777928,541.102405 C586.300331,526.08067 603.926776,513.072246 627.691697,512.074269 C651.456618,511.076291 671.831505,520.231652 690.862516,533.769438 C709.893528,547.307224 732.15851,561.69546 739.155333,584.518778 C745.475883,605.129189 740.126392,628.395088 734.152648,648.458781 C728.204915,668.418337 714.662118,683.509496 698.076093,697.142741 C679.547951,712.37275 657.733817,717.839932 634.879263,718.83791 C612.024709,719.835888 590.592062,716.451442 570.858768,702.349581 C553.206313,689.749027 533.126211,677.235253 526.467525,657.527362 C519.808839,637.81947 528.201558,615.820568 533.117541,595.184123 C538.571075,572.421552 551.264196,556.12414 568.777928,541.102405 Z" id="Shape"></path>
                                <path d="M551.815097,517.532482 C574.100733,499.222932 597.696267,480.982671 627.589727,480.047273 C657.483187,479.111876 684.843597,492.172803 708.577929,509.027289 C732.31226,525.881775 757.772883,546.521158 766.699281,575.094102 C774.966393,601.588384 766.03132,630.4125 758.206624,656.049334 C750.399278,681.54759 734.428918,700.524044 712.750521,717.759618 C689.224385,736.467578 663.156525,743.898795 634.477541,744.834193 C605.798557,745.769591 577.987056,743.188586 553.289818,725.589246 C530.622491,709.306392 504.710777,691.810985 496.21812,666.48595 C487.725462,641.160916 497.953085,611.921068 504.892949,585.374819 C512.318602,556.853842 529.529462,535.842031 551.815097,517.532482 Z" id="Shape"></path>
                                <path d="M537.570084,497.998306 C564.584115,476.302747 591.598145,456.924273 627.573519,456.047772 C663.548893,455.171271 696.41293,466.392215 724.770295,486.725293 C753.12766,507.058372 785.33303,531.452859 796.149042,565.879374 C806.34972,598.353287 794.129706,634.341882 784.457695,665.678948 C774.785684,697.016015 754.748328,720.074056 728.011632,740.971219 C699.524266,763.230863 668.384898,772.004547 633.934859,772.889726 C599.484821,773.774905 566.646784,769.661427 537.05875,748.434491 C509.386053,728.474576 478.714685,706.943903 468.42734,675.945287 C458.139995,644.946671 473.445346,610.580905 482.380689,578.0636 C491.8187,543.697833 510.556054,519.67651 537.570084,497.998306 Z" id="Shape"></path>
                                <path d="M519.653906,472.735748 C551.467781,447.703015 585.62538,426.856881 627.760319,426.031722 C669.895258,425.206562 707.854897,440.545843 740.927439,464.319122 C773.999981,488.0924 811.560319,516.008848 824.30323,556.276631 C836.45587,594.720377 822.506375,637.055401 810.952687,673.996488 C799.398998,710.937575 775.362812,737.907261 743.462132,762.444898 C709.938207,788.250675 674.018475,795.051727 633.67171,795.876886 C593.324946,796.702046 556.163909,793.974676 521.615689,769.133033 C488.855644,745.455299 450.861283,721.516988 438.734684,684.879907 C426.608086,648.242826 440.331888,605.838315 451.303986,567.316396 C462.76219,527.109415 487.84003,497.759795 519.653906,472.735748 Z" id="Shape"></path>
                                <path d="M502.700959,449.137335 C539.266827,420.79194 579.321771,396.787341 627.587328,396.023361 C675.852884,395.259381 720.039173,413.299727 757.776745,440.464425 C795.514318,467.629124 839.882871,499.889916 854.446727,545.980482 C868.637374,590.308686 852.710868,640.540372 839.292679,683.14962 C825.87449,725.758869 796.998477,757.846029 760.024682,785.983066 C721.514653,815.300799 679.307244,824.182066 633.168114,824.937365 C587.028984,825.692663 544.170628,819.910724 504.714555,791.487195 C466.924907,764.148864 428.970352,734.05847 415.031405,691.761759 C401.092459,649.465047 413.955173,602.975127 426.948077,558.577471 C440.392304,512.617128 466.135091,477.500093 502.700959,449.137335 Z" id="Shape"></path>
                                <path d="M485.264594,425.293026 C526.56745,393.630617 573.283662,364.736175 627.642767,364.015983 C682.001872,363.295791 732.326987,387.001382 774.722924,417.570487 C817.118862,448.139593 867.478678,484.852021 883.944299,536.723186 C900.071585,586.954396 880.560952,644.040443 865.309866,692.206525 C850.05878,740.372606 816.346765,775.228155 774.306512,806.977334 C730.834844,839.802462 684.821328,853.234473 632.899967,853.945988 C580.978607,854.657502 530.957126,848.661689 486.591907,816.634845 C443.779557,785.675274 393.706025,751.85229 377.951774,703.920488 C362.197523,655.988686 387.754805,600.915705 402.762984,550.615079 C418.204926,498.874069 443.961737,456.955435 485.264594,425.293026 Z" id="Shape"></path>
                                <path d="M470.156744,404.470717 C516.183154,369.491893 567.01247,340.672536 627.447599,340.013213 C687.882729,339.353889 741.937101,363.436532 788.977843,397.42637 C836.018585,431.416209 894.338355,469.492116 912.709039,527.156857 C930.758951,583.312096 905.938154,646.503006 888.841888,700.281212 C871.745621,754.059418 836.235323,793.540724 789.142564,828.90126 C740.714701,865.250781 689.894054,875.296783 632.224497,875.956106 C574.554941,876.615429 522.459876,870.169678 473.20841,834.583584 C425.352735,799.925747 372.780848,764.495808 355.259775,710.94316 C337.738703,657.390512 360.80826,598.381098 377.800492,542.165132 C395.252209,484.61317 424.130335,439.406164 470.156744,404.470717 Z" id="Shape"></path>
                                <path d="M454.289328,381.355005 C505.127622,343.015355 561.321427,309.607072 627.939816,309.008015 C694.558205,308.408958 750.864849,341.478643 802.631894,378.889321 C854.398939,416.3 918.361273,454.839336 938.680966,518.356747 C958.696863,580.48504 943.020927,651.850966 924.037941,711.296525 C905.054955,770.742084 854.416299,807.666571 802.154498,846.735509 C748.677509,886.672645 695.903592,903.376786 632.331855,903.975844 C568.760118,904.574901 512.548954,894.191245 458.290771,854.983396 C405.343257,816.635063 340.148374,780.795824 320.748752,721.567315 C301.34913,662.338805 335.712935,595.869519 354.78272,533.680452 C374.217062,470.24118 403.451034,419.694656 454.289328,381.355005 Z" id="Shape"></path>
                                <path d="M438.260671,358.746852 C493.863961,317.11766 555.560523,277.561256 628.297888,277.0062 C701.035254,276.451144 764.667429,313.249615 821.103986,354.037549 C877.540543,394.825484 939.61902,441.588943 961.848184,510.832165 C983.808272,578.826511 961.978382,651.851051 941.137999,716.853299 C920.297615,781.855547 878.304373,830.050009 820.939068,872.615857 C762.4801,915.979599 701.668885,927.418953 632.281952,927.974009 C562.895019,928.529065 500.799182,920.463409 441.645823,877.67207 C383.690288,835.695968 320.448707,792.861265 299.226409,728.05849 C278.004111,663.255715 308.236121,592.885036 329.328221,524.838653 C350.767516,455.71685 382.657382,400.367371 438.260671,358.746852 Z" id="Shape"></path>
                                <path d="M420.043052,334.055576 C480.369738,289.066616 548.851023,255.500668 627.664359,255.005902 C706.477695,254.511136 776.876179,285.169251 837.948923,329.403042 C899.021668,373.636833 975.015595,423.148126 999.123714,498.257034 C1023.01496,572.237529 998.880811,658.161842 976.204085,728.843899 C953.527358,799.525956 894.354461,843.93335 831.9284,890.146204 C768.513377,937.096867 706.382269,955.481319 631.221152,955.976085 C556.060036,956.470851 486.511712,949.630932 422.480757,903.244475 C359.525514,857.561107 284.052093,810.636485 261.028363,740.13671 C238.004632,669.636935 276.964532,589.102964 300.066339,515.087749 C323.489124,440.056961 359.716366,379.044536 420.043052,334.055576 Z" id="Shape"></path>
                                <path d="M405.135561,312.167521 C470.17951,263.888274 543.167493,227.43818 628.071527,227.00456 C712.975562,226.57094 790.06565,257.097785 855.8034,304.709258 C921.541151,352.32073 992.256932,410.51253 1018.29186,491.365309 C1044.11864,571.203417 1022.62812,659.08084 998.076198,735.319902 C973.524275,811.558965 920.890712,869.395196 853.418456,919.174769 C785.035584,969.613443 712.229724,990.548615 631.271689,990.990907 C550.313655,991.4332 474.481083,975.822881 405.551842,925.878533 C337.57658,876.567271 261.241001,823.188653 236.437576,747.105693 C211.63415,671.022734 254.736606,587.125942 279.869588,507.2358 C305.245401,426.478417 340.074267,360.438096 405.135561,312.167521 Z" id="Shape"></path>
                                <path d="M396.325614,299.780143 C466.127618,248.117998 537.343005,192.384344 628.345742,192.002369 C719.348479,191.620394 797.760843,237.492142 868.143808,288.555281 C938.526773,339.61842 1026.27786,393.693954 1054.22468,480.411004 C1081.97206,566.268611 1050.40074,663.021192 1024.02339,744.954871 C997.646035,826.888551 942.272669,890.001271 869.583203,943.304173 C796.338789,997.46652 717.839716,1005.59217 631.129151,1005.98283 C544.418587,1006.37349 465.139118,1000.49628 391.305072,946.9503 C318.312119,893.916517 234.532372,839.05967 207.886216,757.256209 C181.240059,675.452748 228.453962,585.558358 255.577026,499.657345 C282.994907,412.97502 326.52361,351.433607 396.325614,299.780143 Z" id="Shape"></path>
                                <path d="M375.84937,273.538201 C450.465955,218.562645 533.160218,165.331656 630.335304,165.001838 C727.510391,164.672019 816.790001,208.780919 891.892461,263.261747 C966.994921,317.742575 1056.74305,382.543254 1086.61572,475.040017 C1116.33221,566.807708 1086.79792,672.644766 1058.54773,760.18557 C1030.29755,847.726375 965.415825,913.707457 887.623698,970.627207 C809.328343,1028.28471 725.376009,1041.65104 632.764681,1041.98086 C540.153353,1042.31068 449.615673,1039.00381 370.817089,981.84104 C292.729966,925.146956 212.378316,857.160923 183.893869,769.732951 C155.409422,682.30498 194.583129,584.704707 223.805065,492.858902 C253.157147,400.448933 301.250139,328.513757 375.84937,273.538201 Z" id="Shape"></path>
                                <path d="M356.956893,250.134211 C436.287706,191.818539 526.920514,142.270182 630.182413,142.001087 C733.444312,141.731991 823.842927,191.479999 903.598757,249.361646 C983.354587,307.243293 1069.58977,374.361003 1101.36199,472.728553 C1133.01278,570.445064 1103.62586,674.984457 1073.52768,768.204464 C1043.42951,861.424471 983.953081,932.821673 901.083347,993.385598 C817.814618,1054.56584 730.581949,1080.7289 632.19474,1080.99799 C533.807532,1081.26709 447.56368,1054.46167 363.878606,993.698097 C280.783353,933.325143 192.214915,872.361915 161.917241,779.289477 C131.619566,686.217039 170.729848,585.870332 202.103077,488.179862 C233.337524,389.794951 277.62608,308.423842 356.956893,250.134211 Z" id="Shape"></path>
                                <path d="M339.222412,228.07164 C423.311334,166.486732 518.902413,114.217626 628.285671,114.000778 C737.668929,113.78393 838.351837,158.923065 922.787732,220.187037 C1007.22363,281.451009 1095.23334,358.753079 1128.9331,462.8229 C1162.52877,566.389632 1147.67832,683.574435 1115.7221,782.301114 C1083.76588,881.027792 1002.33131,950.488629 914.373635,1014.64102 C826.095014,1079.27915 734.112455,1104.78051 629.90777,1104.99736 C525.703085,1105.2142 425.080896,1092.19463 336.47265,1027.89479 C248.341492,963.898526 159.516388,887.741415 127.42138,789.092801 C95.3263717,690.444188 144.561849,583.832906 177.931984,480.30087 C211.154654,376.205028 255.13349,289.665222 339.222412,228.07164 Z" id="Shape"></path>
                                <path d="M332.681008,211.237087 C421.516506,146.307681 512.858687,83.1652446 628.33963,83.0004271 C743.820572,82.8356096 846.490538,130.389785 935.586244,195.041602 C1024.68195,259.69342 1122.33855,335.977881 1157.95254,445.867755 C1193.5145,555.375946 1174.38911,678.91097 1140.60525,783.266447 C1106.82139,887.621924 1024.92481,964.565654 931.899944,1032.349 C838.632213,1100.49669 739.553138,1107.81805 629.545267,1107.99154 C519.537396,1108.16504 416.84141,1106.32602 323.365511,1038.4299 C230.201863,970.767996 128.121706,896.496043 94.1990709,792.201288 C60.2764356,687.906534 118.910293,574.251882 154.26408,464.76104 C189.557151,354.879841 243.845511,276.166492 332.681008,211.237087 Z" id="Shape"></path>
                                <path d="M318.842986,187.723935 C412.478768,119.434127 509.871782,58.1130219 631.526277,58.0002036 C753.180773,57.8873853 861.125275,104.672282 954.925924,172.788523 C1048.72657,240.904763 1166.52839,316.189307 1204.04865,431.923565 C1241.5342,547.40615 1195.49292,678.85687 1159.79487,788.880784 C1124.09683,898.904697 1048.51832,983.188674 950.39642,1054.61136 C852.092299,1126.30307 748.217408,1143.85934 632.315903,1143.9982 C516.414399,1144.13705 405.606417,1136.42201 307.137428,1064.89518 C208.894048,993.524569 95.0837506,914.326096 59.3162877,804.345574 C23.5488247,694.365052 80.6969351,567.184073 118.078359,451.710165 C155.40772,335.975908 225.215881,256.013742 318.842986,187.723935 Z" id="Shape"></path>
                                <path d="M290.488151,152.461636 C388.819197,80.8394101 500.688324,23.0521122 628.385124,23.0000359 C756.081924,22.9479596 868.766285,79.572221 967.184058,151.107654 C1065.60183,222.643086 1170.819,307.015319 1210.26243,428.578685 C1249.70586,550.142052 1211.91024,679.291195 1174.39215,794.952585 C1136.87406,910.613974 1056.62559,989.370649 953.455177,1064.41255 C850.284766,1139.45445 750.401307,1177.91278 628.784068,1177.99957 C507.166829,1178.08636 389.044687,1165.11937 285.700822,1089.99936 C182.356956,1014.87934 74.3905433,925.959114 36.7943989,810.35848 C-0.801745394,694.757846 60.0632467,567.492128 99.4199487,446.067632 C138.776651,324.643135 192.157105,224.049145 290.488151,152.461636 Z" id="Shape"></path>
                                <path d="M628.878971,0 C495.024713,0 382.382047,60.9861045 279.256403,135.893799 C176.130759,210.801493 110.084193,307.75821 68.7020676,435.038838 C27.3199424,562.319467 -25.5225157,695.56773 13.8729205,816.802658 C53.2683568,938.037587 164.592347,1028.24602 272.879912,1106.90951 C381.167478,1185.57299 501.418555,1206 628.878971,1206 C756.339387,1206 867.854237,1173.55099 976.141803,1094.8875 C1084.42937,1016.22401 1166.62971,925.694645 1206.0425,804.494412 C1245.45529,683.294179 1303.06059,538.709144 1261.69582,411.43719 C1220.33104,284.165235 1086.97129,203.428689 983.854321,128.520994 C880.737352,53.6133 762.733229,0 628.878971,0 Z" id="Shape"></path>
                            </g>
                        </g>
                    </g>
                </g>
            </g>
        </g>
    </g>
</svg>