<?xml version="1.0" encoding="UTF-8"?>
<svg width="535px" height="479px" viewBox="0 0 535 479" version="1.1" xmlns="http://www.w3.org/2000/svg" xmlns:xlink="http://www.w3.org/1999/xlink">
    <!-- Generator: sketchtool 50 (54983) - http://www.bohemiancoding.com/sketch -->
    <title>BCDAE076-EBD4-41F9-B314-B02F65E2A74A</title>
    <desc>Created with sketchtool.</desc>
    <defs></defs>
    <g id="Public" stroke="none" stroke-width="1" fill="none" fill-rule="evenodd">
        <g id="Public/Become-a-carer" transform="translate(-905.000000, -104.000000)" fill="#FFFFFF" fill-rule="nonzero">
            <g id="Stacked-Group" transform="translate(0.000000, 102.000000)">
                <g id="Hero">
                    <g id="Group">
                        <g transform="translate(-1142.000000, -995.000000)" id="bc-hero-leaves-right">
                            <g transform="translate(2619.432035, 848.554751) rotate(-39.000000) translate(-2619.432035, -848.554751) translate(1959.432035, 292.054751)">
                                <g id="Edyn_Leaves" transform="translate(-0.000000, -0.000000)">
                                    <path d="M483.778865,715.067025 C485.86347,718.684776 490.242756,721.09661 495.38155,721.956831 C500.520343,722.817052 490.156571,704.913204 485.007004,704.036904 C482.319103,707.44161 481.710419,711.465353 483.778865,715.067025 Z" id="Shape"></path>
                                    <path d="M392.185389,739.978689 C388.824884,736.982642 383.8103,735.655589 378.711965,736.0016 C373.61363,736.347611 390.306228,751.242359 395.420267,750.900419 C396.556138,747.000673 395.540659,742.974735 392.185389,739.978689 Z" id="Shape"></path>
                                    <path d="M183.364442,760.352407 C181.497051,764.084388 182.455682,768.125671 185.470105,771.450674 C188.484528,774.775677 197.766068,756.225659 194.751646,752.900656 C189.520735,753.995424 185.226291,756.620427 183.364442,760.352407 Z" id="Shape"></path>
                                    <path d="M316.409508,668.181473 C313.89835,664.776605 309.254058,662.685269 303.988726,662.165412 C298.723394,661.645554 311.235982,678.586562 316.485113,679.106419 C318.769457,675.586468 318.920667,671.59031 316.409508,668.181473 Z" id="Shape"></path>
                                    <path d="M242.475868,596.223136 C240.870212,592.423668 236.85072,589.67938 231.851778,588.419707 C226.852835,587.160034 234.902524,606.055128 239.880058,607.306622 C242.968269,604.051103 244.092228,600.018514 242.475868,596.223136 Z" id="Shape"></path>
                                    <path d="M199.233399,572.144593 C199.079637,576.11267 201.710066,579.718904 205.971471,582.166427 C210.232877,584.61395 210.996196,564.879271 206.745773,562.431748 C202.292165,564.68412 199.387161,568.17245 199.233399,572.144593 Z" id="Shape"></path>
                                    <path d="M245.075378,422.715857 C240.161466,424.281365 236.781786,427.644464 235.498709,431.670057 C234.215632,435.695649 258.746975,427.910305 260.030052,423.893152 C255.460114,421.715788 250.03297,421.146129 245.075378,422.715857 Z" id="Shape"></path>
                                    <path d="M187.88903,958.049461 C186.877633,961.996816 188.435184,965.960705 191.747509,968.982188 C195.059834,972.003672 200.167388,952.374363 196.865177,949.35288 C192.308834,951.006222 188.900427,954.106239 187.88903,958.049461 Z" id="Shape"></path>
                                    <path d="M62.9425617,863.436623 C58.523561,865.64679 55.9961277,869.448447 55.6327758,873.629844 C55.2694239,877.811241 77.2468724,866.803074 77.6209112,862.63021 C72.7477205,861.072854 67.3615625,861.226456 62.9425617,863.436623 Z" id="Shape"></path>
                                    <path d="M24.4674736,828.066779 C23.8261694,824.083978 20.7061736,820.788292 16.3239283,818.850379 C11.9416829,816.912466 15.1380245,836.723612 19.5100904,838.661525 C23.1339681,835.880147 25.0833292,832.053695 24.4674736,828.066779 Z" id="Shape"></path>
                                    <path d="M104.748763,802.273202 C100.1992,800.33084 94.7720296,800.33084 89.9371095,801.907768 C85.1021895,803.484696 107.736938,813.136924 112.550321,811.563968 C112.033448,807.687188 109.325247,804.215564 104.748763,802.273202 Z" id="Shape"></path>
                                    <path d="M84.3977365,633.238254 C79.2493151,633.132418 74.5756456,635.172927 71.4211825,638.466527 C68.2667194,641.760128 93.8664008,642.276605 97.026139,638.995705 C94.0826767,635.575101 89.5514329,633.344089 84.3977365,633.238254 Z" id="Shape"></path>
                                    <path d="M17.7796428,570.176722 C22.9021152,570.958166 28.0299459,569.727392 31.936099,567.156443 C35.8422521,564.585493 10.3692042,560.709533 6.46840927,563.272668 C8.6331361,566.769628 12.6518122,569.395279 17.7796428,570.176722 Z" id="Shape"></path>
                                    <path d="M2.60963645,593.544783 C2.88802918,597.521183 5.82186033,600.963319 10.2440219,603.149319 C14.6661834,605.335319 13.2474512,585.559356 8.84670449,583.373356 C4.77253386,585.906017 2.32589,589.568383 2.60963645,593.544783 Z" id="Shape"></path>
                                    <path d="M0.471798297,591.698411 C1.72673798,595.691799 5.34361697,598.721703 10.0011776,600.242994 C14.6587383,601.764285 8.39934407,581.91144 3.74688478,580.381697 C0.578927294,583.610215 -0.803546905,587.705022 0.471798297,591.698411 Z" id="Shape"></path>
                                    <path d="M61.503172,414.970033 C59.9458044,418.903852 61.0671091,423.070316 64.0676373,426.424637 C67.0681656,429.778958 74.7615616,410.219841 71.7662245,406.86552 C66.9280025,408.172563 63.0501572,411.036214 61.503172,414.970033 Z" id="Shape"></path>
                                    <path d="M79.0335588,380.969029 C82.9133854,378.360163 84.5523703,374.549951 83.9773821,370.680266 C83.402394,366.810582 64.1268568,379.7994 64.6964713,383.653226 C69.8659908,384.430335 75.159106,383.577894 79.0335588,380.969029 Z" id="Shape"></path>
                                    <path d="M139.756839,360.474489 C144.300861,362.420021 149.733229,362.427961 154.567983,360.871536 C159.402737,359.315111 136.801071,349.62716 131.955549,351.191526 C132.52086,355.054795 135.2182,358.528958 139.756839,360.474489 Z" id="Shape"></path>
                                    <path d="M182.825525,956.586531 C187.752594,955.120843 191.234319,951.728697 192.695783,947.590541 C194.157248,943.452386 169.645478,950.750109 168.178641,954.883876 C172.563035,957.284269 177.893082,958.052219 182.825525,956.586531 Z" id="Shape"></path>
                                </g>
                            </g>
                        </g>
                    </g>
                </g>
            </g>
        </g>
    </g>
</svg>