<?xml version="1.0" encoding="UTF-8"?>
<svg width="405px" height="617px" viewBox="0 0 405 617" version="1.1" xmlns="http://www.w3.org/2000/svg" xmlns:xlink="http://www.w3.org/1999/xlink">
    <!-- Generator: sketchtool 50 (54983) - http://www.bohemiancoding.com/sketch -->
    <title>50B82ED0-2D08-4B84-9AEF-16BAABE55946</title>
    <desc>Created with sketchtool.</desc>
    <defs></defs>
    <g id="Public" stroke="none" stroke-width="1" fill="none" fill-rule="evenodd">
        <g id="Public/Become-a-carer" transform="translate(0.000000, -102.000000)" fill="#FFFFFF" fill-rule="nonzero">
            <g id="Stacked-Group" transform="translate(0.000000, 102.000000)">
                <g id="Hero">
                    <g id="Group">
                        <g transform="translate(-1142.000000, -995.000000)" id="bc-hero-leaves-left">
                            <g transform="translate(863.307035, 1319.440546) rotate(-39.000000) translate(-863.307035, -1319.440546) translate(203.307035, 762.940546)">
                                <g id="Edyn_Leaves" transform="translate(-0.000000, -0.000000)">
                                    <path d="M878.355742,729.034454 C880.447489,732.655609 884.80843,735.069713 889.954449,735.918673 C895.100468,736.767632 884.700886,718.86303 879.560244,717.997976 C876.89851,721.401862 876.280127,725.433416 878.355742,729.034454 Z" id="Shape"></path>
                                    <path d="M1104.49021,506.583524 C1109.63847,506.689407 1114.312,504.652223 1117.47164,501.357152 C1120.63127,498.06208 1095.02712,497.545373 1091.86748,500.823502 C1094.80558,504.245633 1099.34196,506.477641 1104.49021,506.583524 Z" id="Shape"></path>
                                    <path d="M1051.7147,589.356047 C1056.86575,589.309801 1061.4468,587.153063 1064.4551,583.789729 C1067.46339,580.426394 1041.8401,580.657624 1038.82653,584.01255 C1041.92454,587.317025 1046.57421,589.398089 1051.7147,589.356047 Z" id="Shape"></path>
                                    <path d="M1162.93228,583.85697 C1162.38017,579.873515 1159.32031,576.542345 1154.90338,574.540362 C1150.48645,572.538378 1153.26767,592.336683 1157.65364,594.342769 C1161.39461,591.626964 1163.4844,587.840425 1162.93228,583.85697 Z" id="Shape"></path>
                                    <path d="M1001.61203,780.952511 C996.442518,781.531839 992.242623,783.960409 989.826612,787.309765 C987.410601,790.65912 1013.11889,787.77783 1015.54025,784.436148 C1011.81713,781.769708 1006.78155,780.373184 1001.61203,780.952511 Z" id="Shape"></path>
                                    <path d="M957.03415,814.611474 C952.213763,813.077242 946.857777,813.614633 942.358749,815.706767 C937.859721,817.798901 961.892028,825.433137 966.380344,823.345106 C965.148468,819.431585 961.865248,816.145705 957.03415,814.611474 Z" id="Shape"></path>
                                    <path d="M866.820444,809.685637 C864.73665,806.067939 860.359067,803.65614 855.222272,802.791912 C850.085477,801.927684 860.439834,819.839308 865.587398,820.711576 C868.274254,817.31094 868.904238,813.287256 866.820444,809.685637 Z" id="Shape"></path>
                                    <path d="M805.762522,955.903449 C801.343775,957.901089 798.730312,961.443463 798.210768,965.394261 C797.691225,969.345058 819.674751,959.409429 820.194295,955.466718 C815.476417,953.88559 810.186516,953.909853 805.762522,955.903449 Z" id="Shape"></path>
                                    <path d="M721.099807,966.868091 C724.76613,969.655833 729.976168,970.715175 735.180846,970.145679 C740.385524,969.576183 722.139671,955.784826 716.956434,956.350339 C716.082734,960.205388 717.433484,964.092297 721.099807,966.868091 Z" id="Shape"></path>
                                    <path d="M1228.9869,620.12768 C1225.59879,617.14422 1220.67017,615.900071 1215.68013,616.382751 C1210.6901,616.86543 1227.55386,631.691192 1232.53878,631.229317 C1233.52143,627.201437 1232.38524,623.127785 1228.9869,620.12768 Z" id="Shape"></path>
                                    <path d="M1176.58729,712.063232 C1179.1411,715.470319 1183.76356,717.524181 1188.96182,717.988602 C1194.16009,718.453022 1181.46033,701.509667 1176.27273,701.045246 C1174.09745,704.620486 1174.0548,708.656144 1176.58729,712.063232 Z" id="Shape"></path>
                                    <path d="M1227.62522,791.872908 C1222.79816,790.115601 1217.37582,790.581288 1212.76521,792.729595 C1208.15461,794.877902 1232.15466,803.567782 1236.75985,801.428261 C1235.65049,797.206333 1232.45229,793.621428 1227.62522,791.872908 Z" id="Shape"></path>
                                    <path d="M1104.09951,796.031079 C1108.93506,797.478774 1114.1881,796.754926 1118.5163,794.44713 C1122.84451,792.139333 1098.77777,784.951952 1094.45485,787.25549 C1095.86059,791.279232 1099.25868,794.587641 1104.09951,796.031079 Z" id="Shape"></path>
                                    <path d="M1262.94284,894.432403 C1267.61504,892.758716 1270.66466,889.415384 1271.65829,885.538413 C1272.65193,881.661442 1249.41248,889.985408 1248.40299,893.858337 C1252.95891,895.754373 1258.27064,896.098005 1262.94284,894.432403 Z" id="Shape"></path>
                                    <path d="M1114.39334,979.131121 C1112.76227,975.334333 1108.75389,972.577873 1103.77539,971.349139 C1098.7969,970.120405 1106.90427,989.00195 1111.87744,990.238876 C1114.92637,986.970443 1116.0404,982.927909 1114.39334,979.131121 Z" id="Shape"></path>
                                    <path d="M1054.795,963.325552 C1049.64605,963.143528 1044.9297,965.116159 1041.69578,968.362958 C1038.46187,971.609758 1064.05361,972.502945 1067.28753,969.264612 C1064.444,965.797691 1059.96505,963.503342 1054.795,963.325552 Z" id="Shape"></path>
                                    <path d="M932.135725,979.926875 C927.9791,982.481928 926.013352,986.382837 926.30437,990.445248 C926.595389,994.507659 947.257712,981.798648 946.972184,977.740378 C941.755813,976.709246 936.29235,977.371821 932.135725,979.926875 Z" id="Shape"></path>
                                    <path d="M929.533892,1036.32667 C924.971831,1034.50705 919.738727,1034.80465 915.223483,1036.75182 C910.70824,1038.69898 933.43011,1047.75459 937.919344,1045.81167 C937.040224,1041.70476 934.095952,1038.15055 929.533892,1036.32667 Z" id="Shape"></path>
                                    <path d="M862.017852,1084.27958 C859.590139,1087.79403 859.821094,1091.88949 862.157499,1095.46489 C864.493905,1099.04029 876.562648,1081.55333 874.231613,1077.99418 C869.016327,1078.56706 864.445565,1080.77325 862.017852,1084.27958 Z" id="Shape"></path>
                                </g>
                            </g>
                        </g>
                    </g>
                </g>
            </g>
        </g>
    </g>
</svg>