<?xml version="1.0" encoding="UTF-8"?>
<svg width="19px" height="50px" viewBox="0 0 19 50" version="1.1" xmlns="http://www.w3.org/2000/svg" xmlns:xlink="http://www.w3.org/1999/xlink">
    <!-- Generator: Sketch 49.1 (51147) - http://www.bohemiancoding.com/sketch -->
    <title>Shape</title>
    <desc>Created with Sketch.</desc>
    <defs></defs>
    <g id="Branding" stroke="none" stroke-width="1" fill="none" fill-rule="evenodd">
        <g id="Public/Become-a-carer" transform="translate(-784.000000, -923.000000)" fill="#33535C" fill-rule="nonzero">
            <g id="Our-benefits" transform="translate(5.000000, 410.000000)">
                <g id="Stacked-Group" transform="translate(779.000000, 499.000000)">
                    <path d="M19,46.6039978 C19,46.2798487 18.9198312,45.8476499 18.7594937,45.6315505 C18.5991561,45.4154511 18.3586498,45.1993517 18.0379747,45.1993517 L17.2362869,45.1993517 C13.7088608,44.9832523 11.6244726,47.1442464 10.5021097,48.9810913 L10.5021097,34.0702323 C14.5105485,33.5299838 16.7552743,29.4240951 16.7552743,22.5089141 C16.7552743,18.6191248 16.0337553,15.1615343 15.9535865,15.0534846 C15.8734177,14.6212858 15.5527426,14.189087 15.2320675,14.0810373 C14.9113924,13.9729876 14.5105485,14.0810373 14.2700422,14.4051864 L13.1476793,15.9178822 L12.0253165,14.4051864 C11.6244726,13.8649379 10.9831224,13.8649379 10.5822785,14.4051864 L9.45991561,15.9178822 L8.33755274,14.4051864 C7.93670886,13.8649379 7.29535865,13.8649379 6.89451477,14.4051864 L5.7721519,15.9178822 L4.64978903,14.4051864 C4.4092827,14.0810373 4.00843882,13.9729876 3.68776371,14.0810373 C3.36708861,14.189087 3.0464135,14.5132361 2.96624473,15.0534846 C2.96624473,15.1615343 2.16455696,18.6191248 2.16455696,22.5089141 C2.16455696,29.4240951 4.32911392,33.5299838 8.41772152,34.0702323 L8.41772152,39.9049163 C6.57383966,36.7714749 3.60759494,35.6909778 1.76371308,35.6909778 L0.962025316,35.6909778 C0.400843882,35.6909778 0,36.3392761 0,36.9875743 L0,38.0680713 C0,46.9281469 5.45147679,49.3052404 8.33755274,49.3052404 L8.4978903,49.3052404 L8.4978903,62.7034036 C8.4978903,63.4597515 8.97890295,64 9.45991561,64 C9.94092827,64 10.4219409,63.3517018 10.4219409,62.7034036 L10.4219409,58.4894652 C10.5021097,58.4894652 10.5822785,58.4894652 10.742616,58.4894652 C16.9156118,58.4894652 18.7594937,51.4662345 18.9198312,47.7925446 L19,46.6039978 Z M1.72727273,36 C2.76136364,36.1052632 7.69318182,36.7368421 7.77272727,44 C6.73863636,44 1.80681818,43.2631579 1.72727273,36 Z M4.31818182,20.0615385 C4.31818182,18.4461538 4.47520661,16.9384615 4.6322314,15.7538462 L5.18181818,16.5076923 C5.57438017,17.0461538 6.20247934,17.0461538 6.59504132,16.5076923 L7.69421488,15 L8.79338843,16.5076923 C9.18595041,17.0461538 9.81404959,17.0461538 10.2066116,16.5076923 L11.3057851,15 L12.4049587,16.5076923 C12.7975207,17.0461538 13.4256198,17.0461538 13.8181818,16.5076923 L14.3677686,15.7538462 C14.5247934,16.9384615 14.6818182,18.5538462 14.6818182,20.1692308 C14.6818182,29 10.8347107,29 9.5785124,29 C8.32231405,29 4.31818182,29 4.31818182,20.0615385 Z M10.5903409,54 C10.5147727,54 10.4392045,54 10.3636364,54 C10.4392045,52.5768071 10.8170455,50.4967559 11.7238636,48.8546103 C12.7818182,46.8840355 14.36875,45.8987481 16.4090909,46.0082245 C16.2579545,48.8546103 14.8977273,54 10.5903409,54 Z" id="Shape"></path>
                </g>
            </g>
        </g>
    </g>
</svg>