
<svg width="17px" height="19px" viewBox="0 0 17 19" version="1.1" xmlns="http://www.w3.org/2000/svg" xmlns:xlink="http://www.w3.org/1999/xlink">
    <!-- Generator: Sketch 50 (54983) - http://www.bohemiancoding.com/sketch -->
    <desc>Created with Sketch.</desc>
    <defs></defs>
    <g id="icon-header" stroke="none" stroke-width="1" fill="none" fill-rule="evenodd">
        <g id="NEWUsers/Admin-Portal1" transform="translate(-990.000000, -39.000000)" fill="#32535B" fill-rule="nonzero">
            <g id="HEADER/Public" transform="translate(-2.000000, 0.000000)">
                <g id="Stacked-Group" transform="translate(889.000000, 29.000000)">
                    <g id="Bell" transform="translate(103.000000, 10.000000)">
                        <path d="M15.3971429,10.1225295 C15.3966469,7.06005762 13.4769817,4.33760785 10.6225714,3.35128072 C11.0111209,2.3238482 10.6825374,1.15926616 9.81719582,0.496828355 C8.95185421,-0.165609452 7.75914579,-0.165609452 6.89380418,0.496828355 C6.02846258,1.15926616 5.69987907,2.3238482 6.08842857,3.35128072 C3.23305919,4.33676076 1.31227821,7.05940801 1.31142857,10.1225295 L1.31142857,13.7387957 L0,13.7387957 L0,15.7122016 L5.56871429,15.7122016 L5.56871429,16.205553 C5.61358327,17.7619403 6.86869199,19 8.40164286,19 C9.93459372,19 11.1897024,17.7619403 11.2345714,16.205553 L11.2345714,15.7122016 L17,15.7122016 L17,13.7387957 L15.3971429,13.7387957 L15.3971429,10.1225295 Z M7.86857143,2.47558188 C7.86857143,2.20311139 8.08603312,1.98223042 8.35428571,1.98223042 C8.62253831,1.98223042 8.84,2.20311139 8.84,2.47558188 C8.84,2.74805236 8.62253831,2.96893334 8.35428571,2.96893334 C8.22546628,2.96893334 8.10192295,2.91695539 8.01083385,2.82443404 C7.91974475,2.73191269 7.86857143,2.60642682 7.86857143,2.47558188 Z M3.25428571,10.1225295 C3.25428571,7.2615894 5.53763349,4.94233918 8.35428571,4.94233918 C11.1709379,4.94233918 13.4542857,7.2615894 13.4542857,10.1225295 L13.4542857,13.7387957 L3.25428571,13.7387957 L3.25428571,10.1225295 Z M9.29414286,16.205553 C9.26939986,16.6865216 8.87824052,17.0636128 8.40407143,17.0636128 C7.92990234,17.0636128 7.53874299,16.6865216 7.514,16.205553 L7.514,15.7122016 L9.29414286,15.7122016 L9.29414286,16.205553 Z" id="Shape"></path>
                    </g>
                </g>
            </g>
        </g>
    </g>
</svg>