<?xml version="1.0" encoding="UTF-8"?>
<svg width="38px" height="28px" viewBox="0 0 38 28" version="1.1" xmlns="http://www.w3.org/2000/svg" xmlns:xlink="http://www.w3.org/1999/xlink">
    <!-- Generator: Sketch 49.3 (51167) - http://www.bohemiancoding.com/sketch -->
    <title>buttet</title>
    <desc>Created with Sketch.</desc>
    <defs></defs>
    <g id="logo" stroke="none" stroke-width="1" fill="none" fill-rule="evenodd">
        <g id="Artboard" transform="translate(-1448.000000, -1307.000000)" fill="#F2989A" fill-rule="nonzero">
            <path d="M1466.24699,1307.23705 C1464.27903,1307.43533 1462.30666,1307.69335 1460.44764,1308.28975 C1455.20712,1309.97104 1450.85843,1315.14554 1449.86827,1316.46204 C1447.09753,1320.14545 1447.64995,1327.18642 1449.94804,1329.45273 C1454.41362,1333.85837 1460.66507,1334.85924 1467.09883,1334.99085 C1470.66329,1335.06388 1474.29736,1334.71259 1477.56683,1333.4722 C1480.8363,1332.23181 1483.72017,1330.02639 1485.0577,1327.14422 C1486.21426,1324.65226 1486.15482,1321.85313 1485.68305,1319.19642 C1485.13526,1316.11191 1483.97959,1312.98559 1481.50672,1310.72911 C1479.58561,1308.97556 1476.98435,1307.86774 1474.2841,1307.28907 C1471.58385,1306.7104 1469.02347,1307.16613 1466.24456,1307.24437" id="buttet" transform="translate(1467.000000, 1321.000000) scale(1, -1) translate(-1467.000000, -1321.000000) "></path>
        </g>
    </g>
</svg>