<?xml version="1.0" encoding="UTF-8"?>
<svg width="101px" height="101px" viewBox="0 0 101 101" version="1.1" xmlns="http://www.w3.org/2000/svg" xmlns:xlink="http://www.w3.org/1999/xlink">
    <!-- Generator: Sketch 49.3 (51167) - http://www.bohemiancoding.com/sketch -->
    <title>calendar</title>
    <desc>Created with Sketch.</desc>
    <defs></defs>
    <g id="logo" stroke="none" stroke-width="1" fill="none" fill-rule="evenodd">
        <g id="Artboard" transform="translate(-376.000000, -788.000000)" fill="#32535A" fill-rule="nonzero">
            <path d="M412.405606,840.172419 C412.405606,839.25091 411.667713,838.513017 410.746204,838.513017 L404.523875,838.513017 C403.602366,838.513017 402.862757,839.25091 402.862757,840.172419 L402.862757,846.396464 C402.862757,847.317973 403.602366,848.055866 404.523875,848.055866 L410.746204,848.055866 C411.667713,848.055866 412.405606,847.317973 412.405606,846.396464 L412.405606,840.172419 Z M425.407974,846.377588 C425.407974,847.299097 424.670081,848.03699 423.748572,848.03699 L417.524527,848.03699 C416.603018,848.03699 415.865125,847.299097 415.865125,846.377588 L415.865125,840.153543 C415.865125,839.232034 416.603018,838.494141 417.524527,838.494141 L423.748572,838.494141 C424.670081,838.494141 425.407974,839.232034 425.407974,840.153543 L425.407974,846.377588 Z M438.408626,846.377588 C438.408626,847.299097 437.672449,848.03699 436.75094,848.03699 L430.526895,848.03699 C429.605386,848.03699 428.867493,847.299097 428.867493,846.377588 L428.867493,840.153543 C428.867493,839.232034 429.605386,838.494141 430.526895,838.494141 L436.75094,838.494141 C437.672449,838.494141 438.408626,839.232034 438.408626,840.153543 L438.408626,846.377588 Z M412.405606,833.723574 C412.405606,834.645083 411.667713,835.382976 410.746204,835.382976 L404.523875,835.382976 C403.602366,835.382976 402.862757,834.645083 402.862757,833.723574 L402.862757,827.499529 C402.862757,826.57802 403.602366,825.840127 404.523875,825.840127 L410.746204,825.840127 C411.667713,825.840127 412.405606,826.57802 412.405606,827.499529 L412.405606,833.723574 Z M425.407974,833.723574 C425.407974,834.645083 424.670081,835.382976 423.748572,835.382976 L417.524527,835.382976 C416.603018,835.382976 415.865125,834.645083 415.865125,833.723574 L415.865125,827.499529 C415.865125,826.57802 416.603018,825.840127 417.524527,825.840127 L423.748572,825.840127 C424.670081,825.840127 425.407974,826.57802 425.407974,827.499529 L425.407974,833.723574 Z M436.75094,835.382976 L430.526895,835.382976 C429.605386,835.382976 428.867493,834.645083 428.867493,833.723574 L428.867493,827.499529 C428.867493,826.57802 429.605386,825.840127 430.526895,825.840127 L436.75094,825.840127 C437.672449,825.840127 438.408626,826.57802 438.408626,827.499529 L438.408626,833.723574 C438.408626,834.645083 437.672449,835.382976 436.75094,835.382976 Z M397.726676,822.728962 L391.521507,822.728962 C390.599998,822.728962 389.862105,821.991069 389.862105,821.06956 L389.862105,814.845515 C389.862105,813.925723 390.599998,813.186113 391.521507,813.186113 L397.745552,813.186113 C398.667061,813.186113 399.403238,813.925723 399.403238,814.845515 L399.403238,821.06956 C399.403238,821.991069 398.646468,822.728962 397.726676,822.728962 Z M399.403238,833.723574 C399.403238,834.645083 398.667061,835.382976 397.745552,835.382976 L391.521507,835.382976 C390.599998,835.382976 389.862105,834.645083 389.862105,833.723574 L389.862105,827.499529 C389.862105,826.57802 390.599998,825.840127 391.521507,825.840127 L397.745552,825.840127 C398.667061,825.840127 399.403238,826.57802 399.403238,827.499529 L399.403238,833.723574 Z M423.748572,822.728962 L417.524527,822.728962 C416.603018,822.728962 415.865125,821.991069 415.865125,821.06956 L415.865125,814.845515 C415.865125,813.925723 416.603018,813.186113 417.524527,813.186113 L423.748572,813.186113 C424.670081,813.186113 425.407974,813.925723 425.407974,814.845515 L425.407974,821.06956 C425.407974,821.991069 424.670081,822.728962 423.748572,822.728962 Z M410.746204,822.728962 L404.523875,822.728962 C403.602366,822.728962 402.862757,821.991069 402.862757,821.06956 L402.862757,814.845515 C402.862757,813.925723 403.602366,813.186113 404.523875,813.186113 L410.746204,813.186113 C411.667713,813.186113 412.405606,813.925723 412.405606,814.845515 L412.405606,821.06956 C412.405606,821.991069 411.667713,822.728962 410.746204,822.728962 Z M449.751592,838.494141 C450.673101,838.494141 451.410994,839.232034 451.410994,840.153543 L451.410994,846.377588 C451.410994,847.299097 450.673101,848.03699 449.751592,848.03699 L443.529263,848.03699 C442.607755,848.03699 441.868145,847.299097 441.868145,846.377588 L441.868145,840.153543 C441.868145,839.232034 442.607755,838.494141 443.529263,838.494141 L449.751592,838.494141 Z M385.767654,799.672368 L433.003128,799.672368 C432.248074,802.047355 431.815635,804.588797 431.795042,807.207461 L385.767654,807.207461 C384.540692,807.207461 383.557406,808.213055 383.557406,809.417709 L383.557406,853.912681 L457.616163,853.912681 L457.616163,833.210481 C460.234827,833.19332 462.772837,832.802065 465.151256,832.045296 L465.151256,869.494244 C465.151256,874.877433 460.770228,879.258461 455.383607,879.258461 L444.449056,879.258461 L444.449056,885.280014 C444.449056,887.24487 442.851431,888.842495 440.886575,888.842495 L435.340363,888.842495 C433.375507,888.842495 431.777882,887.24487 431.777882,885.280014 L431.777882,879.239585 L409.373379,879.239585 L409.373379,885.280014 C409.373379,887.24487 407.780902,888.842495 405.816046,888.842495 L400.264686,888.842495 C398.29983,888.842495 396.702205,887.24487 396.702205,885.280014 L396.702205,879.239585 L385.767654,879.239585 C380.386181,879.239585 376.000005,874.858557 376.000005,869.471935 L376.000005,809.417709 C376.000005,804.053395 380.386181,799.672368 385.767654,799.672368 Z M476.164744,807.495754 C476.164744,797.196135 467.811104,788.842495 457.513201,788.842495 C447.213582,788.842495 438.861659,797.196135 438.861659,807.495754 C438.861659,817.791941 447.213582,826.14558 457.513201,826.14558 C467.811104,826.14558 476.164744,817.791941 476.164744,807.495754 Z M466.932496,812.326381 C466.932496,812.918412 466.707696,813.491567 466.275256,813.899982 C465.394932,814.785454 463.986071,814.785454 463.100599,813.899982 L454.992352,805.796883 L451.881187,808.909763 C451.002579,809.786655 449.586853,809.786655 448.708245,808.909763 C448.275806,808.477324 448.054438,807.926478 448.054438,807.329299 C448.054438,806.737268 448.275806,806.164114 448.708245,805.755698 L453.394726,801.062353 C454.278483,800.185461 455.68906,800.185461 456.572816,801.062353 L466.254664,810.751065 C466.707696,811.161196 466.932496,811.734351 466.932496,812.326381 Z" id="calendar" transform="translate(426.082374, 838.842495) scale(1, -1) translate(-426.082374, -838.842495) "></path>
        </g>
    </g>
</svg>