<?xml version="1.0" encoding="UTF-8"?>
<svg width="101px" height="100px" viewBox="0 0 101 100" version="1.1" xmlns="http://www.w3.org/2000/svg" xmlns:xlink="http://www.w3.org/1999/xlink">
    <!-- Generator: Sketch 49.3 (51167) - http://www.bohemiancoding.com/sketch -->
    <title>cleaning</title>
    <desc>Created with Sketch.</desc>
    <defs></defs>
    <g id="logo" stroke="none" stroke-width="1" fill="none" fill-rule="evenodd">
        <g id="Artboard" transform="translate(-534.000000, -1228.000000)" fill="#32535A" fill-rule="nonzero">
            <path d="M583.30987,1277.88738 C583.375548,1277.12552 583.565508,1276.46268 583.467497,1275.8443 C581.547689,1263.72728 579.539975,1251.62543 577.691909,1239.49831 C577.265509,1236.69741 575.828685,1235.92444 573.240987,1236.01032 C569.373081,1236.13764 565.498102,1236.03861 561.626155,1236.03861 C550.55291,1236.0376 550.351835,1236.00022 548.355236,1246.74811 C546.43745,1257.06656 544.995574,1267.47293 543.359696,1277.74289 C549.351515,1279.50204 553.50335,1278.2188 556.205226,1273.06765 C556.898377,1271.74602 558.020959,1270.65173 558.921248,1269.43416 C560.71071,1267.01218 562.990228,1264.35577 565.748688,1267.14555 C566.84904,1268.25702 566.361005,1272.25022 565.208111,1274.03564 C561.66354,1279.5273 557.448048,1284.58447 553.532652,1289.75987 C554.420816,1291.63522 555.132155,1293.47419 556.117319,1295.1515 C558.890935,1299.87624 566.481246,1301.24537 569.432697,1296.81364 C572.930787,1291.55943 576.104531,1288.8515 582.070079,1292.77801 C582.395436,1292.99222 583.23813,1292.30715 583.868635,1292.19297 C586.536157,1291.70898 589.216813,1291.28157 592.10966,1290.79757 C591.461977,1297.92006 587.437455,1301.45857 581.24052,1300.63911 C578.465894,1300.27233 576.737057,1300.77754 574.658613,1302.76302 C567.901903,1309.21762 557.88051,1308.77505 551.597689,1302.07392 C550.377096,1300.7735 549.354546,1299.28817 547.974306,1297.55226 C545.730152,1300.35518 543.712334,1302.87417 541.646015,1305.45581 C539.377612,1303.67847 537.570972,1302.26286 535.573363,1300.69772 C539.01689,1295.98409 542.219937,1291.60086 546.087843,1286.30725 L534.28305,1286.30725 C534.11633,1285.39483 533.957693,1285.04826 534.010235,1284.73705 C537.036458,1266.83939 540.009127,1248.93265 543.279872,1231.08046 C543.493072,1229.91544 545.977706,1228.42001 547.455958,1228.36242 C554.683526,1228.0795 561.930293,1228.14518 569.167965,1228.26441 C573.814909,1228.34019 579.758227,1227.08928 582.717761,1229.44862 C585.434794,1231.61194 585.052853,1237.79574 585.823807,1242.24565 C588.340775,1256.76546 590.761753,1271.30143 593.259523,1286.06576 L564.25528,1286.06576 C566.868238,1274.4297 576.619848,1279.86074 583.30987,1277.88738 Z M635.013609,1228.55703 C633.46968,1239.72424 632.475422,1250.60449 630.180747,1261.20486 C629.524981,1264.23613 625.484293,1267.82819 622.316611,1268.70423 C618.071817,1269.87633 617.635313,1271.72843 617.667647,1275.31544 C617.806075,1291.1296 617.736356,1306.94578 617.715137,1322.76196 C617.712105,1324.52515 617.537302,1326.28935 617.445353,1328 L609.665083,1328 L609.665083,1269.95817 C603.709639,1269.31554 598.094709,1267.43413 596.946866,1261.47565 C594.871454,1250.68937 593.916602,1239.68787 592.465632,1228.55703 L635.013609,1228.55703 Z M625.76317,1236.33022 L601.726175,1236.33022 C602.045469,1240.09203 602.123272,1243.57194 602.771965,1246.9417 C602.944747,1247.83593 604.847377,1248.9474 606.003303,1249.00499 C610.701778,1249.24244 615.429556,1248.92517 620.127021,1249.17373 C623.363411,1249.34449 624.744662,1248.19867 624.847725,1244.97744 C624.932601,1242.32305 625.391334,1239.68079 625.76317,1236.33022 Z" id="cleaning" transform="translate(584.506804, 1278.000000) scale(1, -1) translate(-584.506804, -1278.000000) "></path>
        </g>
    </g>
</svg>