<?xml version="1.0" encoding="UTF-8"?>
<svg width="63px" height="100px" viewBox="0 0 63 100" version="1.1" xmlns="http://www.w3.org/2000/svg" xmlns:xlink="http://www.w3.org/1999/xlink">
    <!-- Generator: Sketch 51.1 (57501) - http://www.bohemiancoding.com/sketch -->
    <title>Combined Shape</title>
    <desc>Created with Sketch.</desc>
    <defs></defs>
    <g id="logo" stroke="none" stroke-width="1" fill="none" fill-rule="evenodd">
        <g id="Artboard" transform="translate(-499.000000, -102.000000)" fill="#32535B">
            <path d="M526.00153,125.000417 L533.488207,127.042238 C535.78547,127.668764 538.210452,127.654157 540.5,127 L542.505065,126.427124 C543.485498,126.147001 544.378366,125.621634 545.099379,124.900621 L546,124 C547.132709,122.867291 548.94225,122.785208 550.172858,123.810715 L551,124.5 C552.513064,125.760886 552.717494,128.009617 551.456607,129.522681 C551.387602,129.605487 551.314878,129.685122 551.23866,129.76134 L551,130 C549.034071,131.965929 546.589132,133.384782 543.906854,134.116313 L542.5,134.5 C538.868522,135.490403 535.07819,135.759774 531.343146,135.292893 L530,135.125 L530,179.169048 C530,180.925362 529.078506,182.552897 527.572479,183.456513 L527.543379,183.473973 C527.261412,183.724793 526.958181,183.955455 526.635286,184.16303 L519,189.071429 L519,197.5 C519,199.985281 516.985281,202 514.5,202 C512.014719,202 510,199.985281 510,197.5 L510,194.857143 L505.761865,197.581659 C503.896746,198.780663 501.412783,198.240671 500.213779,196.375553 C500.135829,196.254297 500.064466,196.128931 500,196 C498.854436,193.708871 499.57857,190.923702 501.695001,189.480681 L510,183.818182 L510,159.498666 C508.082966,160.405583 505.796224,160.004642 504.301813,158.488695 C503.709404,157.887744 503.275467,157.391513 503,157 C501.168951,154.397587 500.808867,151.816746 500,148 C499.842899,147.258697 499.520028,143.823197 500,141 C500.397194,138.663704 501.544416,136.908485 502,136 C502.978668,134.048429 504.472012,132.662706 506,131 C507.985696,128.839231 510.651155,126.839895 513.996377,125.00199 C515.668318,123.744965 517.747161,123 520,123 C522.251899,123 524.329947,123.744344 526.00153,125.000417 Z M550.984458,132.437717 C550.994774,132.623833 551,132.811306 551,133 L551,132.421559 C551.934436,131.447834 552.625228,130.3117 553,129 C560,134 560,138 561,144 C562,150 558,163 551,161 L551,197 C551,199.761424 548.761424,202 546,202 C543.238576,202 541,199.761424 541,197 L541,164 L540,164 L540,197.5 C540,199.985281 537.985281,202 535.5,202 C533.014719,202 531,199.985281 531,197.5 L531,137 C538.304191,137.811577 546.925697,136.647183 550.984458,132.437717 Z M543.809425,123.400041 C542.86838,124.893629 539.567791,125.743706 533.907658,125.95027 C535.718957,124.128091 538.227739,123 541,123 C541.975392,123 542.918168,123.139648 543.809425,123.400041 Z M551,138.730469 L551,153 C552.333333,149.793221 553,147.126554 553,145 C553,142.873446 552.333333,140.783602 551,138.730469 Z M520,177 L520,164 L519,164 L519,177.681818 L520,177 Z M509,139 C507.666667,141 507,143 507,145 C507,147 507.666667,149 509,151 L509,139 Z M541,122 C535.477153,122 531,117.522847 531,112 C531,106.477153 535.477153,102 541,102 C546.522847,102 551,106.477153 551,112 C551,117.522847 546.522847,122 541,122 Z M519,122 C513.477153,122 509,117.522847 509,112 C509,106.477153 513.477153,102 519,102 C524.522847,102 529,106.477153 529,112 C529,117.522847 524.522847,122 519,122 Z" id="Combined-Shape"></path>
        </g>
    </g>
</svg>