<?xml version="1.0" encoding="UTF-8"?>
<svg width="90px" height="90px" viewBox="0 0 90 90" version="1.1" xmlns="http://www.w3.org/2000/svg" xmlns:xlink="http://www.w3.org/1999/xlink">
    <!-- Generator: Sketch 51.2 (57519) - http://www.bohemiancoding.com/sketch -->
    <title>cross</title>
    <desc>Created with Sketch.</desc>
    <defs></defs>
    <g id="logo" stroke="none" stroke-width="1" fill="none" fill-rule="evenodd">
        <g id="Artboard" transform="translate(-1228.000000, -321.000000)" fill="#FBF8EF">
            <path d="M1273,364.171573 L1286.43503,350.736544 C1287.21608,349.955495 1288.48241,349.955495 1289.26346,350.736544 C1290.0445,351.517593 1290.0445,352.783923 1289.26346,353.564971 L1275.82843,367 L1289.26346,380.435029 C1290.0445,381.216077 1290.0445,382.482407 1289.26346,383.263456 C1288.48241,384.044505 1287.21608,384.044505 1286.43503,383.263456 L1273,369.828427 L1259.56497,383.263456 C1258.78392,384.044505 1257.51759,384.044505 1256.73654,383.263456 C1255.9555,382.482407 1255.9555,381.216077 1256.73654,380.435029 L1270.17157,367 L1256.73654,353.564971 C1255.9555,352.783923 1255.9555,351.517593 1256.73654,350.736544 C1257.51759,349.955495 1258.78392,349.955495 1259.56497,350.736544 L1273,364.171573 Z M1273,321 C1297.85281,321 1318,341.147186 1318,366 C1318,390.852814 1297.85281,411 1273,411 C1248.14719,411 1228,390.852814 1228,366 C1228,341.147186 1248.14719,321 1273,321 Z M1273,325 C1250.35633,325 1232,343.356325 1232,366 C1232,388.643675 1250.35633,407 1273,407 C1295.64367,407 1314,388.643675 1314,366 C1314,343.356325 1295.64367,325 1273,325 Z" id="cross"></path>
        </g>
    </g>
</svg>