<?xml version="1.0" encoding="UTF-8"?>
<svg width="45px" height="45px" viewBox="0 0 45 45" version="1.1" xmlns="http://www.w3.org/2000/svg" xmlns:xlink="http://www.w3.org/1999/xlink">
    <!-- Generator: Sketch 49.3 (51167) - http://www.bohemiancoding.com/sketch -->
    <title>cross</title>
    <desc>Created with Sketch.</desc>
    <defs></defs>
    <g id="logo" stroke="none" stroke-width="1" fill="none" fill-rule="evenodd">
        <g id="Artboard" transform="translate(-1362.000000, -343.000000)" fill="#32535A">
            <path d="M1384.5,364.585786 L1391.21751,357.868272 C1391.60804,357.477748 1392.2412,357.477748 1392.63173,357.868272 C1393.02225,358.258796 1393.02225,358.891961 1392.63173,359.282486 L1385.91421,366 L1392.63173,372.717514 C1393.02225,373.108039 1393.02225,373.741204 1392.63173,374.131728 C1392.2412,374.522252 1391.60804,374.522252 1391.21751,374.131728 L1384.5,367.414214 L1377.78249,374.131728 C1377.39196,374.522252 1376.7588,374.522252 1376.36827,374.131728 C1375.97775,373.741204 1375.97775,373.108039 1376.36827,372.717514 L1383.08579,366 L1376.36827,359.282486 C1375.97775,358.891961 1375.97775,358.258796 1376.36827,357.868272 C1376.7588,357.477748 1377.39196,357.477748 1377.78249,357.868272 L1384.5,364.585786 Z M1384.5,343 C1396.92641,343 1407,353.073593 1407,365.5 C1407,377.926407 1396.92641,388 1384.5,388 C1372.07359,388 1362,377.926407 1362,365.5 C1362,353.073593 1372.07359,343 1384.5,343 Z M1384.5,345 C1373.17816,345 1364,354.178163 1364,365.5 C1364,376.821837 1373.17816,386 1384.5,386 C1395.82184,386 1405,376.821837 1405,365.5 C1405,354.178163 1395.82184,345 1384.5,345 Z" id="cross"></path>
        </g>
    </g>
</svg>