<?xml version="1.0" encoding="UTF-8"?>
<svg width="95px" height="96px" viewBox="0 0 95 96" version="1.1" xmlns="http://www.w3.org/2000/svg" xmlns:xlink="http://www.w3.org/1999/xlink">
    <!-- Generator: Sketch 49.3 (51167) - http://www.bohemiancoding.com/sketch -->
    <title>dandelion</title>
    <desc>Created with Sketch.</desc>
    <defs></defs>
    <g id="logo" stroke="none" stroke-width="1" fill="none" fill-rule="evenodd">
        <g id="Artboard" transform="translate(-1297.000000, -960.000000)" fill="#33535C" fill-rule="nonzero">
            <path d="M1344.5,980.5 C1329.59804,980.5 1317.27526,992.5 1317.27526,1007.64286 C1317.27526,1022.78571 1329.31146,1034.78571 1344.5,1034.78571 C1359.40196,1034.78571 1371.72474,1022.78571 1371.72474,1007.64286 C1371.72474,992.5 1359.40196,980.5 1344.5,980.5 Z M1344.5,1027.64286 C1333.61011,1027.64286 1324.43967,1018.78571 1324.43967,1007.64286 C1324.43967,996.785714 1333.32353,987.642857 1344.5,987.642857 C1355.38989,987.642857 1364.56033,996.5 1364.56033,1007.64286 C1364.56033,1018.5 1355.67647,1027.64286 1344.5,1027.64286 Z M1341.34766,971.928571 C1339.91478,973.357143 1337.62217,973.357143 1336.18929,971.928571 C1334.75641,970.5 1334.75641,968.214286 1336.18929,966.785714 L1341.92081,961.071429 C1343.3537,959.642857 1345.6463,959.642857 1347.07919,961.071429 L1352.81071,966.785714 C1354.24359,968.214286 1354.24359,970.5 1352.81071,971.928571 C1351.95098,972.785714 1351.09125,973.071429 1350.23152,973.071429 C1349.37179,973.071429 1348.22549,972.5 1347.65234,971.928571 L1344.5,968.785714 L1341.34766,971.928571 Z M1347.65234,1043.07143 C1349.08522,1041.92857 1351.37783,1041.64286 1352.81071,1043.07143 C1354.24359,1044.5 1354.24359,1046.78571 1352.81071,1048.21429 L1347.07919,1053.92857 C1346.21946,1054.78571 1345.35973,1055.07143 1344.5,1055.07143 C1343.64027,1055.07143 1342.49397,1054.5 1341.92081,1053.92857 L1336.18929,1048.21429 C1334.75641,1046.78571 1334.75641,1044.5 1336.18929,1043.07143 C1337.62217,1041.64286 1339.91478,1041.64286 1341.34766,1043.07143 L1344.5,1046.21429 L1347.65234,1043.07143 Z M1313.54977,988.214286 C1311.54374,988.214286 1309.82428,986.785714 1310.11086,984.785714 L1310.11086,976.785714 C1310.11086,975.071429 1311.54374,973.357143 1313.54977,973.357143 L1321.57391,973.357143 C1323.29336,973.357143 1325.01282,975.071429 1325.01282,976.785714 C1325.01282,978.5 1323.57994,980.214286 1321.57391,980.214286 L1316.98869,980.214286 L1316.98869,984.785714 C1316.98869,986.5 1315.55581,988.214286 1313.54977,988.214286 Z M1375.7368,1027.07143 C1377.74284,1027.07143 1379.17572,1028.5 1379.17572,1030.5 L1379.17572,1038.5 C1379.17572,1040.21429 1377.74284,1041.92857 1375.7368,1041.92857 L1367.71267,1041.92857 C1365.99321,1041.92857 1364.27376,1040.21429 1364.27376,1038.5 C1364.27376,1036.78571 1365.70664,1035.07143 1367.71267,1035.07143 L1372.29789,1035.07143 L1372.29789,1030.5 C1372.29789,1028.78571 1373.73077,1027.07143 1375.7368,1027.07143 Z M1308.96456,1010.78571 C1310.39744,1012.21429 1310.39744,1014.5 1308.96456,1015.92857 C1308.10483,1016.78571 1307.2451,1017.07143 1306.38537,1017.07143 C1305.52564,1017.07143 1304.37934,1016.5 1303.80618,1015.92857 L1298.07466,1010.21429 C1296.64178,1008.78571 1296.64178,1006.5 1298.07466,1005.07143 L1303.80618,999.357143 C1305.23906,997.928571 1307.53167,997.928571 1308.96456,999.357143 C1310.39744,1000.78571 1310.39744,1003.07143 1308.96456,1004.5 L1305.81222,1007.64286 L1308.96456,1010.78571 Z M1390.92534,1005.07143 C1392.35822,1006.5 1392.35822,1008.78571 1390.92534,1010.21429 L1385.19382,1015.92857 C1384.33409,1016.78571 1383.47436,1017.07143 1382.61463,1017.07143 C1381.7549,1017.07143 1380.6086,1016.5 1380.03544,1015.92857 C1378.60256,1014.5 1378.60256,1012.21429 1380.03544,1010.78571 L1383.18778,1007.64286 L1380.03544,1004.5 C1378.60256,1003.07143 1378.60256,1000.78571 1380.03544,999.357143 C1381.46833,997.928571 1383.76094,997.928571 1385.19382,999.357143 L1390.92534,1005.07143 Z M1321.57391,1035.07143 C1323.57994,1035.07143 1325.01282,1036.78571 1325.01282,1038.5 C1325.01282,1040.21429 1323.57994,1041.92857 1321.57391,1041.92857 L1313.54977,1041.92857 C1311.83032,1041.92857 1310.11086,1040.5 1310.11086,1038.5 L1310.11086,1030.5 C1310.11086,1028.78571 1311.83032,1027.07143 1313.54977,1027.07143 C1315.26923,1027.07143 1316.98869,1028.5 1316.98869,1030.5 L1316.98869,1035.07143 L1321.57391,1035.07143 Z M1367.42609,980.214286 C1365.42006,980.214286 1363.98718,978.5 1363.98718,976.785714 C1363.98718,975.071429 1365.42006,973.357143 1367.42609,973.357143 L1375.45023,973.357143 C1377.16968,973.357143 1378.88914,974.785714 1378.88914,976.785714 L1378.88914,984.785714 C1378.88914,986.5 1377.16968,988.214286 1375.45023,988.214286 C1373.73077,988.214286 1372.01131,986.785714 1372.01131,984.785714 L1372.01131,980.214286 L1367.42609,980.214286 Z" id="dandelion"></path>
        </g>
    </g>
</svg>