<?xml version="1.0" encoding="UTF-8"?>
<svg width="80px" height="101px" viewBox="0 0 80 101" version="1.1" xmlns="http://www.w3.org/2000/svg" xmlns:xlink="http://www.w3.org/1999/xlink">
    <!-- Generator: Sketch 49.3 (51167) - http://www.bohemiancoding.com/sketch -->
    <title>family</title>
    <desc>Created with Sketch.</desc>
    <defs></defs>
    <g id="logo" stroke="none" stroke-width="1" fill="none" fill-rule="evenodd">
        <g id="Artboard" transform="translate(-294.000000, -1048.000000)" fill="#32535A" fill-rule="nonzero">
            <path d="M334.044484,1116.18684 C329.277783,1116.18857 324.510214,1116.25626 319.745248,1116.17035 C314.429244,1116.07576 312.036782,1113.60173 312.401248,1108.3482 C312.940138,1100.57378 313.489441,1092.78809 314.509947,1085.07007 C314.725156,1083.43692 316.833855,1081.01321 318.33511,1080.79714 C322.076098,1080.25738 322.62974,1078.07492 322.829329,1075.1158 C323.333508,1067.62688 323.947894,1060.14404 324.424304,1052.65338 C324.625628,1049.47818 326.017543,1047.91358 329.327246,1048.0585 C332.354922,1048.19127 335.398217,1048.19908 338.425025,1048.05676 C341.742538,1047.90056 343.138791,1049.47124 343.333173,1052.63863 C343.792228,1060.13102 344.384052,1067.6156 344.840503,1075.10886 C345.023604,1078.10963 345.664024,1080.15585 349.329515,1080.80582 C350.913209,1081.08698 353.007156,1083.71721 353.23972,1085.49355 C354.254152,1093.2133 354.774818,1101.0042 355.262509,1108.78383 C355.561892,1113.55487 353.13819,1116.04973 348.344588,1116.1608 C343.579622,1116.27101 338.811185,1116.1851 334.044484,1116.18684 Z M294.213155,1106.51381 C294.164559,1106.506 294.116832,1106.49819 294.068236,1106.49125 C294.693036,1100.60945 295.135602,1094.69989 296.075405,1088.86842 C296.304498,1087.4444 297.969763,1085.4893 299.310479,1085.16388 C302.188897,1084.46619 302.907416,1082.97187 303.044525,1080.30693 C303.388165,1073.67711 303.792549,1067.03688 304.621277,1060.45826 C304.815659,1058.91622 306.762084,1056.43177 307.955278,1056.40053 C311.511429,1056.30855 315.108367,1057.15029 318.642824,1057.86013 C318.943075,1057.92001 319.055018,1059.71718 318.982993,1060.68735 C318.704436,1064.42921 318.576005,1068.21358 317.851411,1071.87474 C317.517317,1073.56343 316.00912,1075.05948 314.905307,1076.54772 C313.255662,1078.77096 310.279185,1080.76165 309.989348,1083.11332 C308.777063,1092.97041 308.355323,1102.92381 307.641142,1112.84164 C307.581266,1113.67297 307.609902,1115.19679 307.411181,1115.22803 C304.518879,1115.68882 301.481658,1116.55312 298.720391,1116.0368 C297.008266,1115.71659 295.273579,1113.44561 294.352867,1111.64064 C293.650835,1110.26608 294.213155,1108.24676 294.213155,1106.51381 Z M348.827246,1064.08843 C348.39596,1056.07885 348.481003,1055.98686 356.343933,1056.045 C356.921005,1056.04934 357.49721,1056.05194 358.074282,1056.05628 C361.35448,1056.07971 363.064869,1057.5263 363.248838,1061.00435 C363.59942,1067.62549 364.321411,1074.22754 364.655505,1080.84868 C364.776126,1083.24288 365.558862,1084.31806 367.903596,1085.10426 C369.446504,1085.62059 371.44326,1087.40735 371.645452,1088.84872 C372.586123,1095.54449 373.208319,1102.31055 373.416586,1109.06794 C373.481669,1111.18271 372.377856,1114.71543 370.970321,1115.21007 C367.902728,1116.28611 364.295378,1115.91904 360.911914,1115.88173 C360.488438,1115.87652 359.76558,1114.32059 359.716116,1113.45195 C359.16421,1104.00012 359.021027,1094.51097 358.058662,1085.10426 C357.773163,1082.31349 355.869259,1078.8849 353.617377,1077.30728 C350.938548,1075.43375 349.458988,1073.73638 349.419938,1070.54383 C349.393037,1068.39 349.03638,1066.23965 348.827246,1064.08843 Z M333.72332,1120.93757 C341.391869,1120.88637 347.246763,1126.55296 347.379533,1134.15469 C347.517509,1141.97249 341.659144,1148.01917 333.923776,1148.04607 C326.296013,1148.0721 320.38992,1142.34651 320.245001,1134.78643 C320.094876,1126.99292 325.938489,1120.98964 333.72332,1120.93757 Z M312.132671,1120.35711 C317.693389,1120.02909 318.579389,1121.82105 317.098961,1127.08412 C315.985603,1131.04032 315.940478,1135.45037 316.231184,1139.60181 C316.487178,1143.25776 316.037669,1144.41451 312.331392,1144.35463 C306.121577,1144.25397 300.949624,1139.05858 300.708382,1132.67955 C300.46714,1126.29271 305.61306,1120.74241 312.132671,1120.35711 Z M366.767502,1132.25469 C366.798742,1139.12749 361.440217,1144.57192 354.871142,1144.36539 C351.977972,1144.27427 350.426386,1143.12013 351.46338,1140.01783 C353.167695,1134.9205 352.506448,1130.09045 349.933488,1125.4626 C348.488639,1122.86534 349.396334,1121.50727 352.105535,1120.74362 C359.368832,1118.6974 366.732791,1124.43775 366.767502,1132.25469 Z" id="family" transform="translate(333.709663, 1098.046156) scale(1, -1) translate(-333.709663, -1098.046156) "></path>
        </g>
    </g>
</svg>