<?xml version="1.0" encoding="UTF-8"?>
<svg width="100px" height="100px" viewBox="0 0 100 100" version="1.1" xmlns="http://www.w3.org/2000/svg" xmlns:xlink="http://www.w3.org/1999/xlink">
    <!-- Generator: Sketch 49.3 (51167) - http://www.bohemiancoding.com/sketch -->
    <title>flower</title>
    <desc>Created with Sketch.</desc>
    <defs></defs>
    <g id="logo" stroke="none" stroke-width="1" fill="none" fill-rule="evenodd">
        <g id="Artboard" transform="translate(-1800.000000, -792.000000)" fill="#33535C" fill-rule="nonzero">
            <path d="M1898.9339,843.965994 C1899.57356,843.540914 1900,842.690755 1900,841.840595 C1900,840.990436 1899.57356,840.352816 1898.9339,839.715197 C1891.89765,833.976621 1883.15565,831.426142 1874.41365,831.851222 C1881.02345,825.900106 1885.28785,817.823592 1886.35394,808.684378 C1886.35394,807.834219 1886.14072,807.196599 1885.50107,806.55898 C1884.86141,805.92136 1884.22175,805.70882 1883.36887,805.70882 C1874.20043,806.55898 1865.88486,811.022317 1859.91471,817.823592 C1860.34115,808.896918 1857.78252,799.970244 1852.02559,792.956429 C1850.95949,791.68119 1848.82729,791.68119 1847.97441,792.956429 C1842.21748,799.970244 1839.65885,808.684378 1840.08529,817.398512 C1834.11514,811.022317 1826.01279,806.77152 1817.05757,805.70882 C1816.20469,805.70882 1815.56503,805.92136 1814.92537,806.55898 C1814.28571,807.196599 1814.07249,807.834219 1814.07249,808.684378 C1814.92537,817.611052 1819.40299,825.900106 1826.01279,831.851222 C1817.05757,831.426142 1808.10235,833.976621 1801.0661,839.715197 C1800.42644,840.140276 1800,840.990436 1800,841.840595 C1800,842.690755 1800.42644,843.328374 1801.0661,843.965994 C1807.67591,849.27949 1815.77825,852.042508 1823.8806,852.042508 C1824.52026,852.042508 1825.37313,852.042508 1826.01279,852.042508 C1819.40299,857.993624 1815.13859,866.070138 1814.07249,875.209352 C1814.07249,876.059511 1814.28571,876.697131 1814.92537,877.33475 C1815.35181,877.75983 1816.20469,878.18491 1816.84435,878.18491 C1816.84435,878.18491 1817.05757,878.18491 1817.05757,878.18491 C1826.01279,877.33475 1834.11514,872.871413 1840.08529,866.495218 C1839.65885,875.209352 1842.4307,884.136026 1847.97441,890.937301 C1848.40085,891.57492 1849.25373,892 1850.10661,892 C1850.95949,892 1851.59915,891.57492 1852.23881,890.937301 C1857.99574,883.923486 1860.76759,874.784272 1860.12793,866.070138 C1866.09808,872.658874 1874.41365,877.12221 1883.58209,878.18491 C1883.58209,878.18491 1883.79531,878.18491 1883.79531,878.18491 C1884.43497,878.18491 1885.07463,877.97237 1885.71429,877.33475 C1886.35394,876.697131 1886.56716,876.059511 1886.56716,875.209352 C1885.71429,866.282678 1881.23667,857.993624 1874.62687,852.042508 C1875.26652,852.042508 1875.69296,852.042508 1876.33262,852.042508 C1884.22175,852.042508 1892.53731,849.27949 1898.9339,843.965994 Z M1853.51812,848.64187 C1853.3049,848.85441 1853.09168,848.85441 1852.87846,849.06695 C1852.66525,849.06695 1852.45203,849.06695 1852.23881,849.06695 C1850.74627,849.49203 1849.04051,849.49203 1847.76119,849.06695 C1847.54797,849.06695 1847.33475,849.06695 1847.33475,849.06695 C1847.12154,848.85441 1847.12154,848.85441 1846.90832,848.64187 C1845.41578,848.004251 1844.34968,846.729012 1843.4968,845.453773 C1843.4968,845.241233 1843.28358,845.028693 1843.07036,845.028693 C1843.07036,844.816153 1843.07036,844.603613 1843.07036,844.391073 C1842.85714,843.753454 1842.64392,842.903294 1842.64392,842.053135 C1842.64392,841.202976 1842.85714,840.565356 1843.07036,839.715197 C1843.07036,839.502657 1843.07036,839.290117 1843.07036,839.077577 C1843.28358,838.865037 1843.28358,838.652497 1843.4968,838.439957 C1844.13646,836.952179 1845.41578,835.889479 1846.90832,835.25186 C1847.12154,835.25186 1847.12154,835.03932 1847.33475,834.82678 C1847.54797,834.82678 1847.76119,834.82678 1847.76119,834.82678 C1849.25373,834.4017 1850.95949,834.4017 1852.45203,834.82678 C1852.66525,834.82678 1852.87846,834.82678 1853.09168,835.03932 C1853.3049,835.25186 1853.51812,835.25186 1853.51812,835.4644 C1854.79744,836.102019 1855.86354,837.377258 1856.71642,838.652497 C1856.71642,838.865037 1856.92964,839.077577 1857.14286,839.077577 C1857.14286,839.290117 1857.14286,839.502657 1857.14286,839.715197 C1857.35608,840.565356 1857.5693,841.202976 1857.5693,842.053135 C1857.5693,842.903294 1857.35608,843.540914 1857.14286,844.391073 C1857.14286,844.603613 1857.14286,844.816153 1857.14286,845.028693 C1856.92964,845.241233 1856.92964,845.241233 1856.71642,845.453773 C1855.86354,846.729012 1854.79744,847.791711 1853.51812,848.64187 Z M1880.3838,811.872476 C1878.03838,822.286929 1870.36247,831.001063 1860.12793,834.4017 C1859.48827,833.551541 1858.63539,832.701382 1857.78252,832.063762 C1861.40725,821.861849 1869.93603,814.210414 1880.3838,811.872476 Z M1849.89339,799.332625 C1855.65032,808.259299 1856.28998,819.736451 1851.59915,829.300744 C1850.95949,829.300744 1850.53305,829.088204 1849.89339,829.088204 C1849.25373,829.088204 1848.82729,829.088204 1848.18763,829.300744 C1843.71002,819.736451 1844.34968,808.259299 1849.89339,799.332625 Z M1819.82942,811.872476 C1830.06397,814.210414 1838.80597,821.861849 1842.21748,831.851222 C1841.36461,832.488842 1840.51173,833.339001 1839.65885,834.4017 C1829.85075,830.788523 1822.17484,822.074389 1819.82942,811.872476 Z M1807.24947,842.053135 C1816.20469,836.314559 1827.71855,835.676939 1837.31343,840.352816 C1837.31343,840.990436 1837.10021,841.415515 1837.10021,842.053135 C1837.10021,842.690755 1837.10021,843.115834 1837.31343,843.753454 C1827.71855,848.42933 1816.20469,847.579171 1807.24947,842.053135 Z M1819.82942,872.233794 C1822.17484,862.031881 1829.85075,853.317747 1839.87207,849.917109 C1840.51173,850.767269 1841.36461,851.617428 1842.4307,852.467588 C1838.80597,862.244421 1830.27719,869.895855 1819.82942,872.233794 Z M1849.89339,884.561105 C1844.13646,875.634431 1843.4968,864.157279 1848.18763,854.592986 C1849.25373,854.805526 1850.53305,854.805526 1851.59915,854.592986 C1856.28998,864.157279 1855.65032,875.634431 1849.89339,884.561105 Z M1880.3838,872.233794 C1869.93603,869.895855 1861.40725,862.244421 1857.78252,852.042508 C1858.63539,851.404888 1859.48827,850.554729 1860.12793,849.70457 C1870.36247,853.105207 1878.03838,861.819341 1880.3838,872.233794 Z M1862.68657,843.753454 C1862.68657,843.115834 1862.89979,842.690755 1862.89979,842.053135 C1862.89979,841.415515 1862.89979,840.990436 1862.68657,840.352816 C1872.28145,835.676939 1883.79531,836.314559 1892.75053,842.053135 C1883.79531,847.579171 1872.28145,848.42933 1862.68657,843.753454 Z" id="flower"></path>
        </g>
    </g>
</svg>