<?xml version="1.0" encoding="UTF-8"?>
<svg width="159px" height="128px" viewBox="0 0 159 128" version="1.1" xmlns="http://www.w3.org/2000/svg" xmlns:xlink="http://www.w3.org/1999/xlink">
    <!-- Generator: Sketch 51.1 (57501) - http://www.bohemiancoding.com/sketch -->
    <title>heartShare</title>
    <desc>Created with Sketch.</desc>
    <defs></defs>
    <g id="logo" stroke="none" stroke-width="1" fill="none" fill-rule="evenodd">
        <g id="Artboard" transform="translate(-1789.000000, -280.000000)" fill="#32535A" fill-rule="nonzero">
            <path d="M1868.32635,378.833953 C1863.82082,377.83341 1859.42905,376.198924 1855.16134,374.118773 C1852.79281,372.964439 1851.07742,373.216182 1848.7772,374.171731 C1844.4377,375.974611 1839.96696,377.652387 1835.39183,378.664732 C1807.19891,384.899979 1786.0333,365.094397 1790.52937,336.729549 C1793.72451,316.572447 1804.7989,301.421043 1821.39937,290.243035 C1841.50351,276.704935 1862.15642,276.429399 1882.34192,289.8777 C1901.43372,302.597635 1913.10677,320.093781 1914.0746,336.879981 C1914.0746,340.952812 1913.82733,344.70778 1913.34056,348.157216 L1907.5396,344.074983 C1907.79576,341.608254 1907.9254,338.980193 1907.9254,336.185887 C1907.05228,321.078307 1896.52155,305.331775 1879.29807,293.883834 C1861.08792,281.780363 1842.45609,282.028345 1824.31933,294.212635 C1809.34339,304.272842 1799.35273,317.909107 1796.47026,336.050498 C1793.37972,355.50189 1803.72965,370.480945 1820.0835,374.027718 C1825.19274,375.135794 1829.87089,375.139336 1835.92539,373.803478 C1840.0528,372.892367 1845.10314,370.371054 1849.01798,368.748462 C1851.09311,367.888468 1852.64062,367.661899 1854.77737,368.7008 C1856.73108,369.650813 1858.71362,370.553944 1860.72376,371.361261 C1863.06875,374.079792 1865.60295,376.570689 1868.32635,378.833953 Z M1911.9254,388.808406 L1911.9254,397.056739 L1937.9254,378.241098 L1911.9254,359.755557 L1911.9254,371.684802 C1883.84967,364.928331 1864.87453,351.34641 1855,330.93904 C1860.07884,365.340354 1879.05397,384.630143 1911.9254,388.808406 Z M1906.62099,392.079824 C1867.86246,387.347573 1848.65701,358.909378 1849.00464,306.76524 C1859.76174,339.036553 1878.96719,358.549141 1906.62099,365.303002 L1906.62099,348.812295 L1948,378.144255 L1906.62099,408 L1906.62099,392.079824 Z" id="heartShare" transform="translate(1868.962699, 343.969520) scale(1, -1) translate(-1868.962699, -343.969520) "></path>
        </g>
    </g>
</svg>