<?xml version="1.0" encoding="UTF-8"?>
<svg width="116px" height="101px" viewBox="0 0 116 101" version="1.1" xmlns="http://www.w3.org/2000/svg" xmlns:xlink="http://www.w3.org/1999/xlink">
    <!-- Generator: Sketch 49.3 (51167) - http://www.bohemiancoding.com/sketch -->
    <title>heart</title>
    <desc>Created with Sketch.</desc>
    <defs></defs>
    <g id="logo" stroke="none" stroke-width="1" fill="none" fill-rule="evenodd">
        <g id="Artboard" transform="translate(-1524.000000, -1203.000000)" stroke="#32535A" stroke-width="5">
            <path d="M1581.7198,1300.93688 C1582.23413,1300.55347 1582.59907,1300.25189 1582.79718,1300.05408 L1626.97193,1255.87699 L1627.09638,1255.76074 C1633.3109,1250.33988 1636.94078,1242.55579 1636.94078,1234.17442 C1636.94078,1218.33783 1624.10236,1205.5 1608.26548,1205.5 C1598.19655,1205.5 1589.04598,1210.75042 1583.84955,1219.20327 L1581.71958,1222.66801 L1579.58994,1219.20307 C1574.39548,1210.75164 1565.24081,1205.5 1555.17091,1205.5 C1539.33497,1205.5 1526.5,1218.33688 1526.5,1234.17442 C1526.5,1242.55551 1530.12966,1250.33975 1536.34339,1255.76088 L1536.46768,1255.87699 L1580.641,1300.05266 C1580.84032,1300.25167 1581.20546,1300.55345 1581.7198,1300.93688 Z" id="heart"></path>
        </g>
    </g>
</svg>