<?xml version="1.0" encoding="UTF-8"?>
<svg width="106px" height="106px" viewBox="0 0 106 106" version="1.1" xmlns="http://www.w3.org/2000/svg" xmlns:xlink="http://www.w3.org/1999/xlink">
    <!-- Generator: Sketch 49.3 (51167) - http://www.bohemiancoding.com/sketch -->
    <title>house</title>
    <desc>Created with Sketch.</desc>
    <defs></defs>
    <g id="logo" stroke="none" stroke-width="1" fill="none" fill-rule="evenodd">
        <g id="Artboard" transform="translate(-1675.000000, -1136.000000)" fill-rule="nonzero" stroke="#32535A" stroke-width="5">
            <path d="M1678.09821,1172.25567 C1678.09821,1180.60736 1677.78762,1188.97827 1678.27111,1197.30221 C1678.43334,1200.10497 1679.88809,1203.67725 1681.98428,1205.38601 C1695.06309,1216.05057 1708.48984,1226.2882 1721.80345,1236.66458 C1725.8635,1239.82808 1729.84242,1239.76191 1733.91741,1236.56211 C1747.05385,1226.24764 1760.38134,1216.1701 1773.27657,1205.56425 C1775.63106,1203.62709 1777.4679,1199.67057 1777.54794,1196.59245 C1777.96953,1180.61056 1777.77208,1164.61053 1777.73045,1148.6169 C1777.71338,1141.37735 1775.34502,1139.04848 1768.21646,1139.03033 C1762.88525,1139.01646 1757.55404,1139.01219 1752.2239,1139.0314 C1745.43048,1139.05808 1743.49011,1141.01873 1743.44848,1147.97118 C1743.41113,1154.19039 1743.46022,1160.41067 1743.43567,1166.62988 C1743.40259,1175.53017 1741.02889,1177.85477 1731.96103,1177.88999 C1728.22972,1177.90494 1724.49414,1177.98285 1720.76709,1177.8473 C1715.04845,1177.63918 1712.22755,1174.97944 1712.07173,1169.27361 C1711.87321,1161.99349 1712.06212,1154.7027 1711.98314,1147.41725 C1711.9159,1141.27702 1709.70444,1139.08583 1703.64746,1139.03887 C1697.78366,1138.99191 1691.91879,1138.98124 1686.055,1139.04207 C1680.38652,1139.10078 1678.1409,1141.40616 1678.10888,1147.19845 C1678.06405,1155.55121 1678.09821,1163.90291 1678.09821,1172.25567" id="house" transform="translate(1727.906474, 1189.000000) scale(1, -1) translate(-1727.906474, -1189.000000) "></path>
        </g>
    </g>
</svg>