<?xml version="1.0" encoding="UTF-8"?>
<svg width="59px" height="56px" viewBox="0 0 59 56" version="1.1" xmlns="http://www.w3.org/2000/svg" xmlns:xlink="http://www.w3.org/1999/xlink">
    <!-- Generator: Sketch 49.3 (51167) - http://www.bohemiancoding.com/sketch -->
    <title>house2</title>
    <desc>Created with Sketch.</desc>
    <defs></defs>
    <g id="logo" stroke="none" stroke-width="1" fill="none" fill-rule="evenodd">
        <g id="Artboard" transform="translate(-1289.000000, -1777.000000)" fill="#32535A" fill-rule="nonzero">
            <path d="M1337.31078,1805 C1338.18439,1805 1338.90741,1805.73129 1338.90741,1806.68433 L1338.90741,1831.37445 C1338.90741,1832.26232 1338.18439,1833 1337.31078,1833 L1322.30603,1833 C1321.37201,1833 1320.6489,1832.26232 1320.6489,1831.37445 L1320.6489,1821.98011 L1315.40656,1821.98011 L1315.40656,1831.37445 C1315.40656,1832.26232 1314.68345,1833 1313.80993,1833 L1298.74478,1833 C1297.87126,1833 1297.14815,1832.26232 1297.14815,1831.37445 L1297.14815,1807.44806 C1297.14815,1806.56009 1297.87126,1805.82251 1298.74478,1805.82251 C1299.67936,1805.82251 1300.40182,1806.56009 1300.40182,1807.44806 L1300.40182,1829.69012 L1312.12264,1829.69012 L1312.12264,1820.29588 C1312.12264,1819.4145 1312.87535,1818.64418 1313.80993,1818.64418 L1322.30603,1818.64418 C1323.18021,1818.64418 1323.90332,1819.41459 1323.90332,1820.29588 L1323.90332,1829.69012 L1335.65374,1829.69012 L1335.65374,1806.68423 C1335.65374,1805.73119 1336.37694,1805 1337.31078,1805 Z M1346.58181,1805.28398 C1347.23599,1805.95153 1347.19055,1807.06403 1346.58181,1807.67916 C1346.24685,1807.95405 1345.85166,1808.11111 1345.39537,1808.11111 C1344.87808,1808.11111 1344.48146,1807.95405 1344.20892,1807.67916 L1318.04518,1781.05087 L1291.82044,1807.43047 C1291.16428,1808.09141 1290.11671,1808.13722 1289.50855,1807.43047 C1288.80894,1806.82185 1288.85238,1805.76166 1289.50855,1805.10072 L1316.85873,1777.52359 C1317.19303,1777.18977 1317.58889,1777 1318.04518,1777 C1318.44047,1777 1318.8369,1777.18327 1319.17063,1777.52359 L1330.06198,1788.5702 L1330.06198,1782.79821 C1330.06198,1781.84936 1330.79204,1781.11639 1331.67474,1781.11639 C1332.61777,1781.11639 1333.37847,1781.84926 1333.37847,1782.79821 L1333.37847,1791.91422 L1346.58181,1805.28398 Z" id="house2"></path>
        </g>
    </g>
</svg>