<?xml version="1.0" encoding="UTF-8"?>
<svg width="72px" height="100px" viewBox="0 0 72 100" version="1.1" xmlns="http://www.w3.org/2000/svg" xmlns:xlink="http://www.w3.org/1999/xlink">
    <!-- Generator: Sketch 49.3 (51167) - http://www.bohemiancoding.com/sketch -->
    <title>lock</title>
    <desc>Created with Sketch.</desc>
    <defs></defs>
    <g id="logo" stroke="none" stroke-width="1" fill="none" fill-rule="evenodd">
        <g id="Artboard" transform="translate(-57.000000, -44.000000)" fill="#32535A" fill-rule="nonzero">
            <path d="M107.295673,103.900471 L78.1404065,103.900471 L78.1404065,116.103409 C78.1404065,124.141995 84.680655,130.681343 92.7192411,130.681343 C100.756626,130.681343 107.295673,124.141995 107.295673,116.103409 L107.295673,103.900471 Z M97.2181584,70.9580652 L97.2181584,59.4341695 C97.2181584,58.4277696 96.4018662,57.6123783 95.3951659,57.6123783 L90.0409137,57.6123783 C89.0342134,57.6123783 88.2188222,58.4277696 88.2188222,59.4341695 L88.2188222,70.9580652 C86.2282465,72.3693077 84.9272245,74.6899441 84.9272245,77.3166151 C84.9272245,81.618517 88.4149365,85.1074304 92.7180398,85.1074304 C97.0211431,85.1074304 100.508855,81.618517 100.508855,77.3166151 C100.508855,74.6899441 99.2090345,72.3693077 97.2181584,70.9580652 Z M125.551126,103.900471 L120.615832,103.900471 L120.615832,116.103409 C120.615832,131.485922 108.100553,144 92.7192411,144 C77.336728,144 64.8214488,131.485922 64.8214488,116.103409 L64.8214488,103.900471 L59.8861546,103.900471 C58.2917118,103.900471 57,102.608759 57,101.014317 L57,46.8861546 C57,45.2929132 58.2917118,44 59.8861546,44 L125.551126,44 C127.144368,44 128.437281,45.2929132 128.437281,46.8861546 L128.437281,101.014317 C128.43608,102.608759 127.144368,103.900471 125.551126,103.900471 Z" id="lock" transform="translate(92.718640, 94.000000) rotate(180.000000) translate(-92.718640, -94.000000) "></path>
        </g>
    </g>
</svg>