<?xml version="1.0" encoding="UTF-8"?>
<svg width="100px" height="100px" viewBox="0 0 100 100" version="1.1" xmlns="http://www.w3.org/2000/svg" xmlns:xlink="http://www.w3.org/1999/xlink">
    <!-- Generator: Sketch 49.3 (51167) - http://www.bohemiancoding.com/sketch -->
    <title>Combined Shape</title>
    <desc>Created with Sketch.</desc>
    <defs></defs>
    <g id="logo" stroke="none" stroke-width="1" fill="none" fill-rule="evenodd">
        <g id="Artboard" transform="translate(-730.000000, -486.000000)" fill="#32535A">
            <path d="M757.849403,581 L757.849403,560.724662 C757.849403,559.954453 757.671467,559.194656 757.329475,558.504537 L751.855085,547.457561 C751.011314,545.754885 749.27529,544.677686 747.375013,544.677686 L743.614163,544.677686 C741.012307,544.677686 738.845295,542.682274 738.63113,540.089248 L735.733701,505.008264 C732.567065,505.008264 730,502.441199 730,499.274564 L730,494.213039 C730,491.046404 732.567065,488.479339 735.733701,488.479339 L746.382002,488.479339 C746.382002,487.110038 747.49204,486 748.861341,486 L754.550964,486 C755.920265,486 757.030303,487.110038 757.030303,488.479339 L767.678604,488.479339 C771.297616,488.479339 774.231405,491.413128 774.231405,495.03214 L774.231405,498.476112 C774.231405,502.095124 771.297616,505.028913 767.678604,505.028913 L766.040404,538.892562 L772.666667,538.892562 C772.071625,538.297385 771.774105,537.110975 771.774105,535.333333 C771.470712,531.681387 774.185252,528.474951 777.837198,528.171558 C778.019918,528.156379 778.203189,528.148779 778.386539,528.148779 L822.55831,528.14876 C826.177322,528.14876 829.111111,531.082549 829.111111,534.701561 L829.111111,538.117539 C829.111111,541.284174 826.544046,543.85124 823.37741,543.85124 C822.55831,555.421488 815.18641,568.644628 801.261708,572.77686 L797.985308,586 L762.849403,586 C760.087979,586 757.849403,583.761424 757.849403,581 Z M737.807163,494.264463 C736.209645,494.264463 734.914601,495.559507 734.914601,497.157025 C734.914601,498.754543 736.209645,500.049587 737.807163,500.049587 L765.605142,500.049587 C767.20266,500.049587 768.497704,498.754543 768.497704,497.157025 C768.497704,495.559507 767.20266,494.264463 765.605142,494.264463 L737.807163,494.264463 Z M741.118706,505.111111 L743.787195,539.333333 L760.687628,539.333333 L762.911369,505.111111 L741.118706,505.111111 Z M779.587453,533.111111 C777.991964,533.111111 776.698565,534.404511 776.698565,536 C776.698565,537.595489 777.991964,538.888889 779.587453,538.888889 L820.952989,538.888889 C822.548478,538.888889 823.841877,537.595489 823.841877,536 C823.841877,534.404511 822.548478,533.111111 820.952989,533.111111 L779.587453,533.111111 Z M756.222222,544.666667 L762.888889,558 L762.888889,580.666667 L794,580.666667 L796.666667,568.666667 C807.747506,566.81986 816.307191,557.927001 817.729734,546.783749 L818,544.666667 L756.222222,544.666667 Z" id="Combined-Shape"></path>
        </g>
    </g>
</svg>