<?xml version="1.0" encoding="UTF-8"?>
<svg width="108px" height="100px" viewBox="0 0 108 100" version="1.1" xmlns="http://www.w3.org/2000/svg" xmlns:xlink="http://www.w3.org/1999/xlink">
    <!-- Generator: Sketch 51.2 (57519) - http://www.bohemiancoding.com/sketch -->
    <title>medication</title>
    <desc>Created with Sketch.</desc>
    <defs></defs>
    <g id="logo" stroke="none" stroke-width="1" fill="none" fill-rule="evenodd">
        <g id="Artboard" transform="translate(-555.000000, -1535.000000)" fill="#32535A" fill-rule="nonzero">
            <path d="M608.988268,1599.47534 L608.988268,1585.28026 L612.362884,1585.28026 L612.362884,1535 L659.165134,1535 L659.165134,1585.27856 L662.538056,1585.27856 L662.538056,1599.47534 L608.988268,1599.47534 Z M617.869729,1585.27856 L653.654899,1585.27856 L653.654899,1540.50346 L617.869729,1540.50346 L617.869729,1585.27856 Z M604.444993,1584.71313 L594.053345,1584.71313 L594.053345,1595.04715 L585.173578,1595.04715 L585.173578,1584.68432 L574.910745,1584.68432 L574.910745,1575.83337 L585.27358,1575.83337 L585.27358,1565.57053 L594.082159,1565.57053 L594.082159,1575.96218 L604.444993,1575.96218 L604.444993,1584.71313 Z M609.690479,1617.32521 L609.632852,1617.32521 C609.632852,1622.99816 609.575224,1626.29142 609.661665,1631.67793 C609.690479,1632.93218 609.390476,1633.87287 608.563347,1634.57118 C608.236225,1634.85763 607.822661,1635 607.395537,1635 L572.145966,1635 C571.618841,1635 571.076462,1634.82881 570.691712,1634.45762 C569.964584,1633.77287 569.693395,1632.86099 569.722209,1631.67793 C569.806955,1626.28973 569.751022,1622.99816 569.751022,1617.32521 L569.666276,1617.32521 C561.569569,1617.32521 555,1610.75395 555,1602.64368 L555,1559.95335 C555,1551.85664 561.571264,1545.28707 569.666276,1545.28707 L606.66841,1545.28707 L606.66841,1551.68715 L569.666276,1551.68715 C568.254395,1551.68715 566.94421,1552.04308 565.789959,1552.65665 C563.595017,1553.83972 561.998388,1555.94991 561.542451,1558.45841 C561.442449,1558.95672 561.400076,1559.44148 561.400076,1559.95504 L561.400076,1602.64368 C561.400076,1607.20475 565.105205,1610.91158 569.667971,1610.91158 L609.692174,1610.91158 C613.370184,1610.91158 616.49056,1608.50308 617.560064,1605.181 L624.131329,1605.181 C622.931314,1612.07939 616.915989,1617.32521 609.690479,1617.32521 Z M604.444654,1621.27441 L598.073392,1621.27441 L598.073392,1629.68299 L604.444654,1629.68299 L604.444654,1621.27441 Z M593.056384,1621.27441 L586.685122,1621.27441 L586.685122,1629.68299 L593.056384,1629.68299 L593.056384,1621.27441 Z M581.639299,1621.27441 L575.281597,1621.27441 L575.281597,1629.68299 L581.639299,1629.68299 L581.639299,1621.27441 Z M622,1572 L632,1572 L632,1575 L622,1575 L622,1572 Z M622,1562 L632,1562 L632,1565 L622,1565 L622,1562 Z M622,1552 L632,1552 L632,1555 L622,1555 L622,1552 Z" id="medication" transform="translate(608.769028, 1585.000000) scale(1, -1) translate(-608.769028, -1585.000000) "></path>
        </g>
    </g>
</svg>