<?xml version="1.0" encoding="UTF-8"?>
<svg width="68px" height="95px" viewBox="0 0 68 95" version="1.1" xmlns="http://www.w3.org/2000/svg" xmlns:xlink="http://www.w3.org/1999/xlink">
    <!-- Generator: Sketch 51.1 (57501) - http://www.bohemiancoding.com/sketch -->
    <title>Combined Shape</title>
    <desc>Created with Sketch.</desc>
    <defs></defs>
    <g id="logo" stroke="none" stroke-width="1" fill="none" fill-rule="evenodd">
        <g id="Artboard" transform="translate(-601.000000, -204.000000)" fill="#32535B">
            <path d="M664.67432,294.954917 C663.863511,297.308821 661.629254,299 659,299 C655.686292,299 653,296.313708 653,293 C653,289.686292 655.686292,287 659,287 C661.596074,287 663.807059,288.648765 664.642946,290.956287 C665.336802,290.845879 665.789154,290.527116 666,290 C666.270164,289.324591 666.270164,287.991258 666,286 C662.361285,285.724399 659.694618,285.391066 658,285 C656.305382,284.608934 654.638715,283.942268 653,283 L654,279 L652,261 L647.116093,261 C649.266946,264.6685 650.5,268.940252 650.5,273.5 C650.5,287.169048 639.419048,298.25 625.75,298.25 C612.080952,298.25 601,287.169048 601,273.5 C601,264.148536 606.186326,256.008403 613.839548,251.799032 L616.060362,256.557919 C610.072506,260.064302 606.05102,266.565068 606.05102,274.005102 C606.05102,285.163508 615.096696,294.209184 626.255102,294.209184 C637.413508,294.209184 646.459184,285.163508 646.459184,274.005102 C646.459184,264.718115 639.771122,256.43312 631.228797,254.061975 C631.228199,254.060673 631.227601,254.059371 631.227002,254.058069 C631.151125,254.038221 631.075458,254.018865 631,254 L630.767383,253.468305 L624,238 L622,241 L627.550148,254.478931 C628.354207,256.431647 627.441031,258.668129 625.5,259.5 C623.556917,260.33275 621.304893,259.455319 620.437378,257.527506 L613,241 C613.066248,240.602512 613.125913,240.188566 613.178997,239.758162 C614.288807,230.759445 621.933105,224 631,224 L632,224 C635.865993,224 639,227.134007 639,231 L639,251 L655.552615,251 C658.642464,251 661.227088,253.346573 661.524715,256.422055 L663.912548,281.096324 C663.962152,281.608904 664.392923,282 664.907898,282 L668,282 C668.552285,282 669,282.447715 669,283 L669,290 C669,292.53274 667.116841,294.625644 664.67432,294.954917 Z M617.079451,258.741681 L617.689728,260.049417 C618.135576,261.004805 618.804032,261.791246 619.606924,262.371919 C615.728521,264.588735 613.103123,268.853189 613.103123,273.75 C613.103123,280.929702 618.747049,286.75 625.709184,286.75 C632.671319,286.75 638.315244,280.929702 638.315244,273.75 C638.315244,267.906494 634.576588,262.963485 629.431442,261.32602 C630.68155,260.366532 631.495672,258.952793 631.716926,257.415994 C637.976912,259.904293 642.418367,266.167259 642.418367,273.5 C642.418367,283.016609 634.937411,290.731346 625.709184,290.731346 C616.480956,290.731346 609,283.016609 609,273.5 C609,267.239808 612.237188,261.75933 617.079451,258.741681 Z M634.5,221 C629.80558,221 626,217.19442 626,212.5 C626,207.80558 629.80558,204 634.5,204 C639.19442,204 643,207.80558 643,212.5 C643,217.19442 639.19442,221 634.5,221 Z M659,295 C660.104569,295 661,294.104569 661,293 C661,291.895431 660.104569,291 659,291 C657.895431,291 657,291.895431 657,293 C657,294.104569 657.895431,295 659,295 Z" id="Combined-Shape"></path>
        </g>
    </g>
</svg>