<?xml version="1.0" encoding="UTF-8"?>
<svg width="127px" height="100px" viewBox="0 0 127 100" version="1.1" xmlns="http://www.w3.org/2000/svg" xmlns:xlink="http://www.w3.org/1999/xlink">
    <!-- Generator: Sketch 49.3 (51167) - http://www.bohemiancoding.com/sketch -->
    <title>moon-z</title>
    <desc>Created with Sketch.</desc>
    <defs></defs>
    <g id="logo" stroke="none" stroke-width="1" fill="none" fill-rule="evenodd">
        <g id="Artboard" transform="translate(-1117.000000, -974.000000)" fill="#32535A">
            <path d="M1167,1074 C1139.386,1074 1117,1051.61424 1117,1024 C1117,996.385763 1139.38576,974 1167,974 C1170.00837,974 1174.35636,974.572838 1180.04395,975.718513 C1150.87097,1001.41935 1167,1049.80645 1210.91238,1047.93007 C1200.9923,1065.31002 1186.35484,1074 1167,1074 Z M1167.25495,1069 C1181.75328,1069 1193.3508,1063.71411 1202,1053 C1180,1048.33333 1166.66667,1037.33333 1162,1020 C1158,1005.33333 1160.6558,991.711125 1169.9674,979.133376 C1168.93481,979.133376 1168.05454,979 1167.25495,979 C1142.26133,979 1122,999.147186 1122,1024 C1122,1048.85281 1142.26154,1069 1167.25495,1069 Z M1179.69091,1032.18182 L1179.69091,1025.78182 L1198.09091,1004.25455 L1179.69091,1004.25455 L1179.69091,997.636364 L1207.03636,997.636364 L1207.03636,1004.03636 L1188.70909,1025.63636 L1207.03636,1025.63636 L1207.03636,1032.18182 L1179.69091,1032.18182 Z M1206.74545,1015.81818 L1206.74545,1011.01818 L1220.54545,994.872727 L1206.74545,994.872727 L1206.74545,989.909091 L1227.25455,989.909091 L1227.25455,994.709091 L1213.50909,1010.90909 L1227.25455,1010.90909 L1227.25455,1015.81818 L1206.74545,1015.81818 Z M1229.72727,1001.27273 L1229.72727,998.072727 L1238.92727,987.309091 L1229.72727,987.309091 L1229.72727,984 L1243.4,984 L1243.4,987.2 L1234.23636,998 L1243.4,998 L1243.4,1001.27273 L1229.72727,1001.27273 Z" id="moon-z"></path>
        </g>
    </g>
</svg>