<?xml version="1.0" encoding="UTF-8"?>
<svg width="236px" height="207px" viewBox="0 0 236 207" version="1.1" xmlns="http://www.w3.org/2000/svg" xmlns:xlink="http://www.w3.org/1999/xlink">
    <!-- Generator: Sketch 51.1 (57501) - http://www.bohemiancoding.com/sketch -->
    <title>Group</title>
    <desc>Created with Sketch.</desc>
    <defs></defs>
    <g id="logo" stroke="none" stroke-width="1" fill="none" fill-rule="evenodd">
        <g id="Artboard" transform="translate(-1714.000000, -60.000000)" fill="#32535B">
            <g id="Group" transform="translate(1709.000000, 51.000000)">
                <path d="M188.983764,49.2669316 L162.605267,65.1167322 L159,59.1165611 L184.91286,43.5465439 C183.686145,40.9550031 183,38.0576304 183,35 C183,23.954305 191.954305,15 203,15 C214.045695,15 223,23.954305 223,35 C223,46.045695 214.045695,55 203,55 C197.540911,55 192.592668,52.8128122 188.983764,49.2669316 Z M130,111 C113.431458,111 100,97.5685425 100,81 C100,64.4314575 113.431458,51 130,51 C146.568542,51 160,64.4314575 160,81 C160,97.5685425 146.568542,111 130,111 Z" id="Combined-Shape"></path>
                <path d="M66.8730536,47.8502866 L40.4945557,63.7000872 L36.8892892,57.6999161 L62.8021493,42.1298989 C61.575434,39.5383581 60.8892892,36.6409854 60.8892892,33.583355 C60.8892892,22.53766 69.8435942,13.583355 80.8892892,13.583355 C91.9349842,13.583355 100.889289,22.53766 100.889289,33.583355 C100.889289,44.62905 91.9349842,53.583355 80.8892892,53.583355 C75.4302006,53.583355 70.481957,51.3961672 66.8730536,47.8502866 Z" id="Combined-Shape" transform="translate(68.889289, 38.641721) rotate(250.000000) translate(-68.889289, -38.641721) "></path>
                <path d="M56.3230953,108.150799 L11.4731264,135.099379 L7.86785991,129.099208 L52.252191,102.430411 C51.0254757,99.8388702 50.3393309,96.9414975 50.3393309,93.8838671 C50.3393309,82.8381721 59.2936359,73.8838671 70.3393309,73.8838671 C81.3850259,73.8838671 90.3393309,82.8381721 90.3393309,93.8838671 C90.3393309,104.929562 81.3850259,113.883867 70.3393309,113.883867 C64.8802423,113.883867 59.9319987,111.696679 56.3230953,108.150799 Z" id="Combined-Shape" transform="translate(49.103595, 104.491623) rotate(197.000000) translate(-49.103595, -104.491623) "></path>
                <path d="M208.681447,127.45238 L163.831478,154.40096 L160.226212,148.400789 L204.610543,121.731992 C203.383828,119.140452 202.697683,116.243079 202.697683,113.185448 C202.697683,102.139753 211.651988,93.1854485 222.697683,93.1854485 C233.743378,93.1854485 242.697683,102.139753 242.697683,113.185448 C242.697683,124.231143 233.743378,133.185448 222.697683,133.185448 C217.238594,133.185448 212.290351,130.998261 208.681447,127.45238 Z" id="Combined-Shape" transform="translate(201.461947, 123.793204) rotate(64.000000) translate(-201.461947, -123.793204) "></path>
                <path d="M110.183425,166.209887 L51.5122029,201.463113 L47.9069364,195.462942 L106.11252,160.489499 C104.885805,157.897958 104.19966,155.000586 104.19966,151.942955 C104.19966,140.89726 113.153965,131.942955 124.19966,131.942955 C135.245355,131.942955 144.19966,140.89726 144.19966,151.942955 C144.19966,162.98865 135.245355,171.942955 124.19966,171.942955 C118.740572,171.942955 113.792328,169.755767 110.183425,166.209887 Z" id="Combined-Shape" transform="translate(96.053298, 166.703034) rotate(144.000000) translate(-96.053298, -166.703034) "></path>
            </g>
        </g>
    </g>
</svg>