
<svg width="90px" height="90px" viewBox="0 0 90 90" version="1.1" xmlns="http://www.w3.org/2000/svg" xmlns:xlink="http://www.w3.org/1999/xlink">
    <!-- Generator: Sketch 50 (54983) - http://www.bohemiancoding.com/sketch -->
    <desc>Created with Sketch.</desc>
    <defs></defs>
    <g id="logo" stroke="none" stroke-width="1" fill="none" fill-rule="evenodd">
        <g id="Artboard" transform="translate(-1638.000000, -263.000000)" fill="#33535C">
            <path d="M1685,307 L1703.64645,307 C1704.39399,307 1705,307.606006 1705,308.353553 C1705,309.1011 1704.39399,309.707107 1703.64645,309.707107 L1685,309.707107 L1685,329 C1685,330.104569 1684.10457,331 1683,331 C1681.89543,331 1681,330.104569 1681,329 L1681,309.707107 L1661.35355,309.707107 C1660.60601,309.707107 1660,309.1011 1660,308.353553 C1660,307.606006 1660.60601,307 1661.35355,307 L1681,307 L1681,287 C1681,285.895431 1681.89543,285 1683,285 C1684.10457,285 1685,285.895431 1685,287 L1685,307 Z M1683,263 C1707.85281,263 1728,283.147186 1728,308 C1728,332.852814 1707.85281,353 1683,353 C1658.14719,353 1638,332.852814 1638,308 C1638,283.147186 1658.14719,263 1683,263 Z M1683,267 C1660.35633,267 1642,285.356325 1642,308 C1642,330.643675 1660.35633,349 1683,349 C1705.64367,349 1724,330.643675 1724,308 C1724,285.356325 1705.64367,267 1683,267 Z" id="Plus"></path>
        </g>
    </g>
</svg>