<?xml version="1.0" encoding="UTF-8"?>
<svg width="105px" height="145px" viewBox="0 0 105 145" version="1.1" xmlns="http://www.w3.org/2000/svg" xmlns:xlink="http://www.w3.org/1999/xlink">
    <!-- Generator: Sketch 51.2 (57519) - http://www.bohemiancoding.com/sketch -->
    <title>pound</title>
    <desc>Created with Sketch.</desc>
    <defs></defs>
    <g id="logo" stroke="none" stroke-width="1" fill="none" fill-rule="evenodd">
        <g id="Artboard" transform="translate(-1195.000000, -1535.000000)" stroke="#E4F4E9" stroke-width="5">
            <path d="M1209,1599 L1199,1599 C1198.44772,1599 1198,1599.44772 1198,1600 L1198,1617 C1198,1617.55228 1198.44772,1618 1199,1618 L1209,1618 C1209.55228,1618 1210,1618.44772 1210,1619 L1210,1655 C1210,1655.55228 1209.55228,1656 1209,1656 L1199,1656 C1198.44772,1656 1198,1656.44772 1198,1657 L1198,1676 C1198,1676.55228 1198.44772,1677 1199,1677 L1296,1677 C1296.55228,1677 1297,1676.55228 1297,1676 L1297,1636 C1297,1635.44772 1296.55228,1635 1296,1635 L1276,1635 C1275.44772,1635 1275,1635.44772 1275,1636 L1275,1655 C1275,1655.55228 1274.55228,1656 1274,1656 L1236,1656 C1235.44772,1656 1235,1655.55228 1235,1655 L1235,1619 C1235,1618.44772 1235.44772,1618 1236,1618 L1266,1618 C1266.55228,1618 1267,1617.55228 1267,1617 L1267,1600 C1267,1599.44772 1266.55228,1599 1266,1599 L1236,1599 C1235.44772,1599 1235,1598.55228 1235,1598 L1235,1575 C1236.33333,1569.66667 1238.66667,1566 1242,1564 C1247,1561 1248.80811,1559.67873 1257,1561 C1262.19406,1561.83775 1267.27241,1564.29085 1272.23505,1568.3593 L1272.23504,1568.3593 C1272.66148,1568.7089 1273.29043,1568.64733 1273.64097,1568.22167 L1286.40811,1552.71871 C1286.74303,1552.31202 1286.70497,1551.71524 1286.32111,1551.3544 C1281.65625,1546.96927 1277.21588,1543.85114 1273,1542 C1266.37011,1539.0889 1260.31769,1538.10882 1253,1538 C1245.68231,1537.89118 1239.82461,1537.5877 1231,1542 C1222.17539,1546.4123 1220,1550 1215,1557 C1211.66667,1561.66667 1210,1567.66667 1210,1575 L1210,1598 C1210,1598.55228 1209.55228,1599 1209,1599 Z" id="pound"></path>
        </g>
    </g>
</svg>