<?xml version="1.0" encoding="UTF-8"?>
<svg width="101px" height="100px" viewBox="0 0 101 100" version="1.1" xmlns="http://www.w3.org/2000/svg" xmlns:xlink="http://www.w3.org/1999/xlink">
    <!-- Generator: Sketch 49.3 (51167) - http://www.bohemiancoding.com/sketch -->
    <title>Profile</title>
    <desc>Created with Sketch.</desc>
    <defs></defs>
    <g id="logo" stroke="none" stroke-width="1" fill="none" fill-rule="evenodd">
        <g id="Artboard" transform="translate(-455.000000, -453.000000)" fill="#32535A" fill-rule="nonzero">
            <path d="M504.035167,552.817414 C491.138115,552.81957 478.225965,553.130135 465.346166,552.621154 C461.681937,552.478812 455.065188,550.020177 455.034994,548.523429 C454.918532,542.534279 454.890495,533.159114 458.397286,531.095154 C471.003184,523.667487 482.425056,510.740241 499.898621,516.738017 C501.507517,517.287975 503.631865,517.369929 505.217037,516.815658 C522.142801,510.865329 534.222466,521.903308 547.643596,528.535154 C555.998643,532.663073 555.522013,539.900951 554.542872,547.009427 C553.432172,555.049596 546.593284,552.636251 541.654446,552.733303 C529.119719,552.981323 516.574208,552.815257 504.035167,552.817414 Z M503.681029,453.000007 C518.926725,452.989224 530.404671,465.269461 530.383104,481.576252 C530.361537,497.641494 518.318537,510.995766 503.799647,511.053997 C489.209587,511.112228 477.453428,498.021073 477.429704,481.684087 C477.403824,464.577161 487.988896,453.010791 503.681029,453.000007 Z" id="Profile"></path>
        </g>
    </g>
</svg>