<?xml version="1.0" encoding="UTF-8"?>
<svg width="50px" height="50px" viewBox="0 0 50 50" version="1.1" xmlns="http://www.w3.org/2000/svg" xmlns:xlink="http://www.w3.org/1999/xlink">
    <!-- Generator: Sketch 50.2 (55047) - http://www.bohemiancoding.com/sketch -->
    <title>Group</title>
    <desc>Created with Sketch.</desc>
    <defs></defs>
    <g id="Public" stroke="none" stroke-width="1" fill="none" fill-rule="evenodd">
        <g id="Public/OUR-APPROACH" transform="translate(-815.000000, -1430.000000)" fill="#33535C" fill-rule="nonzero">
            <g id="Stacked-Group" transform="translate(0.000000, 105.000000)">
                <g id="How-we-can-help" transform="translate(0.000000, 512.000000)">
                    <g id="Stacked-Group" transform="translate(152.000000, 813.000000)">
                        <g id="Group-5" transform="translate(636.000000, 0.000000)">
                            <g id="Group" transform="translate(27.000000, 0.000000)">
                                <path d="M23.5789911,10.727974 C15.835154,10.727974 9.43159645,16.953022 9.43159645,24.8084398 C9.43159645,32.6638575 15.6862341,38.8889056 23.5789911,38.8889056 C31.3228282,38.8889056 37.7263858,32.6638575 37.7263858,24.8084398 C37.7263858,16.953022 31.3228282,10.727974 23.5789911,10.727974 Z M23.5789911,35.1835198 C17.9200332,35.1835198 13.154595,30.5888415 13.154595,24.8084398 C13.154595,19.1762534 17.7711133,14.4333597 23.5789911,14.4333597 C29.237949,14.4333597 34.0033872,19.028038 34.0033872,24.8084398 C34.0033872,30.4406261 29.3868689,35.1835198 23.5789911,35.1835198 Z" id="Shape"></path>
                                <path d="M21.9950589,6.11875563 L23.5789911,4.5066284 L25.1629233,6.11875563 C25.450911,6.41186968 26.0268864,6.70498372 26.4588679,6.70498372 C26.8908494,6.70498372 27.3228309,6.5584267 27.7548124,6.11875563 C28.4747816,5.38597053 28.4747816,4.21351436 27.7548124,3.48072925 L24.8749357,0.549588829 C24.1549665,-0.183196276 23.0030158,-0.183196276 22.2830466,0.549588829 L19.4031698,3.48072925 C18.6832006,4.21351436 18.6832006,5.38597053 19.4031698,6.11875563 C20.123139,6.85154074 21.2750897,6.85154074 21.9950589,6.11875563 Z" id="Shape"></path>
                                <path d="M25.1629233,43.4614846 L23.5789911,45.0736119 L21.9950589,43.4614846 C21.2750897,42.7286995 20.123139,42.7286995 19.4031698,43.4614846 C18.6832006,44.1942697 18.6832006,45.3667259 19.4031698,46.099511 L22.2830466,49.0306514 C22.5710342,49.3237655 23.1470096,49.6168795 23.5789911,49.6168795 C24.0109726,49.6168795 24.4429541,49.4703225 24.8749357,49.0306514 L27.7548124,46.099511 C28.4747816,45.3667259 28.4747816,44.1942697 27.7548124,43.4614846 C27.0348432,42.7286995 25.8828925,42.8752565 25.1629233,43.4614846 Z" id="Shape"></path>
                                <path d="M8.61550504,14.7509642 C9.70148068,14.7509642 10.4771776,13.8225818 10.4771776,12.8941995 L10.4771776,10.4185132 L12.9594076,10.4185132 C14.0453832,10.4185132 14.8210801,9.4901308 14.8210801,8.56174844 C14.8210801,7.63336608 13.8902439,6.70498372 12.9594076,6.70498372 L8.61550504,6.70498372 C7.5295294,6.70498372 6.75383251,7.63336608 6.75383251,8.56174844 L6.75383251,12.8941995 C6.59869313,13.9773122 7.5295294,14.7509642 8.61550504,14.7509642 Z" id="Shape"></path>
                                <path d="M41.250279,34.8659153 C40.1620178,34.8659153 39.3846885,35.7942977 39.3846885,36.7226801 L39.3846885,39.1983664 L36.8972344,39.1983664 C35.8089733,39.1983664 35.0316439,40.1267487 35.0316439,41.0551311 C35.0316439,41.9835134 35.9644392,42.9118958 36.8972344,42.9118958 L41.250279,42.9118958 C42.3385401,42.9118958 43.1158695,41.9835134 43.1158695,41.0551311 L43.1158695,36.7226801 C43.1158695,35.6395673 42.3385401,34.8659153 41.250279,34.8659153 Z" id="Shape"></path>
                                <path d="M6.18161933,26.3610387 L4.55292921,24.7905938 L6.18161933,23.2201489 C6.92193303,22.5063104 6.92193303,21.3641687 6.18161933,20.6503301 C5.44130564,19.9364915 4.25680373,19.9364915 3.51649004,20.6503301 L0.55523527,23.5056844 C-0.185078423,24.2195229 -0.185078423,25.3616647 0.55523527,26.0755032 L3.51649004,28.9308575 C3.81261552,29.2163929 4.40486647,29.5019284 4.84905469,29.5019284 C5.2932429,29.5019284 5.73743112,29.3591606 6.18161933,28.9308575 C6.92193303,28.2170189 6.92193303,27.0748772 6.18161933,26.3610387 Z" id="Shape"></path>
                                <path d="M49.2974888,23.5056844 L46.336234,20.6503301 C45.5959203,19.9364915 44.4114184,19.9364915 43.6711047,20.6503301 C42.930791,21.3641687 42.930791,22.5063104 43.6711047,23.2201489 L45.2997949,24.7905938 L43.6711047,26.3610387 C42.930791,27.0748772 42.930791,28.2170189 43.6711047,28.9308575 C43.9672302,29.2163929 44.5594812,29.5019284 45.0036694,29.5019284 C45.4478576,29.5019284 45.8920458,29.3591606 46.336234,28.9308575 L49.2974888,26.0755032 C50.0378025,25.3616647 50.0378025,24.2195229 49.2974888,23.5056844 Z" id="Shape"></path>
                                <path d="M12.9554896,39.1983664 L10.4680356,39.1983664 L10.4680356,36.7226801 C10.4680356,35.6395673 9.53524036,34.8659153 8.60244511,34.8659153 C7.66964986,34.8659153 6.7368546,35.7942977 6.7368546,36.7226801 L6.7368546,41.0551311 C6.7368546,42.1382438 7.66964986,42.9118958 8.60244511,42.9118958 L12.9554896,42.9118958 C14.0437508,42.9118958 14.8210801,41.9835134 14.8210801,41.0551311 C14.8210801,40.1267487 14.0437508,39.1983664 12.9554896,39.1983664 Z" id="Shape"></path>
                                <path d="M36.8972344,10.4185132 L39.3846885,10.4185132 L39.3846885,12.8941995 C39.3846885,13.9773122 40.3174837,14.7509642 41.250279,14.7509642 C42.1830742,14.7509642 43.1158695,13.8225818 43.1158695,12.8941995 L43.1158695,8.56174844 C43.1158695,7.47863569 42.1830742,6.70498372 41.250279,6.70498372 L36.8972344,6.70498372 C35.8089733,6.70498372 35.0316439,7.63336608 35.0316439,8.56174844 C35.0316439,9.4901308 35.8089733,10.4185132 36.8972344,10.4185132 Z" id="Shape"></path>
                            </g>
                        </g>
                    </g>
                </g>
            </g>
        </g>
    </g>
</svg>