<?xml version="1.0" encoding="UTF-8"?>
<svg width="68px" height="100px" viewBox="0 0 68 100" version="1.1" xmlns="http://www.w3.org/2000/svg" xmlns:xlink="http://www.w3.org/1999/xlink">
    <!-- Generator: Sketch 49.3 (51167) - http://www.bohemiancoding.com/sketch -->
    <title>ring</title>
    <desc>Created with Sketch.</desc>
    <defs></defs>
    <g id="logo" stroke="none" stroke-width="1" fill="none" fill-rule="evenodd">
        <g id="Artboard" transform="translate(-244.000000, -83.000000)" fill="#32535A" fill-rule="nonzero">
            <path d="M266.163054,148.47172 C263.215377,146.45279 260.777913,144.872325 258.434122,143.164307 C245.672812,133.876832 240.965298,119.20621 245.953828,104.394083 C250.770958,90.0861896 264.199929,82.2097732 282.316484,83.0627859 C294.679189,83.6447479 307.396652,94.6541922 310.501778,107.461341 C314.085228,122.245566 308.303476,138.273435 294.214816,144.537498 C281.945782,149.992395 274.723077,159.815992 266.250747,168.850353 C262.928382,172.393943 259.701683,176.025226 256.178023,179.895672 C251.08187,168.878255 251.08187,168.878255 266.163054,148.47172 Z M298.553621,115.65664 C298.442012,104.836533 288.132117,94.6721294 277.455508,94.8534942 C266.559665,95.0408381 256.419178,105.280977 256.526801,115.987482 C256.630438,126.540524 267.285125,136.936118 277.850126,136.796607 C288.8795,136.651116 298.667223,126.658113 298.553621,115.65664 Z M280.098651,158.496812 C283.221714,154.861543 285.617324,152.0753 287.947165,149.366785 C305.02137,165.161472 305.515639,166.610397 298.876889,179.698562 C292.848002,172.892397 287.012439,166.303472 280.098651,158.496812 Z M260.933369,183 L294.641322,183 C285.559128,168.197838 269.79633,167.986578 260.933369,183 Z" id="ring" transform="translate(277.768838, 133.000000) scale(1, -1) translate(-277.768838, -133.000000) "></path>
        </g>
    </g>
</svg>