<?xml version="1.0" encoding="UTF-8"?>
<svg width="66px" height="100px" viewBox="0 0 66 100" version="1.1" xmlns="http://www.w3.org/2000/svg" xmlns:xlink="http://www.w3.org/1999/xlink">
    <!-- Generator: Sketch 49.3 (51167) - http://www.bohemiancoding.com/sketch -->
    <title>roset</title>
    <desc>Created with Sketch.</desc>
    <defs></defs>
    <g id="logo" stroke="none" stroke-width="1" fill="none" fill-rule="evenodd">
        <g id="Artboard" transform="translate(-142.000000, -947.000000)" fill="#32535A" fill-rule="nonzero">
            <path d="M207.698401,1023.23244 C206.620967,1026.53941 202.257891,1028.2025 200.253436,1030.96649 C198.226579,1033.74969 197.981223,1038.40186 195.196961,1040.42765 C192.444703,1042.43424 187.942947,1041.25013 184.63597,1042.31689 C181.43567,1043.36126 178.513795,1047 174.971063,1047 C171.429397,1047 168.506456,1043.36233 165.316823,1042.31689 C162.009846,1041.25013 157.50809,1042.43424 154.755832,1040.42765 C151.971571,1038.40186 151.726214,1033.74969 149.699357,1030.96649 C147.693836,1028.2025 143.320092,1026.53941 142.253325,1023.23244 C141.207894,1020.0428 143.736131,1016.13844 143.736131,1012.5957 C143.736131,1009.0551 141.207894,1005.16034 142.253325,1001.97071 C143.320092,998.654129 147.693836,996.988906 149.699357,994.236647 C151.726214,991.452386 151.971571,986.791682 154.755832,984.763758 C156.708015,983.344958 159.52428,983.526309 162.180529,983.378028 C163.279299,983.312955 164.346065,983.196678 165.316823,982.875581 C168.506456,981.83975 171.429397,978.202076 174.971063,978.202076 C178.513795,978.202076 181.43567,981.83975 184.63597,982.875581 C185.59606,983.196678 186.662827,983.312955 187.762664,983.378028 C190.417846,983.526309 193.245845,983.344958 195.198028,984.763758 C197.982289,986.790615 198.227646,991.452386 200.254503,994.236647 C202.260024,996.988906 206.623101,998.654129 207.699468,1001.97071 C208.735299,1005.16034 206.216662,1009.0551 206.216662,1012.5957 C206.215596,1016.13737 208.733165,1020.0428 207.698401,1023.23244 Z M174.969996,975.450671 C171.150971,975.450671 167.993341,979.379573 164.547684,980.496478 C163.800948,980.732233 163.01154,980.869846 162.179462,980.955187 L162.179462,947 C162.179462,947 170.884279,953.785704 174.980664,961.552833 C178.822091,953.78677 187.76053,947 187.76053,947 L187.76053,980.955187 C186.938053,980.869846 186.148645,980.732233 185.402975,980.496478 C181.957319,979.378506 178.799689,975.450671 174.969996,975.450671 Z M174.969996,989.865037 C162.414151,989.865037 152.237196,1000.04093 152.237196,1012.59677 C152.237196,1025.15368 162.414151,1035.33064 174.969996,1035.33064 C187.526908,1035.33064 197.702797,1025.15368 197.702797,1012.59677 C197.702797,1000.04093 187.526908,989.865037 174.969996,989.865037 Z M174.969996,1033.09683 C163.669735,1033.09683 154.468872,1023.90557 154.468872,1012.5957 C154.468872,1001.29758 163.669735,992.09458 174.969996,992.09458 C186.280924,992.09458 195.47112,1001.29758 195.47112,1012.5957 C195.47112,1023.90557 186.280924,1033.09683 174.969996,1033.09683 Z M174.968929,994.554544 C165.004261,994.554544 156.928836,1002.63104 156.928836,1012.5957 C156.928836,1022.56037 165.004261,1030.6358 174.968929,1030.6358 C184.933598,1030.6358 193.011156,1022.56037 193.011156,1012.5957 C193.011156,1002.63104 184.933598,994.554544 174.968929,994.554544 Z" id="roset" transform="translate(174.974705, 997.000000) scale(1, -1) translate(-174.974705, -997.000000) "></path>
        </g>
    </g>
</svg>