<?xml version="1.0" encoding="UTF-8"?>
<svg width="53px" height="100px" viewBox="0 0 53 100" version="1.1" xmlns="http://www.w3.org/2000/svg" xmlns:xlink="http://www.w3.org/1999/xlink">
    <!-- Generator: Sketch 49.3 (51167) - http://www.bohemiancoding.com/sketch -->
    <title>Rose</title>
    <desc>Created with Sketch.</desc>
    <defs></defs>
    <g id="logo" stroke="none" stroke-width="1" fill="none" fill-rule="evenodd">
        <g id="Artboard" transform="translate(-1318.000000, -792.000000)" fill="#33535C" fill-rule="nonzero">
            <path d="M1370.17391,857.207996 C1370.17391,856.559697 1369.95377,855.6953 1369.51348,855.263101 C1369.0732,854.830902 1368.41277,854.398703 1367.5322,854.398703 L1365.33076,854.398703 C1355.64447,853.966505 1349.92075,858.288493 1346.83875,861.962183 L1346.83875,832.140465 C1357.8459,831.059968 1364.00991,822.84819 1364.00991,809.017828 C1364.00991,801.23825 1362.02862,794.323069 1361.80848,794.106969 C1361.58833,793.242572 1360.70776,792.378174 1359.82719,792.162075 C1358.94662,791.945975 1357.8459,792.162075 1357.18547,792.810373 L1354.10347,795.835764 L1351.02146,792.810373 C1349.92075,791.729876 1348.1596,791.729876 1347.05889,792.810373 L1343.97688,795.835764 L1340.89488,792.810373 C1339.79417,791.729876 1338.03302,791.729876 1336.93231,792.810373 L1333.8503,795.835764 L1330.7683,792.810373 C1330.10787,792.162075 1329.00715,791.945975 1328.12658,792.162075 C1327.24601,792.378174 1326.36544,793.026472 1326.14529,794.106969 C1326.14529,794.323069 1323.94386,801.23825 1323.94386,809.017828 C1323.94386,822.84819 1329.88773,831.059968 1341.11502,832.140465 L1341.11502,843.809833 C1336.05173,837.54295 1327.90644,835.381956 1322.84315,835.381956 L1320.64172,835.381956 C1319.10072,835.381956 1318,836.678552 1318,837.975149 L1318,840.136143 C1318,857.856294 1332.96973,862.610481 1340.89488,862.610481 L1341.33517,862.610481 L1341.33517,889.406807 C1341.33517,890.919503 1342.65603,892 1343.97688,892 C1345.29774,892 1346.6186,890.703404 1346.6186,889.406807 L1346.6186,880.97893 C1346.83875,880.97893 1347.05889,880.97893 1347.49917,880.97893 C1364.45019,880.97893 1369.51348,866.932469 1369.95377,859.585089 L1370.17391,857.207996 Z M1324.52174,839.826087 C1327.49657,840.05492 1341.68421,841.427918 1341.91304,857.217391 C1338.93822,857.217391 1324.75057,855.615561 1324.52174,839.826087 Z M1328.86957,808.73913 C1328.86957,805.478261 1329.29776,802.434783 1329.72596,800.043478 L1331.22464,801.565217 C1332.29513,802.652174 1334.00791,802.652174 1335.07839,801.565217 L1338.07576,798.521739 L1341.07312,801.565217 C1342.14361,802.652174 1343.85639,802.652174 1344.92688,801.565217 L1347.92424,798.521739 L1350.92161,801.565217 C1351.99209,802.652174 1353.70487,802.652174 1354.77536,801.565217 L1356.27404,800.043478 C1356.70224,802.434783 1357.13043,805.695652 1357.13043,808.956522 C1357.13043,826.782609 1346.63966,826.782609 1343.2141,826.782609 C1339.78854,826.782609 1328.86957,826.782609 1328.86957,808.73913 Z M1346.91304,874.608696 C1346.69565,874.608696 1346.47826,874.608696 1346.26087,874.608696 C1346.47826,871.901535 1347.56522,867.944916 1350.17391,864.82127 C1353.21739,861.072894 1357.78261,859.198706 1363.65217,859.406949 C1363.21739,864.82127 1359.30435,874.608696 1346.91304,874.608696 Z" id="Rose"></path>
        </g>
    </g>
</svg>