<?xml version="1.0" encoding="UTF-8"?>
<svg width="81px" height="101px" viewBox="0 0 81 101" version="1.1" xmlns="http://www.w3.org/2000/svg" xmlns:xlink="http://www.w3.org/1999/xlink">
    <!-- Generator: Sketch 49.3 (51167) - http://www.bohemiancoding.com/sketch -->
    <title>run</title>
    <desc>Created with Sketch.</desc>
    <defs></defs>
    <g id="logo" stroke="none" stroke-width="1" fill="none" fill-rule="evenodd">
        <g id="Artboard" transform="translate(-999.000000, -1090.000000)" fill="#32535A" fill-rule="nonzero">
            <path d="M1048.67428,1154.62903 C1049.96356,1153.07683 1051.06229,1151.73954 1052.13689,1150.40226 C1053.49805,1148.70677 1054.78758,1146.93964 1056.22038,1145.29192 C1057.62931,1143.66807 1059.5156,1143.02331 1061.5934,1143.50091 C1066.29778,1144.57552 1070.9544,1145.72176 1075.63465,1146.93964 C1078.66766,1147.72769 1080.45867,1150.7127 1079.76615,1153.57831 C1079.14527,1156.1096 1076.13638,1158.40209 1072.88844,1157.61404 C1069.71263,1156.826 1066.53658,1156.08572 1063.38441,1155.24991 C1062.59637,1155.03499 1062.16653,1155.20215 1061.7128,1155.8708 C1059.5156,1158.97521 1057.22335,1162.00798 1055.07414,1165.13627 C1053.54558,1167.33324 1051.58765,1168.71828 1048.96084,1169.26752 C1045.18755,1170.03169 1041.46249,1170.96301 1037.68944,1171.67941 C1036.51931,1171.89433 1035.20591,1171.89433 1034.05967,1171.63165 C1028.63889,1170.38989 1023.24199,1169.00484 1017.82121,1167.69144 C1015.71976,1167.16608 1014.8362,1165.42283 1013.95263,1163.75122 C1012.49595,1160.98113 1011.08702,1158.18716 1009.65422,1155.41707 C1008.81842,1153.79323 1007.91097,1152.21714 1007.14681,1150.56942 C1006.00057,1148.01425 1007.24233,1145.05312 1009.9169,1143.69195 C1012.25715,1142.49795 1015.38544,1143.26211 1016.72272,1145.5546 C1018.22717,1148.15753 1019.56445,1150.85598 1020.9495,1153.53055 C1021.47486,1154.55739 1021.97634,1155.58424 1022.45394,1156.61108 C1022.78827,1157.35136 1023.33751,1157.73344 1024.14943,1157.92448 C1026.72848,1158.52149 1029.30753,1159.16625 1032.00598,1159.83489 C1032.02986,1159.40505 1032.1015,1159.11849 1032.02986,1158.90357 C1029.80901,1151.93058 1027.58816,1144.98148 1025.31955,1138.00849 C1024.60315,1135.83541 1024.05391,1133.71008 1024.88971,1131.41759 C1025.91656,1128.67138 1028.11352,1127.35798 1030.62093,1126.28337 C1036.39991,1123.79984 1042.13113,1121.24467 1047.88623,1118.71338 C1048.60264,1118.40294 1048.93696,1117.94922 1048.86532,1117.06566 C1048.41136,1110.11655 1048.00564,1103.16745 1047.59967,1096.19446 C1047.43251,1093.30497 1049.77276,1090.65428 1052.63837,1090.46324 C1055.52786,1090.24832 1058.22631,1092.44529 1058.44099,1095.40642 C1058.84719,1100.92272 1059.1574,1106.4629 1059.49196,1112.00308 C1059.65912,1114.89257 1059.82628,1117.78206 1060.01732,1120.64767 C1060.232,1123.7282 1058.99047,1125.73413 1056.1965,1126.92813 C1051.87397,1128.79078 1047.59967,1130.72507 1043.30126,1132.61159 C1042.4177,1132.99368 1042.29829,1133.5668 1042.56074,1134.42648 C1043.63534,1137.98461 1044.66242,1141.56663 1045.68927,1145.12476 C1046.52507,1147.94261 1047.33675,1150.73658 1048.19668,1153.53055 C1048.29196,1153.79323 1048.43548,1154.05591 1048.67428,1154.62903 Z M1025.29558,1127.23853 C1024.34038,1124.3968 1023.33741,1121.57895 1022.47773,1118.68946 C1022.16729,1117.61485 1021.64193,1117.08949 1020.56732,1116.75517 C1014.74058,1114.94028 1008.9616,1113.07764 1003.15874,1111.21499 C1000.72297,1110.42695 998.908085,1107.99118 999.003606,1105.69869 C999.146886,1102.06892 1002.80054,1099.56151 1006.40643,1100.68387 C1010.63321,1101.9734 1014.8361,1103.35844 1019.039,1104.69573 C1021.80909,1105.57929 1024.57918,1106.46285 1027.34927,1107.34642 C1029.42683,1107.99118 1030.81188,1109.2807 1031.48052,1111.40603 C1032.50736,1114.65372 1033.60585,1117.85365 1034.72821,1121.05359 C1035.03865,1121.91327 1034.65657,1122.17595 1033.98793,1122.43863 C1032.26856,1123.13115 1030.47756,1123.72815 1028.85371,1124.58784 C1027.58807,1125.28036 1026.51346,1126.3072 1025.29558,1127.23853 Z M1039.62363,1178.81951 C1040.86539,1173.99573 1046.14289,1170.86744 1050.99079,1172.10921 C1055.74269,1173.32709 1058.89486,1178.60459 1057.70085,1183.40449 C1056.48321,1188.25214 1051.18159,1191.40431 1046.35781,1190.18643 C1041.55792,1188.94467 1038.40575,1183.64329 1039.62363,1178.81951 Z" id="run" transform="translate(1039.457268, 1140.448731) scale(-1, 1) rotate(180.000000) translate(-1039.457268, -1140.448731) "></path>
        </g>
    </g>
</svg>