<?xml version="1.0" encoding="UTF-8"?>
<svg width="100px" height="100px" viewBox="0 0 100 100" version="1.1" xmlns="http://www.w3.org/2000/svg" xmlns:xlink="http://www.w3.org/1999/xlink">
    <!-- Generator: Sketch 49.3 (51167) - http://www.bohemiancoding.com/sketch -->
    <title>shopping</title>
    <desc>Created with Sketch.</desc>
    <defs></defs>
    <g id="logo" stroke="none" stroke-width="1" fill="none" fill-rule="evenodd">
        <g id="Artboard" transform="translate(-1297.000000, -1081.000000)" fill="#32535A" fill-rule="nonzero">
            <path d="M1316.9946,1091.01134 C1316.9946,1085.49257 1321.51202,1081 1327.00594,1081 C1332.49986,1081 1336.9892,1085.49257 1336.9892,1091.01134 C1336.9892,1096.50203 1332.49986,1100.9946 1327.00594,1100.9946 C1321.51202,1100.9946 1316.9946,1096.50203 1316.9946,1091.01134 Z M1297,1170.98434 L1307.01134,1170.98434 L1325,1132.99784 L1317.99595,1120.98812 C1317.5077,1119.49851 1316.9946,1117.50122 1316.9946,1116.01161 C1316.9946,1110.49284 1321.51202,1106.00027 1327.00594,1106.00027 L1386.98434,1106.00027 L1386.98434,1116.01161 L1329.00432,1116.01161 C1328.49554,1116.01161 1328.00729,1116.49986 1328.00729,1117.01296 L1328.00729,1117.50122 L1332.49986,1125.99487 L1369.50986,1125.99487 C1373.48501,1125.99487 1376.49338,1128.00081 1378.00243,1130.99946 L1395.99865,1163.49203 C1396.99568,1164.49338 1396.99568,1165.00648 1396.99568,1166.01107 C1396.99568,1168.98596 1394.9973,1170.98434 1391.99001,1170.98434 L1317.99595,1170.98434 L1313.50662,1181 L1297,1181 L1297,1170.98434 Z M1366.99082,1091.01134 C1366.99082,1085.49257 1371.51148,1081 1377.0054,1081 C1382.49608,1081 1386.98434,1085.49257 1386.98434,1091.01134 C1386.98434,1096.50203 1382.49608,1100.9946 1377.0054,1100.9946 C1371.51148,1100.9946 1366.99082,1096.50203 1366.99082,1091.01134 Z M1335.2746,1133.714 C1334.49755,1133.714 1333.79084,1134.16408 1333.46223,1134.86823 L1321.3289,1160.86823 C1321.20531,1161.13306 1321.14127,1161.42175 1321.14127,1161.714 C1321.14127,1162.81857 1322.0367,1163.714 1323.14127,1163.714 L1384.56875,1163.714 C1384.91436,1163.714 1385.25408,1163.62444 1385.55477,1163.45404 C1386.51577,1162.90948 1386.85336,1161.68897 1386.30879,1160.72797 L1371.57546,1134.72797 C1371.22035,1134.10131 1370.5557,1133.714 1369.83542,1133.714 L1335.2746,1133.714 Z" id="shopping" transform="translate(1346.997840, 1131.000000) scale(1, -1) translate(-1346.997840, -1131.000000) "></path>
        </g>
    </g>
</svg>