<?xml version="1.0" encoding="UTF-8"?>
<svg width="100px" height="100px" viewBox="0 0 100 100" version="1.1" xmlns="http://www.w3.org/2000/svg" xmlns:xlink="http://www.w3.org/1999/xlink">
    <!-- Generator: Sketch 49.3 (51167) - http://www.bohemiancoding.com/sketch -->
    <title>Sun</title>
    <desc>Created with Sketch.</desc>
    <defs></defs>
    <g id="logo" stroke="none" stroke-width="1" fill="none" fill-rule="evenodd">
        <g id="Artboard" transform="translate(-201.000000, -418.000000)" fill="#32535A" fill-rule="nonzero">
            <path d="M250.999847,447.986208 C262.267708,447.958875 270.951664,456.536429 271.018043,467.757435 C271.083446,478.899371 262.353611,487.845915 251.29172,487.97184 C240.287422,488.097765 231.031435,478.947203 231.012888,467.922406 C230.993364,456.857587 239.859862,448.013541 250.999847,447.986208 Z M251.008632,456.030776 C244.788515,456.071775 239.11993,461.886784 239.289783,468.05126 C239.462564,474.341661 244.909559,479.905796 251.059393,479.672493 C258.654925,479.383549 262.716744,473.90434 262.905144,467.860908 C263.100376,461.595887 257.138942,455.989777 251.008632,456.030776 Z M218.251885,430.773019 C219.761035,431.295267 220.89729,431.357741 221.514226,431.955154 C225.529188,435.848096 229.518771,439.774228 233.327763,443.865331 C234.940386,445.59607 234.518683,448.213166 232.840657,449.795528 C231.188988,451.353486 228.772005,451.680501 227.091051,450.093258 C223.031185,446.256933 219.01915,442.344468 215.320465,438.168438 C214.460464,437.196179 214.413608,434.845575 214.939761,433.499445 C215.411248,432.29193 217.185914,431.592997 218.251885,430.773019 Z M288.369847,500.526286 C287.292162,501.87144 286.533683,503.488944 285.262717,504.242543 C283.578834,505.240182 281.626506,504.804813 280.137856,503.325925 C276.690044,499.901541 273.239304,496.47911 269.831516,493.01568 C267.545339,490.691433 267.352059,488.122169 269.213604,486.140556 C271.111267,484.120873 273.878692,484.218489 276.282984,486.557378 C279.70932,489.891955 283.100514,493.26753 286.383353,496.741698 C287.200403,497.604627 287.546941,498.912687 288.369847,500.526286 Z M212.913439,472.41774 C211.697139,472.421644 210.480839,472.42262 209.264538,472.420668 C207.967216,472.419692 206.667942,472.457762 205.371596,472.404073 C202.680312,472.295719 201.025713,470.582551 201.000333,467.941051 C200.973977,465.180459 202.442127,463.506338 205.282765,463.452649 C210.471077,463.356009 215.662317,463.361866 220.851605,463.443863 C223.650268,463.487791 225.434696,465.458666 225.355626,468.104071 C225.284366,470.482006 223.327158,472.340623 220.698348,472.401145 C218.10468,472.460691 215.50906,472.414811 212.913439,472.41774 Z M289.145312,472.432968 L289.145312,472.420278 C286.545787,472.420278 283.94431,472.473967 281.346737,472.404659 C278.760879,472.336328 276.864192,470.404499 276.815384,467.93578 C276.765599,465.49537 278.625192,463.5079 281.27743,463.462996 C286.475503,463.372213 291.677482,463.355618 296.875555,463.435664 C299.729859,463.478615 301.033038,465.057072 300.980325,468.009968 C300.927612,470.947246 299.563911,472.382207 296.698869,472.425158 C294.181342,472.462253 291.663815,472.432968 289.145312,472.432968 Z M214.096453,499.984905 C214.479109,499.12881 214.66458,498.080409 215.276635,497.445903 C219.053414,493.538318 222.86143,489.655137 226.794395,485.905691 C228.650083,484.136882 231.188109,484.359447 232.9208,486.083353 C234.649587,487.80433 234.836034,490.358952 233.067225,492.201949 C229.359754,496.063654 225.638616,499.934145 221.642201,503.483477 C220.6143,504.398143 218.398408,504.659755 216.983946,504.277099 C215.289325,503.818302 214.095476,502.21056 214.096453,499.984905 Z M288.28209,435.149553 C287.580228,436.683107 287.346925,437.888669 286.634325,438.633482 C283.043018,442.383905 279.374593,446.063067 275.634909,449.665112 C273.616201,451.611584 271.17872,451.529586 269.344507,449.710992 C267.524938,447.905089 267.367775,445.354372 269.252748,443.388378 C272.901649,439.581338 276.548598,435.745989 280.515729,432.289392 C281.573891,431.367893 283.95866,431.250754 285.419001,431.729074 C286.613826,432.120516 287.339116,433.946919 288.28209,435.149553 Z M255.506699,505.729338 C255.504746,508.323006 255.548674,510.916674 255.492056,513.509366 C255.428605,516.415406 253.901885,517.975316 251.226219,517.99972 C248.474413,518.025101 246.62751,516.326575 246.598225,513.554269 C246.541608,508.448931 246.536727,503.341641 246.596273,498.236303 C246.62751,495.522567 248.639384,493.58781 251.177411,493.626856 C253.682248,493.664926 255.427629,495.455211 255.495961,498.192375 C255.558435,500.703069 255.508651,503.216692 255.506699,505.729338 Z M255.500549,429.936544 L255.51812,429.936544 C255.51812,431.233866 255.521048,432.532164 255.51812,433.829486 C255.514215,435.127784 255.544476,436.427059 255.488835,437.723405 C255.378528,440.253622 253.575553,442.138595 251.288401,442.18057 C248.716209,442.227426 246.62917,440.300478 246.596956,437.63555 C246.535458,432.444309 246.528625,427.252093 246.610623,422.061829 C246.652598,419.362735 248.230079,418.002938 250.975052,418.00001 C253.981637,417.996105 255.400004,419.246571 255.48493,422.149683 C255.560095,424.743351 255.500549,427.340924 255.500549,429.936544 Z" id="Sun"></path>
        </g>
    </g>
</svg>