<?xml version="1.0" encoding="UTF-8"?>
<svg width="90px" height="90px" viewBox="0 0 90 90" version="1.1" xmlns="http://www.w3.org/2000/svg" xmlns:xlink="http://www.w3.org/1999/xlink">
    <!-- Generator: Sketch 51.3 (57544) - http://www.bohemiancoding.com/sketch -->
    <title>tick</title>
    <desc>Created with Sketch.</desc>
    <defs></defs>
    <g id="logo" stroke="none" stroke-width="1" fill="none" fill-rule="evenodd">
        <g id="Artboard" transform="translate(-1352.000000, -536.000000)" fill="#32535A">
            <path d="M1397,536 C1421.85281,536 1442,556.147186 1442,581 C1442,605.852814 1421.85281,626 1397,626 C1372.14719,626 1352,605.852814 1352,581 C1352,556.147186 1372.14719,536 1397,536 Z M1397,540 C1374.35633,540 1356,558.356325 1356,581 C1356,603.643675 1374.35633,622 1397,622 C1419.64367,622 1438,603.643675 1438,581 C1438,558.356325 1419.64367,540 1397,540 Z M1374.52604,583.801562 C1374.17302,583.440965 1374,582.894392 1374,582.533796 C1374,582.174619 1374.17302,581.639404 1374.52604,581.278807 L1377.00555,578.756053 C1377.71578,578.034861 1378.77763,578.034861 1379.48506,578.756053 L1379.66087,578.94061 L1389.39473,589.556905 C1389.74914,589.920341 1390.27518,589.920341 1390.63099,589.556905 C1401.06603,578.540523 1408.8923,570.278237 1414.10981,564.770046 C1414.15984,564.717231 1414.23541,564.638008 1414.3365,564.532376 C1414.66638,564.202678 1415.25195,564.026116 1415.6628,564.002688 C1416.1365,563.975676 1416.61699,564.152239 1416.99584,564.532376 L1419.46838,567.055131 C1420.17721,567.777743 1420.17721,568.858112 1419.46838,569.577885 L1391.1668,599.464784 C1390.81239,599.825381 1390.45658,600 1389.92077,600 C1389.39473,600 1389.04031,599.825381 1388.68729,599.464784 L1374.88046,584.336777 L1374.52604,583.801562 Z" id="tick"></path>
        </g>
    </g>
</svg>