<?xml version="1.0" encoding="UTF-8"?>
<svg width="46px" height="36px" viewBox="0 0 46 36" version="1.1" xmlns="http://www.w3.org/2000/svg" xmlns:xlink="http://www.w3.org/1999/xlink">
    <!-- Generator: Sketch 51.3 (57544) - http://www.bohemiancoding.com/sketch -->
    <title>Path</title>
    <desc>Created with Sketch.</desc>
    <defs></defs>
    <g id="logo" stroke="none" stroke-width="1" fill="none" fill-rule="evenodd">
        <g id="Artboard" transform="translate(-1274.000000, -522.000000)" fill="#32535B">
            <path d="M1274.52604,541.801562 C1274.17302,541.440965 1274,540.894392 1274,540.533796 C1274,540.174619 1274.17302,539.639404 1274.52604,539.278807 L1277.00555,536.756053 C1277.71578,536.034861 1278.77763,536.034861 1279.48506,536.756053 L1279.66087,536.94061 L1289.39473,547.556905 C1289.74914,547.920341 1290.27518,547.920341 1290.63099,547.556905 C1301.06603,536.540523 1308.8923,528.278237 1314.10981,522.770046 C1314.15984,522.717231 1314.23541,522.638008 1314.3365,522.532376 C1314.66638,522.202678 1315.25195,522.026116 1315.6628,522.002688 C1316.1365,521.975676 1316.61699,522.152239 1316.99584,522.532376 L1319.46838,525.055131 C1320.17721,525.777743 1320.17721,526.858112 1319.46838,527.577885 L1291.1668,557.464784 C1290.81239,557.825381 1290.45658,558 1289.92077,558 C1289.39473,558 1289.04031,557.825381 1288.68729,557.464784 L1274.88046,542.336777 L1274.52604,541.801562 Z" id="Path"></path>
        </g>
    </g>
</svg>