<?xml version="1.0" encoding="UTF-8"?>
<svg width="91px" height="100px" viewBox="0 0 91 100" version="1.1" xmlns="http://www.w3.org/2000/svg" xmlns:xlink="http://www.w3.org/1999/xlink">
    <!-- Generator: Sketch 49.3 (51167) - http://www.bohemiancoding.com/sketch -->
    <title>tulip</title>
    <desc>Created with Sketch.</desc>
    <defs></defs>
    <g id="logo" stroke="none" stroke-width="1" fill="none" fill-rule="evenodd">
        <g id="Artboard" transform="translate(-596.000000, -915.000000)" fill="#32535A" fill-rule="nonzero">
            <path d="M665.976647,1015 C666.830365,1014.52797 667.682954,1014.05707 668.536672,1013.58504 C669.665929,1005.13481 671.181391,996.46551 667.340789,988.276141 C663.022512,979.064795 653.824716,977.883592 644.635955,976.804023 L644.635955,928.235823 C655.704929,942.327817 666.756964,955.279262 686.767392,952.381589 C682.195031,935.880891 662.400291,916.27022 644.314117,915.073208 C623.39012,913.690998 603.800905,932.097881 596,951.966023 C605.141333,954.482007 613.338607,952.283344 620.310637,946.769184 C626.806122,941.632195 632.455793,935.42693 638.446499,929.721925 L638.446499,976.805152 C628.967519,977.846327 619.131693,979.335816 615.193975,989.469766 C612.196928,997.18033 613.512512,1005.49618 614.474639,1013.51729 C615.002002,1013.74991 615.530494,1013.98141 616.058986,1014.21291 C620.284664,1010.14758 624.509214,1006.08113 629.1482,1001.61831 C632.337221,1005.10094 635.365887,1008.12847 638.058035,1011.42816 C640.698237,1014.66461 642.755743,1014.35858 645.246883,1011.26216 C647.821588,1008.06072 650.737329,1005.13368 655.387608,1000.01025 C659.254182,1005.48262 662.61485,1010.24131 665.976647,1015 Z" id="tulip" transform="translate(641.383696, 965.000000) scale(1, -1) translate(-641.383696, -965.000000) "></path>
        </g>
    </g>
</svg>