<?xml version="1.0" encoding="UTF-8"?>
<svg width="428px" height="428px" viewBox="0 0 428 428" version="1.1" xmlns="http://www.w3.org/2000/svg" xmlns:xlink="http://www.w3.org/1999/xlink">
    <!-- Generator: Sketch 51.1 (57501) - http://www.bohemiancoding.com/sketch -->
    <title>Artboard 2</title>
    <desc>Created with Sketch.</desc>
    <defs>
        <circle id="path-1" cx="214" cy="214" r="180"></circle>
    </defs>
    <g id="Artboard-2" stroke="none" stroke-width="1" fill="none" fill-rule="evenodd">
        <mask id="mask-2" fill="white">
            <use xlink:href="#path-1"></use>
        </mask>
        <use id="Oval-6" fill="#32535B" xlink:href="#path-1"></use>
        <path d="M199.73814,139.758557 L387.828544,139.758557 L387.828544,387.579409 L207.516314,387.579409 C205.800235,382.168419 204.15032,378.632885 202.566567,376.972807 C197.642329,371.811257 190.90547,370.168041 188.397121,367.538808 C184.7009,363.664456 183.643921,358.194626 180.646257,355.052497 C177.975047,352.252554 173.29122,351.704912 171.174703,349.486394 C166.208425,344.280778 158.759008,336.472352 148.826452,326.061119 C134.63834,326.061119 151.608903,263.960265 199.73814,139.758557 Z" id="Rectangle-3" fill="#1E4042" mask="url(#mask-2)" transform="translate(265.904787, 263.668983) rotate(45.000000) translate(-265.904787, -263.668983) "></path>
        <path d="M82.4668305,251.449603 C79.9574803,252.400581 78.0282755,254.457595 77.24,257.022711 C79.4480952,258.56419 82.2662207,258.940213 84.8012309,258.031607 C87.3362412,257.123001 89.2738601,255.042411 90,252.449234 C87.7729324,250.965956 84.9863744,250.592325 82.4472299,251.436536" id="Shape" fill="#FBF8EF" fill-rule="nonzero" mask="url(#mask-2)" transform="translate(83.620000, 254.756008) rotate(50.000000) translate(-83.620000, -254.756008) "></path>
        <path d="M312.466831,101.449603 C309.95748,102.400581 308.028275,104.457595 307.24,107.022711 C309.448095,108.56419 312.266221,108.940213 314.801231,108.031607 C317.336241,107.123001 319.27386,105.042411 320,102.449234 C317.772932,100.965956 314.986374,100.592325 312.44723,101.436536" id="Shape" fill="#FBF8EF" fill-rule="nonzero" mask="url(#mask-2)" transform="translate(313.620000, 104.756008) rotate(-120.000000) translate(-313.620000, -104.756008) "></path>
        <path d="M162.466831,61.4496031 C159.95748,62.4005807 158.028275,64.4575953 157.24,67.0227111 C159.448095,68.5641901 162.266221,68.9402129 164.801231,68.0316071 C167.336241,67.1230012 169.27386,65.0424105 170,62.4492344 C167.772932,60.9659555 164.986374,60.5923253 162.44723,61.436536" id="Shape" fill="#FBF8EF" fill-rule="nonzero" mask="url(#mask-2)" transform="translate(163.620000, 64.756008) rotate(-20.000000) translate(-163.620000, -64.756008) "></path>
        <g id="Group-3" mask="url(#mask-2)">
            <g transform="translate(225.000000, 115.000000)">
                <path d="M48.2368421,141 C48.8380881,141 53.1670355,141 61.2236842,141 C63.0789474,135.434211 54.4647415,127.781615 55.2980662,127.671664 C80.5168407,124.344229 100.184211,97.1101787 100.184211,64.0065789 C100.184211,28.6567215 77.7572111,0 50.0921053,0 C22.4269994,0 0,28.6567215 0,64.0065789 C0,96.4202541 18.8561224,123.206489 43.316724,127.43263 C44.6299388,127.659518 35.25,135.434211 37.1052632,141 C43.9023203,141 47.6128466,141 48.2368421,141 Z" id="Oval-7" stroke="none" fill="#FBF8EF" fill-rule="evenodd"></path>
                <path d="M49,141 C49.601246,141 53.6758074,141 61.2236842,141 C63.0789474,135.434211 54.4647415,127.781615 55.2980662,127.671664 C80.5168407,124.344229 100.184211,97.1101787 100.184211,64.0065789 C100.184211,28.6567215 77.7572111,0 50.0921053,0 C48.7400396,94 48.3760045,141 49,141 Z" id="Oval-7" stroke="none" fill="#EAE7DB" fill-rule="evenodd"></path>
                <path d="M49.2346899,143 L49.2346899,143 C49.2346899,144.33658 48.9107258,145.653245 48.2905433,146.837229 L47.4132486,148.512065 C46.2643731,150.705373 46.1957373,153.307027 47.2273691,155.55786 L49.0236912,159.477108 C49.2712031,160.017134 49.5074977,160.562231 49.7324229,161.112048 L50.95085,164.090426 C51.9479784,166.527851 51.9479784,169.259383 50.95085,171.696809 L49.7324229,174.675186 C49.5074977,175.225003 49.2712031,175.7701 49.0236912,176.310126 L47.4934032,179.648936 C46.2860589,182.283142 46.2860589,185.312603 47.4934032,187.946809 L49.0236912,191.285619 C49.2712031,191.825645 49.5074977,192.370742 49.7324229,192.920559 L50.95085,195.898936 C51.9510428,198.343852 51.9914139,201.076227 51.0638896,203.549625 L49.3949989,208" id="Line" stroke="#FFFFFF" stroke-width="4" fill="none" stroke-linecap="square"></path>
            </g>
        </g>
        <g id="Group-2" mask="url(#mask-2)">
            <g transform="translate(158.000000, 73.000000)">
                <path d="M48.2368421,141 C48.8380881,141 53.1670355,141 61.2236842,141 C63.0789474,135.434211 54.4647415,127.781615 55.2980662,127.671664 C80.5168407,124.344229 100.184211,97.1101787 100.184211,64.0065789 C100.184211,28.6567215 77.7572111,0 50.0921053,0 C22.4269994,0 0,28.6567215 0,64.0065789 C0,96.4202541 18.8561224,123.206489 43.316724,127.43263 C44.6299388,127.659518 35.25,135.434211 37.1052632,141 C43.9023203,141 47.6128466,141 48.2368421,141 Z" id="Oval-7" stroke="none" fill="#E4F4E9" fill-rule="evenodd"></path>
                <path d="M49,141 C49.601246,141 53.6758074,141 61.2236842,141 C63.0789474,135.434211 54.4647415,127.781615 55.2980662,127.671664 C80.5168407,124.344229 100.184211,97.1101787 100.184211,64.0065789 C100.184211,28.6567215 77.7572111,0 50.0921053,0 C48.7400396,94 48.3760045,141 49,141 Z" id="Oval-7" stroke="none" fill="#D0DFD5" fill-rule="evenodd"></path>
                <path d="M49.2346899,143 L49.2346899,143 C49.2346899,144.33658 48.9107258,145.653245 48.2905433,146.837229 L47.4132486,148.512065 C46.2643731,150.705373 46.1957373,153.307027 47.2273691,155.55786 L49.0236912,159.477108 C49.2712031,160.017134 49.5074977,160.562231 49.7324229,161.112048 L50.95085,164.090426 C51.9479784,166.527851 51.9479784,169.259383 50.95085,171.696809 L49.7324229,174.675186 C49.5074977,175.225003 49.2712031,175.7701 49.0236912,176.310126 L47.4934032,179.648936 C46.2860589,182.283142 46.2860589,185.312603 47.4934032,187.946809 L49.0236912,191.285619 C49.2712031,191.825645 49.5074977,192.370742 49.7324229,192.920559 L50.95085,195.898936 C51.9510428,198.343852 51.9914139,201.076227 51.0638896,203.549625 L49.3949989,208" id="Line" stroke="#FFFFFF" stroke-width="4" fill="none" stroke-linecap="square"></path>
            </g>
        </g>
        <g id="Group" mask="url(#mask-2)">
            <g transform="translate(90.000000, 100.000000)">
                <path d="M48.2368421,141 C48.8380881,141 53.1670355,141 61.2236842,141 C63.0789474,135.434211 54.4647415,127.781615 55.2980662,127.671664 C80.5168407,124.344229 100.184211,97.1101787 100.184211,64.0065789 C100.184211,28.6567215 77.7572111,0 50.0921053,0 C22.4269994,0 0,28.6567215 0,64.0065789 C0,96.4202541 18.8561224,123.206489 43.316724,127.43263 C44.6299388,127.659518 35.25,135.434211 37.1052632,141 C43.9023203,141 47.6128466,141 48.2368421,141 Z" id="Oval-7" stroke="none" fill="#ECF4F7" fill-rule="evenodd"></path>
                <path d="M49,141 C49.601246,141 53.6758074,141 61.2236842,141 C63.0789474,135.434211 54.4647415,127.781615 55.2980662,127.671664 C80.5168407,124.344229 100.184211,97.1101787 100.184211,64.0065789 C100.184211,28.6567215 77.7572111,0 50.0921053,0 C48.7400396,94 48.3760045,141 49,141 Z" id="Oval-7" stroke="none" fill="#DDEAEF" fill-rule="evenodd"></path>
                <path d="M49.2346899,143 L49.2346899,143 C49.2346899,144.33658 48.9107258,145.653245 48.2905433,146.837229 L47.4132486,148.512065 C46.2643731,150.705373 46.1957373,153.307027 47.2273691,155.55786 L49.0236912,159.477108 C49.2712031,160.017134 49.5074977,160.562231 49.7324229,161.112048 L50.95085,164.090426 C51.9479784,166.527851 51.9479784,169.259383 50.95085,171.696809 L49.7324229,174.675186 C49.5074977,175.225003 49.2712031,175.7701 49.0236912,176.310126 L47.4934032,179.648936 C46.2860589,182.283142 46.2860589,185.312603 47.4934032,187.946809 L49.0236912,191.285619 C49.2712031,191.825645 49.5074977,192.370742 49.7324229,192.920559 L50.95085,195.898936 C51.9510428,198.343852 51.9914139,201.076227 51.0638896,203.549625 L49.3949989,208" id="Line" stroke="#FFFFFF" stroke-width="4" fill="none" stroke-linecap="square"></path>
            </g>
        </g>
        <path d="M110.42,285.458835 C110.42,288.060096 108.311261,290.168835 105.71,290.168835 C103.108739,290.168835 101,288.060096 101,285.458835 C101,282.857573 103.108739,280.748835 105.71,280.748835 C108.311261,280.748835 110.42,282.857573 110.42,285.458835" id="Shape" fill="#FF9999" fill-rule="nonzero" mask="url(#mask-2)"></path>
        <path d="M240.42,315.458835 C240.42,318.060096 238.311261,320.168835 235.71,320.168835 C233.108739,320.168835 231,318.060096 231,315.458835 C231,312.857573 233.108739,310.748835 235.71,310.748835 C238.311261,310.748835 240.42,312.857573 240.42,315.458835" id="Shape" fill="#A96E6E" fill-rule="nonzero" mask="url(#mask-2)"></path>
        <path d="M80.42,165.458835 C80.42,168.060096 78.3112612,170.168835 75.71,170.168835 C73.1087388,170.168835 71,168.060096 71,165.458835 C71,162.857573 73.1087388,160.748835 75.71,160.748835 C78.3112612,160.748835 80.42,162.857573 80.42,165.458835" id="Shape" fill="#FF9999" fill-rule="nonzero" mask="url(#mask-2)"></path>
    </g>
</svg>