<svg id="Layer_1" data-name="Layer 1" xmlns="http://www.w3.org/2000/svg" viewBox="0 0 1836 1700"><defs><style>.cls-1{fill:none;stroke:#f9f7ef;stroke-miterlimit:10;stroke-width:3px;}</style></defs><title>Edyn_Rings</title><path class="cls-1" d="M942,843.92c-4.43,6.23-13.4,8-20.77,9.43s-16.32,3.1-23.14-.95-9-12.15-10.6-18.89,1.75-12.06,6.17-18.29,8.69-9.91,16.06-11.34,13,.25,19.79,4.3,14.76,7.27,16.32,14S946.41,837.69,942,843.92Z"/><path class="cls-1" d="M872.84,788.19c10.87-10.35,21.39-18,37-19.37a66.12,66.12,0,0,1,42.6,10.2c13.15,8.27,27.67,17.59,32,31.48,3.34,10.83.63,23.11-2.43,34-3,10.72-11,18.29-19.73,26.07-11.56,10.25-26.36,14.43-41.6,15.79s-31.58,2.43-45-6.12c-10.27-6.53-20.3-14.5-24.41-24.93s.55-21.86,2-32.64C855.05,808.84,862,798.54,872.84,788.19Z"/><path class="cls-1" d="M849.16,758.53c17.32-14.48,36.79-25.17,60.73-26.47s45.6,6.06,65.07,18.56,42.24,26.85,49.13,47.93c5.95,18.18,1.67,39.58-3.91,57.47-5.55,17.69-20,30.93-35.65,43.29-18.36,14.53-41.27,18.11-64.38,19.4s-46.4,1.89-66.5-11.11c-17.11-11.07-36.54-23.18-43.12-40.6s.22-37.66,4.23-55.84C819.42,790.15,831.84,773,849.16,758.53Z"/><path class="cls-1" d="M830.14,733.55c23.76-18.6,47.66-34.72,79.9-35.95s59.87,10.1,85.67,26.83,56,34.59,65.5,62.85c8.57,25.53,1.31,54.34-6.78,79.19-8.07,24.67-26.44,43.41-48.93,60.29-25.13,18.86-54.71,25.64-85.71,26.86s-60.06-3-86.82-20.4c-23.94-15.61-51.17-31.1-60.21-55.51s2.33-51.65,9-77.21C789.17,772.34,806.38,752.15,830.14,733.55Z"/><path class="cls-1" d="M807.27,704.55C837.47,681.83,869.46,659.19,910,658s77.64,15,109.78,36,66.69,46.53,78.77,82c11.2,32.87-.9,68.64-11.51,100.45-10.59,31.64-32.23,55.19-61.61,76.58-31.89,23.21-67.22,32.43-106.09,33.59s-76.57-2-110-23.88c-30.72-20.21-65.86-41.94-77.36-73.33s2.32-67.73,11.72-100.65C753.73,753.39,777.06,727.27,807.27,704.55Z"/><path class="cls-1" d="M788.12,679.72c36.65-26.85,73.3-50.87,122.11-52s93.4,12.81,131.87,38,82.16,55.39,96.84,98c13.84,40.22-2.73,84.79-15.86,123.56-13.11,38.61-40.3,67.37-76.58,93.24-38.65,27.57-80.89,38.43-127.64,39.53s-91.29-4-131.43-30.28c-37.55-24.75-79.15-51.39-93.12-89.77s6.8-80.95,18.94-121.22C726.05,736.32,751.47,706.56,788.12,679.72Z"/><path class="cls-1" d="M763.85,649c43.1-31,89.34-56.76,146.44-57.78s108.49,18,153.29,47.37,95.68,64,112.94,113.78c16.47,47.56-2.44,99.92-18.08,145.65s-48.24,79.08-91.42,109.44c-45.41,31.93-94.1,40.34-148.72,41.36s-105-2.35-151.79-33.09c-44.37-29.3-95.84-58.91-112.27-104.28s2.16-97.85,17-145.47C686.78,716.31,720.75,680,763.85,649Z"/><path class="cls-1" d="M741.15,620.1C790.69,585,845,555.3,910.34,554.35s125.24,21.38,176.38,55S1198,682.93,1217.69,740c19.22,54.87-2.37,117.06-20.53,169.76s-57.31,92.49-107.39,127.34c-52.17,36.29-109.36,47.27-171.86,48.22s-120.57-6.22-174-41.41c-51.2-33.84-102.61-71.09-121.5-123.45s-1.46-109.91,16.15-164.87C656.73,698.67,691.61,655.19,741.15,620.1Z"/><path class="cls-1" d="M717.38,589.87c56-39.21,119.3-75,193-75.89s141.89,28.46,199.35,66.33,125.71,83.33,148,147.58c21.85,62.22-4.58,132.92-25.26,192.58s-66.36,102.83-123.35,142.16c-58.93,40.66-121.28,57.29-191.66,58.18s-138.18-6.55-198.31-46.18c-58-38.38-125.89-80.28-147.25-139.62s13.29-127.58,33.63-189.89C626.49,681,661.39,629.08,717.38,589.87Z"/><path class="cls-1" d="M697.18,563.9c62.43-43.34,131.37-79,213.33-79.85s155.28,29,219.08,71.12,142.9,89.28,167.83,160.72c24.49,69.56-9.18,147.85-32.37,214.47s-71.35,115.53-135.25,159.33c-65.68,45-134.61,57.47-212.86,58.29s-148.87-7.17-215.67-51.25c-64.85-42.93-136.15-86.82-160-153.15s7.58-139.45,30.67-209.1C595.6,663.19,634.76,607.24,697.18,563.9Z"/><path class="cls-1" d="M675.33,536c68.87-47.46,145-88.81,235.24-89.56s166.52,40.19,236.65,86.51,156.77,94,184.29,172.64c27.12,76.91,5.87,165.25-19.84,238.83s-94.31,119.34-165.11,167.62c-72.44,49.4-143.93,70.11-230.05,70.86s-162.31-12.11-235.77-60.64c-71.68-47.47-160-91.83-186.33-165.15s20.28-155.59,46.11-232.58C566.86,646,606.46,583.41,675.33,536Z"/><path class="cls-1" d="M653.18,507.64C728.5,456.06,812.08,407,910.62,406.35s184.74,44.91,261.19,95.46,160.55,108.49,190.66,194.3c29.75,84.25.17,174.75-28.05,255.3s-85.12,140.27-162.82,193c-79.2,53.76-161.57,67.92-255.57,68.6s-178.12-9.31-258.25-62.29c-78.51-52-164.18-105.09-192.93-185.4S477,797.83,505.62,713.51C534.67,627.81,577.86,559.22,653.18,507.64Z"/><path class="cls-1" d="M629.35,477.26c81.76-55.71,174.59-97.26,281.42-97.87s202.23,37.34,285,92.11,185.75,116.06,218.46,209.06c32.38,91.6-.33,198-31.07,285.5s-110.94,142.5-195.55,199.72c-86,58.13-170.17,80.89-272,81.5s-196.14-7.86-282.93-65.29C547.31,1125.43,445,1067.33,413.81,980s21.6-187,52.93-278.64C498.48,608.5,547.59,533,629.35,477.26Z"/><path class="cls-1" d="M608.59,450.64c88.21-59.83,187.15-105,302.26-105.54s219.64,37.29,308.76,96.29,185,131.11,220.31,231.31c35,98.94,5.85,207.84-27.41,302.31s-104.62,166.15-196.13,227.85c-92.71,62.5-191.43,88.45-301.18,89s-212.58-18.79-306-80.66C517,1150.08,413.5,1083.93,379.82,989.65S404.64,791.4,438.71,692.4C473.16,592.3,520.38,510.47,608.59,450.64Z"/><path class="cls-1" d="M596.26,434.46c94.65-64,191.22-133,314.63-133.43s229.73,56.31,325.18,119.53S1450.5,550.73,1488.4,658.11c37.64,106.29-5.19,226.06-41,327.5S1336.58,1165.17,1238,1231.16c-99.32,67.05-205.75,77.12-323.37,77.59s-225.09-6.8-325.21-73.12c-99-65.65-212.59-133.57-248.73-234.84s27.89-212.56,64.71-318.9C442.56,574.6,501.61,498.42,596.26,434.46Z"/><path class="cls-1" d="M569.37,402.23c101.1-68.07,213.19-134,344.88-134.4S1166.93,322,1268.71,389.5s223.4,147.69,263.89,262.26c40.27,113.63.25,244.68-38,353.08s-126.21,190.09-231.67,260.58c-106.1,71.4-219.89,87.94-345.39,88.35s-248.21-3.69-355-74.46c-105.81-70.2-214.72-154.39-253.32-262.64s14.49-229.11,54.06-342.79C403.1,559.38,468.27,470.31,569.37,402.23Z"/><path class="cls-1" d="M544,372.86C651.5,300.66,774.37,239.32,914.35,239S1176.88,300.23,1285,371.91s225,154.79,268.11,276.55c42.91,121,3.07,250.46-37.73,365.82s-121.43,203.81-233.77,278.79c-112.88,75.74-231.13,108.13-364.51,108.47s-250.29-32.86-363.74-108.08C440.71,1218.71,320.63,1143.23,279.57,1028S291.51,788.52,334,667.57C376.38,545.81,436.42,445.06,544,372.86Z"/><path class="cls-1" d="M519.31,345.51c114-76.32,243.57-141.07,391.83-141.34s284.75,55.67,399.19,131.57,233.76,171.69,279.44,300.63c45.54,128.32,25.41,273.51-17.91,395.84s-153.71,208.39-272.94,287.87c-119.66,80.09-244.35,111.69-385.6,112s-277.65-15.86-397.76-95.54c-119.47-79.29-239.88-173.66-283.41-295.88S255.39,786.3,300.62,658C345.71,529,405.32,421.83,519.31,345.51Z"/><path class="cls-1" d="M510.42,324.75C630.85,244.3,754.68,166.07,911.23,165.87S1207,224.55,1327.75,304.68,1580.92,479.3,1629.2,615.44c48.17,135.67,22.28,288.72-23.56,418s-156.82,224.62-282.93,308.6c-126.44,84.43-260.75,93.52-409.88,93.72s-288.35-2.06-415.13-86.18C371.4,1265.76,233,1173.75,187,1044.53s33.61-270,81.55-405.69C316.4,502.71,390,405.19,510.42,324.75Z"/><path class="cls-1" d="M490.89,295.61C617.77,211,749.76,135.1,914.61,135s311.13,57.8,438.23,142.15S1639.56,454.71,1690.43,598c50.8,143-11.59,305.8-59.94,442s-150.78,240.63-283.78,329.1c-133.22,88.78-274,110.52-431,110.66s-307.21-9.39-440.65-98c-133.12-88.38-287.34-186.46-335.79-322.66s29-293.69,79.63-436.7C269.43,479.21,364,380.18,490.89,295.61Z"/><path class="cls-1" d="M453.27,252c133.32-88.69,285-160.24,458.12-160.3s325.91,70,459.34,158.63,276.09,193.06,329.56,343.57c53.43,150.36,2.24,310.45-48.63,453.66S1492,1288.26,1352.11,1381.23c-140,93.12-275.29,140.58-440.18,140.64s-325-15.95-465.15-109C306.84,1320,160.29,1209.83,109.37,1066.64s31.49-300.73,84.85-451.08C247.54,465,319.95,340.7,453.27,252Z"/><path class="cls-1" d="M911.47,63.47C730,63.47,577.38,139,437.61,231.85S208.3,444.79,152.24,602.49s-127.71,322.85-74.32,473,204.28,262,351,359.45,309.75,122.78,482.51,122.78,323.9-40.2,470.67-137.67,258.18-209.63,311.56-359.8,131.49-329.31,75.43-487-236.78-257.73-376.55-350.55S1092.89,63.47,911.47,63.47Z"/></svg>