<?xml version="1.0" encoding="UTF-8"?>
<svg width="95px" height="540px" viewBox="0 0 95 540" version="1.1" xmlns="http://www.w3.org/2000/svg" xmlns:xlink="http://www.w3.org/1999/xlink">
    <!-- Generator: sketchtool 50 (54983) - http://www.bohemiancoding.com/sketch -->
    <title>76477F9F-F3FD-45B3-883F-BCFF542E005B</title>
    <desc>Created with sketchtool.</desc>
    <defs>
        <rect id="path-1" x="0" y="0" width="98" height="557"></rect>
    </defs>
    <g id="Public" stroke="none" stroke-width="1" fill="none" fill-rule="evenodd">
        <g id="Public/Homepage-Copy" transform="translate(0.000000, -578.000000)">
            <g id="hero-left" transform="translate(0.000000, 568.000000)">
                <mask id="mask-2" fill="white">
                    <use xlink:href="#path-1"></use>
                </mask>
                <g id="Rectangle-9"></g>
                <g id="Edyn_Shape-04" mask="url(#mask-2)" fill="#F2E6CF" fill-rule="nonzero">
                    <g transform="translate(-184.846449, 259.948200) rotate(-106.000000) translate(184.846449, -259.948200) translate(-530.346449, -26.051800)" id="Shape">
                        <path d="M131.045676,45.9982847 C99.7798258,71.2313649 75.7462152,103.231849 55.023549,136.459263 C24.3847714,185.582746 -0.171399902,240.00749 0.0209024271,296.700897 C0.292633979,376.424312 40.8546317,462.539509 122.12034,497.369475 C203.386048,532.19944 284.455605,570.828048 370.828614,571.89293 C421.935049,572.521828 470.384038,558.187371 517.41868,539.721695 C572.693058,518.02279 619.184236,478.552696 649.175038,430.532679 C679.165841,382.512661 692.827667,326.235947 690.198142,270.850494 C689.562708,257.466158 690.61619,203.481256 600.7901,146.193676 C551.297333,114.636893 449.03848,71.6596327 366.741444,29.8822945 C346.758724,19.7389049 289.239425,-1.75551246 242.944729,0.44755922 C201.520299,2.61204821 162.311527,20.7652045 131.045676,45.9982847 Z"></path>
                    </g>
                </g>
                <g id="Edyn_Rings-Copy" mask="url(#mask-2)" stroke="#F9F7EF" stroke-width="2">
                    <g transform="translate(-896.000000, -77.000000)" id="Shape">
                        <path d="M257.396605,137.677268 C325.932439,95.4115963 396.403188,54.3122366 485.49465,54.2071634 C574.586113,54.1020903 653.815199,85.0356235 722.533142,127.133178 C791.251086,169.230733 866.610341,218.872539 894.086137,290.395827 C921.499332,361.672194 906.765522,442.079416 880.678313,509.998696 C854.591104,577.917975 791.433196,628.006342 719.664915,672.126555 C647.708834,716.483182 571.273993,721.258756 486.405199,721.36383 C401.536404,721.468903 322.307318,720.281576 250.157746,676.087812 C178.281338,632.051658 99.5189078,583.712759 73.3406435,515.825001 C47.1623793,447.937244 92.4678492,373.976259 119.750153,302.689385 C146.981239,231.17135 188.866462,179.937686 257.396605,137.677268 Z"></path>
                        <path d="M246.0238,121.940693 C318.211156,77.4717011 393.305804,37.580477 487.095886,37.5279194 C580.885968,37.4753618 664.110797,67.9062165 736.42332,112.238558 C808.735843,156.5709 899.550358,205.559846 928.492436,280.869642 C957.394687,356.027021 921.898398,441.590806 894.390055,513.174267 C866.881711,584.757728 808.604986,639.643638 732.935706,686.141353 C657.141258,732.801997 577.04561,744.228021 487.721722,744.301602 C398.397835,744.375182 312.937064,739.366442 237.017449,692.795146 C161.279895,646.344733 73.5376667,594.796231 45.9724288,523.21277 C18.407191,451.629309 62.4717456,368.856333 91.2772769,293.693698 C120.025914,218.43646 173.830755,166.388661 246.0238,121.940693 Z"></path>
                        <path d="M223.874466,98.8368814 C299.701373,52.2274942 385.970691,14.6257166 484.434195,14.5941847 C582.897698,14.5626528 669.798338,51.3813885 745.687809,97.9592439 C821.577281,144.537099 902.716395,199.418352 933.127922,278.516096 C963.516698,357.535009 934.401941,441.667344 905.469187,516.928708 C876.536433,592.190072 814.661175,643.424136 735.097523,692.282798 C655.471307,741.22029 578.523944,766.162014 484.741324,766.193546 C390.958705,766.225078 299.894751,757.811319 220.183222,708.910614 C140.591131,660.104505 57.2395458,602.206702 28.2783535,526.955849 C-0.682838777,451.704996 46.1885645,368.912766 76.537528,289.899107 C106.863741,210.775087 148.047558,145.451524 223.874466,98.8368814 Z"></path>
                        <path d="M485.185982,0 C381.886712,0 295.009903,39.7300184 215.447777,88.5706408 C135.885651,137.411263 84.9162528,200.580572 53.0048786,283.533358 C21.0935043,366.486144 -19.6922603,453.357751 10.6992536,532.339113 C41.0907676,611.320475 126.982799,670.155409 210.501115,721.415707 C294.019432,772.676005 386.821989,786 485.163213,786 C583.504437,786 669.538777,764.854141 753.085555,713.583323 C836.632334,662.312505 900.050925,603.314506 930.436746,524.322623 C960.822568,445.330741 1005.2856,351.100164 973.374223,268.152638 C941.462849,185.205113 838.590506,132.582433 759.02838,83.7575908 C679.466254,34.9327489 588.456791,0 485.185982,0 Z"></path>
                    </g>
                </g>
            </g>
        </g>
    </g>
</svg>