<?xml version="1.0" encoding="UTF-8"?>
<svg width="607px" height="508px" viewBox="0 0 607 508" version="1.1" xmlns="http://www.w3.org/2000/svg" xmlns:xlink="http://www.w3.org/1999/xlink">
    <!-- Generator: sketchtool 50 (54983) - http://www.bohemiancoding.com/sketch -->
    <title>BC55B471-E316-428A-A364-678F7C0FDF2C</title>
    <desc>Created with sketchtool.</desc>
    <defs></defs>
    <g id="Public" stroke="none" stroke-width="1" fill="none" fill-rule="evenodd">
        <g id="Public/Become-a-carer" transform="translate(-126.000000, -1139.000000)" fill="#FFFFFF" fill-rule="nonzero">
            <g id="Stacked-Group" transform="translate(0.000000, 102.000000)">
                <g id="Our-Approach" transform="translate(0.000000, 631.000000)">
                    <g id="We-ensure-Quality-Through" transform="translate(-742.000000, -415.000000)">
                        <g id="Group" transform="translate(0.000000, 551.000000)">
                            <g id="bc-first-leaves" transform="translate(968.503009, 977.332008) rotate(-39.000000) translate(-968.503009, -977.332008) translate(308.503009, 254.832008)">
                                <g id="Edyn_Leaves" transform="translate(-0.000000, -0.000000)">
                                    <path d="M854.08319,454.796795 C849.827008,451.567092 844.319332,450.851174 839.120395,452.320689 C833.921458,453.790204 855.108643,469.782616 860.291041,468.318484 C860.439897,463.03792 858.339372,458.015732 854.08319,454.796795 Z" id="Shape"></path>
                                    <path d="M946.972172,431.155408 C947.076452,426.00623 944.4036,421.347702 940.117158,418.213878 C935.830716,415.080055 935.309317,440.69405 939.568317,443.827873 C944.002946,440.857599 946.862404,436.304586 946.972172,431.155408 Z" id="Shape"></path>
                                    <path d="M893.629194,656.640526 C889.468649,659.904164 887.377682,665.043012 887.468593,670.469503 C887.559505,675.895993 908.255274,659.671837 908.164362,654.250878 C903.142831,652.685438 897.795087,653.376887 893.629194,656.640526 Z" id="Shape"></path>
                                    <path d="M882.390735,295.276198 C877.218963,296.238905 873.081545,299.816237 870.791959,304.657123 C868.502372,309.498008 894.22655,304.684472 896.521524,299.854527 C892.680406,296.145916 887.562507,294.313491 882.390735,295.276198 Z" id="Shape"></path>
                                    <path d="M1104.49021,657.325969 C1109.63847,657.463359 1114.312,654.819976 1117.47164,650.544401 C1120.63127,646.268826 1095.02712,645.598363 1091.86748,649.851956 C1094.80558,654.292399 1099.34196,657.188579 1104.49021,657.325969 Z" id="Shape"></path>
                                    <path d="M835.40439,577.100522 C840.552649,577.237912 845.226172,574.59453 848.385811,570.318955 C851.54545,566.04338 825.941297,565.372917 822.781659,569.626509 C825.719754,574.066952 830.25613,576.963132 835.40439,577.100522 Z" id="Shape"></path>
                                    <path d="M1051.7147,764.728847 C1056.86575,764.66884 1061.4468,761.870329 1064.4551,757.506178 C1067.46339,753.142027 1041.8401,753.442062 1038.82653,757.795303 C1041.92454,762.083081 1046.57421,764.783399 1051.7147,764.728847 Z" id="Shape"></path>
                                    <path d="M1162.93228,757.593428 C1162.38017,752.424628 1159.32031,748.102213 1154.90338,745.504506 C1150.48645,742.906798 1153.26767,768.596422 1157.65364,771.199453 C1161.39461,767.675514 1163.4844,762.762227 1162.93228,757.593428 Z" id="Shape"></path>
                                    <path d="M970.976105,182.528678 C967.363547,185.932972 965.895151,190.836172 966.520109,195.785102 C967.145066,200.734031 985.096078,183.809099 984.476201,178.865251 C979.567999,177.950664 974.583583,179.124383 970.976105,182.528678 Z" id="Shape"></path>
                                    <path d="M1025.77015,552.825206 C1022.25403,556.81333 1021.255,562.116572 1022.55541,567.216666 C1023.85582,572.316759 1041.34157,552.488408 1040.05232,547.39366 C1034.58279,547.014093 1029.28628,548.837083 1025.77015,552.825206 Z" id="Shape"></path>
                                    <path d="M1057.33179,147.585786 C1059.15476,142.485952 1058.12268,136.998509 1055.00961,132.513313 C1051.89654,128.028117 1042.82656,153.383317 1045.93402,157.862975 C1051.20661,156.295925 1055.50882,152.674545 1057.33179,147.585786 Z" id="Shape"></path>
                                    <path d="M1138.40677,224.45511 C1138.7572,219.312394 1136.31515,214.539277 1132.18666,211.212879 C1128.05817,207.886481 1126.32793,233.473345 1130.44547,236.794463 C1134.98462,234.022465 1138.05634,229.576707 1138.40677,224.45511 Z" id="Shape"></path>
                                    <path d="M1218.97858,703.501781 C1217.92359,708.624658 1219.45584,713.779755 1222.72129,717.731996 C1225.98675,721.684237 1231.22655,696.214836 1227.97114,692.267965 C1223.44974,694.389073 1220.03357,698.384273 1218.97858,703.501781 Z" id="Shape"></path>
                                    <path d="M1009.46654,634.319489 C1010.63973,639.498886 1014.25314,643.4952 1018.97196,645.566959 C1023.69077,647.638718 1017.84049,621.883483 1013.12688,619.806272 C1009.80025,623.878914 1008.29336,629.140091 1009.46654,634.319489 Z" id="Shape"></path>
                                    <path d="M1160.23685,567.327095 C1157.40226,571.610027 1157.17009,576.844145 1159.10301,581.594873 C1161.03594,586.345601 1175.11172,565.055685 1173.18959,560.284166 C1167.89835,560.632414 1163.07144,563.04936 1160.23685,567.327095 Z" id="Shape"></path>
                                    <path d="M1198.01028,550.032425 C1194.4674,554.002499 1193.35751,559.375694 1194.5002,564.591173 C1195.64289,569.806653 1213.26439,550.054179 1212.12716,544.844138 C1206.78549,544.332923 1201.55317,546.062352 1198.01028,550.032425 Z" id="Shape"></path>
                                    <path d="M1319.14897,690.682111 C1317.96792,685.500297 1314.36235,681.507573 1309.64856,679.445756 C1304.93478,677.38394 1310.8088,703.140282 1315.51218,705.207553 C1318.83159,701.127557 1320.34562,695.85847 1319.14897,690.682111 Z" id="Shape"></path>
                                    <path d="M1228.9869,804.657098 C1225.59879,800.785858 1220.67017,799.171492 1215.68013,799.797801 C1210.6901,800.424111 1227.55386,819.661527 1232.53878,819.062213 C1233.52143,813.83577 1232.38524,808.549935 1228.9869,804.657098 Z" id="Shape"></path>
                                </g>
                            </g>
                        </g>
                    </g>
                </g>
            </g>
        </g>
    </g>
</svg>