<?xml version="1.0" encoding="UTF-8"?>
<svg width="599px" height="121px" viewBox="0 0 599 121" version="1.1" xmlns="http://www.w3.org/2000/svg" xmlns:xlink="http://www.w3.org/1999/xlink">
    <!-- Generator: sketchtool 50 (54983) - http://www.bohemiancoding.com/sketch -->
    <title>878A1808-9CB5-4486-BD4E-70EC116B1AAB</title>
    <desc>Created with sketchtool.</desc>
    <defs></defs>
    <g id="Public" stroke="none" stroke-width="1" fill="none" fill-rule="evenodd">
        <g id="Public/Become-a-carer" transform="translate(-841.000000, -612.000000)" fill="#F9F7EF" fill-rule="nonzero">
            <g id="Stacked-Group" transform="translate(0.000000, 102.000000)">
                <g id="Hero">
                    <g id="Group">
                        <g transform="translate(-1142.000000, -995.000000)" id="Edyn_Shape-02_1">
                            <g transform="translate(1821.000000, 1505.000000)">
                                <path d="M763.125,1334.25076 C580.5825,1291.09057 389.4675,1250.08968 259.31625,1126.74015 C129.165,1003.39062 91.42125,850.825357 73.5,703.957552 C55.57875,557.089747 -58.9,326.884463 41,202 C77.3902559,156.412333 128.049095,131.533636 193,110 C304.346993,73.0843379 446.95119,55.1817502 554,26 C723.4925,-20.2040427 936.54375,0.716066616 1125.83625,46.1222917 C1317.31125,91.4591414 1442.1075,190.024297 1566.195,307.580979 C1690.2825,425.137661 1793.625,538.817991 1812.42375,692.866154 C1830.91875,845.240635 1861.8225,1014.10045 1768.03125,1132.27284 C1674.24,1250.44523 1462.2675,1276.28758 1285.29375,1325.40539 C1106.73375,1374.97415 945.65625,1377.41096 763.125,1334.25076 Z" id="bc-hero-bottom-right"></path>
                            </g>
                        </g>
                    </g>
                </g>
            </g>
        </g>
    </g>
</svg>