<?xml version="1.0" encoding="UTF-8"?>
<svg width="534px" height="105px" viewBox="0 0 534 105" version="1.1" xmlns="http://www.w3.org/2000/svg" xmlns:xlink="http://www.w3.org/1999/xlink">
    <!-- Generator: sketchtool 50 (54983) - http://www.bohemiancoding.com/sketch -->
    <title>A775762C-B888-4C19-B9B6-DFEE6897AF9F</title>
    <desc>Created with sketchtool.</desc>
    <defs></defs>
    <g id="Public" stroke="none" stroke-width="1" fill="none" fill-rule="evenodd">
        <g id="Public/Become-a-carer" transform="translate(-906.000000, -2664.000000)" fill="#F9F7EF" fill-rule="nonzero">
            <g id="Stacked-Group" transform="translate(0.000000, 102.000000)">
                <g id="Group-8" transform="translate(0.000000, 1545.000000)">
                    <g id="Group-7" transform="translate(-611.000000, 125.000000)">
                        <g id="Edyn_Shape-03" transform="translate(0.000000, 171.000000)">
                            <path d="M1676.65881,743.340344 C1564.81511,772.46258 1472.00502,862.09231 1450.8728,884.896105 C1391.73938,948.698 1403.52928,1070.65758 1452.57526,1109.91336 C1547.88009,1186.2253 1681.29931,1203.56179 1818.6092,1205.8415 C1894.68235,1207.10652 1972.24102,1201.02173 2042.01836,1179.53636 C2111.79571,1158.05099 2173.3437,1119.84996 2201.8894,1069.92661 C2226.57274,1026.76228 2225.30414,978.277514 2215.23557,932.259375 C2203.5447,878.831337 2178.88023,824.678999 2126.10393,785.593454 C2085.10337,755.219546 2029.58709,736.030579 1971.95807,726.00719 C1914.32904,715.9838 1859.68521,723.877678 1800.3773,725.232822 C1758.42884,728.540574 1716.33418,733.009877 1676.65881,743.340344 Z" id="bc-how-bottom-right"></path>
                        </g>
                    </g>
                </g>
            </g>
        </g>
    </g>
</svg>