<?xml version="1.0" encoding="UTF-8"?>
<svg width="755px" height="144px" viewBox="0 0 755 144" version="1.1" xmlns="http://www.w3.org/2000/svg" xmlns:xlink="http://www.w3.org/1999/xlink">
    <!-- Generator: sketchtool 50 (54983) - http://www.bohemiancoding.com/sketch -->
    <title>836DF880-A651-4FEF-8AB7-49A0C171C9AF</title>
    <desc>Created with sketchtool.</desc>
    <defs></defs>
    <g id="Public" stroke="none" stroke-width="1" fill="none" fill-rule="evenodd">
        <g id="Public/Become-a-carer" transform="translate(0.000000, -102.000000)">
            <g id="Stacked-Group" transform="translate(0.000000, 102.000000)">
                <g id="Hero">
                    <g id="Group">
                        <g transform="translate(-1142.000000, -995.000000)" id="bc-hero-top-left">
                            <g transform="translate(582.000000, 64.000000)">
                                <g id="Edyn_Shape-02_1-Copy" transform="translate(0.250000, 0.000000)" fill="#FFFFFF" fill-rule="nonzero">
                                    <path d="M562.86797,1050.35716 C418.517177,1016.23763 267.38743,983.825095 164.466543,886.313286 C61.5456554,788.801478 31.6986869,668.193685 17.5269371,552.089917 C3.35518727,435.98615 -26.5985363,298.870452 52.4002951,200.14523 C130.5095,102.324927 289.245553,59.6635107 423.276679,23.1377151 C557.307804,-13.3880804 700.003892,-3.84530503 849.692443,32.0497898 C1001.10687,67.8900412 1099.79314,145.808996 1197.91894,238.741369 C1296.04474,331.673743 1377.76583,421.541733 1392.63148,543.321807 C1407.25694,663.77878 1431.69498,797.267949 1357.52682,890.687058 C1283.35866,984.106168 1115.73524,1004.53539 975.788101,1043.36461 C834.586586,1082.55032 707.209866,1084.4767 562.86797,1050.35716 Z" id="Shape"></path>
                                </g>
                                <g id="Edyn_Rings-dotted" transform="translate(340.000000, 280.103337)" stroke="#F2E6CF" stroke-dasharray="15" stroke-width="2.5">
                                    <path d="M286.623375,154.396174 C350.225867,118.366397 422.889592,87.7534219 505.678535,87.5871636 C588.467477,87.4209054 660.943441,118.157233 724.886685,153.918852 C788.829929,189.68047 857.96791,231.148502 883.440896,291.923945 C908.816524,352.297152 885.255924,416.885809 861.125086,474.480893 C836.994248,532.075977 789.309764,576.188052 722.869987,613.60689 C656.110319,651.406513 586.172613,667.571107 507.291893,667.737366 C428.411173,667.903624 359.266238,651.342155 292.172772,613.799964 C225.552187,576.499115 154.543545,538.833572 130.252762,481.329662 C105.961979,423.825751 137.31816,361.827505 162.471256,301.470388 C187.513085,240.684218 223.020883,190.409861 286.623375,154.396174 Z" id="Shape"></path>
                                    <path d="M271.600176,140.715914 C339.040552,102.668854 415.705802,70.3770816 503.432555,70.243113 C591.159307,70.1091445 671.908269,97.9960318 739.626921,135.844818 C807.345574,173.693605 877.930477,221.450703 904.958108,285.744875 C931.902257,349.728241 919.992011,422.124829 894.36272,483.118017 C868.733429,544.111205 803.421871,587.024002 732.87871,626.657249 C662.078142,666.590585 588.30697,682.345283 504.733499,682.479252 C421.160027,682.61322 340.459763,674.56975 269.394833,634.845405 C198.712533,595.308615 127.47368,548.258871 101.733078,487.313911 C75.9924768,426.368952 115.479951,360.504668 142.243219,296.542738 C168.88822,232.232489 204.159801,178.768332 271.600176,140.715914 Z" id="Shape"></path>
                                    <path d="M266.894162,130.473467 C338.123081,90.3174439 411.361878,51.2665832 503.9553,51.1646507 C596.548723,51.0627183 678.870215,80.4729145 750.307772,120.457262 C821.745329,160.441609 900.047068,207.620242 928.602618,275.582367 C957.116441,343.308437 941.781568,419.709496 914.693436,484.248835 C887.605305,548.788175 821.940058,596.374538 747.352071,638.295602 C672.569356,680.44199 593.127064,684.969937 504.921988,685.077235 C416.716912,685.184532 334.374557,684.04718 259.424931,642.056373 C184.725671,600.210417 102.877091,554.276433 75.6776859,489.774647 C48.4782811,425.272862 95.4913153,354.982385 123.838228,287.267045 C152.136458,219.310286 195.665242,170.62949 266.894162,130.473467 Z" id="Shape"></path>
                                    <path d="M255.44524,115.731397 C330.533935,73.5245623 408.63564,35.6247664 506.193188,35.5550385 C603.750735,35.4853106 690.313923,64.4009347 765.534828,106.500496 C840.755733,148.600057 935.223726,195.130021 965.312088,266.66012 C995.372616,338.034672 958.45105,419.278403 929.823964,487.279197 C901.196878,555.279992 840.58873,607.372097 761.902514,651.515222 C683.07017,695.824621 599.770498,706.675355 506.826407,706.761174 C413.882316,706.846993 325.022838,702.078677 246.058284,657.871188 C167.27465,613.760246 76.0075462,564.811259 47.3247922,496.837284 C18.6420383,428.863308 64.4704268,350.258509 94.4474535,278.889321 C124.382729,207.359222 180.363505,157.938232 255.44524,115.731397 Z" id="Shape"></path>
                                    <path d="M233.198222,93.8722726 C312.06962,49.615328 401.799921,13.9072891 504.225609,13.8751101 C606.651298,13.842931 697.035499,48.832304 775.97646,93.0356168 C854.917421,137.23893 939.312181,189.374383 970.949782,264.491053 C1002.58738,339.607724 972.271493,419.411812 942.178208,490.881521 C912.084923,562.351231 847.717571,611.016708 764.964516,657.386745 C682.21146,703.756781 602.094871,727.521023 504.545603,727.574655 C406.996334,727.628286 312.250486,719.615698 229.358302,673.197393 C146.466119,626.779088 59.8661876,571.83333 29.7102952,500.401162 C-0.445597153,428.968995 48.3742535,350.328717 79.9422904,275.297857 C111.510327,200.266997 154.326825,138.107764 233.198222,93.8722726 Z" id="Shape"></path>
                                    <path d="M504.002631,0 C396.72778,0 306.45254,37.7135832 223.804529,84.0362264 C141.156518,130.35887 88.2248023,190.316548 55.0599153,269.026421 C21.8950283,347.736294 -20.4545161,430.136531 11.1181782,505.107766 C42.6908725,580.079001 131.909286,635.863564 218.694216,684.508776 C305.479147,733.153988 401.851998,745.785974 504.002631,745.785974 C606.153264,745.785974 695.524639,725.719623 782.30957,677.074411 C869.094501,628.429198 934.972342,572.446171 966.558942,497.496391 C998.145542,422.546612 1044.31218,333.135758 1011.1612,254.431248 C978.010215,175.726739 871.131673,125.799554 788.490615,79.4769112 C705.849557,33.1542679 611.277483,0 504.002631,0 Z" id="Shape"></path>
                                </g>
                            </g>
                        </g>
                    </g>
                </g>
            </g>
        </g>
    </g>
</svg>