<?xml version="1.0" encoding="UTF-8"?>
<svg width="90px" height="100px" viewBox="0 0 90 100" version="1.1" xmlns="http://www.w3.org/2000/svg" xmlns:xlink="http://www.w3.org/1999/xlink">
    <!-- Generator: Sketch 49.3 (51167) - http://www.bohemiancoding.com/sketch -->
    <title>Club</title>
    <desc>Created with Sketch.</desc>
    <defs></defs>
    <g id="logo" stroke="none" stroke-width="1" fill="none" fill-rule="evenodd">
        <g id="Artboard" transform="translate(-1810.000000, -960.000000)" fill="#33535C" fill-rule="nonzero">
            <path d="M1877.91569,990.444965 C1878.61827,988.337237 1878.85246,986.229508 1878.85246,983.887588 C1878.85246,970.538642 1868.07963,960 1854.96487,960 C1841.85012,960 1831.07728,970.772834 1831.07728,983.887588 C1831.07728,986.229508 1831.31148,988.337237 1832.01405,990.444965 C1819.83607,991.381733 1810,1001.92037 1810,1014.33255 C1810,1027.6815 1820.77283,1038.22014 1833.88759,1038.22014 C1841.14754,1038.22014 1847.70492,1034.94145 1852.15457,1029.78923 L1852.15457,1057.1897 C1852.15457,1058.82904 1853.55972,1060 1854.96487,1060 C1856.37002,1060 1857.77518,1058.59485 1857.77518,1057.1897 L1857.77518,1029.78923 C1862.22482,1034.94145 1868.54801,1038.22014 1876.04215,1038.22014 C1889.3911,1038.22014 1899.92974,1027.44731 1899.92974,1014.33255 C1899.92974,1001.68618 1890.09368,991.381733 1877.91569,990.444965 Z M1875.80796,1032.36534 C1865.7377,1032.36534 1857.54098,1024.16862 1857.54098,1014.09836 C1857.54098,1012.45902 1856.13583,1011.28806 1854.73068,1011.28806 C1853.32553,1011.28806 1851.92037,1012.69321 1851.92037,1014.09836 C1851.92037,1024.16862 1843.72365,1032.36534 1833.6534,1032.36534 C1823.58314,1032.36534 1815.38642,1024.16862 1815.38642,1014.09836 C1815.38642,1004.0281 1823.58314,995.831382 1833.6534,995.831382 C1834.35597,995.831382 1835.05855,995.831382 1835.52693,995.831382 C1836.69789,996.065574 1837.63466,995.362998 1838.33724,994.660422 C1839.03981,993.957845 1839.03981,992.552693 1838.57143,991.615925 C1837.16628,989.039813 1836.69789,986.229508 1836.69789,983.419204 C1836.69789,973.348946 1844.89461,965.152225 1854.96487,965.152225 C1865.03513,965.152225 1873.23185,973.348946 1873.23185,983.419204 C1873.23185,986.229508 1872.52927,989.039813 1871.35831,991.615925 C1870.88993,992.552693 1870.88993,993.723653 1871.59251,994.660422 C1872.29508,995.59719 1873.23185,996.065574 1874.40281,995.831382 C1875.10539,995.831382 1875.80796,995.831382 1876.27635,995.831382 C1886.3466,995.831382 1894.54333,1004.0281 1894.54333,1014.09836 C1894.54333,1024.16862 1885.87822,1032.36534 1875.80796,1032.36534 Z" id="Club"></path>
        </g>
    </g>
</svg>