<?xml version="1.0" encoding="UTF-8"?>
<svg width="125px" height="101px" viewBox="0 0 125 101" version="1.1" xmlns="http://www.w3.org/2000/svg" xmlns:xlink="http://www.w3.org/1999/xlink">
    <!-- Generator: Sketch 49.3 (51167) - http://www.bohemiancoding.com/sketch -->
    <title>ecg</title>
    <desc>Created with Sketch.</desc>
    <defs></defs>
    <g id="logo" stroke="none" stroke-width="1" fill="none" fill-rule="evenodd">
        <g id="Artboard" transform="translate(-1344.000000, -610.000000)" fill="#32535A" fill-rule="nonzero">
            <path d="M1436.41653,620.803097 C1455.50833,633.523032 1467.18138,651.019178 1468.14921,667.805378 C1468.14921,694.631369 1457.42173,707.667517 1438.19101,710.437459 C1428.03993,711.898797 1418.35473,709.488817 1409.23595,705.04417 C1406.86741,703.889836 1405.15203,704.141579 1402.8518,705.097128 C1398.5123,706.900008 1394.04156,708.577784 1389.46644,709.590129 C1361.27351,715.825376 1340.1079,696.019794 1344.60397,667.654946 C1347.79912,647.497844 1358.87351,632.34644 1375.47397,621.168432 C1395.57812,607.630332 1416.23103,607.354796 1436.41653,620.803097 Z M1433.37267,624.809231 C1415.16252,612.70576 1396.5307,612.953742 1378.39394,625.138032 C1363.41799,635.198239 1353.42734,648.834504 1350.54487,666.975895 C1347.45433,686.427287 1357.80426,701.406342 1374.15811,704.953115 C1379.26735,706.061192 1383.9455,706.064733 1390,704.728875 C1394.1274,703.817764 1399.17775,701.296451 1403.09258,699.673859 C1405.16771,698.813865 1406.71523,698.587296 1408.85198,699.626197 C1417.0784,703.626379 1425.81581,706.795361 1434.97351,705.480157 C1452.32231,702.987209 1462,691.254676 1462,667.111284 C1461.12689,652.003704 1450.59616,636.257172 1433.37267,624.809231 Z M1413.23007,644.420899 C1412.69665,645.923682 1412.46946,646.500082 1412.28603,647.089529 C1408.3395,659.748831 1404.47202,672.434227 1400.3574,685.038268 C1399.86696,686.541052 1398.03108,687.604052 1396.81841,688.87121 C1395.6541,687.703828 1393.9886,686.741372 1393.41144,685.333759 C1390.94696,679.316485 1388.70123,673.202504 1386.59595,667.048613 C1385.79544,664.706942 1384.56666,663.954015 1382.14133,664.021556 C1376.1394,664.18657 1370.1298,664.047651 1364.12404,664.085259 C1361.66878,664.100609 1359.55583,663.420596 1359.5965,660.644514 C1359.63488,657.982024 1361.82996,657.594432 1364.04576,657.600572 C1369.92411,657.615154 1375.80323,657.572941 1381.68159,657.609782 C1390.40587,657.664275 1389.42039,656.6243 1392.48582,665.046181 C1393.70693,668.4025 1395.04239,671.718141 1396.63574,675.859622 C1400.91768,662.193348 1404.85116,649.40971 1409.00109,636.696683 C1409.50995,635.136337 1411.18158,633.956675 1412.31443,632.601253 C1413.62917,633.81929 1415.38293,634.80247 1416.18191,636.296043 C1419.43154,642.370113 1422.48163,648.557775 1425.4043,654.797627 C1426.42969,656.985029 1427.76516,657.714931 1430.12295,657.651995 C1435.87006,657.498493 1441.62331,657.597502 1447.37426,657.605944 C1449.81878,657.609014 1452.80362,657.347293 1452.87654,660.742755 C1452.95022,664.12824 1450.03752,664.076817 1447.53774,664.075282 C1440.76447,664.072979 1433.98813,663.948643 1427.22023,664.130542 C1424.065,664.214968 1422.31047,662.981581 1421.02719,660.171728 C1418.70164,655.081605 1416.07676,650.126564 1413.23007,644.420899 Z" id="ecg" transform="translate(1406.074605, 660.864437) scale(1, -1) translate(-1406.074605, -660.864437) "></path>
        </g>
    </g>
</svg>