<svg id="Layer_1" data-name="Layer 1" xmlns="http://www.w3.org/2000/svg" viewBox="0 0 1836 1700"><defs><style>.cls-1{fill:#f9f7ef;}</style></defs><title>Edyn_Shape 04</title><path class="cls-1" d="M673.26,137.15c-99.21,5.62-193,52.67-267.79,118.07S273.19,403.56,223.62,489.68C150.33,617,91.59,758.06,92.05,905c.65,206.63,122.85,401.51,292.07,520.1S764,1592.41,970.61,1595.17c122.25,1.63,246.58-12.44,359.09-60.3,132.22-56.24,243.43-158.54,315.17-283S1749.29,981.55,1743,838c-1.52-34.69,1-174.61-213.87-323.09-118.39-81.79-363-193.18-559.86-301.46-47.8-26.29-185.39-82-296.13-76.29"/></svg>