<svg id="Layer_1" data-name="Layer 1" xmlns="http://www.w3.org/2000/svg" viewBox="0 0 1836 1700"><defs><style>.cls-1{fill:none;stroke:#f9f7ef;stroke-miterlimit:10;stroke-width:2.5px;stroke-dasharray:15 15;}</style></defs><title>Edyn_Rings-dotted</title><path class="cls-1" d="M968.72,881.28c-3.76,5.8-11.4,7.45-17.66,8.78s-13.88,2.88-19.68-.88-7.68-11.31-9-17.57,1.49-11.22,5.25-17S935,845.36,941.27,844s11,.23,16.83,4,12.55,6.76,13.88,13S972.48,875.48,968.72,881.28Z"/><path class="cls-1" d="M909.92,829.42c9.25-9.63,18.19-16.75,31.51-18a52.48,52.48,0,0,1,36.23,9.49c11.18,7.7,23.53,16.37,27.18,29.29,2.84,10.08.54,21.5-2.07,31.66-2.58,10-9.32,17-16.78,24.26-9.83,9.54-22.42,13.42-35.38,14.69s-26.86,2.26-38.29-5.69c-8.74-6.08-17.26-13.49-20.76-23.2s.47-20.34,1.68-30.37C894.79,848.63,900.67,839.05,909.92,829.42Z"/><path class="cls-1" d="M889.77,801.82c14.73-13.47,31.29-23.42,51.65-24.63s38.78,5.63,55.34,17.27,35.92,25,41.79,44.59c5.06,16.92,1.42,36.83-3.32,53.47-4.72,16.46-17,28.78-30.32,40.28-15.61,13.52-35.09,16.85-54.76,18.05s-39.46,1.76-56.55-10.34c-14.55-10.3-31.08-21.57-36.67-37.78s.18-35,3.6-52C864.48,831.24,875,815.29,889.77,801.82Z"/><path class="cls-1" d="M873.6,778.58c20.21-17.31,40.54-32.3,67.95-33.45s50.91,9.4,72.86,25,47.63,32.18,55.7,58.48c7.29,23.75,1.12,50.56-5.77,73.68-6.86,23-22.48,40.39-41.61,56.1-21.37,17.55-46.53,23.85-72.89,25s-51.08-2.75-73.84-19c-20.36-14.52-43.52-28.94-51.2-51.65s2-48.06,7.67-71.84C838.76,814.67,853.4,795.89,873.6,778.58Z"/><path class="cls-1" d="M854.15,751.6c25.69-21.14,52.89-42.2,87.35-43.28s66,14,93.36,33.46,56.71,43.29,67,76.28c9.53,30.59-.77,63.87-9.79,93.47-9,29.44-27.41,51.35-52.4,71.25-27.12,21.6-57.17,30.18-90.23,31.26s-65.12-1.9-93.59-22.22c-26.13-18.8-56-39-65.79-68.24s2-63,10-93.65C808.62,797,828.46,772.74,854.15,751.6Z"/><path class="cls-1" d="M837.87,728.49c31.17-25,62.34-47.33,103.85-48.34s79.43,11.92,112.15,35.35,69.88,51.54,82.36,91.21c11.77,37.42-2.33,78.89-13.49,115s-34.28,62.68-65.13,86.76c-32.87,25.65-68.8,35.76-108.55,36.78s-77.64-3.72-111.78-28.18c-31.93-23-67.32-47.81-79.19-83.53s5.79-75.32,16.1-112.79C785.08,781.15,806.7,753.47,837.87,728.49Z"/><path class="cls-1" d="M817.22,699.94c36.65-28.82,76-52.82,124.54-53.77s92.27,16.71,130.37,44.08,81.37,59.51,96.05,105.87c14,44.26-2.07,93-15.38,135.53s-41,73.58-77.75,101.83c-38.62,29.71-80,37.54-126.48,38.49s-89.29-2.19-129.09-30.79c-37.74-27.26-81.51-54.82-95.48-97s1.84-91,14.48-135.35C751.68,762.54,780.57,728.75,817.22,699.94Z"/><path class="cls-1" d="M797.92,673c42.13-32.65,88.28-60.3,143.89-61.18s106.52,19.9,150,51.19,94.6,68.45,111.38,121.54c16.35,51.06-2,108.92-17.46,158S1137,1028.59,1094.4,1061c-44.37,33.77-93,44-146.16,44.87s-102.54-5.79-148-38.53c-43.54-31.49-87.27-66.15-103.33-114.87s-1.24-102.27,13.73-153.41C726.13,746.12,755.79,705.67,797.92,673Z"/><path class="cls-1" d="M777.7,644.89c47.61-36.49,101.46-69.79,164.12-70.62s120.67,26.49,169.54,61.72,106.92,77.54,125.9,137.32c18.59,57.89-3.9,123.68-21.48,179.19s-56.44,95.68-104.9,132.27c-50.11,37.83-103.15,53.31-163,54.13s-117.51-6.09-168.65-43C729.88,1060.22,672.16,1021.24,654,966s11.3-118.71,28.6-176.68C700.4,729.69,730.09,681.38,777.7,644.89Z"/><path class="cls-1" d="M760.53,620.73c53.09-40.32,111.72-73.54,181.43-74.3s132.06,27,186.32,66.18S1249.81,695.68,1271,762.15c20.82,64.73-7.81,137.57-27.53,199.56s-60.68,107.5-115,148.26c-55.86,41.9-114.48,53.48-181,54.24s-126.61-6.67-183.42-47.69C708.85,1076.57,648.21,1035.73,628,974S634.4,844.25,654,779.45C674.13,713.11,707.44,661,760.53,620.73Z"/><path class="cls-1" d="M741.94,594.72c58.57-44.16,123.31-82.64,200.06-83.33s141.62,37.4,201.26,80.49S1276.59,679.36,1300,752.52c23.06,71.56,5,153.76-16.87,222.23s-80.21,111-140.42,156c-61.61,46-122.41,65.24-195.65,65.93s-138-11.27-200.51-56.43c-61-44.17-136.11-85.45-158.46-153.67s17.24-144.78,39.21-216.41C649.69,697.1,683.37,638.88,741.94,594.72Z"/><path class="cls-1" d="M723.11,568.38c64.06-48,135.14-93.61,218.94-94.25s157.11,41.79,222.13,88.82,136.54,100.95,162.15,180.79c25.3,78.4.15,162.6-23.86,237.55s-72.39,130.52-138.48,179.6c-67.35,50-137.41,63.19-217.35,63.83s-151.48-8.66-219.63-58c-66.77-48.4-139.63-97.79-164.08-172.51s10.38-155.86,34.68-234.32C622.31,680.19,659.05,616.37,723.11,568.38Z"/><path class="cls-1" d="M702.84,540.11c69.54-51.83,148.48-90.5,239.33-91.07s172,34.75,242.4,85.71,158,108,185.79,194.53c27.54,85.23-.28,184.22-26.42,265.65s-94.35,132.59-166.31,185.83c-73.1,54.09-144.72,75.27-231.36,75.84s-166.81-7.31-240.62-60.75c-72.57-52.63-159.57-106.69-186.11-187.91s18.37-174,45-259.27C591.54,662.23,633.3,591.94,702.84,540.11Z"/><path class="cls-1" d="M685.18,515.34c75-55.67,159.16-97.7,257.06-98.2s186.79,34.7,262.59,89.6,157.34,122,187.36,215.23c29.78,92.06,5,193.39-23.31,281.3s-89,154.6-166.8,212c-78.85,58.16-162.8,82.3-256.15,82.81S765.14,1280.59,685.66,1223c-78.38-56.86-166.4-118.41-195-206.14s21.1-184.47,50.08-276.59C570,647.15,610.16,571,685.18,515.34Z"/><path class="cls-1" d="M674.7,500.29c80.5-59.51,162.63-123.71,267.58-124.15s195.38,52.4,276.55,111.22,182.37,121.11,214.6,221c32,98.9-4.41,210.35-34.83,304.73s-94.28,167.08-178.11,228.48c-84.47,62.39-175,71.75-275,72.2s-191.43-6.32-276.58-68c-84.18-61.09-180.8-124.28-211.53-218.51s23.72-197.78,55-296.73C544,630.68,594.2,559.79,674.7,500.29Z"/><path class="cls-1" d="M651.83,470.3c86-63.34,181.31-124.67,293.31-125.05s214.9,50.44,301.46,113.21,190,137.43,224.43,244c34.25,105.73.21,227.67-32.35,328.53s-107.34,176.88-197,242.46c-90.24,66.43-187,81.83-293.74,82.21s-211.09-3.43-301.91-69.29c-90-65.32-182.61-143.65-215.44-244.38s12.32-213.18,46-319C510.42,616.52,565.85,533.64,651.83,470.3Z"/><path class="cls-1" d="M630.22,443c91.46-67.18,195.95-124.26,315-124.57s223.27,57,315.22,123.68,191.37,144,228,257.32c36.49,112.57,2.61,233-32.09,340.39s-103.27,189.64-198.81,259.41c-96,70.48-196.57,100.62-310,100.93s-212.86-30.57-309.34-100.57c-95.8-69.55-197.91-139.78-232.84-247s10.16-222.82,46.33-335.36C487.7,603.89,538.76,510.15,630.22,443Z"/><path class="cls-1" d="M609.25,417.52c96.94-71,207.14-131.26,333.24-131.51S1184.66,337.8,1282,408.43s198.8,159.75,237.65,279.73c38.73,119.4,21.61,254.5-15.23,368.32s-130.72,193.9-232.12,267.86c-101.77,74.52-207.81,103.92-327.94,104.17s-236.13-14.76-338.28-88.89c-101.6-73.78-204-161.58-241-275.31s19.76-236.64,58.23-356C461.61,588.3,512.31,488.53,609.25,417.52Z"/><path class="cls-1" d="M601.7,398.2c102.42-74.85,207.73-147.64,340.87-147.83S1194.08,305,1296.8,379.53,1512.11,542,1553.17,668.68c41,126.24,18.95,268.65-20,388.95s-133.37,209-240.62,287.14c-107.53,78.56-221.76,87-348.59,87.2s-245.23-1.92-353-80.19c-107.41-78-225.1-163.62-264.21-283.85S355.24,816.68,396,690.46C436.69,563.79,499.28,473.05,601.7,398.2Z"/><path class="cls-1" d="M585.09,371.09C693,292.4,805.24,221.74,945.44,221.61s264.6,53.78,372.7,132.27S1562,519.12,1605.24,652.48c43.2,133.07-9.86,284.54-51,411.32S1426,1287.7,1312.92,1370c-113.29,82.61-233,102.84-366.57,103s-261.27-8.73-374.75-91.15C458.38,1299.61,327.22,1208.35,286,1081.62s24.64-273.28,67.72-406.34C396.74,541.92,477.19,449.78,585.09,371.09Z"/><path class="cls-1" d="M553.09,330.52C666.47,248,795.46,181.42,942.7,181.36s277.17,65.18,390.65,147.6,234.8,179.63,280.28,319.69,1.9,288.86-41.36,422.12-135.79,224-254.75,310.46S1083.39,1512,943.16,1512.1s-276.43-14.84-395.59-101.39-243.65-189-287-322.19S287.4,808.7,332.78,668.8,439.71,413,553.09,330.52Z"/><path class="cls-1" d="M942.77,155.09c-154.29,0-284.13,70.31-403,156.67s-195,198.14-242.7,344.88S188.46,957,233.87,1096.77s173.73,243.77,298.55,334.46,263.43,114.24,410.35,114.24,275.46-37.41,400.28-128.1,219.57-195.06,265-334.79,111.83-306.42,64.15-453.15S1470.8,389.62,1351.94,303.26,1097.06,155.09,942.77,155.09Z"/></svg>