<?xml version="1.0" encoding="utf-8"?>
<!-- Generator: Adobe Illustrator 21.0.2, SVG Export Plug-In . SVG Version: 6.00 Build 0)  -->
<svg version="1.1" id="Layer_1" xmlns="http://www.w3.org/2000/svg" xmlns:xlink="http://www.w3.org/1999/xlink" x="0px" y="0px"
	 viewBox="0 0 226 143" style="enable-background:new 0 0 226 143;" xml:space="preserve">
<style type="text/css">
	.st0{fill:#FBF8EF;}
	.st1{fill:#F2979A;}
</style>
<title>Edyn_Stacked Logo</title>
<desc>Created with Sketch.</desc>
<g id="Client-Mobile">
	<g id="Log-in--Desktop" transform="translate(-607.000000, -120.000000)">
		<g id="Edyn_Stacked-Logo" transform="translate(607.000000, 120.000000)">
			<path id="Shape" class="st0" d="M120.4,29.7c-3.7-1.1-7.7-0.5-10.8,1.8c1.1,3.6,4,6.5,7.6,7.7c3.7,1.1,7.7,0.5,10.8-1.8
				C126.9,33.7,124.1,30.9,120.4,29.7"/>
			<path id="Shape_1_" class="st0" d="M96.2,49.4c1,3.7,3.7,6.6,7.3,8c2.5-2.8,3.5-6.7,2.6-10.4c-1-3.7-3.7-6.6-7.3-8
				C96.3,41.9,95.3,45.7,96.2,49.4"/>
			<path id="Shape_2_" class="st0" d="M86.3,10.4c-2.6,2.8-3.7,6.6-2.9,10.3c3.8,0.5,7.6-0.8,10.3-3.5c2.6-2.8,3.7-6.6,2.9-10.3
				C92.9,6.4,89,7.7,86.3,10.4"/>
			<path id="Shape_3_" class="st0" d="M131.5,14.4c-2,3.2-2.4,7.2-0.9,10.7c3.8-0.2,7.4-2.1,9.5-5.3c2-3.2,2.4-7.2,0.9-10.7
				C137.2,9.3,133.7,11.3,131.5,14.4"/>
			<path id="Shape_4_" class="st0" d="M119.4,1.2c-3.5-1.7-7.5-1.6-11,0.1c0.6,3.8,2.9,7,6.3,8.8c3.5,1.7,7.5,1.6,11-0.1
				C125.1,6.2,122.7,3,119.4,1.2"/>
			<path id="Shape_5_" class="st0" d="M107.7,25.2c3-2.3,4.7-6,4.5-9.7c-3.7-1.1-7.7-0.4-10.8,1.9c-3,2.3-4.7,6-4.5,9.7
				C100.6,28.2,104.6,27.5,107.7,25.2"/>
			<path id="Shape_6_" class="st0" d="M80.6,63.5c2.2,3.2,5.7,5.1,9.5,5.2c1.4-3.5,1.1-7.5-1-10.7c-2.2-3.2-5.7-5.1-9.5-5.2
				C78.2,56.3,78.5,60.3,80.6,63.5"/>
			<path id="Shape_7_" class="st0" d="M78.7,32.3c-3.2,2.1-5.1,5.6-5.2,9.4c3.6,1.4,7.6,1,10.9-1.1c3.2-2.1,5.1-5.6,5.2-9.4
				C86,29.8,81.9,30.3,78.7,32.3"/>
			<path id="Shape_8_" class="st0" d="M106,79c3.6,1.4,7.6,0.9,10.9-1.1c-0.9-3.7-3.6-6.7-7.1-8.1c-3.6-1.4-7.6-0.9-10.9,1.1
				C99.8,74.6,102.4,77.6,106,79"/>
			<path id="Shape_9_" class="st0" d="M141.4,28.8c-3.6,1.2-6.5,4-7.7,7.7c3.1,2.3,7.1,3,10.8,1.8c3.6-1.2,6.5-4,7.7-7.7
				C149.1,28.4,145.1,27.7,141.4,28.8"/>
			<path id="Shape_10_" class="st0" d="M137.9,56c1.5,3.5,4.5,6.2,8.2,7.1c2.2-3.1,2.6-7.1,1.3-10.6c-1.5-3.5-4.5-6.2-8.2-7.1
				C137,48.5,136.5,52.4,137.9,56"/>
			<path id="Shape_11_" class="st0" d="M124.4,59.5c3.6-1.1,6.5-3.9,7.8-7.6c-3.1-2.3-7.1-3.1-10.8-2c-3.6,1.1-6.5,3.9-7.8,7.6
				C116.7,59.8,120.7,60.6,124.4,59.5"/>
			<path id="Shape_12_" class="st0" d="M134.8,74.9c2.9-2.5,4.4-6.2,4-10c-3.7-0.9-7.7,0-10.7,2.4c-2.9,2.5-4.4,6.2-4,10
				C127.9,78.3,131.8,77.4,134.8,74.9"/>
			<path id="Shape_13_" class="st1" d="M123.5,20.7c0,1.6-1.3,2.8-2.8,2.8c-1.6,0-2.8-1.3-2.8-2.8c0-1.6,1.3-2.8,2.8-2.8
				C122.2,17.8,123.5,19.1,123.5,20.7"/>
			<path id="Shape_14_" class="st1" d="M105.9,8.3c0,1.6-1.3,2.8-2.8,2.8c-1.6,0-2.8-1.3-2.8-2.8s1.3-2.8,2.8-2.8
				C104.7,5.4,105.9,6.7,105.9,8.3"/>
			<path id="Shape_15_" class="st1" d="M117.5,45.5c0,1.6-1.3,2.8-2.8,2.8c-1.6,0-2.8-1.3-2.8-2.8c0-1.6,1.3-2.8,2.8-2.8
				C116.3,42.7,117.5,43.9,117.5,45.5"/>
			<path id="Shape_16_" class="st1" d="M98.6,33.5c0,1.1-0.7,2.2-1.7,2.6s-2.3,0.2-3.1-0.6c-0.8-0.8-1-2-0.6-3.1
				c0.4-1.1,1.5-1.7,2.6-1.7C97.3,30.6,98.6,31.9,98.6,33.5"/>
			<path id="Shape_17_" class="st1" d="M89,47.5c0,1.6-1.3,2.8-2.8,2.8s-2.8-1.3-2.8-2.8c0-1.6,1.3-2.8,2.8-2.8S89,45.9,89,47.5"/>
			<path id="Shape_18_" class="st1" d="M134.2,43.2c0,1.1-0.7,2.2-1.7,2.6c-1.1,0.4-2.3,0.2-3.1-0.6c-0.8-0.8-1-2-0.6-3.1
				s1.5-1.7,2.6-1.7C132.9,40.4,134.2,41.7,134.2,43.2"/>
			<path id="Shape_19_" class="st1" d="M152.9,42.7c0,1.1-0.7,2.2-1.7,2.6c-1.1,0.4-2.3,0.2-3.1-0.6c-0.8-0.8-1-2-0.6-3.1
				s1.5-1.7,2.6-1.7C151.6,39.8,152.9,41.1,152.9,42.7"/>
			<path id="Shape_20_" class="st1" d="M120.6,65.8c0,1.1-0.7,2.2-1.7,2.6c-1.1,0.4-2.3,0.2-3.1-0.6c-0.8-0.8-1-2-0.6-3.1
				c0.4-1.1,1.5-1.7,2.6-1.7C119.4,63,120.6,64.3,120.6,65.8"/>
			<path id="Shape_21_" class="st1" d="M100.9,63c0,1.6-1.3,2.8-2.8,2.8c-1.6,0-2.8-1.3-2.8-2.8c0-1.6,1.3-2.8,2.8-2.8
				C99.6,60.2,100.9,61.5,100.9,63"/>
			<path id="Shape_22_" class="st0" d="M6.6,116.8c0.4-1.4,1.3-2.7,2.5-3.7c1.3-1.1,2.9-1.6,4.6-1.6c1.7,0,3.4,0.5,4.7,1.7
				c1.1,0.9,2,2.2,2.3,3.7L6.6,116.8z M23.1,110.1c-2.9-3-7-4.5-11.2-3.9c-4.1,0.5-7.7,3-9.7,6.7c-1.1,2-1.7,4.3-1.7,6.6
				c-0.1,3.6,1.3,7,3.9,9.5c2.5,2.5,6,3.9,9.5,3.8c2.1,0,4.3-0.5,6.2-1.4c1.9-0.9,3.5-2.3,4.7-4l0.2-0.3l-4.2-3.2l-0.2,0.3
				c-0.7,1-1.7,1.9-2.9,2.4c-1.2,0.6-2.5,0.8-3.8,0.8c-1.9,0-3.7-0.6-5.1-1.8c-1.3-1.1-2.1-2.5-2.5-4.1h20.2l0-0.4
				c0.1-0.7,0.1-1.3,0.1-1.7C26.7,116,25.4,112.6,23.1,110.1z"/>
			<path id="Shape_23_" class="st0" d="M43,127.3c-2.1,0-4.1-0.8-5.5-2.2c-3-3.1-3-8,0-11.2c1.4-1.5,3.4-2.3,5.5-2.3
				c2.1,0,4.1,0.8,5.6,2.3c3,3.1,3,8,0,11.1C47.1,126.6,45.1,127.4,43,127.3L43,127.3z M50.9,109.1c-2.1-2-5-3.1-7.9-3
				c-3.6,0-7,1.4-9.6,3.9c-1.2,1.2-2.2,2.7-2.9,4.3c-1.4,3.4-1.4,7.2,0,10.5c0.7,1.6,1.6,3,2.9,4.3c1.2,1.2,2.7,2.2,4.3,2.8
				c1.7,0.7,3.5,1,5.3,1c2.9,0.1,5.8-1,7.9-3v2.3h5.8V92.7h-5.8L50.9,109.1z"/>
			<polygon id="Shape_24_" class="st0" points="78.9,106.5 72.5,124.4 65.8,106.8 65.7,106.5 59.3,106.5 69.6,132.2 65.8,143 
				71.6,143 84.8,106.5 			"/>
			<path id="Shape_25_" class="st0" d="M100.4,106.1c-1.5,0-3,0.2-4.3,0.8c-0.9,0.4-1.8,1-2.5,1.7v-2.1h-5.8v25.6h5.8v-13
				c0-5,1.9-7.5,5.9-7.5c3.8,0,5.7,2.3,5.7,7.1v13.4h5.9v-14.5c0-3.8-1-6.8-2.9-8.7C106.2,107.1,103.6,106.1,100.4,106.1"/>
			<path id="Shape_26_" class="st0" d="M142.8,123.6c-1.8,2.9-5.4,4.3-8.7,3.4c-3.3-1-5.6-4-5.6-7.5c0-2.1,0.8-4.1,2.2-5.6
				c1.4-1.5,3.4-2.4,5.4-2.3c1.3,0,2.6,0.3,3.7,1c1.1,0.6,2.1,1.5,2.8,2.6l0.2,0.3l4.9-2.8l-0.2-0.4c-1.2-1.9-2.9-3.5-4.9-4.6
				c-4.9-2.8-11-2.2-15.3,1.5c-4.3,3.6-5.8,9.6-3.9,14.8s7,8.8,12.6,8.8c4.7,0,9-2.4,11.5-6.4l0.2-0.4l-4.9-2.9L142.8,123.6z"/>
			<path id="Shape_27_" class="st0" d="M163.6,127.3c-2.1,0-4.1-0.8-5.5-2.2c-3-3.1-3-8,0-11.2c1.4-1.5,3.4-2.3,5.5-2.3
				c2.1,0,4.1,0.8,5.6,2.3c3,3.1,3,8,0,11.1C167.7,126.5,165.7,127.4,163.6,127.3L163.6,127.3z M171.5,109.1c-2.1-2-5-3.1-7.9-3
				c-3.6,0-7,1.4-9.6,3.9c-1.2,1.2-2.2,2.7-2.9,4.3c-1.4,3.4-1.4,7.2,0,10.5c0.7,1.6,1.6,3,2.9,4.3c1.2,1.2,2.7,2.2,4.3,2.8
				c1.7,0.7,3.5,1,5.3,1c2.9,0.1,5.8-1,7.9-3v2.3h5.8v-25.6h-5.8L171.5,109.1z"/>
			<path id="Shape_28_" class="st0" d="M205.6,116.8c0.4-1.4,1.3-2.7,2.5-3.7c1.3-1.1,2.9-1.6,4.6-1.6c1.7,0,3.4,0.5,4.7,1.7
				c1.1,0.9,2,2.2,2.3,3.7H205.6z M224.8,114.3c-0.6-1.6-1.5-3-2.7-4.3c-2.9-3-7-4.5-11.2-3.9c-4.1,0.5-7.7,3-9.7,6.7
				c-1.1,2-1.7,4.3-1.7,6.6c-0.1,3.6,1.3,7,3.9,9.5c2.5,2.5,5.9,3.9,9.5,3.9c2.1,0,4.3-0.5,6.2-1.4c1.9-0.9,3.5-2.3,4.7-4l0.2-0.3
				l-4.2-3.2l-0.2,0.3c-0.7,1-1.7,1.9-2.9,2.4c-1.2,0.6-2.5,0.8-3.8,0.8c-1.9,0-3.7-0.6-5.1-1.8c-1.3-1.1-2.1-2.5-2.5-4.1h20.2
				l0-0.4c0.1-0.7,0.1-1.3,0.1-1.7C225.8,117.7,225.5,115.9,224.8,114.3L224.8,114.3z"/>
			<rect id="Rectangle-path" x="182.1" y="106.5" class="st0" width="5.8" height="25.6"/>
			<path id="Shape_29_" class="st0" d="M193.3,107c-2.3,0.9-4.1,2.8-4.8,5.1c2,1.4,4.6,1.8,6.9,0.9c2.3-0.8,4.1-2.7,4.8-5.1
				C198.2,106.5,195.6,106.2,193.3,107"/>
		</g>
	</g>
</g>
</svg>
