<?xml version="1.0" encoding="utf-8"?>
<!-- Generator: Adobe Illustrator 21.0.2, SVG Export Plug-In . SVG Version: 6.00 Build 0)  -->
<svg version="1.1" id="Layer_1" xmlns="http://www.w3.org/2000/svg" xmlns:xlink="http://www.w3.org/1999/xlink" x="0px" y="0px"
	 viewBox="0 0 136 86" style="enable-background:new 0 0 136 86;" xml:space="preserve">
<style type="text/css">
	.st0{fill:#FBF8EF;}
	.st1{fill:#F2979A;}
</style>
<title>Edyn_Stacked Logo</title>
<desc>Created with Sketch.</desc>
<g id="Client-Mobile">
	<g id="Log-in---Mobile" transform="translate(-92.000000, -89.000000)">
		<g id="Edyn_Stacked-Logo" transform="translate(92.000000, 89.000000)">
			<path id="Shape" class="st0" d="M72.5,17.8c-2.2-0.7-4.6-0.3-6.5,1.1c0.7,2.2,2.4,3.9,4.6,4.6c2.2,0.7,4.6,0.3,6.5-1.1
				C76.4,20.3,74.7,18.6,72.5,17.8"/>
			<path id="Shape_1_" class="st0" d="M57.9,29.7c0.6,2.2,2.2,4,4.4,4.8c1.5-1.7,2.1-4,1.6-6.2c-0.6-2.2-2.2-4-4.4-4.8
				C58,25.2,57.4,27.5,57.9,29.7"/>
			<path id="Shape_2_" class="st0" d="M51.9,6.2c-1.6,1.7-2.2,4-1.7,6.2c2.3,0.3,4.6-0.5,6.2-2.1c1.6-1.7,2.2-4,1.7-6.2
				C55.9,3.8,53.6,4.6,51.9,6.2"/>
			<path id="Shape_3_" class="st0" d="M79.2,8.7c-1.2,1.9-1.4,4.3-0.5,6.4c2.3-0.1,4.4-1.3,5.7-3.2c1.2-1.9,1.4-4.3,0.5-6.4
				C82.6,5.6,80.5,6.8,79.2,8.7"/>
			<path id="Shape_4_" class="st0" d="M71.8,0.7c-2.1-1-4.5-1-6.6,0.1C65.6,3.1,67,5,69,6.1c2.1,1,4.5,1,6.6-0.1
				C75.3,3.7,73.9,1.8,71.8,0.7"/>
			<path id="Shape_5_" class="st0" d="M64.8,15.2c1.8-1.4,2.8-3.6,2.7-5.9c-2.2-0.7-4.6-0.3-6.5,1.1c-1.8,1.4-2.8,3.6-2.7,5.9
				C60.6,17,63,16.6,64.8,15.2"/>
			<path id="Shape_6_" class="st0" d="M48.5,38.2c1.3,1.9,3.4,3.1,5.7,3.1c0.9-2.1,0.7-4.5-0.6-6.4c-1.3-1.9-3.4-3.1-5.7-3.1
				C47,33.9,47.3,36.3,48.5,38.2"/>
			<path id="Shape_7_" class="st0" d="M47.3,19.4c-1.9,1.3-3.1,3.4-3.1,5.7c2.2,0.8,4.6,0.6,6.6-0.7c1.9-1.3,3.1-3.4,3.1-5.7
				C51.7,17.9,49.3,18.2,47.3,19.4"/>
			<path id="Shape_8_" class="st0" d="M63.8,47.5c2.2,0.8,4.6,0.6,6.6-0.7c-0.6-2.2-2.1-4-4.3-4.9c-2.2-0.8-4.6-0.6-6.6,0.7
				C60,44.8,61.6,46.7,63.8,47.5"/>
			<path id="Shape_9_" class="st0" d="M85.1,17.3c-2.2,0.7-3.9,2.4-4.6,4.6c1.9,1.4,4.3,1.8,6.5,1.1c2.2-0.7,3.9-2.4,4.6-4.6
				C89.7,17.1,87.3,16.7,85.1,17.3"/>
			<path id="Shape_10_" class="st0" d="M83,33.7c0.9,2.1,2.7,3.7,5,4.2c1.3-1.9,1.6-4.3,0.8-6.4c-0.9-2.1-2.7-3.7-5-4.2
				C82.5,29.1,82.2,31.5,83,33.7"/>
			<path id="Shape_11_" class="st0" d="M74.9,35.8c2.2-0.7,3.9-2.4,4.7-4.5c-1.9-1.4-4.3-1.8-6.5-1.2c-2.2,0.7-3.9,2.4-4.7,4.5
				C70.2,36,72.6,36.4,74.9,35.8"/>
			<path id="Shape_12_" class="st0" d="M81.1,45.1c1.7-1.5,2.6-3.7,2.4-6c-2.2-0.6-4.6,0-6.4,1.4c-1.7,1.5-2.6,3.7-2.4,6
				C76.9,47.1,79.3,46.5,81.1,45.1"/>
			<path id="Shape_13_" class="st1" d="M74.3,12.4c0,0.9-0.8,1.7-1.7,1.7s-1.7-0.8-1.7-1.7c0-0.9,0.8-1.7,1.7-1.7
				S74.3,11.5,74.3,12.4"/>
			<path id="Shape_14_" class="st1" d="M63.8,5c0,0.9-0.8,1.7-1.7,1.7c-0.9,0-1.7-0.8-1.7-1.7s0.8-1.7,1.7-1.7C63,3.3,63.7,4,63.8,5
				"/>
			<path id="Shape_15_" class="st1" d="M70.7,27.3c0,0.9-0.8,1.7-1.7,1.7c-0.9,0-1.7-0.8-1.7-1.7s0.8-1.7,1.7-1.7
				C70,25.7,70.7,26.4,70.7,27.3"/>
			<path id="Shape_16_" class="st1" d="M59.3,20.1c0,0.7-0.4,1.3-1,1.6c-0.6,0.3-1.4,0.1-1.9-0.4c-0.5-0.5-0.6-1.2-0.4-1.8
				c0.3-0.6,0.9-1,1.6-1C58.6,18.4,59.3,19.2,59.3,20.1"/>
			<path id="Shape_17_" class="st1" d="M53.5,28.5c0,0.9-0.8,1.7-1.7,1.7s-1.7-0.8-1.7-1.7s0.8-1.7,1.7-1.7S53.5,27.6,53.5,28.5"/>
			<path id="Shape_18_" class="st1" d="M80.8,26c0,0.7-0.4,1.3-1,1.6c-0.6,0.3-1.4,0.1-1.9-0.4c-0.5-0.5-0.6-1.2-0.4-1.8
				c0.3-0.6,0.9-1,1.6-1C80,24.3,80.8,25.1,80.8,26"/>
			<path id="Shape_19_" class="st1" d="M92,25.7c0,0.7-0.4,1.3-1,1.6s-1.4,0.1-1.9-0.4c-0.5-0.5-0.6-1.2-0.4-1.8
				c0.3-0.6,0.9-1,1.6-1C91.2,24,92,24.7,92,25.7"/>
			<path id="Shape_20_" class="st1" d="M72.6,39.6c0,0.7-0.4,1.3-1,1.6s-1.4,0.1-1.9-0.4c-0.5-0.5-0.6-1.2-0.4-1.8s0.9-1,1.6-1
				C71.8,37.9,72.6,38.6,72.6,39.6"/>
			<path id="Shape_21_" class="st1" d="M60.7,37.9c0,0.9-0.8,1.7-1.7,1.7c-0.9,0-1.7-0.8-1.7-1.7c0-0.9,0.8-1.7,1.7-1.7
				C59.9,36.2,60.7,37,60.7,37.9"/>
			<path id="Shape_22_" class="st0" d="M4,70.2c0.3-0.9,0.8-1.6,1.5-2.2c0.8-0.6,1.8-1,2.8-1c1,0,2.1,0.3,2.8,1
				c0.7,0.6,1.2,1.3,1.4,2.2L4,70.2z M13.9,66.2c-1.7-1.8-4.2-2.7-6.7-2.4c-2.5,0.3-4.7,1.8-5.9,4c-0.7,1.2-1,2.6-1,4
				c0,2.1,0.8,4.2,2.4,5.7c1.5,1.5,3.6,2.3,5.7,2.3c1.3,0,2.6-0.3,3.7-0.9c1.1-0.5,2.1-1.4,2.8-2.4l0.1-0.2l-2.5-1.9l-0.1,0.2
				c-0.4,0.6-1,1.1-1.7,1.4c-0.7,0.3-1.5,0.5-2.3,0.5c-1.1,0-2.2-0.4-3-1.1c-0.8-0.6-1.3-1.5-1.5-2.5H16l0-0.2
				c0-0.4,0.1-0.8,0.1-1.1C16.1,69.7,15.3,67.7,13.9,66.2z"/>
			<path id="Shape_23_" class="st0" d="M25.9,76.6c-1.3,0-2.5-0.5-3.3-1.4c-1.8-1.9-1.8-4.8,0-6.7c0.9-0.9,2.1-1.4,3.3-1.4
				c1.3,0,2.5,0.5,3.3,1.4c1.8,1.9,1.8,4.8,0,6.7C28.3,76.1,27.1,76.6,25.9,76.6L25.9,76.6z M30.6,65.6c-1.3-1.2-3-1.9-4.8-1.8
				c-2.2,0-4.2,0.8-5.8,2.3c-0.7,0.7-1.3,1.6-1.7,2.6c-0.9,2-0.9,4.3,0,6.3c0.4,1,1,1.8,1.7,2.6c0.7,0.7,1.6,1.3,2.6,1.7
				c1,0.4,2.1,0.6,3.2,0.6c1.8,0.1,3.5-0.6,4.8-1.8v1.4h3.5V55.7h-3.5L30.6,65.6z"/>
			<polygon id="Shape_24_" class="st0" points="47.5,64.1 43.6,74.8 39.6,64.2 39.5,64.1 35.7,64.1 41.9,79.5 39.6,86 43.1,86 
				51,64.1 			"/>
			<path id="Shape_25_" class="st0" d="M60.4,63.8c-0.9,0-1.8,0.1-2.6,0.5c-0.5,0.3-1.1,0.6-1.5,1v-1.3h-3.5v15.4h3.5v-7.8
				c0-3,1.2-4.5,3.6-4.5c2.3,0,3.4,1.4,3.4,4.3v8.1h3.5v-8.7c0-2.3-0.6-4.1-1.8-5.2S62.4,63.8,60.4,63.8"/>
			<path id="Shape_26_" class="st0" d="M85.9,74.3c-1.1,1.8-3.2,2.6-5.2,2s-3.4-2.4-3.4-4.5c0-1.2,0.5-2.5,1.3-3.3
				c0.8-0.9,2-1.4,3.3-1.4c0.8,0,1.6,0.2,2.3,0.6c0.7,0.4,1.2,0.9,1.7,1.6l0.1,0.2l3-1.7l-0.1-0.2c-0.7-1.1-1.7-2.1-2.9-2.7
				c-2.9-1.7-6.6-1.3-9.2,0.9c-2.6,2.2-3.5,5.8-2.3,8.9c1.2,3.2,4.2,5.3,7.6,5.3c2.8,0,5.4-1.4,6.9-3.8l0.1-0.2l-2.9-1.7L85.9,74.3z
				"/>
			<path id="Shape_27_" class="st0" d="M98.4,76.6c-1.3,0-2.5-0.5-3.3-1.4c-1.8-1.9-1.8-4.8,0-6.7c0.9-0.9,2.1-1.4,3.3-1.4
				c1.3,0,2.5,0.5,3.3,1.4c1.8,1.9,1.8,4.8,0,6.7C100.9,76.1,99.7,76.6,98.4,76.6L98.4,76.6z M103.2,65.6c-1.3-1.2-3-1.9-4.8-1.8
				c-2.2,0-4.2,0.8-5.8,2.3c-0.7,0.7-1.3,1.6-1.7,2.6c-0.9,2-0.9,4.3,0,6.3c0.4,1,1,1.8,1.7,2.6c0.7,0.7,1.6,1.3,2.6,1.7
				c1,0.4,2.1,0.6,3.2,0.6c1.8,0.1,3.5-0.6,4.8-1.8v1.4h3.5V64.1h-3.5L103.2,65.6z"/>
			<path id="Shape_28_" class="st0" d="M123.7,70.2c0.3-0.9,0.8-1.6,1.5-2.2c0.8-0.6,1.8-1,2.8-1c1,0,2,0.3,2.8,1
				c0.7,0.6,1.2,1.3,1.4,2.2H123.7z M135.3,68.8c-0.4-0.9-0.9-1.8-1.6-2.6c-1.7-1.8-4.2-2.7-6.7-2.4c-2.5,0.3-4.7,1.8-5.9,4
				c-0.7,1.2-1,2.6-1,4c0,2.1,0.8,4.2,2.4,5.7c1.5,1.5,3.6,2.4,5.7,2.3c1.3,0,2.6-0.3,3.7-0.9c1.1-0.5,2.1-1.4,2.8-2.4l0.1-0.2
				l-2.5-1.9l-0.1,0.2c-0.4,0.6-1,1.1-1.7,1.4c-0.7,0.3-1.5,0.5-2.3,0.5c-1.1,0-2.2-0.4-3-1.1c-0.8-0.6-1.3-1.5-1.5-2.5h12.2l0-0.2
				c0-0.4,0.1-0.8,0.1-1.1C135.9,70.8,135.7,69.7,135.3,68.8L135.3,68.8z"/>
			<rect id="Rectangle-path" x="109.6" y="64.1" class="st0" width="3.5" height="15.4"/>
			<path id="Shape_29_" class="st0" d="M116.3,64.3c-1.4,0.5-2.5,1.7-2.9,3.1c1.2,0.8,2.8,1.1,4.2,0.6s2.5-1.6,2.9-3.1
				C119.3,64.1,117.7,63.9,116.3,64.3"/>
		</g>
	</g>
</g>
</svg>
