<svg id="Layer_1" data-name="Layer 1" xmlns="http://www.w3.org/2000/svg" viewBox="0 0 2734 2863"><defs><style>.cls-1{fill:#fff;}</style></defs><title>Edyn_Leaves</title><path class="cls-1" d="M1083.84,1830.12c3.87,9,12,15,21.54,17.14s-9.7-42.4-19.26-44.58C1081.13,1811.15,1080,1821.16,1083.84,1830.12Z"/><path class="cls-1" d="M1279.13,1416.44c3.7-9,2.35-19-2.8-27.39s-23.55,36.57-18.42,44.93C1267.45,1431.64,1275.43,1425.48,1279.13,1416.44Z"/><path class="cls-1" d="M1297.13,816.44c3.7-9,2.35-19-2.8-27.39s-23.55,36.57-18.42,44.93C1285.45,831.64,1293.43,825.48,1297.13,816.44Z"/><path class="cls-1" d="M1174.83,1149.34c-7.72-6-17.71-7.33-27.14-4.6s29,32.44,38.4,29.72C1186.36,1164.65,1182.55,1155.32,1174.83,1149.34Z"/><path class="cls-1" d="M1825,1863.77c3.89,9,12,15,21.57,17.11s-9.77-42.39-19.33-44.54C1822.29,1844.8,1821.14,1854.82,1825,1863.77Z"/><path class="cls-1" d="M1567.6,2010.87c.34-9.76-4.4-18.66-12.13-24.71s-9.39,42.47-1.68,48.53C1561.92,2029.18,1567.26,2020.63,1567.6,2010.87Z"/><path class="cls-1" d="M1402.55,2166c-9.39-2.67-19.17-.21-26.9,5.83s39,19.32,46.7,13.3C1419,2175.87,1411.95,2168.63,1402.55,2166Z"/><path class="cls-1" d="M1173.86,2054.41c5.94,7.75,15.26,11.6,25.07,11.37s-19.75-38.76-29.55-38.53C1166.61,2036.67,1167.91,2046.66,1173.86,2054.41Z"/><path class="cls-1" d="M913.5,1890.86c-6.42-7.36-16-10.62-25.74-9.77s22.15,37.44,31.92,36.6C921.85,1908.11,919.91,1898.22,913.5,1890.86Z"/><path class="cls-1" d="M1495.5,1746.86c-6.42-7.36-16-10.62-25.74-9.77s22.15,37.44,31.92,36.6C1503.85,1764.11,1501.91,1754.22,1495.5,1746.86Z"/><path class="cls-1" d="M519.89,1939.31c-3.37,9.17-1.64,19.1,3.8,27.27s22.19-37.41,16.75-45.58C531,1923.69,523.25,1930.14,519.89,1939.31Z"/><path class="cls-1" d="M769.63,1714.83c-4.65-8.58-13.25-13.85-23-15.16s13.42,41.38,23.14,42.69C774,1733.49,774.28,1723.42,769.63,1714.83Z"/><path class="cls-1" d="M629.69,1540.37c-3-9.29-10.51-16-19.85-19.08s5.7,43.12,15,46.18C630.61,1559.51,632.71,1549.65,629.69,1540.37Z"/><path class="cls-1" d="M548.63,1481c-.28,9.76,4.51,18.63,12.27,24.65s9.15-42.52,1.41-48.54C554.2,1462.65,548.91,1471.23,548.63,1481Z"/><path class="cls-1" d="M859.45,1285.88c-5.6,8-6.47,18-3.29,27.33s31-30.5,27.85-39.78C874.19,1273.62,865.05,1277.88,859.45,1285.88Z"/><path class="cls-1" d="M634.92,1118c-9,3.71-15.19,11.68-17.54,21.22s42.58-8.91,44.93-18.43C653.94,1115.63,644,1114.28,634.92,1118Z"/><path class="cls-1" d="M1020.92,719c-9,3.71-15.19,11.68-17.54,21.22s42.58-8.91,44.93-18.43C1039.94,716.63,1030,715.28,1020.92,719Z"/><path class="cls-1" d="M789.77,907.62c4.84-8.48,4.79-18.56.77-27.52s-28.08,33.22-24.07,42.17C776.22,921.18,784.93,916.1,789.77,907.62Z"/><path class="cls-1" d="M1140.14,1521.58c9.28,3,19.14,1,27.12-4.75s-38.17-20.87-46.13-15.15C1124.15,1511,1130.87,1518.54,1140.14,1521.58Z"/><path class="cls-1" d="M1350.59,1104.54c.19-9.76-4.68-18.59-12.49-24.53s-8.76,42.61-1,48.55C1345.18,1122.93,1350.39,1114.3,1350.59,1104.54Z"/><path class="cls-1" d="M1777.83,941.34c-7.72-6-17.71-7.33-27.14-4.6s29,32.44,38.4,29.72C1789.36,956.65,1785.55,947.32,1777.83,941.34Z"/><path class="cls-1" d="M1953.59,896.54c.19-9.76-4.68-18.59-12.49-24.53s-8.76,42.61-1,48.55C1948.18,914.93,1953.39,906.3,1953.59,896.54Z"/><path class="cls-1" d="M1515.9,1293.16c8.76-4.31,14.37-12.68,16.07-22.35s-41.88,11.76-43.58,21.42C1497.08,1296.79,1507.14,1297.47,1515.9,1293.16Z"/><path class="cls-1" d="M1371.71,620.7c-7.69,6-11.45,15.37-11.11,25.19s38.55-20.14,38.23-29.94C1389.38,613.27,1379.4,614.68,1371.71,620.7Z"/><path class="cls-1" d="M1854.91,1320.35c-7.78,5.9-11.69,15.19-11.52,25s38.87-19.52,38.7-29.32C1872.7,1313.2,1862.7,1314.45,1854.91,1320.35Z"/><path class="cls-1" d="M1834.32,641.41c-9.6,1.76-17.28,8.3-21.53,17.15s43.5.05,47.76-8.78C1853.42,643,1843.92,639.65,1834.32,641.41Z"/><path class="cls-1" d="M1648.49,1513.86c-5,8.39-5.14,18.47-1.29,27.5s28.71-32.68,24.87-41.7C1662.29,1500.57,1653.49,1505.48,1648.49,1513.86Z"/><path class="cls-1" d="M1084.8,1353.55c-7.08,6.72-9.94,16.39-8.68,26.13s36.47-23.7,35.22-33.43C1101.69,1344.48,1091.88,1346.83,1084.8,1353.55Z"/><path class="cls-1" d="M2250.1,1320.08c9.76.25,18.62-4.56,24.61-12.34s-42.55-9-48.54-1.26C2231.74,1314.56,2240.34,1319.83,2250.1,1320.08Z"/><path class="cls-1" d="M1744.1,1169.08c9.76.25,18.62-4.56,24.61-12.34s-42.55-9-48.54-1.26C1725.74,1163.56,1734.34,1168.83,1744.1,1169.08Z"/><path class="cls-1" d="M2150.74,1523.29c9.76-.11,18.44-5.24,24.14-13.24s-42.85-7.45-48.56.53C2132.19,1518.44,2141,1523.39,2150.74,1523.29Z"/><path class="cls-1" d="M2361.1,1509.77c-1.07-9.71-7-17.83-15.56-22.71s-3.17,43.38,5.33,48.27C2358.12,1528.71,2362.17,1519.48,2361.1,1509.77Z"/><path class="cls-1" d="M1996.12,1543.26c9.12-3.48,15.47-11.31,18-20.79s-42.78,7.87-45.36,17.33C1977,1545.15,1987,1546.75,1996.12,1543.26Z"/><path class="cls-1" d="M2057.06,1989.71c-9.65,1.51-17.49,7.84-22,16.57s43.48,1.22,48-7.49C2076.11,1991.84,2066.71,1988.2,2057.06,1989.71Z"/><path class="cls-1" d="M1974.3,2073.12c-9-3.74-19-2.43-27.4,2.67s36.47,23.71,44.85,18.62C1989.45,2084.87,1983.32,2076.86,1974.3,2073.12Z"/><path class="cls-1" d="M1802.78,2060.5c-3.87-9-12-15-21.54-17.15s9.69,42.41,19.25,44.58C1805.48,2079.47,1806.65,2069.46,1802.78,2060.5Z"/><path class="cls-1" d="M1688.25,2415.61c-8.42,4.94-13.4,13.7-14.39,23.47s40.9-14.8,41.89-24.55C1706.76,2410.62,1696.68,2410.68,1688.25,2415.61Z"/><path class="cls-1" d="M1530.2,2445.2c6.84,7,16.56,9.66,26.27,8.23s-24.33-36.06-34-34.64C1520.84,2428.47,1523.36,2438.23,1530.2,2445.2Z"/><path class="cls-1" d="M1344.31,2438.09c6.59-7.2,8.76-17.05,6.81-26.67s-34.71,26.22-32.77,35.83C1328.11,2448.33,1337.72,2445.29,1344.31,2438.09Z"/><path class="cls-1" d="M529,2420.54c-2,9.55,1.08,19.14,7.63,26.45s16.65-40.18,10.12-47.49C537.74,2403.5,531,2411,529,2420.54Z"/><path class="cls-1" d="M293.78,2190.28c-8.27,5.18-13,14.09-13.68,23.89s40.45-16,41.15-25.78C312.13,2184.74,302.05,2185.1,293.78,2190.28Z"/><path class="cls-1" d="M222.79,2105.85c-1.26-9.68-7.39-17.69-16-22.4s-2.33,43.44,6.26,48.15C220.17,2124.84,224,2115.54,222.79,2105.85Z"/><path class="cls-1" d="M370,2041.78c-8.45-4.89-18.53-4.89-27.51-.92s33.06,28.27,42,24.31C383.53,2055.41,378.5,2046.67,370,2041.78Z"/><path class="cls-1" d="M333.31,1630.61c-9.76-.25-18.62,4.57-24.6,12.35s42.55,9,48.54,1.25C351.67,1636.13,343.08,1630.86,333.31,1630.61Z"/><path class="cls-1" d="M207.57,1477.13c9.56,2,19.13-1.15,26.42-7.73s-40.25-16.5-47.53-9.94C190.5,1468.41,198,1475.13,207.57,1477.13Z"/><path class="cls-1" d="M179.34,1532.91c.52,9.75,6,18.19,14.26,23.55s5.61-43.13-2.61-48.49C183.38,1514.18,178.81,1523.16,179.34,1532.91Z"/><path class="cls-1" d="M176.5,1529.14c2.46,9.45,9.55,16.62,18.68,20.22s-3.14-43.38-12.26-47C176.71,1510,174,1519.69,176.5,1529.14Z"/><path class="cls-1" d="M291.24,1096.85c-3,9.3-.84,19.15,4.94,27.08s20.6-38.31,14.83-46.24C301.69,1080.78,294.22,1087.55,291.24,1096.85Z"/><path class="cls-1" d="M322.53,1015.56c7.22-6.58,10.27-16.19,9.2-25.95s-36.94,23-35.88,32.72C305.47,1024.29,315.32,1022.14,322.53,1015.56Z"/><path class="cls-1" d="M437,966.19c8.44,4.9,18.53,4.92,27.51,1s-33-28.32-42-24.38C423.56,952.54,428.57,961.29,437,966.19Z"/><path class="cls-1" d="M458.57,695.1c-2.92,9.32-.72,19.15,5.12,27s20.35-38.44,14.53-46.33C468.91,679,461.49,685.79,458.57,695.1Z"/><path class="cls-1" d="M722.73,621.78c1.61,9.63,8,17.4,16.81,21.8s.74-43.49-8-47.89C724.65,602.71,721.12,612.15,722.73,621.78Z"/><path class="cls-1" d="M638.87,543.38c2.83-9.34.54-19.16-5.38-27s-20,38.64-14.08,46.47C628.68,559.61,636,552.72,638.87,543.38Z"/><path class="cls-1" d="M615.51,469.21c-3.07,9.27-1,19.14,4.69,27.13s21-38.12,15.26-46.1C626.12,453.24,618.58,459.94,615.51,469.21Z"/><path class="cls-1" d="M1076.88,344.43c7.87-5.78,11.92-15,11.88-24.83s-39.16,18.95-39.13,28.75C1059,351.32,1069,350.21,1076.88,344.43Z"/><path class="cls-1" d="M1008.4,405.27c6.23,7.52,15.68,11,25.48,10.42s-21.19-38-31-37.39C1000.48,387.82,1002.17,397.75,1008.4,405.27Z"/><path class="cls-1" d="M1303.24,504.06c8.57,4.68,18.65,4.44,27.53.26S1297,476.86,1288.16,481C1289.44,490.77,1294.68,499.38,1303.24,504.06Z"/><path class="cls-1" d="M1448,88.55c-9.51,2.22-16.86,9.11-20.7,18.15s43.45-2,47.29-11C1467.17,89.26,1457.53,86.33,1448,88.55Z"/><path class="cls-1" d="M1459.79,253.05c9.41-2.62,16.46-9.82,19.91-19s-43.33,3.84-46.78,13C1440.62,253.15,1450.38,255.67,1459.79,253.05Z"/><path class="cls-1" d="M1684.6,277.91c9.63-1.64,17.38-8.07,21.76-16.86s-43.49-.63-47.87,8.14C1665.52,276,1675,279.55,1684.6,277.91Z"/><path class="cls-1" d="M2000.59,429.25c-7.11,6.7-10,16.35-8.77,26.09s36.56-23.57,35.34-33.3C2017.5,420.24,2007.69,422.55,2000.59,429.25Z"/><path class="cls-1" d="M2103.3,1123.94c-6.3,7.46-8.09,17.38-5.76,26.92s33.66-27.55,31.35-37.08C2119.09,1113.07,2109.6,1116.48,2103.3,1123.94Z"/><path class="cls-1" d="M2158.41,363c3.25-9.21,1.41-19.12-4.14-27.22s-21.72,37.69-16.18,45.78C2147.49,378.73,2155.16,372.19,2158.41,363Z"/><path class="cls-1" d="M2313.44,507.3c.64-9.74-3.82-18.78-11.36-25.08s-10.7,42.16-3.18,48.45C2307.19,525.42,2312.8,517,2313.44,507.3Z"/><path class="cls-1" d="M2465.28,1407.82c-2.1,9.54.95,19.14,7.45,26.5s16.93-40.07,10.45-47.42C2474.18,1390.85,2467.38,1398.29,2465.28,1407.82Z"/><path class="cls-1" d="M2072.64,1276.31c2.25,9.5,9.18,16.83,18.23,20.63s-2.17-43.44-11.21-47.25C2073.28,1257.16,2070.39,1266.81,2072.64,1276.31Z"/><path class="cls-1" d="M2354.11,1151.6c-5.25,8.24-5.68,18.31-2.1,27.45s29.65-31.82,26.09-41C2368.3,1138.72,2359.36,1143.37,2354.11,1151.6Z"/><path class="cls-1" d="M2425.62,1119.78c-6.48,7.3-8.51,17.18-6.42,26.77s34.32-26.73,32.24-36.31C2441.67,1109.3,2432.1,1112.48,2425.62,1119.78Z"/><path class="cls-1" d="M2654.7,1384.38c-2.27-9.5-9.2-16.82-18.26-20.6s2.23,43.44,11.27,47.23C2654.09,1403.53,2657,1393.87,2654.7,1384.38Z"/><path class="cls-1" d="M2485,1598c-6.62-7.17-16.25-10.16-26-9s23.2,36.79,32.94,35.68C2493.86,1615,2491.64,1605.21,2485,1598Z"/><path class="cls-1" d="M2385.75,1822.17c4.79,8.51,13.46,13.64,23.21,14.8s-14.07-41.16-23.8-42.32C2381.08,1803.58,2381,1813.66,2385.75,1822.17Z"/><path class="cls-1" d="M2480.75,2017.43c-8.92-4-18.94-2.94-27.46,1.95s35.83,24.67,44.34,19.8C2495.58,2029.57,2489.67,2021.41,2480.75,2017.43Z"/><path class="cls-1" d="M2249.76,2025.81c9.15,3.4,19.09,1.7,27.28-3.72s-37.35-22.3-45.53-16.89C2234.17,2014.65,2240.6,2022.42,2249.76,2025.81Z"/><path class="cls-1" d="M2548.18,2266.88c8.84-4.14,14.61-12.41,16.49-22s-42.09,11-44,20.58C2529.29,2270.15,2539.34,2271,2548.18,2266.88Z"/><path class="cls-1" d="M2269,2471.36c-3.06-9.27-10.58-16-19.92-19s5.87,43.1,15.2,46.12C2270,2490.5,2272.09,2480.63,2269,2471.36Z"/><path class="cls-1" d="M2157,2435c-9.76-.43-18.7,4.23-24.83,11.9s42.38,9.78,48.51,2.13C2175.29,2440.84,2166.8,2435.42,2157,2435Z"/><path class="cls-1" d="M1927.34,2474.27c-7.57,6.17-11.15,15.59-10.62,25.4s38.16-20.88,37.64-30.68C1944.86,2466.5,1934.91,2468.1,1927.34,2474.27Z"/><path class="cls-1" d="M1920.57,2610.59c-8.77-4.28-18.83-3.58-27.51,1s35,25.88,43.63,21.31C1935,2623.24,1929.34,2614.88,1920.57,2610.59Z"/><path class="cls-1" d="M1795.07,2728.63c-4.52,8.65-4.09,18.73.26,27.53s26.82-34.24,22.48-43C1808.1,2714.57,1799.59,2720,1795.07,2728.63Z"/><path class="cls-1" d="M1508.06,2603.32c3-9.3.85-19.15-4.93-27.08s-20.61,38.3-14.85,46.23C1497.6,2619.39,1505.08,2612.62,1508.06,2603.32Z"/><path class="cls-1" d="M1509.35,2688.22c-4-8.9-12.2-14.78-21.81-16.79s10.38,42.24,20,44.26C1512.35,2707.15,1513.36,2697.12,1509.35,2688.22Z"/><path class="cls-1" d="M1296.4,2514.09c-6.14-7.59-15.56-11.2-25.36-10.71s20.76,38.22,30.56,37.74C1304.12,2531.63,1302.55,2521.68,1296.4,2514.09Z"/><path class="cls-1" d="M1200.58,2792.4c7.51-6.24,11-15.7,10.38-25.5s-38,21.24-37.35,31C1183.13,2800.34,1193.07,2798.64,1200.58,2792.4Z"/><path class="cls-1" d="M1074.52,2496.24c.28,9.76,5.58,18.34,13.67,23.89s6.67-43-1.41-48.54C1079,2477.6,1074.24,2486.47,1074.52,2496.24Z"/><path class="cls-1" d="M1057.55,2543.35c.88-9.72-3.36-18.87-10.73-25.35s-11.74,41.88-4.38,48.36C1050.86,2561.31,1056.67,2553.08,1057.55,2543.35Z"/><path class="cls-1" d="M825.89,2405.49c-8.89,4-14.76,12.23-16.76,21.84s42.22-10.45,44.23-20C844.81,2402.45,834.78,2401.46,825.89,2405.49Z"/><path class="cls-1" d="M518.57,2415.49c9.17-3.34,15.65-11.07,18.37-20.5s-42.9,7.2-45.63,16.62C499.47,2417.08,509.39,2418.83,518.57,2415.49Z"/></svg>