<?xml version="1.0" encoding="utf-8"?>
<!-- Generator: Adobe Illustrator 21.0.2, SVG Export Plug-In . SVG Version: 6.00 Build 0)  -->
<svg version="1.1" id="Layer_1" xmlns="http://www.w3.org/2000/svg" xmlns:xlink="http://www.w3.org/1999/xlink" x="0px" y="0px"
	 viewBox="0 0 1437 1010" style="enable-background:new 0 0 1437 1010;" xml:space="preserve">
<style type="text/css">
	.st0{opacity:7.387908e-02;}
	.st1{fill:#FBF8EF;}
</style>
<title>Edyn_Leaves</title>
<desc>Created with Sketch.</desc>
<g id="Client-Mobile" class="st0">
	<g id="Log-in--Desktop" transform="translate(-3.000000, -21.000000)">
		<g id="Edyn_Leaves" transform="translate(3.000000, -285.000000)">
			<path id="Shape" class="st1" d="M662.7,800.3c2.3-5.5,1.5-11.6-1.7-16.7c-3.2-5.1-14.6,22.3-11.4,27.4
				C655.5,809.6,660.4,805.8,662.7,800.3z"/>
			<path id="Shape_1_" class="st1" d="M599.2,639.6c-4.6-3.6-10.7-4.5-16.3-2.8s17.4,19.7,23.1,18.1
				C606.2,648.9,603.9,643.3,599.2,639.6z"/>
			<path id="Shape_2_" class="st1" d="M836,1157.9c0.2-5.8-2.6-11-7.1-14.6s-5.5,25.1-1,28.7C832.7,1168.7,835.8,1163.7,836,1157.9z
				"/>
			<path id="Shape_3_" class="st1" d="M598.6,1185.9c3.6,4.8,9.3,7.2,15.2,7.1c6-0.1-12-24.1-18-24
				C594.2,1174.9,595,1181.1,598.6,1185.9z"/>
			<path id="Shape_4_" class="st1" d="M792.7,999.9c-3.9-4.4-9.7-6.4-15.6-5.8c-5.9,0.5,13.4,22.4,19.4,21.9
				C797.8,1010.3,796.6,1004.3,792.7,999.9z"/>
			<path id="Shape_5_" class="st1" d="M355,980.2c-2.7-5.2-7.8-8.4-13.6-9.2c-5.8-0.8,7.9,25.2,13.7,26
				C357.6,991.6,357.7,985.5,355,980.2z"/>
			<path id="Shape_6_" class="st1" d="M222,839.1c-0.2,5.8,2.6,11,7.2,14.6c4.5,3.6,5.3-25.1,0.8-28.7
				C225.3,828.3,222.2,833.3,222,839.1z"/>
			<path id="Shape_7_" class="st1" d="M273.6,621.3c-5.4,2.3-9.1,7.2-10.5,13.1c-1.4,5.9,25.5-5.5,26.9-11.3
				C285,619.8,279,619,273.6,621.3z"/>
			<path id="Shape_8_" class="st1" d="M367.7,494.2c3-5.1,3-11.1,0.5-16.5c-2.5-5.4-17.4,19.9-14.9,25.3
				C359.3,502.3,364.7,499.3,367.7,494.2z"/>
			<path id="Shape_9_" class="st1" d="M705,611.8c0.1-5.8-2.7-11-7.3-14.5c-4.6-3.5-5.1,25.2-0.6,28.7
				C701.8,622.7,704.9,617.6,705,611.8z"/>
			<path id="Shape_10_" class="st1" d="M1068,487.8c0.1-5.8-2.7-11-7.3-14.5c-4.6-3.5-5.1,25.2-0.6,28.7
				C1064.8,498.7,1067.9,493.6,1068,487.8z"/>
			<path id="Shape_11_" class="st1" d="M719,321.6c-4.8,3.6-7.2,9.3-7,15.2c0.2,5.9,24.2-12.1,24-18
				C730.1,317.2,723.8,318,719,321.6z"/>
			<path id="Shape_12_" class="st1" d="M996.2,334.3c-5.8,1-10.4,4.7-13,9.7c-2.6,5,26.3,0,28.8-4.9
				C1007.7,335.2,1002,333.3,996.2,334.3z"/>
			<path id="Shape_13_" class="st1" d="M545.3,763.6c-4.2,3.9-5.9,9.6-5.1,15.3c0.7,5.7,21.5-13.9,20.8-19.6
				C555.3,758.3,549.5,759.7,545.3,763.6z"/>
			<path id="Shape_14_" class="st1" d="M942.1,651c5.8,0.1,11-2.7,14.5-7.2c3.5-4.5-25.2-5.3-28.7-0.7
				C931.3,647.8,936.4,650.8,942.1,651z"/>
			<path id="Shape_15_" class="st1" d="M1312.9,856.8c-0.6-5.8-4.2-10.6-9.3-13.5c-5.1-2.9-1.9,25.9,3.2,28.8
				C1311.1,868.1,1313.5,862.5,1312.9,856.8z"/>
			<path id="Shape_16_" class="st1" d="M1131.4,1146.2c-5.8,0.9-10.5,4.5-13.2,9.6c-2.7,5,26.1,0.7,28.8-4.3
				C1142.8,1147.4,1137.2,1145.3,1131.4,1146.2z"/>
			<path id="Shape_17_" class="st1" d="M977.6,1188.4c-2.3-5.4-7.3-9.1-13-10.4s5.9,25.6,11.7,27
				C979.2,1199.9,979.9,1193.8,977.6,1188.4z"/>
			<path id="Shape_18_" class="st1" d="M26.9,1215.6c-0.7-5.8-4.4-10.6-9.4-13.4c-5.1-2.8-1.4,26,3.7,28.8
				C25.3,1227,27.6,1221.4,26.9,1215.6z"/>
			<path id="Shape_19_" class="st1" d="M91.8,930c-5.8-0.1-11,2.7-14.5,7.2s25.2,5.3,28.7,0.7C102.7,933.2,97.6,930.2,91.8,930z"/>
			<path id="Shape_20_" class="st1" d="M0,870.8c0.3,5.8,3.4,10.8,8.1,14c4.7,3.2,3.2-25.6-1.5-28.8C2.3,859.7-0.3,865,0,870.8z"/>
			<path id="Shape_21_" class="st1" d="M66.8,607.4c-1.7,5.5-0.5,11.4,2.9,16.1c3.4,4.7,11.9-22.7,8.6-27.5
				C72.8,597.8,68.5,601.9,66.8,607.4z"/>
			<path id="Shape_22_" class="st1" d="M155.7,529.7c5.1,3,11.1,3,16.5,0.6c5.4-2.4-19.8-17.4-25.2-15
				C147.6,521.3,150.6,526.6,155.7,529.7z"/>
			<path id="Shape_23_" class="st1" d="M327.2,321.7c0.9,5.8,4.6,10.5,9.6,13.1s0.4-26.2-4.6-28.8
				C328.3,310.2,326.3,315.9,327.2,321.7z"/>
			<path id="Shape_24_" class="st1" d="M1158.9,625.4c-3.7,4.6-4.7,10.8-3.4,16.7c1.4,5.9,19.7-17.1,18.4-23
				C1168.2,618.6,1162.6,620.7,1158.9,625.4z"/>
			<path id="Shape_25_" class="st1" d="M1140.4,716.3c1.3,5.8,5.3,10.3,10.6,12.6c5.3,2.3-1.3-26.5-6.5-28.9
				C1140.8,704.6,1139.1,710.5,1140.4,716.3z"/>
			<path id="Shape_26_" class="st1" d="M1352.4,621.6c-3.9,4.2-5.1,9.9-3.9,15.5c1.3,5.5,20.7-15.4,19.5-21
				C1362,615.5,1356.3,617.4,1352.4,621.6z"/>
			<path id="Shape_27_" class="st1" d="M1388.5,909.4c-3.9-4.2-9.6-5.9-15.4-5.3c-5.8,0.7,13.8,21.5,19.5,20.8
				C1393.7,919.3,1392.4,913.6,1388.5,909.4z"/>
			<path id="Shape_28_" class="st1" d="M1386,1162.5c-5.3-2.4-11.3-1.8-16.3,1.2c-5.1,2.9,21.3,14.8,26.4,11.9
				C1394.8,1169.8,1391.3,1164.9,1386,1162.5z"/>
			<path id="Shape_29_" class="st1" d="M1426.9,1314.3c5.4-2.6,9-7.8,10.1-13.8c1.2-6-25.8,6.9-27,12.9
				C1415.3,1316.4,1421.4,1316.9,1426.9,1314.3z"/>
		</g>
	</g>
</g>
</svg>
