<?xml version="1.0" encoding="UTF-8"?>
<svg width="100px" height="63px" viewBox="0 0 100 63" version="1.1" xmlns="http://www.w3.org/2000/svg" xmlns:xlink="http://www.w3.org/1999/xlink">
    <!-- Generator: Sketch 51.2 (57519) - http://www.bohemiancoding.com/sketch -->
    <title>Combined Shape</title>
    <desc>Created with Sketch.</desc>
    <defs></defs>
    <g id="logo" stroke="none" stroke-width="1" fill="none" fill-rule="evenodd">
        <g id="Artboard" transform="translate(-1369.000000, -1457.000000)" fill="#FBF8EF">
            <path d="M1370.6758,1485.73022 C1386.78387,1466.57674 1402.89193,1457 1419,1457 C1435.10807,1457 1451.21614,1466.57674 1467.3242,1485.73023 C1468.90842,1487.61396 1468.88607,1490.37047 1467.2715,1492.22827 C1451.181,1510.74276 1435.0905,1520 1419,1520 C1402.9095,1520 1386.819,1510.74276 1370.7285,1492.22827 C1369.11393,1490.37048 1369.09158,1487.61396 1370.6758,1485.73022 Z M1385.43612,1486.49946 C1384.29164,1487.85692 1384.30779,1489.84609 1385.47414,1491.18481 C1396.98357,1504.39494 1408.493,1511 1420.00244,1511 C1431.51187,1511 1443.0213,1504.39494 1454.53073,1491.18481 C1455.6971,1489.8461 1455.71324,1487.85692 1454.56875,1486.49945 C1443.04665,1472.83315 1431.52454,1466 1420.00244,1466 C1408.48033,1466 1396.95823,1472.83315 1385.43612,1486.49946 Z M1420.5,1504 C1411.3873,1504 1404,1496.6127 1404,1487.5 C1404,1478.3873 1411.3873,1471 1420.5,1471 C1429.6127,1471 1437,1478.3873 1437,1487.5 C1437,1496.6127 1429.6127,1504 1420.5,1504 Z M1425,1488 C1427.76142,1488 1430,1485.76142 1430,1483 C1430,1480.23858 1427.76142,1478 1425,1478 C1422.23858,1478 1420,1480.23858 1420,1483 C1420,1485.76142 1422.23858,1488 1425,1488 Z" id="Combined-Shape"></path>
        </g>
    </g>
</svg>