<?xml version="1.0" encoding="UTF-8"?>
<svg width="89px" height="100px" viewBox="0 0 89 100" version="1.1" xmlns="http://www.w3.org/2000/svg" xmlns:xlink="http://www.w3.org/1999/xlink">
    <!-- Generator: Sketch 51.2 (57519) - http://www.bohemiancoding.com/sketch -->
    <title>Combined Shape</title>
    <desc>Created with Sketch.</desc>
    <defs></defs>
    <g id="logo" stroke="none" stroke-width="1" fill="none" fill-rule="evenodd">
        <g id="Artboard" transform="translate(-638.000000, -496.000000)" stroke="#32535B" stroke-width="2.5">
            <path d="M717.135241,519.25 L695.775375,519.25 C691.495168,519.25 688.025375,522.719793 688.025375,527 L688.025375,551.303371 C688.025375,552.549114 689.03525,553.558989 690.280993,553.558989 C691.526737,553.558989 692.536611,552.549114 692.536611,551.303371 L692.536611,529.393258 C692.536611,528.218878 693.488635,527.266854 694.663016,527.266854 C695.832896,527.266854 696.785504,528.207171 696.800696,529.376952 L697.615014,592.079445 C697.634241,593.559928 698.839868,594.75 700.320477,594.75 C701.786601,594.75 702.975129,593.561472 702.975129,592.095348 L702.975129,554.435393 L709.935488,554.435393 L709.935488,592.095348 C709.935488,593.561472 711.124016,594.75 712.59014,594.75 C714.070748,594.75 715.276376,593.559928 715.295603,592.079445 L716.109921,529.376952 C716.125113,528.207171 717.077721,527.266854 718.247601,527.266854 C719.421982,527.266854 720.374005,528.218878 720.374005,529.393258 L720.374005,551.303371 C720.374005,552.549114 721.38388,553.558989 722.629623,553.558989 C723.875367,553.558989 724.885241,552.549114 724.885241,551.303371 L724.885241,527 C724.885241,522.719793 721.415448,519.25 717.135241,519.25 Z M678.860165,565.716292 L666.968864,532.420649 C666.572966,531.312133 667.067026,530.082535 668.119848,529.556123 C668.195249,529.518423 668.272856,529.485306 668.352246,529.456952 C669.44239,529.067615 670.641747,529.635731 671.031084,530.725876 L678.155643,550.674641 C678.168174,550.709728 678.181788,550.744419 678.196464,550.778663 C678.589474,551.695686 679.651466,552.120483 680.568489,551.727473 C681.624341,551.274965 682.136328,550.071015 681.729801,548.996621 L672.147854,523.672905 C671.596098,522.214692 670.199639,521.25 668.640531,521.25 L653.270086,521.25 C651.710977,521.25 650.314518,522.214692 649.762762,523.672905 L640.180816,548.996621 C639.774288,550.071015 640.286275,551.274965 641.342128,551.727473 C642.259151,552.120483 643.321142,551.695686 643.714152,550.778663 C643.728829,550.744419 643.742442,550.709728 643.754973,550.674641 L650.879532,530.725876 C651.268869,529.635731 652.468226,529.067615 653.558371,529.456952 C653.63776,529.485306 653.715367,529.518423 653.790768,529.556123 C654.843591,530.082535 655.337651,531.312133 654.941752,532.420649 L643.050451,565.716292 L653.627819,565.716292 L653.627819,592.58427 C653.627819,593.78037 654.597449,594.75 655.793549,594.75 C656.989649,594.75 657.959279,593.78037 657.959279,592.58427 L657.959279,565.716292 L663.951337,565.716292 L663.951337,592.58427 C663.951337,593.78037 664.920968,594.75 666.117067,594.75 C667.313167,594.75 668.282798,593.78037 668.282798,592.58427 L668.282798,565.716292 L678.860165,565.716292 Z M662,515.75 C666.280207,515.75 669.75,512.280207 669.75,508 C669.75,503.719793 666.280207,500.25 662,500.25 C657.719793,500.25 654.25,503.719793 654.25,508 C654.25,512.280207 657.719793,515.75 662,515.75 Z M706,512.75 C710.280207,512.75 713.75,509.280207 713.75,505 C713.75,500.719793 710.280207,497.25 706,497.25 C701.719793,497.25 698.25,500.719793 698.25,505 C698.25,509.280207 701.719793,512.75 706,512.75 Z" id="Combined-Shape"></path>
        </g>
    </g>
</svg>