<?xml version="1.0" encoding="UTF-8"?>
<svg width="71px" height="100px" viewBox="0 0 71 100" version="1.1" xmlns="http://www.w3.org/2000/svg" xmlns:xlink="http://www.w3.org/1999/xlink">
    <!-- Generator: Sketch 49.3 (51167) - http://www.bohemiancoding.com/sketch -->
    <title>Fern</title>
    <desc>Created with Sketch.</desc>
    <defs></defs>
    <g id="logo" stroke="none" stroke-width="1" fill="none" fill-rule="evenodd">
        <g id="Artboard" transform="translate(-1489.000000, -792.000000)" fill="#33535C" fill-rule="nonzero">
            <path d="M1558.22142,849.272727 C1559.59156,848.363636 1559.81992,846.545455 1558.90649,845.409091 C1557.99306,844.045455 1556.1662,843.818182 1555.02442,844.727273 L1527.3932,862.909091 L1527.3932,859.045455 L1556.39456,839.727273 C1557.7647,838.818182 1557.99306,837 1557.07963,835.863636 C1556.1662,834.5 1554.33935,834.272727 1553.19756,835.181818 L1527.3932,852.227273 L1527.3932,848.363636 L1552.74085,831.545455 C1554.11099,830.636364 1554.33935,828.818182 1553.42592,827.681818 C1552.51249,826.318182 1550.68563,826.090909 1549.54385,827 L1527.16485,841.772727 L1527.16485,837.909091 L1548.1737,824.045455 C1549.54385,823.136364 1549.7722,821.318182 1548.85877,820.181818 C1547.94535,818.818182 1546.11849,818.590909 1544.9767,819.5 L1527.16485,831.318182 L1527.16485,827.454545 L1543.14985,816.772727 C1544.51999,815.863636 1544.74835,814.045455 1543.83492,812.909091 C1542.92149,811.545455 1541.09463,811.318182 1539.95285,812.227273 L1527.16485,820.863636 L1527.16485,817 L1537.66927,809.954545 C1539.03942,809.045455 1539.26777,807.227273 1538.35435,806.090909 C1537.44092,804.727273 1535.61406,804.5 1534.47227,805.409091 L1526.93649,810.409091 L1526.93649,806.545455 L1531.73199,803.363636 C1533.10213,802.454545 1533.33049,800.636364 1532.41706,799.5 C1531.50363,798.136364 1529.67677,797.909091 1528.53499,798.818182 L1526.93649,799.954545 L1526.93649,794.727273 C1526.93649,793.136364 1525.56635,792 1524.1962,792 C1522.82606,792 1521.45592,793.363636 1521.45592,794.727273 L1521.45592,799.954545 L1519.85742,798.818182 C1518.48728,797.909091 1516.88878,798.363636 1515.97535,799.5 C1515.06192,800.863636 1515.51863,802.681818 1516.66042,803.363636 L1521.45592,806.545455 L1521.45592,810.409091 L1513.92013,805.409091 C1512.54999,804.5 1510.95149,804.954545 1510.03806,806.090909 C1509.12463,807.454545 1509.58135,809.272727 1510.72313,809.954545 L1521.22756,817 L1521.22756,820.863636 L1508.43956,812.227273 C1507.06942,811.318182 1505.24256,811.772727 1504.55749,812.909091 C1503.64406,814.272727 1504.10078,816.090909 1505.24256,816.772727 L1521.22756,827.454545 L1521.22756,831.318182 L1503.4157,819.5 C1502.04556,818.590909 1500.44706,819.045455 1499.53363,820.181818 C1498.6202,821.545455 1499.07692,823.363636 1500.2187,824.045455 L1521.22756,837.909091 L1521.22756,841.772727 L1498.84856,827 C1497.47842,826.090909 1495.87992,826.545455 1494.96649,827.681818 C1494.05306,829.045455 1494.50978,830.863636 1495.65156,831.545455 L1520.9992,848.363636 L1520.9992,852.227273 L1495.19485,835.181818 C1493.8247,834.272727 1492.2262,834.727273 1491.31278,835.863636 C1490.39935,837.227273 1490.85606,839.045455 1491.99785,839.727273 L1520.9992,859.045455 L1520.9992,862.909091 L1493.36799,844.727273 C1491.99785,843.818182 1490.39935,844.272727 1489.48592,845.409091 C1488.57249,846.772727 1489.0292,848.590909 1490.17099,849.272727 L1520.77085,869.727273 L1520.77085,873.590909 L1494.96649,856.545455 C1493.59635,855.636364 1491.99785,856.090909 1491.08442,857.227273 C1490.17099,858.590909 1490.6277,860.409091 1491.76949,861.090909 L1520.77085,880.181818 L1520.77085,889.272727 C1520.77085,890.863636 1522.14099,892 1523.51113,892 C1524.88128,892 1526.25142,890.636364 1526.25142,889.272727 L1526.25142,880.181818 L1555.25277,861.090909 C1556.62292,860.181818 1556.85127,858.363636 1555.93785,857.227273 C1555.02442,855.863636 1553.19756,855.636364 1552.05577,856.545455 L1526.25142,873.590909 L1526.25142,869.727273 L1558.22142,849.272727 Z" id="Fern"></path>
        </g>
    </g>
</svg>