<?xml version="1.0" encoding="UTF-8"?>
<svg width="23px" height="44px" viewBox="0 0 23 44" version="1.1" xmlns="http://www.w3.org/2000/svg" xmlns:xlink="http://www.w3.org/1999/xlink">
    <!-- Generator: Sketch 49.1 (51147) - http://www.bohemiancoding.com/sketch -->
    <title>Shape</title>
    <desc>Created with Sketch.</desc>
    <defs></defs>
    <g id="Branding" stroke="none" stroke-width="1" fill="none" fill-rule="evenodd">
        <g id="Public/Homepage-Copy-4" transform="translate(-1237.000000, -4724.000000)" fill="#33535C" fill-rule="nonzero">
            <path d="M1260,4752.69152 C1260,4752.40627 1259.90295,4752.02593 1259.70886,4751.83576 C1259.51477,4751.6456 1259.22363,4751.45543 1258.83544,4751.45543 L1257.86498,4751.45543 C1253.59494,4751.26526 1251.07173,4753.16694 1249.71308,4754.78336 L1249.71308,4741.6618 C1254.5654,4741.18639 1257.2827,4737.5732 1257.2827,4731.48784 C1257.2827,4728.06483 1256.40928,4725.02215 1256.31224,4724.92707 C1256.21519,4724.54673 1255.827,4724.1664 1255.43882,4724.07131 C1255.05063,4723.97623 1254.5654,4724.07131 1254.27426,4724.35656 L1252.91561,4725.68774 L1251.55696,4724.35656 C1251.07173,4723.88115 1250.29536,4723.88115 1249.81013,4724.35656 L1248.45148,4725.68774 L1247.09283,4724.35656 C1246.60759,4723.88115 1245.83122,4723.88115 1245.34599,4724.35656 L1243.98734,4725.68774 L1242.62869,4724.35656 C1242.33755,4724.07131 1241.85232,4723.97623 1241.46414,4724.07131 C1241.07595,4724.1664 1240.68776,4724.45165 1240.59072,4724.92707 C1240.59072,4725.02215 1239.62025,4728.06483 1239.62025,4731.48784 C1239.62025,4737.5732 1242.24051,4741.18639 1247.18987,4741.6618 L1247.18987,4746.79633 C1244.95781,4744.0389 1241.36709,4743.08806 1239.13502,4743.08806 L1238.16456,4743.08806 C1237.48523,4743.08806 1237,4743.65856 1237,4744.22907 L1237,4745.1799 C1237,4752.97677 1243.59916,4755.06861 1247.09283,4755.06861 L1247.28692,4755.06861 L1247.28692,4766.859 C1247.28692,4767.52458 1247.8692,4768 1248.45148,4768 C1249.03376,4768 1249.61603,4767.4295 1249.61603,4766.859 L1249.61603,4763.15073 C1249.71308,4763.15073 1249.81013,4763.15073 1250.00422,4763.15073 C1257.47679,4763.15073 1259.70886,4756.97029 1259.90295,4753.73744 L1260,4752.69152 Z M1239.42616,4745.37007 C1240.68776,4745.46515 1246.70464,4746.03566 1246.80169,4752.59643 C1245.54008,4752.59643 1239.52321,4751.93085 1239.42616,4745.37007 Z M1242.14346,4731.39276 C1242.14346,4729.9665 1242.33755,4728.63533 1242.53165,4727.58941 L1243.21097,4728.255 C1243.6962,4728.73042 1244.47257,4728.73042 1244.95781,4728.255 L1246.31646,4726.92382 L1247.67511,4728.255 C1248.16034,4728.73042 1248.93671,4728.73042 1249.42194,4728.255 L1250.78059,4726.92382 L1252.13924,4728.255 C1252.62447,4728.73042 1253.40084,4728.73042 1253.88608,4728.255 L1254.5654,4727.58941 C1254.75949,4728.63533 1254.95359,4730.06159 1254.95359,4731.48784 C1254.95359,4739.28471 1250.19831,4739.28471 1248.64557,4739.28471 C1247.09283,4739.28471 1242.14346,4739.28471 1242.14346,4731.39276 Z M1250.00422,4760.77364 C1249.90717,4760.77364 1249.81013,4760.77364 1249.71308,4760.77364 C1249.81013,4759.53755 1250.29536,4757.73096 1251.45992,4756.3047 C1252.81857,4754.59319 1254.85654,4753.73744 1257.47679,4753.83252 C1257.2827,4756.3047 1255.53586,4760.77364 1250.00422,4760.77364 Z" id="Shape"></path>
        </g>
    </g>
</svg>