<?xml version="1.0" encoding="UTF-8"?>
<svg width="148px" height="100px" viewBox="0 0 148 100" version="1.1" xmlns="http://www.w3.org/2000/svg" xmlns:xlink="http://www.w3.org/1999/xlink">
    <!-- Generator: Sketch 49.3 (51167) - http://www.bohemiancoding.com/sketch -->
    <title>food</title>
    <desc>Created with Sketch.</desc>
    <defs></defs>
    <g id="logo" stroke="none" stroke-width="1" fill="none" fill-rule="evenodd">
        <g id="Artboard" transform="translate(-739.000000, -1385.000000)" fill="#32535A" fill-rule="nonzero">
            <path d="M813.99839,1485.00125 C786.347399,1485.00125 763.999337,1462.65319 763.999337,1435.0022 C763.999337,1407.35121 786.347399,1385.00125 813.99839,1385.00125 C841.649382,1385.00125 863.997443,1407.35121 863.997443,1435.0022 C863.997443,1462.65319 841.649382,1485.00125 813.99839,1485.00125 Z M813.99839,1399.77559 C794.680574,1399.77559 778.771785,1415.68249 778.771785,1435.0022 C778.771785,1454.32001 794.491184,1470.2288 813.99839,1470.2288 C833.505596,1470.2288 849.224996,1454.32001 849.224996,1435.0022 C849.224996,1415.68249 833.505596,1399.77559 813.99839,1399.77559 Z M813.99839,1463.97741 C798.089601,1463.97741 785.021666,1451.09886 785.021666,1435.00068 C785.021666,1418.9025 797.90021,1406.02585 813.99839,1406.02585 C830.09657,1406.02585 842.975114,1419.09189 842.975114,1435.00068 C842.975114,1450.90947 829.90718,1463.97741 813.99839,1463.97741 Z M886.724096,1480.26554 C886.724096,1481.78067 885.587754,1482.91701 884.072631,1482.72762 C883.125679,1482.72762 882.178728,1482.15945 881.799947,1481.40189 C879.716653,1477.99286 874.792504,1468.33395 874.792504,1457.34931 C874.792504,1447.6904 877.633359,1438.78906 879.148482,1434.43308 C879.906043,1432.53918 880.284824,1430.45588 880.095434,1428.37259 C879.527263,1419.47124 878.390921,1395.41867 878.01214,1391.63086 C877.82275,1389.16878 879.716653,1386.8961 882.368118,1386.8961 C884.830193,1386.8961 886.724096,1388.79 886.724096,1391.25208 L886.724096,1480.26554 Z M753.583057,1481.78124 C753.583057,1482.16002 753.393667,1482.34941 753.014886,1482.34941 L752.825496,1482.34941 C752.446715,1482.34941 752.257325,1482.16002 752.257325,1481.78124 L751.310373,1463.03159 C751.310373,1462.65281 751.120983,1462.46342 750.742202,1462.46342 L750.552811,1462.46342 C750.174031,1462.46342 749.98464,1462.65281 749.98464,1463.03159 L749.037689,1481.78124 C749.037689,1482.16002 748.848298,1482.34941 748.469518,1482.34941 C748.090737,1482.34941 747.901347,1482.16002 747.901347,1481.78124 L746.954395,1463.03159 C746.954395,1462.65281 746.765004,1462.46342 746.386224,1462.46342 L746.196833,1462.46342 C745.818053,1462.46342 745.628662,1462.65281 745.628662,1463.03159 L744.681711,1481.78124 C744.681711,1482.16002 744.49232,1482.34941 744.11354,1482.34941 C743.734759,1482.34941 743.545368,1482.16002 743.545368,1481.78124 L742.598417,1463.03159 C742.598417,1462.65281 742.409026,1462.46342 742.030246,1462.46342 L741.840855,1462.46342 C741.462075,1462.46342 741.272684,1462.65281 741.272684,1463.03159 L740.325732,1481.78124 C740.325732,1482.16002 740.136342,1482.34941 739.757561,1482.34941 L739.568171,1482.34941 C739.18939,1482.34941 739,1482.16002 739,1481.78124 L739,1453.18329 C739,1451.85756 740.136342,1450.72122 741.462075,1450.72122 L741.651465,1450.72122 C742.219636,1450.72122 742.787807,1450.34244 742.787807,1449.58488 L742.787807,1405.64631 L742.787807,1391.25265 C742.787807,1389.35874 744.30293,1387.65423 746.386224,1387.65423 C748.280127,1387.65423 749.98464,1389.16935 749.98464,1391.25265 L749.98464,1405.64631 L749.98464,1449.58488 C749.98464,1450.15305 750.363421,1450.72122 751.120983,1450.72122 L751.310373,1450.72122 C752.636105,1450.72122 753.772447,1451.85756 753.772447,1453.18329 L753.772447,1481.78124 L753.583057,1481.78124 Z" id="food" transform="translate(812.862048, 1435.001250) scale(1, -1) translate(-812.862048, -1435.001250) "></path>
        </g>
    </g>
</svg>