<?xml version="1.0" encoding="UTF-8"?>
<svg width="183px" height="98px" viewBox="0 0 183 98" version="1.1" xmlns="http://www.w3.org/2000/svg" xmlns:xlink="http://www.w3.org/1999/xlink">
    <!-- Generator: Sketch 49.3 (51167) - http://www.bohemiancoding.com/sketch -->
    <title>half-sun</title>
    <desc>Created with Sketch.</desc>
    <defs></defs>
    <g id="logo" stroke="none" stroke-width="1" fill="none" fill-rule="evenodd">
        <g id="Artboard" transform="translate(-1468.000000, -960.000000)" fill="#33535C" fill-rule="nonzero">
            <path d="M1643.75,1043.125 C1647.90625,1043.125 1650.875,1046.6875 1650.875,1050.25 C1650.875,1053.8125 1647.90625,1057.375 1643.75,1057.375 L1475.125,1057.375 C1471.5625,1057.375 1468,1053.8125 1468,1050.25 C1468,1046.6875 1470.96875,1043.125 1475.125,1043.125 L1503.625,1043.125 C1507.1875,1015.8125 1530.9375,994.4375 1559.4375,994.4375 C1587.9375,994.4375 1611.6875,1015.8125 1615.25,1043.125 L1643.75,1043.125 Z M1559.4375,987.90625 C1555.28125,987.90625 1552.3125,984.34375 1552.3125,980.78125 L1552.3125,967.125 C1552.3125,963.5625 1555.875,960 1559.4375,960 C1563,960 1566.5625,962.96875 1566.5625,967.125 L1566.5625,980.78125 C1566.5625,984.34375 1563.59375,987.90625 1559.4375,987.90625 Z M1517.875,993.25 L1510.75,980.78125 C1508.96875,977.21875 1510.15625,972.46875 1513.71875,970.6875 C1517.28125,968.90625 1522.03125,970.09375 1523.8125,973.65625 L1530.9375,985.53125 C1532.71875,989.09375 1531.53125,993.84375 1527.96875,995.625 C1526.78125,996.21875 1525.59375,996.8125 1524.40625,996.8125 C1522.03125,996.8125 1519.0625,995.625 1517.875,993.25 Z M1482.84375,1015.21875 C1479.28125,1012.84375 1478.09375,1008.6875 1479.875,1005.71875 C1481.65625,1002.15625 1486.40625,1000.96875 1489.96875,1002.75 L1501.84375,1009.875 C1505.40625,1011.65625 1506.59375,1016.40625 1504.8125,1019.96875 C1503.625,1022.34375 1500.65625,1023.53125 1498.28125,1023.53125 C1497.09375,1023.53125 1495.90625,1022.9375 1494.71875,1022.34375 L1482.84375,1015.21875 Z M1559.4375,1009.28125 C1539.25,1009.28125 1522.625,1024.125 1518.46875,1043.125 L1599.8125,1043.125 C1596.84375,1024.125 1579.625,1009.28125 1559.4375,1009.28125 Z M1620.59375,1022.9375 C1618.21875,1022.9375 1615.84375,1021.75 1614.0625,1018.78125 C1612.28125,1015.21875 1613.46875,1010.46875 1617.03125,1008.6875 L1628.90625,1001.5625 C1632.46875,999.78125 1637.21875,1000.96875 1639,1004.53125 C1640.78125,1008.09375 1639.59375,1012.84375 1636.03125,1014.625 L1624.15625,1021.75 C1622.96875,1022.34375 1621.78125,1022.9375 1620.59375,1022.9375 Z M1590.90625,996.21875 C1587.34375,994.4375 1586.15625,989.6875 1587.9375,986.71875 L1595.0625,974.84375 C1596.84375,971.28125 1601.59375,970.09375 1605.15625,971.875 C1608.71875,973.65625 1609.90625,978.40625 1608.125,981.96875 L1601,993.84375 C1599.8125,996.21875 1596.84375,997.40625 1594.46875,997.40625 C1593.28125,997.40625 1592.09375,996.8125 1590.90625,996.21875 Z" id="half-sun"></path>
        </g>
    </g>
</svg>