<?xml version="1.0" encoding="UTF-8"?>
<svg width="104px" height="100px" viewBox="0 0 104 100" version="1.1" xmlns="http://www.w3.org/2000/svg" xmlns:xlink="http://www.w3.org/1999/xlink">
    <!-- Generator: Sketch 49.3 (51167) - http://www.bohemiancoding.com/sketch -->
    <title>handshake</title>
    <desc>Created with Sketch.</desc>
    <defs></defs>
    <g id="logo" stroke="none" stroke-width="1" fill="none" fill-rule="evenodd">
        <g id="Artboard" transform="translate(-1037.000000, -139.000000)" fill="#32535A" fill-rule="nonzero">
            <path d="M1072.04419,185.039925 C1073.01228,185.895096 1073.48942,187.044922 1073.48755,188.079953 C1073.48493,188.840146 1073.24599,189.519572 1072.76774,190.063262 L1069.95169,193.246129 C1069.38033,193.890032 1068.57265,194.227688 1067.63933,194.232549 C1066.71909,194.233297 1065.71398,193.881805 1064.87937,193.142178 L1050.59573,180.514285 C1049.62427,179.658366 1049.14714,178.509662 1049.14901,177.476876 C1049.15237,176.716682 1049.39056,176.038752 1049.87368,175.490949 L1052.68523,172.309951 C1053.25697,171.664553 1054.06615,171.328392 1054.99909,171.322783 C1055.91783,171.322036 1056.9222,171.673527 1057.75755,172.412407 L1072.04419,185.039925 Z M1100.06299,161.169391 C1099.48902,161.790484 1098.70489,162.114679 1097.74053,162.121784 C1096.76571,162.123279 1095.63607,161.756083 1094.61488,160.963731 L1080.64197,148.179912 C1079.90533,147.360263 1079.49588,146.2497 1079.49962,145.238601 C1079.50224,144.391656 1079.76174,143.649411 1080.28262,143.080294 L1083.15065,139.946037 C1083.71976,139.326439 1084.508,139.004862 1085.41739,139.000001 C1086.35221,138.999253 1087.38013,139.366824 1088.22072,140.133748 L1102.29123,153.003571 C1103.85948,154.451043 1104.12384,155.377634 1104.12309,155.908611 C1104.12235,156.253746 1104.01727,156.568592 1103.80301,156.933171 C1103.58913,157.294011 1103.26643,157.66719 1102.92541,158.037378 L1101.19824,159.927579 C1101.193,159.93244 1101.19001,159.935806 1101.18403,159.94291 L1101.18478,159.94291 L1101.17692,159.951137 L1101.44316,160.195311 L1102.25608,160.98841 L1101.14888,159.978807 L1100.06299,161.169391 Z M1092.57204,166.790002 C1092.56942,167.550195 1092.32973,168.229995 1091.84849,168.776302 L1089.03768,171.958048 C1088.46632,172.600829 1087.65602,172.938859 1086.72157,172.943346 C1085.80059,172.944094 1084.79735,172.593724 1083.96536,171.85447 L1069.68097,159.223961 C1068.70876,158.368042 1068.23237,157.219711 1068.23499,156.18842 C1068.23724,155.428974 1068.4758,154.752166 1068.95892,154.203989 L1071.77085,151.022618 C1072.34296,150.377593 1073.15213,150.040311 1074.0862,150.035076 C1075.00457,150.034328 1076.00931,150.385072 1076.84242,151.122082 L1091.12905,163.751844 C1092.09678,164.606267 1092.57466,165.755719 1092.57204,166.790002 Z M1072.69729,215.099252 C1071.92812,214.462828 1070.97835,213.803968 1070.09251,213.085281 C1069.20817,212.374071 1068.41021,211.601538 1067.99254,210.925478 C1067.7091,210.470408 1067.59767,210.099473 1067.59767,209.779391 C1067.59954,209.56887 1067.63918,209.359097 1067.76856,209.085756 C1068.22288,208.221237 1068.68692,207.928826 1069.77019,207.748967 C1071.62337,207.511149 1073.38718,207.15031 1075.10164,206.909127 C1075.83192,206.804053 1076.53303,206.682901 1077.08532,206.685518 C1077.57143,206.686266 1077.87992,206.770026 1078.08894,206.903518 L1100.45352,225.2768 L1101.63925,226.24901 L1102.86386,224.755545 L1105.10817,222.40504 L1105.12425,222.418501 C1105.20015,222.328385 1105.30037,222.21658 1105.40806,222.089071 C1114.3767,211.666227 1123.08247,201.714531 1132.72829,191.358994 L1132.75148,191.334689 L1132.77728,191.303653 C1133.66947,190.2417 1134.62111,189.000636 1135.30129,187.527363 C1138.06573,191.69665 1139.27277,196.721857 1140.08643,200.611072 C1140.58076,202.94176 1140.81596,205.256369 1140.81596,207.527228 C1140.81821,222.707921 1130.27458,235.928861 1116.01263,238.437912 C1114.86954,238.640207 1113.67185,238.735932 1112.44275,238.735932 C1105.28466,238.758741 1097.05191,235.398633 1092.20095,231.706102 L1092.19871,231.70872 L1089.71583,229.587431 C1084.16302,224.581669 1078.40192,219.851118 1072.69729,215.099252 Z M1080.04731,204.641707 L1080.05516,204.631985 C1079.95308,204.547852 1079.85698,204.480919 1079.76687,204.423708 C1078.88216,203.83739 1077.91555,203.69455 1077.09217,203.69455 L1077.08506,203.69455 C1076.15585,203.696794 1075.32723,203.8602 1074.68482,203.947325 C1072.84809,204.207578 1071.09699,204.564678 1069.38964,204.78193 C1067.62358,204.969268 1065.89641,205.992706 1065.07265,207.790548 C1064.76117,208.435198 1064.60524,209.119858 1064.60674,209.779466 C1064.60674,210.814496 1064.97169,211.739592 1065.45892,212.514369 C1065.94951,213.294007 1066.57098,213.958849 1067.22086,214.55975 C1068.5154,215.749212 1069.97297,216.717683 1070.78439,217.398231 C1076.50286,222.16281 1082.2389,226.873543 1087.71132,231.809007 C1087.7876,231.879305 1087.84631,231.931655 1087.88146,231.964935 L1087.88146,231.964187 L1087.8852,231.960074 L1089.03428,232.941632 C1084.53631,236.209755 1078.66976,237.665827 1074.45299,238.437613 C1072.40013,238.817523 1070.36522,238.999999 1068.3662,238.999999 C1052.82991,239.003365 1039.43733,227.988968 1037.25659,213.398332 C1037.08346,212.250376 1037.00008,211.087089 1037.00008,209.91408 C1036.97914,201.582984 1041.27668,192.756061 1047.22212,186.818472 L1047.25764,186.853621 L1048.35774,185.74231 L1048.37382,185.731092 L1050.05948,184.032715 L1062.89789,195.382151 C1064.27208,196.598909 1065.97083,197.222994 1067.63966,197.223742 C1069.32009,197.227855 1071.00987,196.570117 1072.1926,195.228093 L1075.00977,192.044477 C1076.00441,190.918583 1076.48229,189.491303 1076.4793,188.080102 C1076.47893,187.539777 1076.40451,187.000575 1076.27214,186.47072 C1076.53838,186.50213 1076.80499,186.524191 1077.07085,186.524191 C1078.75203,186.528305 1080.44181,185.872063 1081.6279,184.528542 L1084.43946,181.347919 C1085.43747,180.22165 1085.9161,178.793996 1085.91273,177.381674 C1085.91236,176.869768 1085.8473,176.357861 1085.72839,175.854556 C1086.05931,175.90354 1086.39099,175.93495 1086.72228,175.93495 C1088.40309,175.939437 1090.09286,175.282447 1091.27933,173.940423 L1094.09014,170.758303 C1095.08778,169.632035 1095.56678,168.202885 1095.56454,166.790189 C1095.56379,166.072996 1095.44339,165.355804 1095.21267,164.664413 C1096.04242,164.957946 1096.89609,165.112004 1097.74117,165.113499 C1099.41449,165.119482 1101.08445,164.489041 1102.2713,163.188523 L1103.33474,162.022618 C1103.33774,162.019253 1103.33998,162.017757 1103.34708,162.010652 C1104.44119,160.897471 1105.44893,160.050527 1106.29924,159.517306 C1107.15142,158.976234 1107.82411,158.781044 1108.21561,158.788523 C1108.53906,158.79974 1108.71144,158.858073 1108.99488,159.096638 L1112.15045,161.939232 C1112.38565,162.146014 1112.59804,162.562195 1112.60402,163.410635 C1112.63095,165.086951 1111.56787,167.935527 1109.76442,170.576574 L1109.72441,170.635281 L1109.27383,171.466147 L1091.221,191.52584 L1091.18211,191.491065 L1090.86764,191.842557 L1090.90578,191.87621 L1090.41481,192.421396 L1090.41556,192.421396 L1092.63856,194.423028 L1111.61087,173.341765 L1111.87225,173.053094 C1113.06059,171.733879 1114.35961,170.692866 1115.57151,170.003718 C1116.77929,169.309336 1117.90257,168.990002 1118.63958,168.99748 C1119.18215,169.002341 1119.47007,169.132468 1119.66638,169.304848 L1122.8227,172.14819 C1123.05042,172.352354 1123.2501,172.733012 1123.25646,173.496945 C1123.28002,174.915998 1122.37586,177.282209 1120.63972,179.438273 C1120.62887,179.449865 1120.61504,179.468935 1120.60232,179.483518 C1120.55035,179.540355 1120.49949,179.601679 1120.45201,179.66749 C1120.30094,179.846975 1120.1495,180.023095 1119.99993,180.19024 L1100.6679,201.51119 L1102.88416,203.521048 L1122.22405,182.19075 C1122.4241,181.967142 1122.6133,181.746151 1122.79728,181.528525 L1122.87244,181.438035 C1123.6517,180.647927 1124.49453,179.861184 1125.33063,179.304033 C1126.19179,178.72482 1127.00321,178.415956 1127.72601,178.419695 C1128.17435,178.423435 1128.62156,178.52103 1129.15665,178.811945 L1129.19891,178.835876 L1129.24714,178.85719 C1130.29938,179.343669 1131.35722,180.04927 1132.08974,180.872283 C1132.8275,181.705019 1133.23919,182.581878 1133.24368,183.612421 C1133.24368,183.637848 1133.24293,183.671502 1133.24218,183.714503 C1133.23545,183.848743 1133.22386,183.986722 1133.21002,184.122458 C1133.00474,186.044817 1131.86052,187.757403 1130.51064,189.353324 C1120.84986,199.725314 1112.13512,209.686732 1103.16947,220.106585 L1101.27852,222.085407 L1080.04731,204.641707 Z M1060.02942,169.81208 C1059.05908,168.956161 1058.58158,167.807831 1058.58307,166.775418 C1058.58681,166.017094 1058.82463,165.340286 1059.30774,164.792483 L1062.11968,161.611859 C1062.69178,160.967209 1063.50059,160.628805 1064.43503,160.625439 C1065.35377,160.623944 1066.35702,160.975061 1067.19125,161.71095 L1081.47526,174.342581 C1082.44561,175.197753 1082.92311,176.347204 1082.92049,177.380739 C1082.91788,178.140933 1082.67894,178.818863 1082.19769,179.36517 L1079.38576,182.54729 C1078.81552,183.19007 1078.00522,183.528101 1077.0704,183.532588 C1076.15017,183.532588 1075.14617,183.182592 1074.31419,182.44446 L1060.03017,169.813576 L1059.72355,170.160954 C1059.72318,170.160207 1059.72318,170.160207 1059.7228,170.160207 L1060.02942,169.81208 Z" id="handshake" transform="translate(1088.907982, 189.000000) scale(1, -1) translate(-1088.907982, -189.000000) "></path>
        </g>
    </g>
</svg>