<?xml version="1.0" encoding="UTF-8"?>
<svg width="122px" height="640px" viewBox="0 0 122 640" version="1.1" xmlns="http://www.w3.org/2000/svg" xmlns:xlink="http://www.w3.org/1999/xlink">
    <!-- Generator: Sketch 49.1 (51147) - http://www.bohemiancoding.com/sketch -->
    <title>edyn_rings</title>
    <desc>Created with Sketch.</desc>
    <defs></defs>
    <g id="Branding" stroke="none" stroke-width="1" fill="none" fill-rule="evenodd" opacity="0.550892857">
        <g id="Public/ourapproach-(1)" transform="translate(-2.000000, -3369.000000)" stroke="#F2E6D0" stroke-width="3">
            <g id="Tech" transform="translate(2.000000, 3126.000000)">
                <g id="Group">
                    <g id="edyn_rings" transform="translate(-1320.000000, -36.000000)">
                        <path d="M375.748439,217.872832 C475.990751,150.908671 579.063121,85.7923699 709.370636,85.625896 C839.67815,85.459422 955.560694,134.469364 1056.06936,201.167168 C1156.57803,267.864971 1266.80046,346.515607 1306.98728,459.834451 C1347.08254,572.762081 1325.53249,700.156301 1287.37665,807.765087 C1249.22081,915.373873 1156.84439,994.732023 1051.87422,1064.63445 C946.629364,1134.91145 834.833757,1142.47769 710.702428,1142.64416 C586.571098,1142.81064 470.688555,1140.92948 365.160694,1070.91052 C260.03237,1001.14127 144.83237,924.554913 106.543353,816.996069 C68.2543353,709.437225 134.519306,592.256185 174.423121,479.311908 C214.252023,366.001387 275.514451,284.828671 375.748439,217.872832 Z" id="Shape"></path>
                        <path d="M359.492254,193.617572 C465.103353,123.190751 574.967861,60.0138728 712.184046,59.9306358 C849.400231,59.8473988 971.159306,108.041618 1076.95353,178.252023 C1182.74775,248.462428 1315.61064,326.04763 1357.95329,445.317919 C1400.23769,564.346821 1348.30613,699.856647 1308.06104,813.225434 C1267.81595,926.59422 1182.5563,1013.51861 1071.8511,1087.15838 C960.962775,1161.05618 843.781734,1179.15191 713.099653,1179.26844 C582.417572,1179.38497 457.387283,1171.45249 346.315838,1097.69618 C235.510751,1024.13133 107.142659,942.492486 66.8143353,829.123699 C26.4860116,715.754913 90.9530636,584.664971 133.095954,465.627746 C175.155607,346.440694 253.872832,264.011098 359.492254,193.617572 Z" id="Shape"></path>
                        <path d="M328.178497,157.317919 C439.150058,83.4950289 565.403931,23.9389595 709.503815,23.8890173 C853.603699,23.8390751 980.781503,82.1549133 1091.84462,155.927861 C1202.90775,229.700809 1321.65364,316.625202 1366.16046,441.905202 C1410.63399,567.060347 1368.02497,700.314451 1325.68231,819.51815 C1283.33965,938.72185 1192.78613,1019.8696 1076.3459,1097.25503 C959.814104,1174.76532 847.202775,1214.2696 709.953295,1214.31954 C572.703815,1214.36948 439.433064,1201.04324 322.776416,1123.59121 C206.294566,1046.28902 84.3107514,954.586821 41.926474,835.399769 C-0.457803468,716.212717 68.1378035,585.081156 112.553064,459.934335 C156.935029,334.612717 217.206936,231.149133 328.178497,157.317919 Z" id="Shape"></path>
                        <path d="M709.570405,0.391213873 C558.520231,0.391213873 431.483931,63.2601156 315.143584,140.545665 C198.803237,217.831214 124.272832,317.79052 77.6101734,449.05526 C30.9475145,580.32 -28.6917919,717.785896 15.7484393,842.766243 C60.1886705,967.74659 185.784971,1060.84717 307.910289,1141.96162 C430.035607,1223.07607 565.736879,1244.16 709.53711,1244.16 C853.337341,1244.16 979.141734,1210.69873 1101.30867,1129.56763 C1223.47561,1048.43653 1316.20994,955.077919 1360.64185,830.080925 C1405.07376,705.083931 1470.09017,555.973179 1423.42751,424.716763 C1376.76486,293.460347 1226.33896,210.190058 1109.99861,132.92948 C993.658266,55.6689017 860.57896,0.391213873 709.570405,0.391213873 Z" id="Shape"></path>
                    </g>
                </g>
            </g>
        </g>
    </g>
</svg>