<?xml version="1.0" encoding="UTF-8"?>
<svg width="40px" height="184px" viewBox="0 0 40 184" version="1.1" xmlns="http://www.w3.org/2000/svg" xmlns:xlink="http://www.w3.org/1999/xlink">
    <!-- Generator: Sketch 49.1 (51147) - http://www.bohemiancoding.com/sketch -->
    <title>Edyn_Leaves</title>
    <desc>Created with Sketch.</desc>
    <defs></defs>
    <g id="Branding" stroke="none" stroke-width="1" fill="none" fill-rule="evenodd">
        <g id="Public/ourapproach-(1)" transform="translate(-1374.000000, -3399.000000)" fill="#FFFFFF" fill-rule="nonzero">
            <g id="Tech" transform="translate(2.000000, 3126.000000)">
                <g id="Group">
                    <g transform="translate(1050.000000, -569.065678)" id="Edyn_Leaves">
                        <g transform="translate(1013.628009, 1033.644729) rotate(-39.000000) translate(-1013.628009, -1033.644729) translate(353.628009, 239.200873)">
                            <g transform="translate(-0.000000, -0.000000)" id="Shape">
                                <path d="M150.73873,357.390112 C149.213256,363.006294 150.362586,368.929799 153.413535,373.660168 C156.464483,378.390536 164.044837,350.496429 161.004337,345.741957 C156.140581,347.688338 152.264205,351.779955 150.73873,357.390112 Z"></path>
                                <path d="M246.457225,267.170893 C247.948823,261.55866 246.741841,255.658004 243.621609,250.947093 C240.501377,246.236182 233.080284,274.165154 236.200516,278.870056 C241.08642,276.9232 244.944545,272.783126 246.457225,267.170893 Z"></path>
                                <path d="M234.886157,223.477135 C233.306984,229.086526 234.371768,235.058984 237.29864,239.893832 C240.225512,244.728679 248.100803,216.826951 245.148212,211.998155 C240.343821,213.813492 236.46533,217.867744 234.886157,223.477135 Z"></path>
                            </g>
                        </g>
                    </g>
                </g>
            </g>
        </g>
    </g>
</svg>