<?xml version="1.0" encoding="UTF-8"?>
<svg width="1128px" height="805px" viewBox="0 0 1128 805" version="1.1" xmlns="http://www.w3.org/2000/svg" xmlns:xlink="http://www.w3.org/1999/xlink">
    <!-- Generator: Sketch 49.3 (51167) - http://www.bohemiancoding.com/sketch -->
    <title>Group 2</title>
    <desc>Created with Sketch.</desc>
    <defs></defs>
    <g id="Page-1" stroke="none" stroke-width="1" fill="none" fill-rule="evenodd">
        <g transform="translate(-63.000000, -1.000000)" fill="#F8F5E6" id="Group-60">
            <g transform="translate(0.000000, 0.890000)">
                <g id="Group-58">
                    <g id="Group-2" transform="translate(-80.000000, -6.000000)">
                        <path d="M461.5941,598.9883 C463.8941,604.3123 468.7001,607.8833 474.3881,609.1703 C480.0761,610.4583 468.6291,583.9843 462.9501,582.6933 C459.9891,587.7163 459.2941,593.6633 461.5941,598.9883" id="Fill-21"></path>
                        <path d="M737.9789,228.4703 C740.1789,223.1043 739.3729,217.1713 736.3189,212.2033 C733.2639,207.2353 722.3319,233.9273 725.3769,238.8903 C731.0399,237.4973 735.7789,233.8373 737.9789,228.4703" id="Fill-22"></path>
                        <path d="M515.641,194.62 C511.054,191.071 505.12,190.267 499.518,191.889 C493.917,193.511 516.733,211.155 522.329,209.541 C522.494,203.711 520.227,198.169 515.641,194.62" id="Fill-23"></path>
                        <path d="M914.6546,629.1362 C920.3446,630.4152 908.8536,603.9592 903.1726,602.6792 C900.2196,607.7072 899.5346,613.6552 901.8436,618.9762 C904.1526,624.2962 908.9656,627.8582 914.6546,629.1362 Z" id="Fill-24"></path>
                        <path d="M788.8862,681.7779 C789.0862,675.9809 786.2702,670.6969 781.6802,667.0989 C777.0912,663.5019 776.1062,692.3279 780.6862,695.9249 C785.5132,692.6529 788.6862,687.5749 788.8862,681.7779" id="Fill-25"></path>
                        <path d="M650.9053,798.4642 C645.3273,796.8762 639.5203,798.3382 634.9253,801.9282 C630.3283,805.5172 658.0713,813.4062 662.6653,809.8252 C660.6493,804.3542 656.4833,800.0522 650.9053,798.4642" id="Fill-26"></path>
                        <path d="M515.0648,732.211 C518.5938,736.813 524.1268,739.104 529.9568,738.964 C535.7868,738.825 518.2268,715.944 512.4038,716.077 C510.7578,721.672 511.5358,727.609 515.0648,732.211" id="Fill-27"></path>
                        <path d="M370.6964,687.0927 C366.8844,682.7217 361.2194,680.7837 355.4084,681.2897 C349.5994,681.7947 368.5634,703.5267 374.3664,703.0267 C375.6574,697.3407 374.5074,691.4647 370.6964,687.0927" id="Fill-28"></path>
                        <path d="M303.087,746.8011 C301.086,752.2451 302.11,758.1441 305.346,762.9961 C308.581,767.8481 318.523,740.7731 315.296,735.9241 C309.689,737.5251 305.088,741.3581 303.087,746.8011" id="Fill-29"></path>
                        <path d="M274.9615,530.5099 C272.1975,525.4109 267.0935,522.2809 261.3135,521.5039 C255.5335,520.7259 269.2865,546.0799 275.0575,546.8619 C277.5615,541.5949 277.7255,535.6079 274.9615,530.5099" id="Fill-30"></path>
                        <path d="M191.8407,426.8816 C190.0477,421.3666 185.5947,417.3626 180.0517,415.5496 C174.5097,413.7376 183.4367,441.1636 188.9707,442.9786 C192.3887,438.2526 193.6337,432.3966 191.8407,426.8816" id="Fill-31"></path>
                        <path d="M143.693,391.6118 C143.524,397.4088 146.37,402.6778 150.978,406.2508 C155.587,409.8238 156.415,380.9928 151.815,377.4198 C147.006,380.7188 143.861,385.8148 143.693,391.6118" id="Fill-32"></path>
                        <path d="M328.3158,275.7188 C324.9898,280.4708 324.4718,286.4358 326.3588,291.9538 C328.2478,297.4708 344.7798,273.8368 342.8998,268.3238 C337.0698,268.4388 331.6428,270.9678 328.3158,275.7188" id="Fill-33"></path>
                        <path d="M194.9496,175.9957 C189.5836,178.1967 185.9236,182.9357 184.5316,188.5987 C183.1386,194.2627 209.8206,183.3087 211.2166,177.6537 C206.2486,174.5997 200.3156,173.7957 194.9496,175.9957" id="Fill-34"></path>
                        <path d="M286.9285,51.0421 C289.8035,46.0051 289.7715,40.0181 287.3835,34.6971 C284.9975,29.3761 270.7075,54.4301 273.0855,59.7461 C278.8815,59.0961 284.0535,56.0791 286.9285,51.0421" id="Fill-35"></path>
                        <path d="M387.5995,151.1355 C393.1095,152.9465 398.9695,151.7165 403.7055,148.3145 C408.4415,144.9115 381.0375,135.9195 376.3035,139.3135 C378.0995,144.8605 382.0885,149.3265 387.5995,151.1355" id="Fill-36"></path>
                        <path d="M610.7908,15.4573 C615.9958,12.8993 619.3268,7.9233 620.3338,2.1793 C621.3418,-3.5637 595.4598,9.1653 594.4488,14.9013 C599.6108,17.6133 605.5858,18.0153 610.7908,15.4573" id="Fill-37"></path>
                        <path d="M812.1559,31.6072 C807.5329,35.1092 805.2099,40.6282 805.3149,46.4582 C805.4199,52.2902 828.4039,34.8642 828.3049,29.0412 C822.7199,27.3622 816.7789,28.1042 812.1559,31.6072" id="Fill-38"></path>
                        <path d="M938.4036,97.7833 C935.4326,102.7653 935.3506,108.7523 937.6356,114.1173 C939.9206,119.4813 954.6866,94.7063 952.4106,89.3453 C946.6036,89.8853 941.3746,92.8023 938.4036,97.7833" id="Fill-39"></path>
                        <path d="M1033.4281,199.4726 C1029.2211,203.4646 1027.5231,209.2066 1028.2721,214.9906 C1029.0211,220.7726 1049.9371,200.9126 1049.1941,195.1366 C1043.4591,194.0856 1037.6351,195.4806 1033.4281,199.4726" id="Fill-40"></path>
                        <path d="M1154.3268,296.0374 C1160.1248,296.1884 1165.3838,293.3264 1168.9428,288.7064 C1172.5018,284.0874 1143.6678,283.3484 1140.1098,287.9594 C1143.4248,292.7574 1148.5288,295.8864 1154.3268,296.0374" id="Fill-41"></path>
                        <path d="M1095.3091,416.7368 C1101.1081,416.6748 1106.2591,413.6218 1109.6471,408.8748 C1113.0331,404.1268 1084.1921,404.4478 1080.8051,409.1858 C1084.2941,413.8588 1089.5101,416.7998 1095.3091,416.7368" id="Fill-42"></path>
                        <path d="M1220.2578,408.7083 C1219.6208,402.9433 1216.0718,398.1203 1211.0118,395.2203 C1205.9528,392.3213 1209.1308,420.9883 1214.1808,423.8893 C1218.4858,419.9543 1220.8938,414.4733 1220.2578,408.7083" id="Fill-43"></path>
                        <path d="M1180.3862,476.7834 C1185.8042,474.7134 1189.5772,470.0644 1191.1062,464.4364 C1192.6362,458.8094 1165.6972,469.1124 1164.1642,474.7304 C1169.0562,477.9044 1174.9672,478.8534 1180.3862,476.7834" id="Fill-44"></path>
                        <path d="M1039.6655,693.7779 C1033.9355,694.6729 1029.2765,698.4339 1026.6065,703.6189 C1023.9365,708.8029 1052.4335,704.3419 1055.1035,699.1669 C1050.9805,695.0429 1045.3955,692.8839 1039.6655,693.7779" id="Fill-45"></path>
                        <path d="M1028.0496,729.0054 C1022.6926,726.7814 1016.7556,727.5604 1011.7756,730.5924 C1006.7936,733.6254 1033.4356,744.6774 1038.4136,741.6534 C1037.0446,735.9844 1033.4066,731.2294 1028.0496,729.0054" id="Fill-46"></path>
                        <path d="M954.3757,762.329 C952.0767,757.004 947.2717,753.432 941.5847,752.143 C935.8967,750.855 947.3377,777.331 953.0157,778.624 C955.9787,773.601 956.6747,767.654 954.3757,762.329" id="Fill-47"></path>
                        <path d="M621.191393,371.41686 C626.881393,372.69586 615.390393,346.23986 609.709393,344.95986 C606.756393,349.98786 606.071393,355.93586 608.380393,361.25686 C610.689393,366.57686 615.502393,370.13886 621.191393,371.41686 Z" id="Fill-24" transform="translate(614.865845, 358.210813) rotate(30.000000) translate(-614.865845, -358.210813) "></path>
                        <path d="M870.342529,393.801876 C867.672529,398.985876 896.169529,394.524876 898.839529,389.349876 C894.716529,385.225876 889.131529,383.066876 883.401529,383.960876 C877.671529,384.855876 873.012529,388.616876 870.342529,393.801876 Z" id="Fill-45" transform="translate(884.502872, 389.934905) rotate(30.000000) translate(-884.502872, -389.934905) "></path>
                        <path d="M734.891688,471.236165 C729.534688,469.012165 723.597688,469.791165 718.617688,472.823165 C713.635688,475.856165 740.277688,486.908165 745.255688,483.884165 C743.886688,478.215165 740.248688,473.460165 734.891688,471.236165" id="Fill-46" transform="translate(731.627844, 477.181424) rotate(30.000000) translate(-731.627844, -477.181424) "></path>
                        <path d="M661.335107,505.191357 C659.036107,499.866357 654.231107,496.294357 648.544107,495.005357 C642.856107,493.717357 654.297107,520.193357 659.975107,521.486357 C662.938107,516.463357 663.634107,510.516357 661.335107,505.191357" id="Fill-47" transform="translate(654.851502, 508.223108) rotate(30.000000) translate(-654.851502, -508.223108) "></path>
                        <path d="M1185.7942,37.1837 C1184.5462,42.8477 1186.3572,48.5547 1190.2172,52.9257 C1194.0782,57.2967 1200.2762,29.1277 1196.4252,24.7597 C1191.0842,27.1017 1187.0432,31.5197 1185.7942,37.1837" id="Fill-51"></path>
                        <path d="M1216.1088,195.965 C1212.9928,200.857 1212.7358,206.839 1214.8608,212.269 C1216.9878,217.699 1232.4758,193.367 1230.3568,187.942 C1224.5368,188.311 1219.2248,191.074 1216.1088,195.965" id="Fill-52"></path>
                        <path d="M1258.582,177.0613 C1254.73,181.3973 1253.529,187.2633 1254.768,192.9623 C1256.008,198.6603 1275.153,177.0873 1273.921,171.3963 C1268.116,170.8383 1262.434,172.7253 1258.582,177.0613" id="Fill-53"></path>
                        <path d="M1246.6066,482.4798 C1242.6716,478.2188 1236.9536,476.4428 1231.1596,477.1118 C1225.3666,477.7828 1244.9406,498.9668 1250.7276,498.3028 C1251.8566,492.5828 1250.5406,486.7398 1246.6066,482.4798" id="Fill-54"></path>
                        <path d="M1234.8983,594.263 C1237.7413,599.318 1242.8943,602.368 1248.6853,603.055 C1254.4763,603.741 1240.3293,578.607 1234.5473,577.915 C1232.1263,583.22 1232.0553,589.208 1234.8983,594.263" id="Fill-55"></path>
                        <path d="M1154.1227,715.2241 C1159.5607,717.2421 1165.4627,716.2361 1170.3237,713.0161 C1175.1867,709.7961 1148.1427,699.7691 1143.2837,702.9811 C1144.8677,708.5931 1148.6847,713.2071 1154.1227,715.2241" id="Fill-57"></path>
                    </g>
                </g>
            </g>
        </g>
    </g>
</svg>