<?xml version="1.0" encoding="UTF-8"?>
<svg width="100px" height="100px" viewBox="0 0 100 100" version="1.1" xmlns="http://www.w3.org/2000/svg" xmlns:xlink="http://www.w3.org/1999/xlink">
    <!-- Generator: Sketch 51.2 (57519) - http://www.bohemiancoding.com/sketch -->
    <title>List</title>
    <desc>Created with Sketch.</desc>
    <defs></defs>
    <g id="logo" stroke="none" stroke-width="1" fill="none" fill-rule="evenodd">
        <g id="Artboard" transform="translate(-1692.000000, -1576.000000)" fill="#FBF8EF">
            <path d="M1722,1576 L1791,1576 C1791.55228,1576 1792,1576.44772 1792,1577 L1792,1600 C1792,1600.55228 1791.55228,1601 1791,1601 L1722,1601 C1721.44772,1601 1721,1600.55228 1721,1600 L1721,1577 C1721,1576.44772 1721.44772,1576 1722,1576 Z M1722,1614 L1791,1614 C1791.55228,1614 1792,1614.44772 1792,1615 L1792,1638 C1792,1638.55228 1791.55228,1639 1791,1639 L1722,1639 C1721.44772,1639 1721,1638.55228 1721,1638 L1721,1615 C1721,1614.44772 1721.44772,1614 1722,1614 Z M1722,1651 L1791,1651 C1791.55228,1651 1792,1651.44772 1792,1652 L1792,1675 C1792,1675.55228 1791.55228,1676 1791,1676 L1722,1676 C1721.44772,1676 1721,1675.55228 1721,1675 L1721,1652 C1721,1651.44772 1721.44772,1651 1722,1651 Z M1693,1576 L1716,1576 C1716.55228,1576 1717,1576.44772 1717,1577 L1717,1600 C1717,1600.55228 1716.55228,1601 1716,1601 L1693,1601 C1692.44772,1601 1692,1600.55228 1692,1600 L1692,1577 C1692,1576.44772 1692.44772,1576 1693,1576 Z M1693,1614 L1716,1614 C1716.55228,1614 1717,1614.44772 1717,1615 L1717,1638 C1717,1638.55228 1716.55228,1639 1716,1639 L1693,1639 C1692.44772,1639 1692,1638.55228 1692,1638 L1692,1615 C1692,1614.44772 1692.44772,1614 1693,1614 Z M1693,1651 L1716,1651 C1716.55228,1651 1717,1651.44772 1717,1652 L1717,1675 C1717,1675.55228 1716.55228,1676 1716,1676 L1693,1676 C1692.44772,1676 1692,1675.55228 1692,1675 L1692,1652 C1692,1651.44772 1692.44772,1651 1693,1651 Z" id="List"></path>
        </g>
    </g>
</svg>