<?xml version="1.0" encoding="UTF-8"?>
<svg width="65px" height="65px" viewBox="0 0 65 65" version="1.1" xmlns="http://www.w3.org/2000/svg" xmlns:xlink="http://www.w3.org/1999/xlink">
    <!-- Generator: Sketch 49.3 (51167) - http://www.bohemiancoding.com/sketch -->
    <title>Edyn_Ranged logo</title>
    <desc>Created with Sketch.</desc>
    <defs></defs>
    <g id="Page-1" stroke="none" stroke-width="1" fill="none" fill-rule="evenodd">
        <g id="Edyn-Care-Homepage-Mobile-Copy" transform="translate(-128.000000, -807.000000)" fill-rule="nonzero">
            <g id="Edyn_Ranged-logo" transform="translate(128.000000, 807.000000)">
                <path d="M38.2336957,24.3724638 C35.2537244,23.4561723 32.0162814,23.9957462 29.4945652,25.8289855 C30.4298415,28.7636543 32.7127915,31.0736748 35.6362319,32.0434783 C38.6162032,32.9597697 41.8536462,32.4201959 44.3753623,30.5869565 C43.4487296,27.6352387 41.1600733,25.3086488 38.2239855,24.3336232" id="Shape" fill="#32525B"></path>
                <path d="M18.6337681,40.4136232 C19.4475678,43.3957663 21.6464519,45.80424 24.5423913,46.8854348 C26.586319,44.5924765 27.3787744,41.4444155 26.664058,38.457029 C25.8502583,35.4748859 23.6513742,33.0664122 20.7554348,31.9852174 C18.712262,34.2785756 17.919906,37.4262417 18.6337681,40.4136232" id="Shape" fill="#32525B"></path>
                <path d="M10.588913,8.73913043 C8.49247546,10.9776859 7.6207132,14.098631 8.25362319,17.0995652 C11.3378538,17.5299979 14.444251,16.4789342 16.6334783,14.2642029 C18.7347846,12.0243898 19.6086185,8.89889273 18.9736232,5.89405797 C15.8862001,5.46451932 12.7773914,6.51939012 10.588913,8.73913043" id="Shape" fill="#32525B"></path>
                <path d="M47.2301449,12.0211594 C45.5813088,14.6101945 45.3073444,17.8433379 46.497029,20.6728986 C49.6026574,20.5475644 52.4641576,18.9546386 54.2068841,16.3810145 C55.8549066,13.7917046 56.1288364,10.55897 54.94,7.72927536 C51.8341548,7.85383864 48.9723304,9.44694494 47.2301449,12.0211594" id="Shape" fill="#32525B"></path>
                <path d="M37.384058,1.30601449 C34.5771889,-0.0592186011 31.29171,-0.0250510585 28.5138406,1.39826087 C28.9593558,4.45267348 30.8551366,7.10278698 33.6019565,8.51094203 C36.4088256,9.87617512 39.6943045,9.84200758 42.4721739,8.41869565 C42.0266587,5.36428304 40.1308779,2.71416954 37.384058,1.30601449" id="Shape" fill="#32525B"></path>
                <path d="M27.9506522,20.7942754 C30.3862501,18.913319 31.7537923,15.9644996 31.6162319,12.8902174 C28.6286647,11.9885281 25.3909131,12.5461409 22.8771014,14.3952899 C20.4415035,16.2762462 19.0739613,19.2250656 19.2115217,22.2993478 C22.1990407,23.2018213 25.4371482,22.6441472 27.9506522,20.7942754" id="Shape" fill="#32525B"></path>
                <path d="M5.95717391,51.8036232 C7.71445892,54.367376 10.5849762,55.9440882 13.6913043,56.0518116 C14.8640266,53.2156604 14.5719607,49.9847944 12.9096377,47.4049275 C11.1523527,44.8411747 8.28183543,43.2644625 5.17550725,43.1567391 C4.00193611,45.9927611 4.29403897,49.2240356 5.95717391,51.8036232" id="Shape" fill="#32525B"></path>
                <path d="M4.4084058,26.5426812 C1.84432915,28.2496329 0.269197915,31.0957321 0.184492754,34.1748551 C3.10263742,35.2796846 6.37056681,34.9469565 9.00615942,33.2766667 C11.5702361,31.5697149 13.1453673,28.7236157 13.2300725,25.6444928 C10.3118261,24.5404402 7.04425464,24.8731319 4.4084058,26.5426812" id="Shape" fill="#32525B"></path>
                <path d="M26.5232609,64.4268116 C29.4423458,65.5249176 32.7078436,65.1868595 35.3400725,63.514058 C34.5987898,60.5132553 32.4570714,58.0534421 29.5868116,56.9063043 C26.6678269,55.8074218 23.4019717,56.1455169 20.77,57.819058 C21.5112827,60.8198606 23.6530011,63.2796738 26.5232609,64.4268116" id="Shape" fill="#32525B"></path>
                <path d="M55.2264493,23.6781884 C52.2859772,24.634541 49.9833693,26.9443728 49.0362319,29.8878261 C51.5505586,31.7360329 54.7885987,32.2918964 57.7753623,31.3880435 C60.7195485,30.4343345 63.0261896,28.1240809 63.9752899,25.1784058 C61.4609631,23.330199 58.2229231,22.7743355 55.2361594,23.6781884" id="Shape" fill="#32525B"></path>
                <path d="M52.3765217,45.7153623 C53.5479279,48.5897513 56.0271569,50.7277027 59.0425362,51.4637681 C60.7884429,48.939252 61.1857358,45.7191842 60.1057971,42.8460145 C58.9281248,39.9809622 56.4499334,37.8529305 53.4397826,37.1218841 C51.6938759,39.6464001 51.296583,42.866468 52.3765217,45.7396377" id="Shape" fill="#32525B"></path>
                <path d="M41.4768841,48.5798551 C44.4321991,47.6617023 46.7672289,45.3808496 47.7544928,42.4478986 C45.2583483,40.5629698 42.0187735,39.967248 39.0153623,40.8408696 C36.0596277,41.7583183 33.7243235,44.0394391 32.7377536,46.9728261 C35.233898,48.8577549 38.4734729,49.4534767 41.4768841,48.5798551" id="Shape" fill="#32525B"></path>
                <path d="M49.8664493,61.1205072 C52.1962104,59.1116728 53.3994894,56.0926025 53.0902174,53.0319565 C50.0659753,52.2834153 46.8658033,53.0029593 44.4530435,54.9739855 C42.1232823,56.9828199 40.9200034,60.0018903 41.2292754,63.0625362 C44.2535258,63.8102923 47.4533458,63.0908275 49.8664493,61.1205072" id="Shape" fill="#32525B"></path>
                <path d="M40.6855072,17.0704348 C40.6855072,18.3333659 39.6616993,19.3571739 38.3987681,19.3571739 C37.135837,19.3571739 36.112029,18.3333659 36.112029,17.0704348 C36.112029,15.8075036 37.135837,14.7836957 38.3987681,14.7836957 C39.6616993,14.7836957 40.6855072,15.8075036 40.6855072,17.0704348" id="Shape" fill="#F2979A"></path>
                <path d="M26.4989855,7.00101449 C26.4989855,7.92591413 25.9418394,8.7597422 25.0873436,9.11368597 C24.2328477,9.46762974 23.2492804,9.27198605 22.5952776,8.61798324 C21.9412748,7.96398043 21.7456311,6.98041316 22.0995749,6.12591731 C22.4535187,5.27142146 23.2873467,4.71427536 24.2122464,4.71427536 C25.4751775,4.71427536 26.4989855,5.73808334 26.4989855,7.00101449" id="Shape" fill="#F2979A"></path>
                <path d="M35.8789855,37.2092754 C35.8789855,38.4722065 34.8551775,39.4960145 33.5922464,39.4960145 C32.3293152,39.4960145 31.3055072,38.4722065 31.3055072,37.2092754 C31.3055072,35.9463442 32.3293152,34.9225362 33.5922464,34.9225362 C34.8551775,34.9225362 35.8789855,35.9463442 35.8789855,37.2092754" id="Shape" fill="#F2979A"></path>
                <path d="M20.5466667,27.4602899 C20.5466667,28.723221 19.5228587,29.747029 18.2599275,29.747029 C16.9969964,29.747029 15.9731884,28.723221 15.9731884,27.4602899 C15.9731884,26.1973587 16.9969964,25.1735507 18.2599275,25.1735507 C19.5228587,25.1735507 20.5466667,26.1973587 20.5466667,27.4602899" id="Shape" fill="#F2979A"></path>
                <path d="M12.7639855,38.8114493 C12.7639855,40.0743804 11.7401775,41.0981884 10.4772464,41.0981884 C9.21431523,41.0981884 8.19050725,40.0743804 8.19050725,38.8114493 C8.19050725,37.5485181 9.21431523,36.5247101 10.4772464,36.5247101 C11.7401775,36.5247101 12.7639855,37.5485181 12.7639855,38.8114493" id="Shape" fill="#F2979A"></path>
                <path d="M49.380942,35.378913 C49.380942,36.6418442 48.357134,37.6656522 47.0942029,37.6656522 C45.8312717,37.6656522 44.8074638,36.6418442 44.8074638,35.378913 C44.8074638,34.1159819 45.8312717,33.0921739 47.0942029,33.0921739 C48.357134,33.0921739 49.380942,34.1159819 49.380942,35.378913" id="Shape" fill="#F2979A"></path>
                <path d="M64.4850725,34.9225362 C64.4850725,36.1854674 63.4612645,37.2092754 62.1983333,37.2092754 C60.9354022,37.2092754 59.9115942,36.1854674 59.9115942,34.9225362 C59.9115942,33.6596051 60.9354022,32.6357971 62.1983333,32.6357971 C63.4612645,32.6357971 64.4850725,33.6596051 64.4850725,34.9225362" id="Shape" fill="#F2979A"></path>
                <path d="M38.3987681,53.731087 C38.3987681,54.9940181 37.3749601,56.0178261 36.112029,56.0178261 C34.8490978,56.0178261 33.8252899,54.9940181 33.8252899,53.731087 C33.8252899,52.4681558 34.8490978,51.4443478 36.112029,51.4443478 C36.7185099,51.4443478 37.300151,51.6852714 37.7289977,52.1141182 C38.1578445,52.542965 38.3987681,53.124606 38.3987681,53.731087" id="Shape" fill="#F2979A"></path>
                <path d="M22.377029,51.4637681 C22.377029,52.7266993 21.353221,53.7505072 20.0902899,53.7505072 C18.8273587,53.7505072 17.8035507,52.7266993 17.8035507,51.4637681 C17.8035507,50.200837 18.8273587,49.177029 20.0902899,49.177029 C21.353221,49.177029 22.377029,50.200837 22.377029,51.4637681" id="Shape" fill="#F2979A"></path>
            </g>
        </g>
    </g>
</svg>