<?xml version="1.0" encoding="utf-8"?>
<!-- Generator: Adobe Illustrator 21.0.2, SVG Export Plug-In . SVG Version: 6.00 Build 0)  -->
<svg version="1.1" id="Layer_1" xmlns="http://www.w3.org/2000/svg" xmlns:xlink="http://www.w3.org/1999/xlink" x="0px" y="0px"
	 viewBox="0 0 100 100" style="enable-background:new 0 0 100 100;" xml:space="preserve">
<style type="text/css">
	.st0{display:none;}
	.st1{display:inline;}
	.st2{display:inline;clip-path:url(#SVGID_2_);}
	.st3{clip-path:url(#SVGID_4_);fill:#32535A;}
	.st4{display:inline;clip-path:url(#SVGID_6_);}
	.st5{clip-path:url(#SVGID_8_);fill:#32535A;}
	.st6{display:inline;clip-path:url(#SVGID_10_);}
	.st7{clip-path:url(#SVGID_12_);fill:#32535A;}
	.st8{display:inline;clip-path:url(#SVGID_14_);}
	.st9{clip-path:url(#SVGID_16_);fill:#32535A;}
	.st10{display:inline;clip-path:url(#SVGID_18_);}
	.st11{clip-path:url(#SVGID_20_);fill:#32535A;}
	.st12{display:inline;clip-path:url(#SVGID_22_);}
	.st13{clip-path:url(#SVGID_24_);fill:#32535A;}
	.st14{display:inline;clip-path:url(#SVGID_26_);}
	.st15{clip-path:url(#SVGID_28_);fill:#32535A;}
	.st16{clip-path:url(#SVGID_30_);}
	.st17{clip-path:url(#SVGID_32_);fill:#32535A;}
</style>
<g class="st0">
	<defs>
		<path id="SVGID_1_" d="M50,52.4c-10,0-18-8.1-18-18s8.1-18,18-18c10,0,18,8.1,18,18S60,52.4,50,52.4z M50,13.9
			c-11.3,0-20.5,9.2-20.5,20.5c0,11.3,9.2,20.5,20.5,20.5c11.3,0,20.5-9.2,20.5-20.5C70.5,23.1,61.3,13.9,50,13.9z M50,57.1
			c-12.6,0-22.7-10.2-22.7-22.7c0-12.6,10.2-22.7,22.7-22.7c12.6,0,22.7,10.2,22.7,22.7C72.7,47,62.6,57.1,50,57.1z M50,71.5
			c-3.8,0-7-3.9-10.4-5c-0.7-0.2-1.5-0.4-2.4-0.5v34c0,0,8.7-6.8,12.8-14.6c3.8,7.8,12.8,14.6,12.8,14.6V66
			c-0.8,0.1-1.6,0.2-2.4,0.5C57,67.6,53.8,71.5,50,71.5z M82.7,23.8c-1.1-3.3-5.4-5-7.4-7.7c-2-2.8-2.3-7.4-5.1-9.5
			c-2.8-2-7.3-0.8-10.6-1.9C56.5,3.6,53.5,0,50,0c-3.5,0-6.5,3.6-9.7,4.7C37,5.7,32.5,4.6,29.8,6.6c-2.8,2-3,6.7-5.1,9.5
			c-2,2.8-6.4,4.4-7.4,7.7c-1,3.2,1.5,7.1,1.5,10.6c0,3.5-2.5,7.4-1.5,10.6c1.1,3.3,5.4,5,7.4,7.7c2,2.8,2.3,7.4,5.1,9.5
			c2,1.4,4.8,1.2,7.4,1.4c1.1,0.1,2.2,0.2,3.1,0.5c3.2,1,6.1,4.7,9.7,4.7c3.5,0,6.5-3.6,9.7-4.7c1-0.3,2-0.4,3.1-0.5
			c2.7-0.1,5.5,0,7.4-1.4c2.8-2,3-6.7,5.1-9.5c2-2.8,6.4-4.4,7.4-7.7c1-3.2-1.5-7.1-1.5-10.6C81.2,30.9,83.8,27,82.7,23.8z"/>
	</defs>
	<clipPath id="SVGID_2_" class="st1">
		<use xlink:href="#SVGID_1_"  style="overflow:visible;"/>
	</clipPath>
	<g class="st2">
		<defs>
			<rect id="SVGID_3_" x="-125" y="-947" width="2054" height="1922"/>
		</defs>
		<clipPath id="SVGID_4_">
			<use xlink:href="#SVGID_3_"  style="overflow:visible;"/>
		</clipPath>
		<rect x="12" y="-5" class="st3" width="75.9" height="110"/>
	</g>
</g>
<g class="st0">
	<defs>
		<path id="SVGID_5_" d="M91.3,91.7h-24c0.3-3.8,0.4-7.2,1-10.6c0.2-0.9,2.1-2,3.2-2.1c4.7-0.2,9.4,0.1,14.1-0.2
			c3.2-0.2,4.6,1,4.7,4.2C90.4,85.7,90.9,88.3,91.3,91.7z M100.5,99.4c-1.5-11.2-2.5-22-4.8-32.6c-0.7-3-4.7-6.6-7.9-7.5
			c-4.2-1.2-4.7-3-4.6-6.6c0.1-15.8,0.1-31.6,0-47.4c0-1.8-0.2-3.5-0.3-5.2h-7.8v58c-6,0.6-11.6,2.5-12.7,8.5
			c-2.1,10.8-3,21.8-4.5,32.9H100.5z M48.8,50.1c0.1,0.8,0.3,1.4,0.2,2C47,64.3,45,76.4,43.2,88.5c-0.4,2.8-1.9,3.6-4.5,3.5
			c-3.9-0.1-7.7,0-11.6,0C16,92,15.8,92,13.8,81.3c-1.9-10.3-3.4-20.7-5-31c6-1.8,10.1-0.5,12.8,4.7c0.7,1.3,1.8,2.4,2.7,3.6
			c1.8,2.4,4.1,5.1,6.8,2.3c1.1-1.1,0.6-5.1-0.5-6.9c-3.5-5.5-7.8-10.5-11.7-15.7c0.9-1.9,1.6-3.7,2.6-5.4
			c2.8-4.7,10.4-6.1,13.3-1.7c3.5,5.3,6.7,8,12.6,4c0.3-0.2,1.2,0.5,1.8,0.6c2.7,0.5,5.3,0.9,8.2,1.4c-0.6-7.1-4.7-10.7-10.9-9.8
			c-2.8,0.4-4.5-0.1-6.6-2.1c-6.8-6.5-16.8-6-23.1,0.7c-1.2,1.3-2.2,2.8-3.6,4.5c-2.2-2.8-4.3-5.3-6.3-7.9c-2.3,1.8-4.1,3.2-6.1,4.8
			c3.4,4.7,6.6,9.1,10.5,14.4H-0.2c-0.2,0.9-0.3,1.3-0.3,1.6c3,17.9,6,35.8,9.3,53.7c0.2,1.2,2.7,2.7,4.2,2.7
			c7.2,0.3,14.5,0.2,21.7,0.1c4.6-0.1,10.6,1.2,13.5-1.2c2.7-2.2,2.3-8.3,3.1-12.8c2.5-14.5,4.9-29.1,7.4-43.8h-29
			C32.4,53.6,42.1,48.1,48.8,50.1z"/>
	</defs>
	<clipPath id="SVGID_6_" class="st1">
		<use xlink:href="#SVGID_5_"  style="overflow:visible;"/>
	</clipPath>
	<g class="st4">
		<defs>
			<rect id="SVGID_7_" x="-534.5" y="-1228" width="2054" height="1922"/>
		</defs>
		<clipPath id="SVGID_8_">
			<use xlink:href="#SVGID_7_"  style="overflow:visible;"/>
		</clipPath>
		<rect x="-5.5" y="-5" class="st5" width="111" height="110"/>
	</g>
</g>
<g class="st0">
	<defs>
		<path id="SVGID_9_" d="M13.1,20.9c0-0.2-0.1-0.4-0.4-0.4h-0.1c-0.2,0-0.4,0.1-0.4,0.4l-0.6,11.7c0,0.2-0.1,0.4-0.4,0.4h-0.1
			c-0.2,0-0.4-0.1-0.4-0.4l-0.6-11.7c0-0.2-0.1-0.4-0.4-0.4c-0.2,0-0.4,0.1-0.4,0.4L9,32.5c0,0.2-0.1,0.4-0.4,0.4H8.5
			c-0.2,0-0.4-0.1-0.4-0.4L7.5,20.9c0-0.2-0.1-0.4-0.4-0.4c-0.2,0-0.4,0.1-0.4,0.4L6.2,32.5c0,0.2-0.1,0.4-0.4,0.4H5.8
			c-0.2,0-0.4-0.1-0.4-0.4L4.8,20.9c0-0.2-0.1-0.4-0.4-0.4H4.4c-0.2,0-0.4,0.1-0.4,0.4v17.8c0,0.8,0.7,1.5,1.5,1.5h0.1
			c0.4,0,0.7,0.2,0.7,0.7v27.4v9c0,1.2,0.9,2.2,2.2,2.2c1.2,0,2.2-0.9,2.2-2.2v-9V40.9c0-0.4,0.2-0.7,0.7-0.7h0.1
			c0.8,0,1.5-0.7,1.5-1.5V20.9H13.1z M96,21.8c0-0.9-0.7-1.7-1.7-1.5c-0.6,0-1.2,0.4-1.4,0.8c-1.3,2.1-4.4,8.1-4.4,15
			c0,6,1.8,11.6,2.7,14.3c0.5,1.2,0.7,2.5,0.6,3.8c-0.4,5.5-1.1,20.5-1.3,22.9c-0.1,1.5,1.1,2.9,2.7,2.9c1.5,0,2.7-1.2,2.7-2.7V21.8
			z M50.7,32c-9.9,0-18,8-18,18s8,18,18,18s18-8.1,18-18S60.6,32,50.7,32z M50.7,71.9c-12,0-21.9-9.9-21.9-21.9
			c0-12,9.8-21.9,21.9-21.9S72.6,38,72.6,50C72.6,62,62.9,71.9,50.7,71.9z M50.7,18.9c-17.2,0-31.1,13.9-31.1,31.1
			s13.9,31.1,31.1,31.1S81.8,67.2,81.8,50S67.9,18.9,50.7,18.9z"/>
	</defs>
	<clipPath id="SVGID_10_" class="st1">
		<use xlink:href="#SVGID_9_"  style="overflow:visible;"/>
	</clipPath>
	<g class="st6">
		<defs>
			<rect id="SVGID_11_" x="-456.2" y="-843.7" width="1279.2" height="1197"/>
		</defs>
		<clipPath id="SVGID_12_">
			<use xlink:href="#SVGID_11_"  style="overflow:visible;"/>
		</clipPath>
		<rect x="0.9" y="15.7" class="st7" width="98.2" height="68.5"/>
	</g>
</g>
<g class="st0">
	<defs>
		<path id="SVGID_13_" d="M25.9,17.7h-5.7v-7.5h5.7V17.7z M36,17.7h-5.7v-7.5H36V17.7z M46.2,17.7h-5.7v-7.5h5.7V17.7z M50.8,21.2
			L50.8,21.2c-0.1-5-0.1-8,0-12.8c0-1.1-0.2-2-1-2.6c-0.3-0.3-0.7-0.4-1-0.4H17.4c-0.5,0-1,0.2-1.3,0.5c-0.6,0.6-0.9,1.4-0.9,2.5
			c0.1,4.8,0,7.7,0,12.8h-0.1C8,21.2,2.1,27.1,2.1,34.3v38c0,7.2,5.8,13.1,13.1,13.1h32.9v-5.7H15.2c-1.3,0-2.4-0.3-3.4-0.9
			c-2-1.1-3.4-2.9-3.8-5.2c-0.1-0.4-0.1-0.9-0.1-1.3v-38c0-4.1,3.3-7.4,7.4-7.4h35.6c3.3,0,6.1,2.1,7,5.1h5.8
			C62.6,25.9,57.3,21.2,50.8,21.2z M46.2,50.3h-9.2v-9.2H29v9.2h-9.1v7.9h9.2v9.1h7.8V58h9.2V50.3z M86.4,81c0-7.8,0-15.5,0-23.2
			v-4.2c0-0.3-0.1-0.6-0.1-0.9H61.7v4.5c0,0.3,0,0.7,0,1v0.3h0c0,0.1,0,0.2,0,0.3h8.9v2.9h-8.9V68h9v2.8h-9v6.3h8.9v2.9h-8.9
			c0,0.1,0,0.2,0,0.3h0v0.3c0,0.4,0,0.7,0,1V86h24.6c0-0.3,0.1-0.6,0.1-0.9V81z M58.1,49.8h31.8v39.8H58.1V49.8z M50.2,37.1v12.6h3
			v44.7h41.7V49.8h3V37.1H50.2z"/>
	</defs>
	<clipPath id="SVGID_14_" class="st1">
		<use xlink:href="#SVGID_13_"  style="overflow:visible;"/>
	</clipPath>
	<g class="st8">
		<defs>
			<rect id="SVGID_15_" x="-493.6" y="-1267" width="1828.1" height="1710.6"/>
		</defs>
		<clipPath id="SVGID_16_">
			<use xlink:href="#SVGID_15_"  style="overflow:visible;"/>
		</clipPath>
		<rect x="-2.3" y="1" class="st9" width="104.6" height="97.9"/>
	</g>
</g>
<g class="st0">
	<defs>
		<path id="SVGID_17_" d="M23.3,67.7c-0.9,0.8-1.3,1.9-1.3,2.8c0,0.7,0.2,1.3,0.7,1.8l2.6,2.9c0.5,0.6,1.3,0.9,2.1,0.9
			c0.8,0,1.8-0.3,2.5-1l13.2-11.7c0.9-0.8,1.3-1.9,1.3-2.8c0-0.7-0.2-1.3-0.7-1.8L41.2,56c-0.5-0.6-1.3-0.9-2.1-0.9
			c-0.9,0-1.8,0.3-2.5,1L23.3,67.7L23,67.4c0,0,0,0,0,0L23.3,67.7z M41.8,35.5L41.8,35.5c-0.1,0.1-0.2,0.1-0.3,0.2
			c-0.8,0.5-1.7,0.7-2.5,0.7h0c-0.9,0-1.6-0.2-2.2-0.2c-1.7-0.2-3.3-0.6-4.9-0.8c-1.6-0.2-3.2-1.1-4-2.8c-0.3-0.6-0.4-1.2-0.4-1.8
			c0-1,0.3-1.8,0.8-2.5c0.5-0.7,1-1.3,1.6-1.9c1.2-1.1,2.5-2,3.3-2.6c5.3-4.4,10.6-8.8,15.7-13.3c0.1-0.1,0.1-0.1,0.2-0.1v0l0,0
			l1.1-0.9C46,6.3,40.5,5,36.6,4.3c-1.9-0.4-3.8-0.5-5.6-0.5C16.6,3.8,4.3,13.9,2.2,27.4C2.1,28.5,2,29.6,2,30.7
			c0,7.7,4,15.9,9.5,21.4l0,0l1,1l0,0l1.6,1.6l11.9-10.5c1.3-1.1,2.8-1.7,4.4-1.7c1.6,0,3.1,0.6,4.2,1.8l2.6,2.9
			c0.9,1,1.4,2.4,1.4,3.7c0,0.5-0.1,1-0.2,1.5c0.2,0,0.5,0,0.7,0c1.6,0,3.1,0.6,4.2,1.8l2.6,2.9c0.9,1,1.4,2.4,1.4,3.7
			c0,0.5-0.1,0.9-0.2,1.4c0.3,0,0.6-0.1,0.9-0.1c1.6,0,3.1,0.6,4.2,1.8l2.6,2.9c0.9,1,1.4,2.4,1.4,3.7c0,0.7-0.1,1.3-0.3,2
			c0.8-0.3,1.6-0.4,2.3-0.4c1.5,0,3.1,0.6,4.2,1.8l1,1.1c0,0,0,0,0,0c1,1,1.9,1.8,2.7,2.3c0.8,0.5,1.4,0.7,1.8,0.7
			c0.3,0,0.5-0.1,0.7-0.3l2.9-2.6c0.2-0.2,0.4-0.6,0.4-1.4c0-1.5-1-4.2-2.6-6.6l0-0.1l-0.4-0.8L52.1,47.7l0,0l-0.3-0.3l0,0l-0.5-0.5
			h0l2.1-1.9L71,64.5l0.2,0.3c1.1,1.2,2.3,2.2,3.4,2.8c1.1,0.6,2.2,0.9,2.8,0.9c0.5,0,0.8-0.1,0.9-0.3l2.9-2.6
			c0.2-0.2,0.4-0.5,0.4-1.2c0-1.3-0.8-3.5-2.4-5.5c0,0,0,0,0,0c0-0.1-0.1-0.1-0.1-0.2c-0.1-0.2-0.3-0.3-0.4-0.5L60.9,38.4l2-1.9
			l17.9,19.7c0.2,0.2,0.4,0.4,0.5,0.6l0.1,0.1c0.7,0.7,1.5,1.5,2.3,2c0.8,0.5,1.5,0.8,2.2,0.8c0.4,0,0.8-0.1,1.3-0.4l0,0l0,0
			c1-0.5,2-1.1,2.6-1.9c0.7-0.8,1.1-1.6,1.1-2.5c0,0,0-0.1,0-0.1c0-0.1,0-0.3,0-0.4c-0.2-1.8-1.2-3.4-2.5-4.8
			c-8.9-9.6-17-18.8-25.3-28.4l-1.7-1.8L41.8,35.5z M35,25.9c-0.7,0.6-1.6,1.2-2.4,1.9c-0.8,0.7-1.6,1.4-1.9,2
			c-0.3,0.4-0.4,0.8-0.4,1.1c0,0.2,0,0.4,0.2,0.6c0.4,0.8,0.8,1.1,1.9,1.2c1.7,0.2,3.3,0.6,4.9,0.8c0.7,0.1,1.3,0.2,1.8,0.2
			c0.4,0,0.7-0.1,0.9-0.2l20.7-17l1.1-0.9l1.1,1.4l2.1,2.2l0,0c0.1,0.1,0.2,0.2,0.3,0.3c8.3,9.6,16.3,18.8,25.3,28.4l0,0l0,0
			c0.8,1,1.7,2.1,2.3,3.5c2.6-3.9,3.7-8.5,4.4-12.1c0.5-2.2,0.7-4.3,0.7-6.4c0-14-9.7-26.3-22.9-28.6C74,4.1,72.9,4,71.8,4
			C65.1,4,57.5,7.1,53,10.5l0,0l-2.3,2C45.6,17.1,40.3,21.5,35,25.9z M53.4,70.5c0-0.7-0.2-1.3-0.7-1.8l-2.6-2.9
			c-0.5-0.6-1.3-0.9-2.1-0.9c-0.9,0-1.8,0.3-2.5,1L32.2,77.5c-0.9,0.8-1.3,1.9-1.3,2.8c0,0.7,0.2,1.3,0.7,1.8l2.6,2.9
			c0.5,0.6,1.3,0.9,2.1,0.9c0.8,0,1.8-0.3,2.5-1l13.2-11.7C52.9,72.6,53.4,71.5,53.4,70.5z M60.3,75.7c-0.5-0.6-1.3-0.9-2.1-0.9
			c-0.9,0-1.9,0.3-2.9,1.1L42.4,87.7c-0.7,0.8-1.1,1.8-1.1,2.7c0,0.8,0.2,1.5,0.7,2l2.7,2.9c0.5,0.6,1.3,0.9,2.1,0.9
			c0.9,0,1.8-0.3,2.6-1l13-11.9c1.4-1.3,1.7-2.2,1.7-2.7c0-0.3-0.1-0.6-0.3-0.9c-0.2-0.3-0.5-0.7-0.8-1l-1.6-1.7c0,0,0,0,0,0h0l0,0
			l0.2-0.2l0.8-0.7l-1,0.9L60.3,75.7z M34.4,53.7c0.9-0.8,1.3-1.9,1.3-2.8c0-0.7-0.2-1.3-0.7-1.8l-2.6-2.9c-0.5-0.6-1.3-0.9-2.1-0.9
			c-0.9,0-1.8,0.3-2.6,1L14.6,57.8c-0.9,0.8-1.3,1.9-1.3,2.8c0,0.7,0.2,1.3,0.7,1.8l2.6,2.9c0.5,0.6,1.3,0.9,2.1,0.9
			c0.8,0,1.8-0.3,2.6-1L34.4,53.7z"/>
	</defs>
	<clipPath id="SVGID_18_" class="st1">
		<use xlink:href="#SVGID_17_"  style="overflow:visible;"/>
	</clipPath>
	<g class="st10">
		<defs>
			<rect id="SVGID_19_" x="-956.9" y="-124.8" width="1899.4" height="1777.3"/>
		</defs>
		<clipPath id="SVGID_20_">
			<use xlink:href="#SVGID_19_"  style="overflow:visible;"/>
		</clipPath>
		<rect x="-2.6" y="-0.9" class="st11" width="105.2" height="101.7"/>
	</g>
</g>
<g class="st0">
	<defs>
		<path id="SVGID_21_" d="M50.2,11.6c1.2,4.8,6.5,8,11.4,6.7c4.8-1.2,7.9-6.5,6.7-11.3C67,2.2,61.7-1,56.9,0.3
			C52.1,1.5,48.9,6.8,50.2,11.6z M35.8,63.2c-1,2.8-2,5.7-2.8,8.5c-0.3,1.1-0.8,1.6-1.9,1.9c-5.8,1.8-11.6,3.7-17.4,5.5
			c-2.4,0.8-4.3,3.2-4.2,5.5c0.1,3.6,3.8,6.1,7.4,5c4.2-1.3,8.4-2.7,12.6-4c2.8-0.9,5.5-1.8,8.3-2.7c2.1-0.6,3.5-1.9,4.1-4.1
			c1-3.2,2.1-6.4,3.2-9.6c0.3-0.9-0.1-1.1-0.7-1.4c-1.7-0.7-3.5-1.3-5.1-2.1C38.1,65.2,37.1,64.1,35.8,63.2z M59.2,35.8
			c1.3,1.6,2.4,2.9,3.5,4.2c1.4,1.7,2.7,3.5,4.1,5.1c1.4,1.6,3.3,2.3,5.4,1.8c4.7-1.1,9.4-2.2,14-3.4c3-0.8,4.8-3.8,4.1-6.6
			c-0.6-2.5-3.6-4.8-6.9-4c-3.2,0.8-6.4,1.5-9.5,2.4c-0.8,0.2-1.2,0-1.7-0.6c-2.2-3.1-4.5-6.1-6.6-9.3c-1.5-2.2-3.5-3.6-6.1-4.1
			c-3.8-0.8-7.5-1.7-11.3-2.4c-1.2-0.2-2.5-0.2-3.6,0c-5.4,1.2-10.8,2.6-16.2,3.9c-2.1,0.5-3,2.3-3.9,3.9c-1.5,2.8-2.9,5.6-4.3,8.3
			c-0.8,1.6-1.7,3.2-2.5,4.8c-1.1,2.6,0.1,5.5,2.8,6.9c2.3,1.2,5.5,0.4,6.8-1.9c1.5-2.6,2.8-5.3,4.2-8c0.5-1,1-2.1,1.5-3.1
			c0.3-0.7,0.9-1.1,1.7-1.3c2.6-0.6,5.2-1.2,7.9-1.9c0,0.4,0.1,0.7,0,0.9c-2.2,7-4.4,13.9-6.7,20.9c-0.7,2.2-1.3,4.3-0.4,6.6
			c1,2.7,3.2,4.1,5.7,5.1c5.8,2.5,11.5,5,17.3,7.6c0.7,0.3,1.1,0.8,1,1.6c-0.5,6.9-0.9,13.9-1.3,20.9c-0.2,2.9,2.2,5.5,5,5.7
			c2.9,0.2,5.6-2,5.8-4.9c0.4-5.5,0.7-11.1,1.1-16.6c0.2-2.9,0.3-5.8,0.5-8.6c0.2-3.1-1-5.1-3.8-6.3c-4.3-1.9-8.6-3.8-12.9-5.7
			c-0.9-0.4-1-1-0.7-1.8c1.1-3.6,2.1-7.1,3.1-10.7c0.8-2.8,1.6-5.6,2.5-8.4C58.8,36.7,59,36.4,59.2,35.8z"/>
	</defs>
	<clipPath id="SVGID_22_" class="st1">
		<use xlink:href="#SVGID_21_"  style="overflow:visible;"/>
	</clipPath>
	<g class="st12">
		<defs>
			<rect id="SVGID_23_" x="-989.5" y="-1090.4" width="2054" height="1922"/>
		</defs>
		<clipPath id="SVGID_24_">
			<use xlink:href="#SVGID_23_"  style="overflow:visible;"/>
		</clipPath>
		<rect x="4.5" y="-5" class="st13" width="90.9" height="110"/>
	</g>
</g>
<g class="st0">
	<defs>
		<path id="SVGID_25_" d="M12.9,6.4c0-3.5,2.9-6.4,6.4-6.4h61.4c3.5,0,6.4,2.9,6.4,6.4l5.4,40h0v39H89V100H76V85.4H24V100H11V85.4
			H7.5v-39h0L12.9,6.4z M62.2,4.6H37.8v7.1h24.4V4.6z M76.2,74c4.5,0,8.1-3.6,8.1-8.1c0-4.5-3.6-8.1-8.1-8.1c-4.5,0-8.1,3.6-8.1,8.1
			C68.1,70.4,71.7,74,76.2,74z M23.8,74c4.5,0,8.1-3.6,8.1-8.1c0-4.5-3.6-8.1-8.1-8.1c-4.5,0-8.1,3.6-8.1,8.1
			C15.6,70.4,19.3,74,23.8,74z M84.4,44.6l-5.4-28.4H21.1l-5.4,28.4H84.4z"/>
	</defs>
	<clipPath id="SVGID_26_" class="st1">
		<use xlink:href="#SVGID_25_"  style="overflow:visible;"/>
	</clipPath>
	<g class="st14">
		<defs>
			<rect id="SVGID_27_" x="-351.5" y="-336.8" width="2054" height="1922"/>
		</defs>
		<clipPath id="SVGID_28_">
			<use xlink:href="#SVGID_27_"  style="overflow:visible;"/>
		</clipPath>
		<rect x="2.5" y="-5" class="st15" width="94.9" height="110"/>
	</g>
</g>
<g>
	<defs>
		<path id="SVGID_29_" d="M29,0H71c4,0,7.3,3.3,7.3,7.3v85.4c0,4-3.3,7.3-7.3,7.3H29c-4,0-7.3-3.3-7.3-7.3V7.3C21.7,3.3,24.9,0,29,0
			z M60.4,4.4H39.6c-0.5,0-1,0.8-1,1.7c0,1,0.4,1.8,1,1.8h20.8c0.5,0,0.9-0.8,0.9-1.8C61.3,5.2,60.9,4.4,60.4,4.4z M50,92.8
			c2.6,0,4.7-2.1,4.7-4.6c0-2.6-2.1-4.6-4.7-4.6c-2.5,0-4.6,2.1-4.6,4.6C45.4,90.7,47.4,92.8,50,92.8z M27.1,76.9h45.7V12.3H27.1
			V76.9z"/>
	</defs>
	<clipPath id="SVGID_30_">
		<use xlink:href="#SVGID_29_"  style="overflow:visible;"/>
	</clipPath>
	<g class="st16">
		<defs>
			<rect id="SVGID_31_" x="-667.3" y="-289.3" width="2054" height="1922"/>
		</defs>
		<clipPath id="SVGID_32_">
			<use xlink:href="#SVGID_31_"  style="overflow:visible;"/>
		</clipPath>
		<rect x="16.7" y="-5" class="st17" width="66.6" height="110"/>
	</g>
</g>
</svg>
