<?xml version="1.0" encoding="UTF-8"?>
<svg width="1463px" height="1080px" viewBox="0 0 1463 1080" version="1.1" xmlns="http://www.w3.org/2000/svg" xmlns:xlink="http://www.w3.org/1999/xlink">
    <!-- Generator: Sketch 49.1 (51147) - http://www.bohemiancoding.com/sketch -->
    <title>Edyn_Leaves Copy</title>
    <desc>Created with Sketch.</desc>
    <defs></defs>
    <g id="Symbols" stroke="none" stroke-width="1" fill="none" fill-rule="evenodd" opacity="0.451313406">
        <g id="Slide/BG4" transform="translate(-18.000000, 0.000000)" fill="#FFFFFF" fill-rule="nonzero">
            <g id="listeningSection" transform="translate(-1239.000000, -1855.000000)">
                <g id="Group">
                    <g id="Edyn_Leaves-Copy" transform="translate(1723.033682, 2163.303205) rotate(-39.000000) translate(-1723.033682, -2163.303205) translate(841.533682, 1198.803205)">
                        <g id="Edyn_Leaves" transform="translate(-0.000000, -0.000000)">
                            <path d="M646.325988,1239.14742 C649.111009,1245.41666 654.961713,1249.59616 661.827114,1251.08684 C668.692514,1252.57753 654.84657,1221.55176 647.966776,1220.03321 C644.375754,1225.93326 643.562556,1232.90605 646.325988,1239.14742 Z" id="Shape"></path>
                            <path d="M784.901745,944.834893 C787.542838,938.406473 786.579196,931.263785 782.903081,925.27107 C779.226965,919.278354 766.092881,951.391881 769.754721,957.363168 C776.564457,955.691779 782.260653,951.291883 784.901745,944.834893 Z" id="Shape"></path>
                            <path d="M798.728562,519.724172 C801.369655,513.295753 800.406013,506.153064 796.729897,500.160349 C793.053781,494.167633 779.919697,526.28116 783.581537,532.252447 C790.391274,530.581058 796.087469,526.181162 798.728562,519.724172 Z" id="Shape"></path>
                            <path d="M710.69093,756.000705 C705.004694,751.687411 697.646468,750.731298 690.700716,752.693847 C683.754963,754.656396 712.06093,776.01439 718.984586,774.05903 C719.183457,767.006794 716.377167,760.299622 710.69093,756.000705 Z" id="Shape"></path>
                            <path d="M1173.4786,1263.35173 C1176.27316,1269.62687 1182.09935,1273.8103 1188.97441,1275.28147 C1195.84946,1276.75264 1181.95567,1245.72556 1175.0878,1244.2265 C1171.53174,1250.12513 1170.70559,1257.11145 1173.4786,1263.35173 Z" id="Shape"></path>
                            <path d="M990.333155,1367.41814 C990.582626,1360.54114 987.104711,1354.27009 981.432922,1350.0072 C975.761132,1345.7443 974.543128,1379.93204 980.200243,1384.20198 C986.165527,1380.31957 990.083685,1374.29515 990.333155,1367.41814 Z" id="Shape"></path>
                            <path d="M872.25373,1478.28569 C865.428964,1476.37479 858.32074,1478.1354 852.702482,1482.45818 C847.084224,1486.78096 881.048158,1496.28536 886.644612,1491.97689 C884.209791,1485.34958 879.085765,1480.16796 872.25373,1478.28569 Z" id="Shape"></path>
                            <path d="M709.48498,1400.23136 C713.852413,1405.79127 720.70502,1408.5533 727.917902,1408.38829 C735.130785,1408.22329 713.396553,1380.58153 706.191023,1380.74653 C704.154358,1387.50452 705.110193,1394.67144 709.48498,1400.23136 Z" id="Shape"></path>
                            <path d="M523.957592,1282.31712 C519.467976,1277.12523 512.768518,1274.82557 505.957169,1275.42517 C499.14582,1276.02478 521.447043,1301.83605 528.279372,1301.2435 C529.79689,1294.48559 528.440214,1287.509 523.957592,1282.31712 Z" id="Shape"></path>
                            <path d="M938.762089,1180.35967 C934.272473,1175.16778 927.573015,1172.86812 920.761666,1173.46773 C913.950317,1174.06733 936.25154,1199.8786 943.083868,1199.28605 C944.601386,1192.52814 943.244711,1185.55155 938.762089,1180.35967 Z" id="Shape"></path>
                            <path d="M244.973918,1317.62295 C242.479094,1324.09014 243.75982,1331.09333 247.787073,1336.85526 C251.814326,1342.6172 264.214415,1310.47167 260.187162,1304.70973 C253.198694,1306.60687 247.461339,1311.15576 244.973918,1317.62295 Z" id="Shape"></path>
                            <path d="M422.721419,1157.89894 C419.366525,1151.99861 413.161775,1148.37451 406.12732,1147.47364 C399.092865,1146.57277 415.809616,1175.93003 422.822427,1176.8309 C425.874298,1170.73114 426.076313,1163.80615 422.721419,1157.89894 Z" id="Shape"></path>
                            <path d="M323.946469,1033.20155 C321.801321,1026.61742 316.431301,1021.86181 309.752741,1019.67891 C303.07418,1017.49601 313.828522,1050.23952 320.47848,1052.40825 C324.604314,1046.76672 326.105918,1039.77861 323.946469,1033.20155 Z" id="Shape"></path>
                            <path d="M266.17476,991.475586 C265.969335,998.35191 269.483575,1004.60119 275.17679,1008.84253 C280.870005,1013.08387 281.889794,978.885431 276.211253,974.644092 C270.261256,978.547251 266.380186,984.592216 266.17476,991.475586 Z" id="Shape"></path>
                            <path d="M485.760359,852.189643 C481.880002,857.896034 481.277161,865.029023 483.480649,871.684101 C485.684138,878.33918 504.961198,849.928486 502.778497,843.309072 C495.974014,843.444599 489.640716,846.483252 485.760359,852.189643 Z" id="Shape"></path>
                            <path d="M686.294382,1020.34705 C693.111803,1022.4156 700.355312,1021.03657 706.217706,1017.07183 C712.0801,1013.1071 678.176656,1002.68158 672.328955,1006.62563 C674.547555,1013.05194 679.484308,1018.25091 686.294382,1020.34705 Z" id="Shape"></path>
                            <path d="M836.518468,722.699352 C836.657785,715.822584 833.086869,709.601081 827.360205,705.415835 C821.633541,701.230589 820.936956,735.438284 826.626958,739.62353 C832.551598,735.656706 836.371819,729.576121 836.518468,722.699352 Z" id="Shape"></path>
                            <path d="M952.926793,856.878795 C959.173325,853.919798 963.173672,848.173437 964.385898,841.534572 C965.598125,834.895707 934.522344,849.608311 933.310118,856.240311 C939.506734,859.370944 946.680262,859.837793 952.926793,856.878795 Z" id="Shape"></path>
                            <path d="M1193.88385,876.948682 C1188.32538,881.307298 1185.53186,888.17027 1185.65332,895.417392 C1185.77477,902.664514 1213.42421,880.997023 1213.30275,873.757289 C1206.59401,871.666631 1199.44946,872.590067 1193.88385,876.948682 Z" id="Shape"></path>
                            <path d="M1048.3623,1013.72949 C1044.96333,1019.46532 1044.86816,1026.35651 1047.48536,1032.52987 C1050.10257,1038.70323 1067.00221,1010.18818 1064.39181,1004.02166 C1057.74344,1004.64378 1051.76126,1008.0005 1048.3623,1013.72949 Z" id="Shape"></path>
                            <path d="M647.324603,900.855511 C642.504437,905.727061 640.557308,912.737163 641.415134,919.79801 C642.27296,926.858858 666.244435,902.617098 665.393417,895.5635 C658.823558,894.280369 652.144769,895.983961 647.324603,900.855511 Z" id="Shape"></path>
                            <path d="M1116.09582,770.722371 C1122.97387,770.905856 1129.21767,767.375597 1133.43893,761.665533 C1137.66019,755.955468 1103.45318,755.060059 1099.23192,760.740766 C1103.1572,766.671014 1109.21777,770.538885 1116.09582,770.722371 Z" id="Shape"></path>
                            <path d="M1405.08524,1021.3015 C1411.96701,1021.22136 1418.08728,1017.48393 1422.10634,1011.65557 C1426.12541,1005.82721 1391.89283,1006.22791 1387.86671,1012.0417 C1392.00565,1017.76806 1398.21757,1021.37436 1405.08524,1021.3015 Z" id="Shape"></path>
                            <path d="M1295.28681,1035.46829 C1301.87447,1032.86284 1306.46128,1027.00057 1308.28877,1019.90296 C1310.11627,1012.80535 1277.38744,1025.79518 1275.52383,1032.87781 C1281.47584,1036.88332 1288.69915,1038.08123 1295.28681,1035.46829 Z" id="Shape"></path>
                            <path d="M1338.14834,1353.3211 C1331.2419,1354.32502 1325.63086,1358.53352 1322.40309,1364.33765 C1319.17531,1370.14179 1353.52144,1365.14877 1356.75637,1359.35793 C1351.7823,1354.73723 1345.05479,1352.31718 1338.14834,1353.3211 Z" id="Shape"></path>
                            <path d="M1278.59253,1411.64908 C1272.15252,1408.99039 1264.99695,1409.92164 1258.98627,1413.54713 C1252.9756,1417.17261 1285.08263,1430.40206 1291.079,1426.78369 C1289.43322,1420.0019 1285.04685,1414.30777 1278.59253,1411.64908 Z" id="Shape"></path>
                            <path d="M1158.0675,1403.11304 C1155.28356,1396.8439 1149.43513,1392.66446 1142.5724,1391.16683 C1135.70967,1389.6692 1149.54304,1420.70845 1156.42016,1422.22001 C1160.00978,1416.32701 1160.85144,1409.35433 1158.0675,1403.11304 Z" id="Shape"></path>
                            <path d="M1076.49444,1656.49548 C1070.59102,1659.95721 1067.09945,1666.09583 1066.40534,1672.94221 C1065.71123,1679.78859 1095.0811,1662.57103 1095.77521,1655.73867 C1089.47215,1652.99871 1082.40487,1653.04076 1076.49444,1656.49548 Z" id="Shape"></path>
                            <path d="M963.385504,1675.49623 C968.283692,1680.32714 975.244275,1682.16288 982.197697,1681.176 C989.151119,1680.18911 964.774757,1656.28992 957.849979,1657.2699 C956.682721,1663.95036 958.487316,1670.68602 963.385504,1675.49623 Z" id="Shape"></path>
                            <path d="M831.113062,1671.09795 C835.867161,1665.81276 837.432623,1658.58232 836.025871,1651.52072 C834.61912,1644.45912 810.985695,1670.76762 812.385232,1677.82189 C819.426204,1678.61467 826.358963,1676.38314 831.113062,1671.09795 Z" id="Shape"></path>
                            <path d="M1571.91435,1233.94212 C1575.32624,1239.8463 1581.50181,1243.40545 1588.44667,1244.21025 C1595.39152,1245.01505 1578.42471,1215.65373 1571.4941,1214.84893 C1568.58795,1221.0445 1568.53096,1228.03794 1571.91435,1233.94212 Z" id="Shape"></path>
                            <path d="M1640.10076,1372.24517 C1633.65183,1369.19992 1626.40762,1370.00691 1620.24787,1373.72973 C1614.08813,1377.45256 1646.15206,1392.51135 1652.30458,1388.80375 C1650.82248,1381.48752 1646.5497,1375.2752 1640.10076,1372.24517 Z" id="Shape"></path>
                            <path d="M1475.07107,1379.45091 C1481.53133,1381.95964 1488.54936,1380.70527 1494.33183,1376.70607 C1500.11429,1372.70686 1467.96125,1360.25177 1462.18585,1364.2436 C1464.06392,1371.21638 1468.60375,1376.94956 1475.07107,1379.45091 Z" id="Shape"></path>
                            <path d="M1687.28491,1549.97164 C1693.52695,1547.07129 1697.60122,1541.27759 1698.92871,1534.55914 C1700.2562,1527.8407 1669.20842,1542.26539 1667.85975,1548.97683 C1673.94644,1552.26249 1681.04287,1552.85798 1687.28491,1549.97164 Z" id="Shape"></path>
                            <path d="M1488.82357,1696.74696 C1486.64447,1690.16747 1481.28929,1685.39077 1474.63805,1683.26148 C1467.9868,1681.1322 1478.81822,1713.85223 1485.46234,1715.99571 C1489.53569,1710.33181 1491.02403,1703.32646 1488.82357,1696.74696 Z" id="Shape"></path>
                            <path d="M1409.20051,1669.35732 C1402.32154,1669.04189 1396.02052,1672.46029 1391.70002,1678.0867 C1387.37953,1683.71311 1421.56996,1685.26093 1425.89046,1679.64918 C1422.09152,1673.64132 1416.10767,1669.66542 1409.20051,1669.35732 Z" id="Shape"></path>
                            <path d="M1245.32837,1698.12594 C1239.77514,1702.55362 1237.14891,1709.31354 1237.53771,1716.35334 C1237.92651,1723.39313 1265.53126,1701.36955 1265.1498,1694.33693 C1258.18075,1692.55007 1250.8816,1693.69826 1245.32837,1698.12594 Z" id="Shape"></path>
                            <path d="M1241.85233,1795.86176 C1235.75744,1792.70851 1228.76604,1793.22423 1222.7337,1796.5985 C1216.70136,1799.97276 1247.05766,1815.66531 1253.05525,1812.29841 C1251.88075,1805.18151 1247.94722,1799.02237 1241.85233,1795.86176 Z" id="Shape"></path>
                            <path d="M1151.65126,1878.95987 C1148.40785,1885.0501 1148.7164,1892.14717 1151.83783,1898.34302 C1154.95926,1904.53887 1171.08303,1874.23553 1167.96878,1868.06784 C1161.00119,1869.06059 1154.89467,1872.88371 1151.65126,1878.95987 Z" id="Shape"></path>
                            <path d="M947.928697,1790.08843 C950.008635,1783.27005 948.518013,1776.04844 944.510667,1770.23448 C940.503321,1764.42053 930.221498,1798.31447 934.214977,1804.12842 C940.676649,1801.8703 945.862626,1796.90681 947.928697,1790.08843 Z" id="Shape"></path>
                            <path d="M948.832663,1848.79103 C945.999709,1842.54554 940.192153,1838.4193 933.385981,1837.0088 C926.579808,1835.5983 940.737497,1866.65033 947.550752,1868.06784 C950.957379,1862.07498 951.6727,1855.03652 948.832663,1848.79103 Z" id="Shape"></path>
                            <path d="M797.385193,1727.32046 C792.96655,1721.76693 786.187461,1719.12553 779.134904,1719.48405 C772.082348,1719.84258 794.074809,1747.44927 801.127365,1747.09805 C802.94088,1740.15431 801.811031,1732.87399 797.385193,1727.32046 Z" id="Shape"></path>
                            <path d="M639.498749,1712.65203 C639.701588,1719.53884 643.54103,1725.59302 649.401613,1729.50919 C655.262196,1733.42535 654.233516,1699.16772 648.380177,1695.25861 C642.744165,1699.49936 639.295911,1705.75817 639.498749,1712.65203 Z" id="Shape"></path>
                            <path d="M629.036749,1746.40965 C629.676462,1739.54754 626.594208,1733.08783 621.23661,1728.51309 C615.879013,1723.93835 612.702256,1758.07947 618.052584,1762.65421 C624.173475,1759.08902 628.397035,1753.27882 629.036749,1746.40965 Z" id="Shape"></path>
                        </g>
                    </g>
                </g>
            </g>
        </g>
    </g>
</svg>