<?xml version="1.0" encoding="UTF-8"?>
<svg width="116px" height="100px" viewBox="0 0 116 100" version="1.1" xmlns="http://www.w3.org/2000/svg" xmlns:xlink="http://www.w3.org/1999/xlink">
    <!-- Generator: Sketch 49.3 (51167) - http://www.bohemiancoding.com/sketch -->
    <title>paw</title>
    <desc>Created with Sketch.</desc>
    <defs></defs>
    <g id="logo" stroke="none" stroke-width="1" fill="none" fill-rule="evenodd">
        <g id="Artboard" transform="translate(-368.000000, -1385.000000)" fill="#32535A" fill-rule="nonzero">
            <path d="M446.227908,1432.56532 C441.044402,1440.65398 432.097459,1445.54749 422.491199,1445.54749 C412.884939,1445.54749 403.937995,1440.65398 398.751889,1432.56532 L384.480994,1410.29809 C380.570608,1404.19909 381.115487,1396.26128 385.820435,1390.75397 C390.527984,1385.24925 398.288937,1383.47547 404.921119,1386.38973 L404.928921,1386.39363 C416.121703,1391.31315 428.861995,1391.31315 440.053476,1386.38973 C446.686959,1383.47547 454.445311,1385.24535 459.15416,1390.75397 C463.86431,1396.25738 464.407888,1404.19909 460.502704,1410.29809 L446.227908,1432.56532 Z M387.255977,1434.71155 C393.817936,1437.23438 396.732195,1445.5233 393.767219,1453.22184 C390.804845,1460.91907 383.084205,1465.11425 376.530049,1462.59142 C369.971991,1460.06989 367.061634,1451.77966 370.020107,1444.08243 C372.988984,1436.3878 380.709624,1432.18872 387.255977,1434.71155 Z M413.026425,1448.65304 C421.574137,1448.65304 428.504117,1456.78982 428.504117,1466.82652 C428.504117,1476.86322 421.574137,1485 413.026425,1485 C404.482614,1485 397.552635,1476.86322 397.552635,1466.82652 C397.552635,1456.78982 404.482614,1448.65304 413.026425,1448.65304 Z M441.884739,1443.25068 C449.992906,1440.55619 459.141416,1446.09471 462.306657,1455.61774 C465.471898,1465.13818 461.460079,1475.04874 453.350611,1477.74452 C445.241143,1480.43901 436.099135,1474.90049 432.932594,1465.37745 C429.768653,1455.85312 433.780473,1445.94646 441.884739,1443.25068 Z M478.644712,1445.9843 C472.990452,1450.15998 464.434937,1448.17423 459.527123,1441.54204 C454.621909,1434.90986 455.221406,1426.14628 460.866563,1421.9706 C466.503918,1417.79103 475.071136,1419.77678 479.984153,1426.40896 C484.889366,1433.04115 484.282067,1441.80863 478.644712,1445.9843 Z" id="paw" transform="translate(426.082374, 1435.000000) scale(1, -1) translate(-426.082374, -1435.000000) "></path>
        </g>
    </g>
</svg>