<?xml version="1.0" encoding="UTF-8"?>
<svg width="43px" height="100px" viewBox="0 0 43 100" version="1.1" xmlns="http://www.w3.org/2000/svg" xmlns:xlink="http://www.w3.org/1999/xlink">
    <!-- Generator: Sketch 49.3 (51167) - http://www.bohemiancoding.com/sketch -->
    <title>person</title>
    <desc>Created with Sketch.</desc>
    <defs></defs>
    <g id="logo" stroke="none" stroke-width="1" fill="none" fill-rule="evenodd">
        <g id="Artboard" transform="translate(-67.000000, -1274.000000)" fill="#32535A" fill-rule="nonzero">
            <path d="M102.316533,1342.30419 C97.778852,1342.38358 93.2395672,1342.32023 88.7018861,1342.31702 C83.6293696,1342.31301 78.5536457,1342.42287 73.4859403,1342.28094 C68.9474574,1342.15264 66.7712307,1339.99326 67.019003,1335.51892 C67.4760587,1327.26706 68.076646,1319.0136 69.0372648,1310.80985 C69.2064556,1309.3601 71.2471692,1307.29934 72.7169642,1307.00907 C75.5731614,1306.44617 76.8857933,1305.40617 77.0710212,1302.44653 C77.5713769,1294.46008 78.3363438,1286.49128 78.8735847,1278.50643 C79.0860755,1275.33671 80.6208205,1273.96234 83.7199789,1274.02328 C86.6547576,1274.08021 89.5967531,1274.13955 92.5275225,1274.00965 C96.1815626,1273.84847 97.4188204,1275.71358 97.6144724,1279.10061 C98.0699244,1286.95635 98.7691394,1294.79686 99.2807211,1302.6502 C99.4314692,1304.94831 100.14191,1306.54159 102.709441,1306.66828 C105.95614,1306.82945 107.397068,1308.62079 107.634416,1311.7841 C108.212552,1319.49792 109.031243,1327.1957 109.506741,1334.91513 C109.817058,1339.94194 107.470839,1342.21439 102.316533,1342.30419 Z M101.634798,1360.62804 C101.654845,1368.48699 96.2166837,1373.93477 88.3408923,1373.9444 C80.4610915,1374.66686 74.6749267,1368.24804 74.5233766,1360.57111 C74.3782414,1353.26062 80.8981009,1347.10721 88.1981626,1347.12004 C95.6906688,1347.13367 101.615554,1353.08983 101.634798,1360.62804 Z" id="person" transform="translate(88.266949, 1324.000000) scale(1, -1) translate(-88.266949, -1324.000000) "></path>
        </g>
    </g>
</svg>