<?xml version="1.0" encoding="UTF-8"?>
<svg width="57px" height="101px" viewBox="0 0 57 101" version="1.1" xmlns="http://www.w3.org/2000/svg" xmlns:xlink="http://www.w3.org/1999/xlink">
    <!-- Generator: Sketch 49.3 (51167) - http://www.bohemiancoding.com/sketch -->
    <title>phone</title>
    <desc>Created with Sketch.</desc>
    <defs></defs>
    <g id="logo" stroke="none" stroke-width="1" fill="none" fill-rule="evenodd">
        <g id="Artboard" transform="translate(-689.000000, -289.000000)" fill="#32535A" fill-rule="nonzero">
            <path d="M740.170629,312.444016 L694.461419,312.444016 L694.461419,377.029058 L740.170629,377.029058 L740.170629,312.444016 Z M717.327412,296.52133 C714.762959,296.52133 712.663114,298.601436 712.663114,301.161334 C712.663114,303.725787 714.762959,305.807413 717.327412,305.807413 C719.86909,305.807413 721.950715,303.725787 721.950715,301.161334 C721.950715,298.601436 719.86909,296.52133 717.327412,296.52133 Z M706.937506,384.895506 L727.699098,384.895506 C728.232031,384.895506 728.660199,384.11205 728.660199,383.150949 C728.660199,382.171629 728.232031,381.388172 727.699098,381.388172 L706.937506,381.388172 C706.400018,381.388172 705.99007,382.171629 705.99007,383.150949 C705.99007,384.11205 706.400018,384.895506 706.937506,384.895506 Z M738.357748,389.3275 L696.278856,389.3275 C692.25681,389.3275 689,386.05247 689,382.048644 L689,296.606356 C689,292.58431 692.25681,289.3275 696.278856,289.3275 L738.357748,289.3275 C742.379794,289.3275 745.636604,292.58431 745.636604,296.606356 L745.636604,382.048644 C745.636604,386.05247 742.379794,389.3275 738.357748,389.3275 Z" id="phone" transform="translate(717.318302, 339.327500) rotate(180.000000) translate(-717.318302, -339.327500) "></path>
        </g>
    </g>
</svg>