<?xml version="1.0" encoding="UTF-8"?>
<svg width="46px" height="46px" viewBox="0 0 46 46" version="1.1" xmlns="http://www.w3.org/2000/svg" xmlns:xlink="http://www.w3.org/1999/xlink">
    <!-- Generator: Sketch 49.1 (51147) - http://www.bohemiancoding.com/sketch -->
    <title>Shape</title>
    <desc>Created with Sketch.</desc>
    <defs></defs>
    <g id="Branding" stroke="none" stroke-width="1" fill="none" fill-rule="evenodd">
        <g id="Public/Our-Carers" transform="translate(-107.000000, -772.000000)" fill="#33535C" fill-rule="nonzero">
            <g id="Stacked-Group" transform="translate(107.000000, 744.000000)">
                <path d="M45.5095949,51.9043571 C45.803838,51.7088204 46,51.3177471 46,50.9266738 C46,50.5356004 45.803838,50.2422954 45.5095949,49.9489904 C42.2729211,47.3092455 38.2515991,46.1360255 34.2302772,46.3315622 C37.2707889,43.5940489 39.2324094,39.8788523 39.7228145,35.674814 C39.7228145,35.2837407 39.6247335,34.9904357 39.3304904,34.6971307 C39.0362473,34.4038257 38.7420043,34.3060574 38.3496802,34.3060574 C34.1321962,34.6971307 30.3070362,36.7502657 27.5607676,39.8788523 C27.7569296,35.7725824 26.5799574,31.6663124 23.9317697,28.4399575 C23.4413646,27.8533475 22.4605544,27.8533475 22.0682303,28.4399575 C19.4200426,31.6663124 18.2430704,35.674814 18.4392324,39.6833156 C15.6929638,36.7502657 11.9658849,34.794899 7.84648188,34.3060574 C7.45415778,34.3060574 7.15991471,34.4038257 6.86567164,34.6971307 C6.57142857,34.9904357 6.47334755,35.2837407 6.47334755,35.674814 C6.86567164,39.781084 8.92537313,43.5940489 11.9658849,46.3315622 C7.84648188,46.1360255 3.72707889,47.3092455 0.490405117,49.9489904 C0.196162047,50.1445271 0,50.5356004 0,50.9266738 C0,51.3177471 0.196162047,51.6110521 0.490405117,51.9043571 C3.53091684,54.3485654 7.25799574,55.6195537 10.9850746,55.6195537 C11.2793177,55.6195537 11.6716418,55.6195537 11.9658849,55.6195537 C8.92537313,58.357067 6.96375267,62.0722635 6.47334755,66.2763018 C6.47334755,66.6673751 6.57142857,66.9606801 6.86567164,67.2539851 C7.06183369,67.4495218 7.45415778,67.6450584 7.74840085,67.6450584 C7.74840085,67.6450584 7.84648188,67.6450584 7.84648188,67.6450584 C11.9658849,67.2539851 15.6929638,65.2008502 18.4392324,62.2678002 C18.2430704,66.2763018 19.5181237,70.3825717 22.0682303,73.5111583 C22.2643923,73.8044633 22.6567164,74 23.0490405,74 C23.4413646,74 23.7356077,73.8044633 24.0298507,73.5111583 C26.6780384,70.2848034 27.9530917,66.0807651 27.6588486,62.0722635 C30.4051173,65.1030818 34.2302772,67.1562168 38.4477612,67.6450584 C38.4477612,67.6450584 38.5458422,67.6450584 38.5458422,67.6450584 C38.8400853,67.6450584 39.1343284,67.5472901 39.4285714,67.2539851 C39.7228145,66.9606801 39.8208955,66.6673751 39.8208955,66.2763018 C39.4285714,62.1700319 37.3688699,58.357067 34.3283582,55.6195537 C34.6226013,55.6195537 34.8187633,55.6195537 35.1130064,55.6195537 C38.7420043,55.6195537 42.5671642,54.3485654 45.5095949,51.9043571 Z M24.6183369,54.0552604 C24.5202559,54.1530287 24.4221748,54.1530287 24.3240938,54.250797 C24.2260128,54.250797 24.1279318,54.250797 24.0298507,54.250797 C23.3432836,54.4463337 22.5586354,54.4463337 21.9701493,54.250797 C21.8720682,54.250797 21.7739872,54.250797 21.7739872,54.250797 C21.6759062,54.1530287 21.6759062,54.1530287 21.5778252,54.0552604 C20.891258,53.7619554 20.4008529,53.1753454 20.0085288,52.5887354 C20.0085288,52.4909671 19.9104478,52.3931987 19.8123667,52.3931987 C19.8123667,52.2954304 19.8123667,52.1976621 19.8123667,52.0998937 C19.7142857,51.8065887 19.6162047,51.4155154 19.6162047,51.0244421 C19.6162047,50.6333688 19.7142857,50.3400638 19.8123667,49.9489904 C19.8123667,49.8512221 19.8123667,49.7534538 19.8123667,49.6556854 C19.9104478,49.5579171 19.9104478,49.4601488 20.0085288,49.3623804 C20.3027719,48.6780021 20.891258,48.1891605 21.5778252,47.8958555 C21.6759062,47.8958555 21.6759062,47.7980871 21.7739872,47.7003188 C21.8720682,47.7003188 21.9701493,47.7003188 21.9701493,47.7003188 C22.6567164,47.5047821 23.4413646,47.5047821 24.1279318,47.7003188 C24.2260128,47.7003188 24.3240938,47.7003188 24.4221748,47.7980871 C24.5202559,47.8958555 24.6183369,47.8958555 24.6183369,47.9936238 C25.206823,48.2869288 25.6972281,48.8735388 26.0895522,49.4601488 C26.0895522,49.5579171 26.1876333,49.6556854 26.2857143,49.6556854 C26.2857143,49.7534538 26.2857143,49.8512221 26.2857143,49.9489904 C26.3837953,50.3400638 26.4818763,50.6333688 26.4818763,51.0244421 C26.4818763,51.4155154 26.3837953,51.7088204 26.2857143,52.0998937 C26.2857143,52.1976621 26.2857143,52.2954304 26.2857143,52.3931987 C26.1876333,52.4909671 26.1876333,52.4909671 26.0895522,52.5887354 C25.6972281,53.1753454 25.206823,53.664187 24.6183369,54.0552604 Z M36.9765458,37.141339 C35.8976546,41.9319872 32.3667377,45.9404888 27.6588486,47.5047821 C27.3646055,47.1137088 26.9722814,46.7226355 26.5799574,46.4293305 C28.2473348,41.7364506 32.1705757,38.2167906 36.9765458,37.141339 Z M22.9509595,31.3730074 C25.5991471,35.4792774 25.8933902,40.7587673 23.7356077,45.1583422 C23.4413646,45.1583422 23.2452026,45.0605739 22.9509595,45.0605739 C22.6567164,45.0605739 22.4605544,45.0605739 22.1663113,45.1583422 C20.1066098,40.7587673 20.4008529,35.4792774 22.9509595,31.3730074 Z M9.12153518,37.141339 C13.8294243,38.2167906 17.8507463,41.7364506 19.4200426,46.3315622 C19.0277186,46.6248672 18.6353945,47.0159405 18.2430704,47.5047821 C13.7313433,45.8427205 10.2004264,41.8342189 9.12153518,37.141339 Z M3.3347548,51.0244421 C7.45415778,48.3846971 12.750533,48.0913921 17.1641791,50.2422954 C17.1641791,50.5356004 17.0660981,50.7311371 17.0660981,51.0244421 C17.0660981,51.3177471 17.0660981,51.5132837 17.1641791,51.8065887 C12.750533,53.957492 7.45415778,53.5664187 3.3347548,51.0244421 Z M9.12153518,64.9075452 C10.2004264,60.2146652 13.7313433,56.2061637 18.3411514,54.6418704 C18.6353945,55.0329437 19.0277186,55.424017 19.5181237,55.8150903 C17.8507463,60.3124336 13.9275053,63.8320935 9.12153518,64.9075452 Z M22.9509595,70.5781084 C20.3027719,66.4718385 20.0085288,61.1923486 22.1663113,56.7927736 C22.6567164,56.890542 23.2452026,56.890542 23.7356077,56.7927736 C25.8933902,61.1923486 25.5991471,66.4718385 22.9509595,70.5781084 Z M36.9765458,64.9075452 C32.1705757,63.8320935 28.2473348,60.3124336 26.5799574,55.6195537 C26.9722814,55.3262487 27.3646055,54.9351753 27.6588486,54.544102 C32.3667377,56.1083953 35.8976546,60.1168969 36.9765458,64.9075452 Z M28.8358209,51.8065887 C28.8358209,51.5132837 28.9339019,51.3177471 28.9339019,51.0244421 C28.9339019,50.7311371 28.9339019,50.5356004 28.8358209,50.2422954 C33.249467,48.0913921 38.5458422,48.3846971 42.6652452,51.0244421 C38.5458422,53.5664187 33.249467,53.957492 28.8358209,51.8065887 Z" id="Shape"></path>
            </g>
        </g>
    </g>
</svg>