<?xml version="1.0" encoding="UTF-8"?>
<svg width="102px" height="100px" viewBox="0 0 102 100" version="1.1" xmlns="http://www.w3.org/2000/svg" xmlns:xlink="http://www.w3.org/1999/xlink">
    <!-- Generator: Sketch 49.3 (51167) - http://www.bohemiancoding.com/sketch -->
    <title>sun-full</title>
    <desc>Created with Sketch.</desc>
    <defs></defs>
    <g id="logo" stroke="none" stroke-width="1" fill="none" fill-rule="evenodd">
        <g id="Artboard" transform="translate(-1818.000000, -1274.000000)" fill="#32535A">
            <path d="M1866.4407,1276.26082 C1866.4407,1275.0122 1867.46824,1274 1868.73578,1274 C1870.00331,1274 1871.03085,1275.0122 1871.03085,1276.26082 L1871.03085,1285.3522 C1871.03085,1286.60081 1870.00331,1287.61301 1868.73578,1287.61301 C1867.46824,1287.61301 1866.4407,1286.60081 1866.4407,1285.3522 L1866.4407,1276.26082 Z M1866.4407,1362.12383 C1866.4407,1360.87521 1867.46824,1359.86301 1868.73578,1359.86301 C1870.00331,1359.86301 1871.03085,1360.87521 1871.03085,1362.12383 L1871.03085,1371.21521 C1871.03085,1372.46382 1870.00331,1373.47602 1868.73578,1373.47602 C1867.46824,1373.47602 1866.4407,1372.46382 1866.4407,1371.21521 L1866.4407,1362.12383 Z M1917.17648,1321.47719 C1918.44401,1321.47719 1919.47155,1322.4894 1919.47155,1323.73801 C1919.47155,1324.98663 1918.44401,1325.99883 1917.17648,1325.99883 L1907.99824,1325.99883 C1906.7307,1325.99883 1905.70316,1324.98663 1905.70316,1323.73801 C1905.70316,1322.4894 1906.7307,1321.47719 1907.99824,1321.47719 L1917.17648,1321.47719 Z M1904.03624,1356.00332 C1904.93004,1356.88866 1904.92602,1358.32013 1904.02727,1359.20059 C1903.12851,1360.08105 1901.67536,1360.07709 1900.78156,1359.19175 L1894.29156,1352.76318 C1893.39776,1351.87783 1893.40178,1350.44637 1894.30053,1349.56591 C1895.19929,1348.68545 1896.65244,1348.68941 1897.54625,1349.57475 L1904.03624,1356.00332 Z M1842.84799,1294.38399 C1843.74179,1295.26933 1843.73777,1296.70079 1842.83901,1297.58125 C1841.94026,1298.46171 1840.4871,1298.45776 1839.5933,1297.57242 L1833.10331,1291.14384 C1832.20951,1290.2585 1832.21352,1288.82703 1833.11228,1287.94657 C1834.01104,1287.06611 1835.46419,1287.07007 1836.35799,1287.95541 L1842.84799,1294.38399 Z M1829.47331,1321.47719 C1830.74085,1321.47719 1831.76839,1322.4894 1831.76839,1323.73801 C1831.76839,1324.98663 1830.74085,1325.99883 1829.47331,1325.99883 L1820.29507,1325.99883 C1819.02754,1325.99883 1818,1324.98663 1818,1323.73801 C1818,1322.4894 1819.02754,1321.47719 1820.29507,1321.47719 L1829.47331,1321.47719 Z M1901.53155,1288.04646 C1902.42535,1287.16111 1903.8785,1287.15716 1904.77726,1288.03762 C1905.67601,1288.91808 1905.68003,1290.34954 1904.78623,1291.23489 L1898.29624,1297.66346 C1897.40243,1298.5488 1895.94928,1298.55276 1895.05052,1297.6723 C1894.15177,1296.79184 1894.14775,1295.36037 1895.04155,1294.47503 L1901.53155,1288.04646 Z M1839.32349,1349.66579 C1840.21729,1348.78045 1841.67044,1348.77649 1842.5692,1349.65695 C1843.46795,1350.53741 1843.47197,1351.96888 1842.57817,1352.85422 L1836.08818,1359.2828 C1835.19438,1360.16814 1833.74122,1360.1721 1832.84247,1359.29164 C1831.94371,1358.41118 1831.93969,1356.97971 1832.83349,1356.09437 L1839.32349,1349.66579 Z M1868.5,1356 C1850.55075,1356 1836,1341.44925 1836,1323.5 C1836,1305.55075 1850.55075,1291 1868.5,1291 C1886.44925,1291 1901,1305.55075 1901,1323.5 C1901,1341.44925 1886.44925,1356 1868.5,1356 Z M1868.5,1351 C1883.68783,1351 1896,1338.68783 1896,1323.5 C1896,1308.31217 1883.68783,1296 1868.5,1296 C1853.31217,1296 1841,1308.31217 1841,1323.5 C1841,1338.68783 1853.31217,1351 1868.5,1351 Z" id="sun-full"></path>
        </g>
    </g>
</svg>