<?xml version="1.0" encoding="UTF-8"?>
<svg width="102px" height="100px" viewBox="0 0 102 100" version="1.1" xmlns="http://www.w3.org/2000/svg" xmlns:xlink="http://www.w3.org/1999/xlink">
    <!-- Generator: Sketch 49.3 (51167) - http://www.bohemiancoding.com/sketch -->
    <title>sun-half</title>
    <desc>Created with Sketch.</desc>
    <defs></defs>
    <g id="logo" stroke="none" stroke-width="1" fill="none" fill-rule="evenodd">
        <g id="Artboard" transform="translate(-1678.000000, -1274.000000)" fill="#32535A">
            <path d="M1726.4407,1276.26082 C1726.4407,1275.0122 1727.46824,1274 1728.73578,1274 C1730.00331,1274 1731.03085,1275.0122 1731.03085,1276.26082 L1731.03085,1285.3522 C1731.03085,1286.60081 1730.00331,1287.61301 1728.73578,1287.61301 C1727.46824,1287.61301 1726.4407,1286.60081 1726.4407,1285.3522 L1726.4407,1276.26082 Z M1726.4407,1362.12383 C1726.4407,1360.87521 1727.46824,1359.86301 1728.73578,1359.86301 C1730.00331,1359.86301 1731.03085,1360.87521 1731.03085,1362.12383 L1731.03085,1371.21521 C1731.03085,1372.46382 1730.00331,1373.47602 1728.73578,1373.47602 C1727.46824,1373.47602 1726.4407,1372.46382 1726.4407,1371.21521 L1726.4407,1362.12383 Z M1777.17648,1321.47719 C1778.44401,1321.47719 1779.47155,1322.4894 1779.47155,1323.73801 C1779.47155,1324.98663 1778.44401,1325.99883 1777.17648,1325.99883 L1767.99824,1325.99883 C1766.7307,1325.99883 1765.70316,1324.98663 1765.70316,1323.73801 C1765.70316,1322.4894 1766.7307,1321.47719 1767.99824,1321.47719 L1777.17648,1321.47719 Z M1764.03624,1356.00332 C1764.93004,1356.88866 1764.92602,1358.32013 1764.02727,1359.20059 C1763.12851,1360.08105 1761.67536,1360.07709 1760.78156,1359.19175 L1754.29156,1352.76318 C1753.39776,1351.87783 1753.40178,1350.44637 1754.30053,1349.56591 C1755.19929,1348.68545 1756.65244,1348.68941 1757.54625,1349.57475 L1764.03624,1356.00332 Z M1702.84799,1294.38399 C1703.74179,1295.26933 1703.73777,1296.70079 1702.83901,1297.58125 C1701.94026,1298.46171 1700.4871,1298.45776 1699.5933,1297.57242 L1693.10331,1291.14384 C1692.20951,1290.2585 1692.21352,1288.82703 1693.11228,1287.94657 C1694.01104,1287.06611 1695.46419,1287.07007 1696.35799,1287.95541 L1702.84799,1294.38399 Z M1689.47331,1321.47719 C1690.74085,1321.47719 1691.76839,1322.4894 1691.76839,1323.73801 C1691.76839,1324.98663 1690.74085,1325.99883 1689.47331,1325.99883 L1680.29507,1325.99883 C1679.02754,1325.99883 1678,1324.98663 1678,1323.73801 C1678,1322.4894 1679.02754,1321.47719 1680.29507,1321.47719 L1689.47331,1321.47719 Z M1761.53155,1288.04646 C1762.42535,1287.16111 1763.8785,1287.15716 1764.77726,1288.03762 C1765.67601,1288.91808 1765.68003,1290.34954 1764.78623,1291.23489 L1758.29624,1297.66346 C1757.40243,1298.5488 1755.94928,1298.55276 1755.05052,1297.6723 C1754.15177,1296.79184 1754.14775,1295.36037 1755.04155,1294.47503 L1761.53155,1288.04646 Z M1699.32349,1349.66579 C1700.21729,1348.78045 1701.67044,1348.77649 1702.5692,1349.65695 C1703.46795,1350.53741 1703.47197,1351.96888 1702.57817,1352.85422 L1696.08818,1359.2828 C1695.19438,1360.16814 1693.74122,1360.1721 1692.84247,1359.29164 C1691.94371,1358.41118 1691.93969,1356.97971 1692.83349,1356.09437 L1699.32349,1349.66579 Z M1728.5,1356 C1710.55075,1356 1696,1341.44925 1696,1323.5 C1696,1305.55075 1710.55075,1291 1728.5,1291 C1746.44925,1291 1761,1305.55075 1761,1323.5 C1761,1341.44925 1746.44925,1356 1728.5,1356 Z M1728.5,1351 C1743.68783,1351 1756,1338.68783 1756,1323.5 C1756,1308.31217 1743.68783,1296 1728.5,1296 C1713.31217,1296 1701,1308.31217 1701,1323.5 C1701,1338.68783 1713.31217,1351 1728.5,1351 Z M1713.70009,1333 L1713.70009,1316.282 L1710.50209,1316.282 L1710.50209,1313.76 L1716.35209,1313.76 L1716.35209,1333 L1713.70009,1333 Z M1719.52409,1333 L1730.08009,1313.76 L1732.57609,1313.76 L1722.02009,1333 L1719.52409,1333 Z M1733.59009,1333 L1733.59009,1330.478 L1739.20609,1324.888 C1741.70209,1322.418 1742.84609,1320.884 1742.84609,1319.038 C1742.84609,1317.088 1741.57209,1315.684 1739.59609,1315.684 C1737.75009,1315.684 1736.58009,1316.88 1736.24209,1319.012 L1733.66809,1319.012 C1734.05809,1315.45 1736.21609,1313.422 1739.62209,1313.422 C1743.00209,1313.422 1745.52409,1315.424 1745.52409,1318.856 C1745.52409,1321.456 1744.09409,1323.51 1742.09209,1325.512 L1737.10009,1330.504 L1745.34209,1330.504 L1745.34209,1333 L1733.59009,1333 Z" id="sun-half"></path>
        </g>
    </g>
</svg>