<?xml version="1.0" encoding="UTF-8"?>
<svg width="45px" height="45px" viewBox="0 0 45 45" version="1.1" xmlns="http://www.w3.org/2000/svg" xmlns:xlink="http://www.w3.org/1999/xlink">
    <!-- Generator: Sketch 49.3 (51167) - http://www.bohemiancoding.com/sketch -->
    <title>tick</title>
    <desc>Created with Sketch.</desc>
    <defs></defs>
    <g id="logo" stroke="none" stroke-width="1" fill="none" fill-rule="evenodd">
        <g id="Artboard" transform="translate(-1362.000000, -392.000000)" fill="#32535A">
            <path d="M1384.5,392 C1396.92641,392 1407,402.073593 1407,414.5 C1407,426.926407 1396.92641,437 1384.5,437 C1372.07359,437 1362,426.926407 1362,414.5 C1362,402.073593 1372.07359,392 1384.5,392 Z M1373.26302,415.900781 L1373.44023,416.168389 L1380.34365,423.732392 C1380.52016,423.91269 1380.69736,424 1380.96038,424 C1381.22829,424 1381.40619,423.91269 1381.5834,423.732392 L1395.73419,408.788942 C1396.0886,408.429056 1396.0886,407.888871 1395.73419,407.527565 L1394.49792,406.266188 C1394.3085,406.07612 1394.06825,405.987838 1393.8314,406.001344 C1393.62598,406.013058 1393.33319,406.101339 1393.16825,406.266188 C1393.1177,406.319004 1393.07992,406.358615 1393.05491,406.385023 C1390.44615,409.139119 1386.53301,413.270262 1381.3155,418.778453 C1381.13759,418.96017 1380.87457,418.96017 1380.69736,418.778453 L1375.83044,413.470305 L1375.74253,413.378027 C1375.38881,413.01743 1374.85789,413.01743 1374.50278,413.378027 L1373.26302,414.639404 C1373.08651,414.819702 1373,415.08731 1373,415.266898 C1373,415.447196 1373.08651,415.720483 1373.26302,415.900781 Z" id="tick"></path>
        </g>
    </g>
</svg>