<?xml version="1.0" encoding="UTF-8"?>
<svg width="417px" height="197px" viewBox="0 0 417 197" version="1.1" xmlns="http://www.w3.org/2000/svg" xmlns:xlink="http://www.w3.org/1999/xlink">
    <!-- Generator: Sketch 49.1 (51147) - http://www.bohemiancoding.com/sketch -->
    <title>Edyn_Leaves Copy</title>
    <desc>Created with Sketch.</desc>
    <defs></defs>
    <g id="Branding" stroke="none" stroke-width="1" fill="none" fill-rule="evenodd" opacity="0.451313406">
        <g id="Public/Homepage-Copy-4" transform="translate(-34.000000, -129.000000)" fill="#FFFFFF" fill-rule="nonzero">
            <g id="Hero" transform="translate(-4.000000, 77.000000)">
                <g id="Group" transform="translate(-288.000000, -85.000000)">
                    <g id="Edyn_Leaves-Copy" transform="translate(520.797426, 219.879028) rotate(-39.000000) translate(-520.797426, -219.879028) translate(298.297426, 129.379028)">
                        <g id="Edyn_Leaves" transform="translate(-0.000000, 0.000000)">
                            <path d="M81.4044217,0.72431295 C74.4450456,1.63506504 68.7910032,5.45298606 65.5384865,10.7184601 C62.2859698,15.9839341 96.8953439,11.4542995 100.155072,6.20088844 C95.1428792,2.00901623 88.3637978,-0.186439141 81.4044217,0.72431295 Z" id="Shape"></path>
                            <path d="M21.3921499,53.6390875 C14.9027798,51.2271443 7.69236868,52.0719694 1.63562331,55.3609828 C-4.42112205,58.6499963 27.9319928,70.651671 33.9743173,67.3691066 C32.3159227,61.2167167 27.8959407,56.0510308 21.3921499,53.6390875 Z" id="Shape"></path>
                            <path d="M219.376578,24.4291135 C225.886353,26.7050146 232.958174,25.567064 238.784956,21.9390099 C244.611739,18.3109558 212.212268,7.01177608 206.3926,10.6331364 C208.28506,16.9588027 212.859688,22.1599062 219.376578,24.4291135 Z" id="Shape"></path>
                            <path d="M328.177012,112.533968 C334.686788,114.809869 341.758609,113.671919 347.585391,110.043865 C353.412173,106.415811 321.012703,95.1166308 315.193035,98.7379911 C317.085494,105.063657 321.660123,110.264761 328.177012,112.533968 Z" id="Shape"></path>
                            <path d="M433.216904,179.124433 C439.506782,176.493254 443.61228,171.23725 444.949946,165.142319 C446.287613,159.047388 415.001872,172.133376 413.64286,178.221951 C419.776203,181.202684 426.927026,181.742902 433.216904,179.124433 Z" id="Shape"></path>
                        </g>
                    </g>
                </g>
            </g>
        </g>
    </g>
</svg>