<?xml version="1.0" encoding="UTF-8"?>
<svg width="85px" height="101px" viewBox="0 0 85 101" version="1.1" xmlns="http://www.w3.org/2000/svg" xmlns:xlink="http://www.w3.org/1999/xlink">
    <!-- Generator: Sketch 49.3 (51167) - http://www.bohemiancoding.com/sketch -->
    <title>transport</title>
    <desc>Created with Sketch.</desc>
    <defs></defs>
    <g id="logo" stroke="none" stroke-width="1" fill="none" fill-rule="evenodd">
        <g id="Artboard" transform="translate(-359.000000, -336.000000)" fill="#32535A" fill-rule="nonzero">
            <path d="M367.118713,392.189309 L372.535362,420.60689 L430.416844,420.60689 L435.827928,392.189309 L367.118713,392.189309 Z M427.705041,362.82837 C423.220617,362.82837 419.590502,366.459877 419.590502,370.9443 C419.590502,375.432898 423.220617,379.063013 427.705041,379.063013 C432.189464,379.063013 435.825145,375.432898 435.825145,370.9443 C435.825145,366.459877 432.189464,362.82837 427.705041,362.82837 Z M375.233251,362.82837 C370.757176,362.82837 367.118713,366.459877 367.118713,370.9443 C367.118713,375.432898 370.757176,379.063013 375.233251,379.063013 C379.727414,379.063013 383.358921,375.432898 383.358921,370.9443 C383.357529,366.459877 379.727414,362.82837 375.233251,362.82837 Z M389.295947,432.286149 L413.656259,432.286149 L413.656259,425.1581 L389.295947,425.1581 L389.295947,432.286149 Z M438.532774,430.481527 C438.532774,433.987809 435.676267,436.83875 432.174159,436.83875 L370.778047,436.83875 C367.270373,436.83875 364.413867,433.986417 364.413867,430.481527 L359,390.437559 L359.013914,390.437559 L359.013914,351.456607 L362.500717,351.456607 L362.500717,336.83875 L375.490657,336.83875 L375.490657,351.456607 L427.453201,351.456607 L427.453201,336.83875 L440.443141,336.83875 L440.443141,351.456607 L443.924378,351.456607 L443.924378,390.437559 L443.941075,390.437559 L438.532774,430.481527 Z" id="transport" transform="translate(401.470537, 386.838750) rotate(180.000000) translate(-401.470537, -386.838750) "></path>
        </g>
    </g>
</svg>