<?xml version="1.0" encoding="UTF-8"?>
<svg width="1253px" height="616px" viewBox="0 0 1253 616" version="1.1" xmlns="http://www.w3.org/2000/svg" xmlns:xlink="http://www.w3.org/1999/xlink">
    <!-- Generator: sketchtool 50 (54983) - http://www.bohemiancoding.com/sketch -->
    <title>56080995-6679-4018-9750-0419F601FBC3</title>
    <desc>Created with sketchtool.</desc>
    <defs></defs>
    <g id="Public" stroke="none" stroke-width="1" fill="none" fill-rule="evenodd">
        <g id="Public/Get-started" transform="translate(-39.000000, -2085.000000)" fill="#FBF8EF" fill-rule="nonzero">
            <g id="Stacked-Group" transform="translate(-42.000000, 716.000000)">
                <g id="How-much-it-costs" transform="translate(42.000000, 1364.000000)">
                    <g id="Edyn_Leaves-Copy" transform="translate(575.533559, 584.758293) rotate(-39.000000) translate(-575.533559, -584.758293) translate(-84.466441, -57.241707)">
                        <g id="Edyn_Leaves" transform="translate(-0.000000, -0.000000)">
                            <path d="M587.726501,629.100323 C589.703375,624.822604 588.982083,620.069583 586.230489,616.081799 C583.478894,612.094014 573.647954,633.463596 576.388863,637.437121 C581.485991,636.324914 585.749627,633.397053 587.726501,629.100323 Z" id="Shape"></path>
                            <path d="M598.075956,346.215224 C600.05283,341.937505 599.331538,337.184485 596.579943,333.1967 C593.828349,329.208916 583.997408,350.578497 586.738317,354.552023 C591.835446,353.439816 596.099082,350.511955 598.075956,346.215224 Z" id="Shape"></path>
                            <path d="M532.179263,503.442759 C527.923081,500.572526 522.415405,499.936291 517.216467,501.242247 C512.01753,502.548203 533.204716,516.760637 538.387113,515.459465 C538.53597,510.766635 536.435445,506.303424 532.179263,503.442759 Z" id="Shape"></path>
                            <path d="M878.578596,841.053734 C880.670343,845.229454 885.031285,848.013268 890.177304,848.992242 C895.323323,849.971217 884.92374,829.324599 879.783098,828.327066 C877.121364,832.252243 876.502981,836.901212 878.578596,841.053734 Z" id="Shape"></path>
                            <path d="M450.993647,299.233649 C446.079735,301.038908 442.700055,304.917053 441.416977,309.559148 C440.1339,314.201243 464.665244,305.223606 465.948321,300.591243 C461.378382,298.080424 455.951239,297.423524 450.993647,299.233649 Z" id="Shape"></path>
                            <path d="M326.894014,388.96459 C329.402047,384.921249 329.376137,380.115014 327.293019,375.842806 C325.209901,371.570597 312.742283,391.682401 314.820219,395.949842 C319.872558,395.43012 324.385981,393.00793 326.894014,388.96459 Z" id="Shape"></path>
                            <path d="M626.361926,481.282752 C626.466206,476.706684 623.793354,472.566656 619.506912,469.781631 C615.22047,466.996607 614.699072,489.759729 618.958072,492.544754 C623.392701,489.905075 626.252158,485.858819 626.361926,481.282752 Z" id="Shape"></path>
                            <path d="M854.306044,404.547968 C850.049862,401.677736 844.542186,401.041501 839.343249,402.347456 C834.144312,403.653412 855.331497,417.865847 860.513895,416.564675 C860.662751,411.871844 858.562226,407.408633 854.306044,404.547968 Z" id="Shape"></path>
                            <path d="M947.195026,383.5379 C947.299306,378.961833 944.626454,374.821805 940.340012,372.03678 C936.05357,369.251755 935.532171,392.014878 939.791171,394.799902 C944.2258,392.160224 947.085258,388.113968 947.195026,383.5379 Z" id="Shape"></path>
                            <path d="M713.494254,570.570937 C718.16982,568.601906 721.164103,564.778056 722.071462,560.360298 C722.978821,555.942541 699.718413,565.732876 698.811055,570.146065 C703.449259,572.229309 708.818688,572.539969 713.494254,570.570937 Z" id="Shape"></path>
                            <path d="M637.562705,252.841856 C633.401621,255.75225 631.367072,260.297316 631.551047,265.060662 C631.735022,269.824007 652.41058,255.291438 652.237426,250.537794 C647.124,249.237818 641.723789,249.921761 637.562705,252.841856 Z" id="Shape"></path>
                            <path d="M893.852048,583.926215 C889.691504,586.826606 887.600536,591.393494 887.691447,596.216008 C887.782359,601.038523 908.478128,586.620138 908.387216,581.802539 C903.365685,580.411334 898.017941,581.025824 893.852048,583.926215 Z" id="Shape"></path>
                            <path d="M882.613589,262.782232 C877.441817,263.637789 873.3044,266.816959 871.014813,271.119047 C868.725226,275.421135 894.449404,271.143353 896.744378,266.850987 C892.90326,263.55515 887.785361,261.926676 882.613589,262.782232 Z" id="Shape"></path>
                            <path d="M784.928298,674.945451 C782.384153,678.76229 782.312917,683.347955 784.271908,687.455947 C786.2309,691.563939 798.880388,672.588928 796.926485,668.485486 C791.950137,668.899469 787.472443,671.133162 784.928298,674.945451 Z" id="Shape"></path>
                            <path d="M1104.71307,584.535368 C1109.86133,584.657466 1114.53485,582.308295 1117.69449,578.508598 C1120.85413,574.7089 1095.24998,574.113061 1092.09034,577.893223 C1095.02843,581.839438 1099.56481,584.413269 1104.71307,584.535368 Z" id="Shape"></path>
                            <path d="M835.627244,513.239123 C840.775503,513.361222 845.449026,511.012051 848.608665,507.212353 C851.768304,503.412656 826.164152,502.816816 823.004513,506.596978 C825.942608,510.543194 830.478984,513.117025 835.627244,513.239123 Z" id="Shape"></path>
                            <path d="M1051.93755,679.984159 C1057.0886,679.930831 1061.66966,677.443797 1064.67795,673.565382 C1067.68625,669.686967 1042.06296,669.953608 1039.04938,673.822327 C1042.1474,677.63287 1046.79706,680.032639 1051.93755,679.984159 Z" id="Shape"></path>
                            <path d="M1163.15514,673.642921 C1162.60302,669.049416 1159.54316,665.208092 1155.12623,662.899513 C1150.70931,660.590934 1153.49053,683.421267 1157.87649,685.734577 C1161.61747,682.602857 1163.70725,678.236426 1163.15514,673.642921 Z" id="Shape"></path>
                            <path d="M969.752773,689.411289 C974.683677,687.67752 978.116927,683.776541 979.48482,679.053516 C980.852714,674.330491 956.354988,682.974424 954.960062,687.687484 C959.415177,690.352904 964.821869,691.150039 969.752773,689.411289 Z" id="Shape"></path>
                            <path d="M1001.83489,900.922827 C996.665372,901.590875 992.465477,904.391371 990.049466,908.253667 C987.633456,912.115962 1013.34174,908.793415 1015.76311,904.939968 C1012.03999,901.865174 1007.0044,900.254778 1001.83489,900.922827 Z" id="Shape"></path>
                            <path d="M291.491136,253.163341 C292.28438,257.760687 295.432721,261.470072 299.773392,263.570624 C304.114063,265.671177 300.137989,242.808572 295.831806,240.708019 C292.437116,244.059356 290.697892,248.565995 291.491136,253.163341 Z" id="Shape"></path>
                            <path d="M480.362867,122.970884 C484.525891,120.095415 486.668235,115.508592 486.647076,110.618303 C486.625917,105.728015 465.932461,120.045666 465.94833,124.92103 C470.904815,126.398564 476.194553,125.846354 480.362867,122.970884 Z" id="Shape"></path>
                            <path d="M444.872101,150.785758 C448.196978,154.248513 453.24033,155.850958 458.470473,155.583884 C463.700617,155.316809 447.161623,138.085919 441.926143,138.366808 C440.645291,142.750508 441.547224,147.323003 444.872101,150.785758 Z" id="Shape"></path>
                            <path d="M600.742925,197.692935 C605.297177,199.885199 610.653869,199.772775 615.372861,197.814728 C620.091852,195.85668 597.426877,184.951573 592.729143,186.890883 C593.409358,191.467468 596.193988,195.500671 600.742925,197.692935 Z" id="Shape"></path>
                            <path d="M677.862387,0.712536785 C672.683476,1.74500459 668.680847,4.94937538 666.589678,9.15365868 C664.498509,13.357942 690.251476,8.2235075 692.342645,4.03782723 C688.301896,1.04274045 683.05219,-0.319931017 677.862387,0.712536785 Z" id="Shape"></path>
                            <path d="M685.15413,80.3555494 C690.338587,79.0548247 694.222797,75.4803139 696.123581,70.9228127 C698.024365,66.3653115 672.250838,72.8292184 670.350054,77.3767904 C674.592383,80.4051954 679.969673,81.6562741 685.15413,80.3555494 Z" id="Shape"></path>
                            <path d="M803.398286,89.8924694 C808.572705,89.1751525 812.736958,86.3627454 815.090432,82.5181017 C817.443906,78.673458 791.722259,82.242547 789.368784,86.078443 C793.146165,89.0570577 798.239986,90.6097864 803.398286,89.8924694 Z" id="Shape"></path>
                            <path d="M971.19896,162.583665 C967.586401,165.609057 966.118005,169.966524 966.742963,174.364631 C967.36792,178.762738 985.318932,163.721574 984.699055,159.327983 C979.790853,158.515191 974.806437,159.558274 971.19896,162.583665 Z" id="Shape"></path>
                            <path d="M1025.99301,491.665683 C1022.47688,495.209923 1021.47785,499.922907 1022.77826,504.455353 C1024.07867,508.9878 1041.56443,491.366371 1040.27518,486.838676 C1034.80565,486.501355 1029.50913,488.121443 1025.99301,491.665683 Z" id="Shape"></path>
                            <path d="M1219.20143,625.571748 C1218.14644,630.124443 1219.67869,634.70577 1222.94415,638.218121 C1226.20961,641.730472 1231.44941,619.095851 1228.194,615.588272 C1223.6726,617.473297 1220.25643,621.023826 1219.20143,625.571748 Z" id="Shape"></path>
                            <path d="M1009.6894,564.08954 C1010.86258,568.692464 1014.476,572.243983 1019.19481,574.085152 C1023.91363,575.926321 1018.06334,553.037679 1013.34974,551.191664 C1010.0231,554.811016 1008.51621,559.486617 1009.6894,564.08954 Z" id="Shape"></path>
                            <path d="M1160.45971,504.553492 C1157.62511,508.359728 1157.39295,513.011281 1159.32587,517.233247 C1161.25879,521.455212 1175.33457,502.534893 1173.41245,498.294451 C1168.12121,498.603938 1163.2943,500.751875 1160.45971,504.553492 Z" id="Shape"></path>
                            <path d="M1198.23314,489.183743 C1194.69025,492.711941 1193.58036,497.487092 1194.72305,502.122082 C1195.86574,506.757072 1213.48724,489.203075 1212.35002,484.572919 C1207.00835,484.118603 1201.77603,485.655544 1198.23314,489.183743 Z" id="Shape"></path>
                            <path d="M1319.37182,614.178925 C1318.19077,609.573854 1314.5852,606.025526 1309.87142,604.193192 C1305.15764,602.360859 1311.03165,625.250485 1315.73503,627.087666 C1319.05445,623.461779 1320.56848,618.779149 1319.37182,614.178925 Z" id="Shape"></path>
                            <path d="M1229.20975,715.46834 C1225.82164,712.027975 1220.89302,710.59329 1215.90299,711.14989 C1210.91295,711.70649 1227.77672,728.802756 1232.76163,728.270147 C1233.74429,723.625413 1232.60809,718.927899 1229.20975,715.46834 Z" id="Shape"></path>
                            <path d="M1176.81014,821.483439 C1179.36396,825.412308 1183.98641,827.78071 1189.18468,828.316255 C1194.38294,828.8518 1181.68318,809.31364 1176.49558,808.778095 C1174.32031,812.900869 1174.27765,817.55457 1176.81014,821.483439 Z" id="Shape"></path>
                            <path d="M1227.84808,913.515636 C1223.02101,911.489206 1217.59868,912.02621 1212.98807,914.503521 C1208.37746,916.980833 1232.37751,927.001532 1236.98271,924.534353 C1235.87335,919.665853 1232.67514,915.531935 1227.84808,913.515636 Z" id="Shape"></path>
                            <path d="M1104.32237,918.310614 C1109.15791,919.980017 1114.41095,919.145316 1118.73916,916.484089 C1123.06737,913.822863 1099.00063,905.534765 1094.6777,908.191081 C1096.08344,912.831041 1099.48154,916.64612 1104.32237,918.310614 Z" id="Shape"></path>
                            <path d="M1263.16569,1031.78169 C1267.83789,1029.85169 1270.88751,1025.99634 1271.88115,1021.52563 C1272.87478,1017.05491 1249.63533,1026.65366 1248.62584,1031.11971 C1253.18177,1033.30612 1258.49349,1033.70237 1263.16569,1031.78169 Z" id="Shape"></path>
                        </g>
                    </g>
                </g>
            </g>
        </g>
    </g>
</svg>