<?xml version="1.0" encoding="UTF-8"?>
<svg width="1440px" height="718px" viewBox="0 0 1440 718" version="1.1" xmlns="http://www.w3.org/2000/svg" xmlns:xlink="http://www.w3.org/1999/xlink">
    <!-- Generator: sketchtool 50 (54983) - http://www.bohemiancoding.com/sketch -->
    <title>BF9B5C2D-A611-4730-8128-01B173E6EEEB</title>
    <desc>Created with sketchtool.</desc>
    <defs></defs>
    <g id="Public" stroke="none" stroke-width="1" fill="none" fill-rule="evenodd">
        <g id="Public/Get-started" fill="#FBF8EF" fill-rule="nonzero">
            <g id="Hero" transform="translate(0.000000, -58.000000)">
                <g id="gs-hero-leaves" transform="translate(-20.000000, -423.000000)">
                    <path d="M565.576165,959.362329 C568.060175,964.400993 573.278523,967.760103 579.401898,968.958185 C585.525272,970.156268 573.175825,945.220477 567.039613,944 C563.836716,948.741943 563.11141,954.346058 565.576165,959.362329 Z" id="Shape"></path>
                    <path d="M686.050878,731.460827 C688.296587,726.566154 687.477207,721.127629 684.351423,716.564706 C681.22564,712.001783 670.057792,736.453393 673.171437,741 C678.961723,739.727385 683.80517,736.377253 686.050878,731.460827 Z" id="Shape"></path>
                    <path d="M621.512121,584.239187 C616.699019,580.975206 610.470667,580.25169 604.591451,581.736801 C598.712235,583.221913 622.671754,599.384061 628.532266,597.904389 C628.7006,592.56778 626.325222,587.492288 621.512121,584.239187 Z" id="Shape"></path>
                    <path d="M1026.81208,977.371182 C1029.3046,982.414588 1034.50109,985.776859 1040.63307,986.959258 C1046.76505,988.141656 1034.37294,963.204814 1028.24736,962 C1025.07564,966.740802 1024.33878,972.355794 1026.81208,977.371182 Z" id="Shape"></path>
                    <path d="M865.928777,1058.88833 C866.132742,1053.51595 863.289228,1048.61696 858.652021,1045.28675 C854.014814,1041.95654 853.018985,1068.66428 857.644194,1072 C862.521359,1068.96703 865.724812,1064.2607 865.928777,1058.88833 Z" id="Shape"></path>
                    <path d="M763.265066,1143.59158 C757.462,1142.1172 751.417912,1143.47561 746.640734,1146.81092 C741.863557,1150.14622 770.742925,1157.47947 775.501562,1154.15521 C773.431246,1149.04181 769.074312,1145.04387 763.265066,1143.59158 Z" id="Shape"></path>
                    <path d="M620.866606,1081.79944 C624.539405,1086.02224 630.302112,1088.12002 636.367795,1087.9947 C642.433478,1087.86938 624.156048,1066.87524 618.096549,1067.00056 C616.383813,1072.13331 617.187624,1077.57664 620.866606,1081.79944 Z" id="Shape"></path>
                    <path d="M459.126497,992.389336 C455.141196,988.383469 449.194283,986.609131 443.148048,987.071765 C437.101813,987.534399 456.897957,1007.44944 462.962815,1006.99225 C464.309871,1001.77809 463.10559,996.395204 459.126497,992.389336 Z" id="Shape"></path>
                    <path d="M820.876497,913.389336 C816.891196,909.383469 810.944283,907.609131 804.898048,908.071765 C798.851813,908.534399 818.647957,928.449439 824.712815,927.992248 C826.059871,922.778088 824.85559,917.395204 820.876497,913.389336 Z" id="Shape"></path>
                    <path d="M214.743805,1019.22557 C212.622469,1024.34673 213.711463,1029.89232 217.135817,1034.45502 C220.560171,1039.01771 231.103906,1013.56269 227.679553,1009 C221.737292,1010.50228 216.858847,1014.10441 214.743805,1019.22557 Z" id="Shape"></path>
                    <path d="M363.784798,961.533541 C360.859003,956.713265 355.447855,953.752558 349.313124,953.016595 C343.178392,952.280632 357.757031,976.264037 363.872886,977 C366.534416,972.0168 366.710593,966.359436 363.784798,961.533541 Z" id="Shape"></path>
                    <path d="M425.891374,659.95269 C422.507324,664.420282 421.981587,670.004771 423.903244,675.2151 C425.824901,680.425429 442.636379,658.182407 440.732851,653 C434.798677,653.106105 429.275424,655.485098 425.891374,659.95269 Z" id="Shape"></path>
                    <path d="M285.770932,567.138496 C280.120978,569.136517 276.235065,573.42876 274.759799,578.566528 C273.284533,583.704295 301.490359,573.768047 302.965625,568.641051 C297.711168,565.862133 291.471108,565.13509 285.770932,567.138496 Z" id="Shape"></path>
                    <path d="M600.848954,789.262741 C606.645773,790.858764 612.804894,789.794749 617.789659,786.735705 C622.774424,783.676662 593.946491,775.632707 588.974219,778.675791 C590.860684,783.634101 595.058381,787.645438 600.848954,789.262741 Z" id="Shape"></path>
                    <path d="M730.279596,559.778693 C730.393501,554.406504 727.47395,549.546215 722.791879,546.276666 C718.109807,543.007117 717.540285,569.730451 722.192382,573 C727.036317,569.901084 730.159697,565.150881 730.279596,559.778693 Z" id="Shape"></path>
                    <path d="M996.827746,470.239187 C992.014644,466.975206 985.786292,466.25169 979.907076,467.736801 C974.02786,469.221913 997.987379,485.384061 1003.84789,483.904389 C1004.01623,478.56778 1001.64085,473.492288 996.827746,470.239187 Z" id="Shape"></path>
                    <path d="M834.436562,663.435131 C839.884147,661.100188 843.37284,656.56574 844.430019,651.327016 C845.487199,646.088293 818.386086,657.697997 817.328906,662.931303 C822.73296,665.401684 828.988977,665.770074 834.436562,663.435131 Z" id="Shape"></path>
                    <path d="M1044.83924,678.170991 C1040.06746,681.413835 1037.6693,686.519941 1037.77357,691.911856 C1037.87784,697.303772 1061.61408,681.182989 1061.50981,675.79657 C1055.75056,674.241104 1049.61716,674.928147 1044.83924,678.170991 Z" id="Shape"></path>
                    <path d="M915.835218,784.93081 C912.803621,789.61669 912.718736,795.246448 915.053066,800.289773 C917.387395,805.333098 932.460496,782.03774 930.13223,777 C924.202426,777.508242 918.866815,780.250515 915.835218,784.93081 Z" id="Shape"></path>
                    <path d="M566.417873,696.400743 C561.913957,700.159454 560.094578,705.568194 560.896123,711.016088 C561.697667,716.463982 584.09638,697.75992 583.301197,692.31762 C577.162385,691.327602 570.921789,692.642032 566.417873,696.400743 Z" id="Shape"></path>
                    <path d="M1291.19002,677.995065 C1297.26333,678.127788 1302.7766,675.574207 1306.50397,671.443883 C1310.23134,667.31356 1280.02659,666.665874 1276.29922,670.774962 C1279.76524,675.064553 1285.11672,677.862343 1291.19002,677.995065 Z" id="Shape"></path>
                    <path d="M975.789242,594.995065 C981.86255,595.127788 987.375819,592.574207 991.103187,588.443883 C994.830555,584.31356 964.625806,583.665874 960.898437,587.774962 C964.364454,592.064553 969.715934,594.862343 975.789242,594.995065 Z" id="Shape"></path>
                    <path d="M1229.32738,789.999216 C1235.40397,789.941248 1240.80816,787.237808 1244.35699,783.021917 C1247.90582,778.806027 1217.6785,779.095869 1214.12344,783.30122 C1217.77811,787.443333 1223.26324,790.051915 1229.32738,789.999216 Z" id="Shape"></path>
                    <path d="M1359.84853,782.8047 C1359.18515,777.41204 1355.50864,772.902422 1350.20158,770.192208 C1344.89452,767.481994 1348.23623,794.284232 1353.50609,797 C1358.00098,793.323439 1360.51191,788.197359 1359.84853,782.8047 Z" id="Shape"></path>
                    <path d="M1132.78113,800.978393 C1138.45062,799.059497 1142.39812,794.74198 1143.97091,789.514642 C1145.5437,784.287303 1117.37653,793.854215 1115.77266,799.070525 C1120.89509,802.020552 1127.11164,802.902804 1132.78113,800.978393 Z" id="Shape"></path>
                    <path d="M1170.56132,1047.17885 C1164.46294,1047.97765 1159.5084,1051.32624 1156.65827,1055.94445 C1153.80815,1060.56265 1184.13574,1056.58983 1186.99219,1051.98221 C1182.60009,1048.30563 1176.6597,1046.38006 1170.56132,1047.17885 Z" id="Shape"></path>
                    <path d="M1118.59215,1092.14776 C1113.04973,1090.14769 1106.89148,1090.84825 1101.71856,1093.57561 C1096.54563,1096.30296 1124.17767,1106.25515 1129.33828,1103.53314 C1127.92189,1098.43137 1124.14688,1094.14782 1118.59215,1092.14776 Z" id="Shape"></path>
                    <path d="M1012.55279,1085.6435 C1010.06975,1080.6049 1004.85343,1077.24584 998.732438,1076.04218 C992.611445,1074.83852 1004.94967,1099.78514 1011.0835,1101 C1014.28515,1096.26372 1015.03584,1090.65969 1012.55279,1085.6435 Z" id="Shape"></path>
                    <path d="M74.2144635,1157.41162 C68.9900918,1160.3099 66.0020292,1165.29516 65.5724557,1170.77838 C65.1428822,1176.26161 91.1257608,1161.82618 91.5679687,1156.35414 C85.8066303,1154.31192 79.4388351,1154.51334 74.2144635,1157.41162 Z" id="Shape"></path>
                    <path d="M29.2570377,1110.65721 C28.486493,1105.26544 24.7377318,1100.80386 19.4723428,1098.18038 C14.2069538,1095.5569 18.0474466,1122.37652 23.3006047,1125 C27.6547939,1121.23467 29.9970053,1116.05456 29.2570377,1110.65721 Z" id="Shape"></path>
                    <path d="M120.914173,1075.05938 C115.613396,1072.40332 109.290103,1072.40332 103.656852,1074.55967 C98.0236013,1076.71603 124.395748,1089.91486 130.003906,1087.76394 C129.401688,1082.46268 126.246315,1077.71544 120.914173,1075.05938 Z" id="Shape"></path>
                    <path d="M98.1493796,849.004923 C92.0758811,848.87226 86.5624387,851.430007 82.8411763,855.558488 C79.1199139,859.686968 109.31939,860.334365 113.046875,856.221804 C109.574526,851.934128 104.229101,849.137586 98.1493796,849.004923 Z" id="Shape"></path>
                    <path d="M20.1264678,764.679033 C26.1693547,765.756514 32.2185627,764.059482 36.8265801,760.51457 C41.4345975,756.969657 11.3845089,751.625352 6.7828125,755.159489 C9.33650114,759.981216 14.0772598,763.601553 20.1264678,764.679033 Z" id="Shape"></path>
                    <path d="M72.0352592,555.565245 C70.2207426,560.693469 71.5271946,566.124975 75.0231632,570.497752 C78.5191319,574.870528 87.482844,549.372776 83.9929237,545 C78.3558254,546.703894 73.837679,550.437021 72.0352592,555.565245 Z" id="Shape"></path>
                    <path d="M91.329755,510.971051 C95.8502097,507.420575 97.7598201,502.235155 97.0898912,496.968796 C96.4199623,491.702437 73.9616922,509.379272 74.62536,514.624047 C80.648459,515.681636 86.8155613,514.521526 91.329755,510.971051 Z" id="Shape"></path>
                    <path d="M162.833171,483.926748 C168.127492,486.587143 174.456841,486.598002 180.089898,484.469686 C185.722955,482.34137 159.389353,469.093691 153.74375,471.232865 C154.402404,476.515649 157.545123,481.266354 162.833171,483.926748 Z" id="Shape"></path>
                    <path d="M1199.13153,570.55916 C1195.18113,574.60443 1194.05872,579.983662 1195.51974,585.156836 C1196.98076,590.330009 1216.62611,570.217536 1215.17764,565.049785 C1209.03258,564.66478 1203.08192,566.513891 1199.13153,570.55916 Z" id="Shape"></path>
                    <path d="M1424.78746,726.72035 C1423.51985,732.065099 1425.3609,737.443463 1429.28443,741.566875 C1433.20797,745.690287 1439.50374,719.11781 1435.59227,715 C1430.15968,717.212972 1426.05506,721.381204 1424.78746,726.72035 Z" id="Shape"></path>
                    <path d="M1180.66924,654.580976 C1182.03614,659.784555 1186.2462,663.799527 1191.74417,665.880958 C1197.24215,667.96239 1190.42587,642.086909 1184.93397,640 C1181.05805,644.091656 1179.30234,649.377397 1180.66924,654.580976 Z" id="Shape"></path>
                    <path d="M1354.82711,585.363966 C1351.52448,589.842126 1351.25398,595.31483 1353.50606,600.28211 C1355.75814,605.24939 1372.15808,582.989019 1369.91858,578 C1363.75366,578.364122 1358.12975,580.89124 1354.82711,585.363966 Z" id="Shape"></path>
                    <path d="M1399.42722,568.351361 C1395.44677,572.378322 1394.1998,577.82851 1395.48362,583.118722 C1396.76744,588.408935 1416.56531,568.373427 1415.28763,563.088731 C1409.28623,562.570191 1403.40768,564.324401 1399.42722,568.351361 Z" id="Shape"></path>
                    <path d="M1436.73215,831.142411 C1432.71412,827.153372 1426.86915,825.489881 1420.95135,826.135248 C1415.03355,826.780616 1435.03268,846.603417 1440.94441,845.985867 C1442.10976,840.600385 1440.76232,835.153705 1436.73215,831.142411 Z" id="Shape"></path>
                    <path d="M1374.63094,953.948251 C1377.60644,958.570693 1382.99214,961.357195 1389.04873,961.987281 C1395.10532,962.617367 1380.30861,939.630086 1374.26444,939 C1371.72999,943.850577 1371.68029,949.325808 1374.63094,953.948251 Z" id="Shape"></path>
                    <path d="M1434.23618,1062.37572 C1428.68608,1060.13291 1422.45155,1060.72725 1417.15034,1063.46909 C1411.84912,1066.21092 1439.44407,1077.3016 1444.73906,1074.57099 C1443.46353,1069.18264 1439.78628,1064.60731 1434.23618,1062.37572 Z" id="Shape"></path>
                    <path d="M1290.09304,1067.02589 C1295.87528,1068.91314 1302.15675,1067.96952 1307.33233,1064.96102 C1312.50791,1061.95251 1283.72942,1052.58287 1278.56016,1055.58582 C1280.24111,1060.83127 1284.30448,1065.14419 1290.09304,1067.02589 Z" id="Shape"></path>
                    <path d="M1476.37579,1199.53598 C1481.81946,1197.24732 1485.37262,1192.67552 1486.53032,1187.374 C1487.68803,1182.07248 1460.61133,1193.45499 1459.43516,1198.75098 C1464.74335,1201.34369 1470.93213,1201.81359 1476.37579,1199.53598 Z" id="Shape"></path>
                </g>
            </g>
        </g>
    </g>
</svg>