
<svg width="16px" height="16px" viewBox="0 0 16 16" version="1.1" xmlns="http://www.w3.org/2000/svg" xmlns:xlink="http://www.w3.org/1999/xlink">
    <!-- Generator: Sketch 50 (54983) - http://www.bohemiancoding.com/sketch -->
    <desc>Created with Sketch.</desc>
    <defs></defs>
    <g id="Public" stroke="none" stroke-width="1" fill="none" fill-rule="evenodd">
        <g id="Public/Homepage-Copy" transform="translate(-739.000000, -6280.000000)" fill="#E4F0E5">
            <g id="Stacked-Group" transform="translate(0.000000, -208.000000)">
                <g id="Footer" transform="translate(0.000000, 6164.000000)">
                    <g id="Instagram" transform="translate(739.000000, 324.000000)">
                        <path d="M14.4857971,11.4685217 C14.4857971,13.1568696 13.1171401,14.5254493 11.428715,14.5254493 L4.52622222,14.5254493 C2.83802899,14.5254493 1.46929469,13.1568696 1.46929469,11.4685217 L1.46929469,4.56602899 C1.46929469,2.87744928 2.83802899,1.50910145 4.52622222,1.50910145 L11.428715,1.50910145 C13.1171401,1.50910145 14.4857971,2.87744928 14.4857971,4.56602899 L14.4857971,11.4685217 Z M11.3499517,0 L4.6051401,0 C2.06168116,0 0,2.06183575 0,4.60521739 L0,11.3499517 C0,13.8935652 2.06168116,15.9552464 4.6051401,15.9552464 L11.3499517,15.9552464 C13.893256,15.9552464 15.9551691,13.8935652 15.9551691,11.3499517 L15.9551691,4.60521739 C15.9551691,2.06183575 13.893256,0 11.3499517,0 Z M8.00463768,10.7654493 C6.52251208,10.7654493 5.32104348,9.56398068 5.32104348,8.08177778 C5.32104348,6.59965217 6.52251208,5.39841546 8.00463768,5.39841546 C9.48676329,5.39841546 10.6881546,6.59965217 10.6881546,8.08177778 C10.6881546,9.56398068 9.48676329,10.7654493 8.00463768,10.7654493 M8.00463768,3.94202899 C10.2910145,3.94202899 12.1445411,5.79524638 12.1445411,8.08177778 C12.1445411,10.3681546 10.2910145,12.2217585 8.00463768,12.2217585 C5.71826087,12.2217585 3.8647343,10.3681546 3.8647343,8.08177778 C3.8647343,5.79524638 5.71826087,3.94202899 8.00463768,3.94202899 Z M12.2493527,2.7826087 C12.7820676,2.7826087 13.213913,3.21445411 13.213913,3.74701449 C13.213913,4.27957488 12.7820676,4.7112657 12.2493527,4.7112657 C11.7167923,4.7112657 11.2850242,4.27957488 11.2850242,3.74701449 C11.2850242,3.21445411 11.7167923,2.7826087 12.2493527,2.7826087 Z" id="Fill-12"></path>
                    </g>
                </g>
            </g>
        </g>
    </g>
</svg>


