
<svg width="14px" height="12px" viewBox="0 0 14 12" version="1.1" xmlns="http://www.w3.org/2000/svg" xmlns:xlink="http://www.w3.org/1999/xlink">
    <!-- Generator: Sketch 50 (54983) - http://www.bohemiancoding.com/sketch -->
    <desc>Created with Sketch.</desc>
    <defs></defs>
    <g id="Public" stroke="none" stroke-width="1" fill="none" fill-rule="evenodd">
        <g id="Public/Homepage-Copy" transform="translate(-740.000000, -6217.000000)" fill="#E4F0E5">
            <g id="Stacked-Group" transform="translate(0.000000, -208.000000)">
                <g id="Footer" transform="translate(0.000000, 6164.000000)">
                    <path d="M752.567209,263.988714 C752.572287,264.118791 752.575189,264.249633 752.575189,264.381241 C752.575189,268.384557 749.686392,273 744.403565,273 C742.781428,273 741.271738,272.49882 740,271.639546 C740.224894,271.667092 740.453415,271.68163 740.685563,271.68163 C742.031299,271.68163 743.269665,271.197284 744.252669,270.384684 C742.99544,270.360199 741.934812,269.484091 741.569904,268.280495 C741.74474,268.316457 741.924655,268.335586 742.109649,268.335586 C742.371541,268.335586 742.625453,268.298093 742.866307,268.229229 C741.552492,267.950711 740.56296,266.726455 740.56296,265.258879 L740.56296,265.220621 C740.950358,265.447108 741.39289,265.583307 741.863716,265.599375 C741.093274,265.056112 740.586175,264.128738 740.586175,263.078174 C740.586175,262.522668 740.72764,262.002359 740.975023,261.554741 C742.391854,263.387298 744.508032,264.593955 746.894808,264.720207 C746.846202,264.49831 746.82081,264.267232 746.82081,264.029267 C746.82081,262.356628 748.106332,261 749.692922,261 C750.519225,261 751.265727,261.368042 751.789512,261.957215 C752.44388,261.821016 753.058348,261.569279 753.613328,261.221896 C753.399316,261.928904 752.943725,262.522668 752.350295,262.897596 C752.931392,262.824906 753.484921,262.661927 754,262.420902 C753.614779,263.028438 753.127993,263.561755 752.567209,263.988714" id="Twitter"></path>
                </g>
            </g>
        </g>
    </g>
</svg>